<svg xmlns="http://www.w3.org/2000/svg" viewBox="0 0 95 68.29"><defs><style>.cls-1{fill:#fff;}</style></defs><g id="Capa_2" data-name="Capa 2"><g id="Layer_1" data-name="Layer 1"><path class="cls-1" d="M93,49H45.15L86.3,38.1c2-.66,7.2-2.2,7.2-7.72v-15C93.5,11,90.36,7,85.88,7H21.44L20.13,1.54A2,2,0,0,0,18.19,0H2A2,2,0,0,0,2,4H16.61L27.93,51.46A2,2,0,0,0,29.88,53h6.26a10.24,10.24,0,0,0-2.4,6.26,8.93,8.93,0,1,0,17.86,0A10.09,10.09,0,0,0,49.21,53H73.14a10.24,10.24,0,0,0-2.4,6.26,8.93,8.93,0,1,0,17.86,0A10.09,10.09,0,0,0,86.21,53H93a2,2,0,0,0,0-4ZM42.67,64.38a4.93,4.93,0,1,1,4.93-4.93A4.94,4.94,0,0,1,42.67,64.38Zm37,0a4.93,4.93,0,1,1,4.93-4.93A4.94,4.94,0,0,1,79.67,64.38ZM22.39,11H85.88c2.23,0,3.62,2.21,3.62,4.38v15c0,1.56-.54,2.85-4.33,4.07L31.23,48.75Z"/></g></g></svg>