<svg xmlns="http://www.w3.org/2000/svg" viewBox="0 0 884.69 252.14"><defs><style>.cls-1{fill:#020202;}.cls-2{fill:#030203;}.cls-3{fill:#030303;}.cls-4{fill:#fff;}.cls-5{fill:#973fe0;}.cls-6{fill:#40464d;}.cls-7{fill:#3ec8ff;}.cls-8{fill:#42c6fc;}.cls-9{fill:#44c1f1;}.cls-10{fill:#3fc7fd;}.cls-11{fill:#050505;}.cls-12{fill:#9940e2;}.cls-13{fill:#9643d5;}.cls-14{fill:#18111e;}.cls-15{fill:#140f18;}.cls-16{fill:#19151b;}.cls-17{fill:#494348;}.cls-18{fill:#ecc0ec;}.cls-19{fill:#9a43de;}.cls-20{fill:#e3b8e2;}.cls-21{fill:#f4cdf3;}.cls-22{fill:#f0c6f0;}.cls-23{fill:#9d45de;}.cls-24{fill:#9e4dd0;}.cls-25{fill:#9941d1;}.cls-26{fill:#a24ae1;}.cls-27{fill:#1a131f;}.cls-28{fill:#251f29;}.cls-29{fill:#9a44de;}.cls-30{fill:#a149e1;}.cls-31{fill:#b693b6;}.cls-32{fill:#9c48d4;}</style></defs><g id="Capa_2" data-name="Capa 2"><g id="Capa_1-2" data-name="Capa 1"><path class="cls-1" d="M714,135.81c-.59-.15-1.31.08-1.81-.6,0-1.9-.07-3.82-1.53-5.38s-3.36-1.79-5.2-2.09c-1.5-8.1-6.26-13.21-13.71-15.92.47-5.7-1.5-9.93-6-11.86-5.66-2.45-10.53-1-14.38,3.8-2.44-2.21-3.48-2.65-5.51-2.37a7.77,7.77,0,0,0-3.76,1.72c-1.36-.72-1.73-2.47-3.2-3.09-.89-.37-1.74-.89-2.65-1.2a16.24,16.24,0,0,0-12.62.93,13.36,13.36,0,0,0-7.52,14.77c.1.52.37,1,.13,1.57-5.26,2.2-6.09,4.43-3.76,10.2-.38.81-1.22,1.18-1.84,1.76a24.77,24.77,0,0,0-6.91,10.44,20.44,20.44,0,0,1-4.82,6.82,9.38,9.38,0,0,0-3.68,4.43,10.6,10.6,0,0,0,1.21,9.92c.42.6,1.14,1,1.28,2a6.64,6.64,0,0,0-2.16,5.44,8.19,8.19,0,0,0,2.6,5.28c-2.68,2.46-3.85,4-4.67,6.33a11.24,11.24,0,0,0,.13,7.63,7.62,7.62,0,0,0,4.52,4.79,9.45,9.45,0,0,1,1.07.64c-1.36,5.35-.66,6.45,5.23,8.19-.13,1.33-.26,2.69-.43,4.5-2.56-3.46-4.94-6.55-8.47-8.4a15.45,15.45,0,0,0-11.5-1.47c-1.68-5.17-3.47-6.59-8.39-6.76a7,7,0,0,1-.19-.91c-.51-4.19-3-6.68-7.11-7.1a7.74,7.74,0,0,0-5.84,1.37.64.64,0,0,1-1-.29c-.33-.68-.53-1.42-.85-2.1-2.91-6.22-7.66-10.07-14.52-11.17a5.28,5.28,0,0,1-.91-.29,17.39,17.39,0,0,0,0-2.29,2.3,2.3,0,0,1,1.13-2.4,12.09,12.09,0,0,0,4.25-6.74,22.77,22.77,0,0,0,.41-3c.5-.47.94-.22,1.35-.21a8.19,8.19,0,0,0,8.45-10c-.21-1-.5-2.09-.78-3.28a5.94,5.94,0,0,0,3-3.14,2,2,0,0,1,2.08-1.63c3-.22,5.23-1.86,7.14-4.05,2-2.34,3.57-4.91,3.43-8.16a1.32,1.32,0,0,1,1-1.44,19.28,19.28,0,0,0,2.71-1.06,11,11,0,0,0,6.25-9.57c.31-5.06-2.79-9.39-7.85-9.71a8.24,8.24,0,0,1-.94-.19c-.1-.46-.2-.88-.28-1.3-.46-2.34-2-3.46-4.27-3.77-3.64-.5-6,.65-7.66,4a1.87,1.87,0,0,1-2.14,1.35c-3.75-.22-6.37,1.65-8.19,4.79-.37.65-.63,1.37-.94,2-8.63,0-13.16,6.59-10.6,14.71-3.57,2-4.87,3.25-3.76,7.85-.41.08-.82.15-1.23.25-2.57.62-3.7,2-3.77,4.52a9.07,9.07,0,0,0,1.14,4.66c.3.56.94.95.85,1.7a2.09,2.09,0,0,1-1.86.29,3.5,3.5,0,0,1-.22-.86c-.07-2.16-.93-3.74-3.1-4.42-.72-.22-.65-.74-.47-1.28a8.66,8.66,0,0,0,.48-4.47,2.89,2.89,0,0,1,.59-2.68,5.58,5.58,0,0,0,1.41-4.52c-.21-1.2.41-1.66,1.18-2.34,3.52-3.07,4.17-7,2-11.12a11.56,11.56,0,0,0-2.33-2.67c.6-.91,1.17-1.68,1.66-2.49,3.78-6.29,4-14.4-1.7-20.41a7.56,7.56,0,0,1-2-4.21,1.87,1.87,0,0,1,.58-2,15.41,15.41,0,0,0,3-3.82,7.89,7.89,0,0,0,.87-6.23,9.06,9.06,0,0,0-3.87-5.36c.74-.61,1.32-1.07,1.87-1.56a10.66,10.66,0,0,0,2.7-4c1.6-3.88.19-7.09-3.69-8.64-.78-.31-1.75-.15-2.37-1a11,11,0,0,0,.83-4.08A4.72,4.72,0,0,0,548,38.56c-.68-.24-1.57.14-2.06-.66-.15-1-.25-1.94-.47-2.88a17.11,17.11,0,0,0-3.29-7.33c-4-4.79-9.27-6.5-15.3-6.34a10.51,10.51,0,0,0-5,1.45,21.56,21.56,0,0,0-11.23,16.89,10.22,10.22,0,0,0,2.31,8.2c.39.46,1.12.68,1.1,1.54-.59.54-1.26,1.08-1.86,1.68a6.67,6.67,0,0,0-2,4.65c-.09,3.16,1.53,5.28,4.12,6.84.7.43,1.79.24,2.1,1.41-.16.43-.36.93-.55,1.43a6.13,6.13,0,0,0,.51,5.89,2.4,2.4,0,0,1,.26,2.65,26.51,26.51,0,0,0-2.39,8.71c-.38,5.43-.3,10.83,1.66,16a1.89,1.89,0,0,1-.28,2.08,10.63,10.63,0,0,0-2,4.72,38.84,38.84,0,0,0-.7,9.68c.25,4.31,1.24,8.34,4.41,11.55a2.52,2.52,0,0,1,.3.67,17.68,17.68,0,0,0-1.77,1.7,3.25,3.25,0,0,0,0,4.44c.43.58,1.35.77,1.38,1.81a5.69,5.69,0,0,0-1.69,6.39,7.42,7.42,0,0,0,2.56,3.67c.74.59,1.54,1.1,2.34,1.67a24.15,24.15,0,0,0-3.09,6.52c-1,3.65-1.22,7.26.49,10.76a1.56,1.56,0,0,1-.23,1.76c-3.34,5.34-3,10.27.91,15.25.2.26.38.53.59.83-2.15,2.91-1.7,5.89-.12,8.84a7.48,7.48,0,0,0,1.41,1.77,1.6,1.6,0,0,1,.49,1.72,20.81,20.81,0,0,0,.27,9.58c-5.55,4.64-5.45,10.9.24,16.43a20.17,20.17,0,0,0-1.08,2.65,3.14,3.14,0,0,0,.69,2.74,17.14,17.14,0,0,0,2,1.93,13.72,13.72,0,0,1-.85,1.11,6.41,6.41,0,0,0-1.57,5.41A12,12,0,0,0,525.3,243a15.6,15.6,0,0,0,10.37,3,2.71,2.71,0,0,0,.63-.13,17.18,17.18,0,0,0,7-3.93c2.56-2.53,3.72-5.54,2.29-9.12a1.16,1.16,0,0,1,.46-1.64c1.92-1.21,2.27-3,2-5.11a2.72,2.72,0,0,0-.17-.62.86.86,0,0,1,.52-1.28,17.75,17.75,0,0,0,1.77-.81,7.12,7.12,0,0,0,3.3-8.64,8.28,8.28,0,0,0-3.2-4.74,2,2,0,0,1-1-2.41,10.83,10.83,0,0,0-2.28-9.43c-.1-.12,0-.38,0-.7,2.83-1.44,3.61-4,3.48-7a4.48,4.48,0,0,0-.16-1c-.27-.86.25-1.15.92-1.36.4-.13.79-.28,1.35-.48,0,.7,0,1.22,0,1.75a6.29,6.29,0,0,0,2.16,5.19c2.26,2.15,4.7,3.45,7.9,2.3a.89.89,0,0,1,1.13.36,6.69,6.69,0,0,0,3.74,2.94.89.89,0,0,1,.65,1.26c-1,2.29-.21,4.5.37,6.66A8.24,8.24,0,0,0,577,214.3c.43,0,.86-.1,1.29-.08s1-.48,1.46,0c.09,5.26.93,7.26,4.32,10.35a10.73,10.73,0,0,0,15.16-.54c.75-.78.75-.78,2.08-.13,2.39,1.18,4,.85,5.72-1.19a9.79,9.79,0,0,0,.72-1.14,26.56,26.56,0,0,0,5,1.41,10.13,10.13,0,0,0,8.64-2.73,12.42,12.42,0,0,0,3.6-6.4c.12-.53.19-1.07.34-1.58s-.17-1.05.62-1.32c2.91,5.37,7.17,8.57,13.47,8.33.38,5.78,6.52,7.74,12,4.32,1.62,2.81,4.19,4.55,7,5.94a12.77,12.77,0,0,0,6.9,1.45,9.78,9.78,0,0,0,7.37-4.21c.32-.45.58-.93,1.23-.83a6.2,6.2,0,0,0,2.57-.1c.81-.23,1.23-1.18,2.1-1.23,4.35,4,8.72,2.62,11.9-3.68,5.9,1.24,8-1.28,10.56-5.36,4.71.26,8.61-1.23,10.51-5.86,1.82-4.44,1.09-8.47-2.89-11.47.32-1,1.16-1.46,1.34-2.37a5,5,0,0,0,0-2.56c-.24-.77-.52-1.52-.79-2.3l1.75-.45a9.14,9.14,0,0,0,6.52-9.39,11.62,11.62,0,0,0-2.9-7.4c-.85-.92-1.09-1.46-.47-2.7,1.6-3.2,1.69-6.45-.68-9.45a3.26,3.26,0,0,1-.37-.87c.27-.25.5-.48.75-.68a8.2,8.2,0,0,0,3.33-7.67,2.06,2.06,0,0,1,.87-1.91C722.36,146.5,721.92,137.76,714,135.81Zm-37.82,55.07a3.54,3.54,0,0,1-2.54.19c-.56-.21-1.07-.55-1.65-.71s-1-.2-1.53-.32c-1-.24-2-.75-3-1.07a6.67,6.67,0,0,0-3.38-.07c-1.66.33-3.71,0-4.51-1.69-.4-.84-.59-2-1.49-2.43a9.91,9.91,0,0,0-3.11-.59c-.55-.08-.47-.78-.06-1a11.16,11.16,0,0,1,2.8-.9l.21,0a.86.86,0,0,1,.21-.07l.14,0s0,0,0,0a3.42,3.42,0,0,1,.88-.37c.27-.09.54-.18.82-.25l.28-.07.31-.11a1.94,1.94,0,0,1,.72,0,1.34,1.34,0,0,1,.27.07.42.42,0,0,1,.16,0s0,0,.07,0l.19,0a.47.47,0,0,1,.25.14.38.38,0,0,1,.16.23,3,3,0,0,1,.05.94,3.36,3.36,0,0,0,1,1.28.52.52,0,0,1,.14.29l0,0a8.92,8.92,0,0,0,3.55,1.41c1.34.29,2.72.35,4.08.51a6.92,6.92,0,0,0,2.26.15c.5-.13.75-.65,1-1.07.31-.57,1.21-.12.9.45-.6,1.08.54,2.19,1.06,3.07C676.81,189.55,677,190.51,676.14,190.88Zm3.66-42.21c0,.73-.72,1.17-1.31,1.42a11.47,11.47,0,0,1-1.41.43,3.67,3.67,0,0,1-.87.74,9.41,9.41,0,0,0-1.16,1,7.26,7.26,0,0,1-1,.75.86.86,0,0,1-.11.28.59.59,0,0,1-.3.26h0a.47.47,0,0,1-.25.2,4.12,4.12,0,0,1-1.8.33c-.11,0-.21,0-.32,0l-.18.05a15,15,0,0,0-3,.57.64.64,0,0,1-.27.11l-.15,0-.43.15a.41.41,0,0,1-.29,0l-.18,0c-.18.06-.36.11-.54.19-1.81.77-3.18,2.54-5.3,1.88-.66,0-1.32-.16-2-.21s-1.18.08-1.57-.36-.14-1.08.15-1.52c.41-.62.92-1.19,1.37-1.78l.14-.18a12.55,12.55,0,0,0,.49-1.42c0-.21,0-.42,0-.63,0,0,0,0,0-.07s0-.08,0-.12c0-.22,0-.45,0-.67v0a.43.43,0,0,1,.07-.54,2.15,2.15,0,0,1,1.17-.54,6.25,6.25,0,0,1,1.57-.66,27.68,27.68,0,0,0,3.86-1.27,16.21,16.21,0,0,1,1.6-1.27.87.87,0,0,1,.17-.22,12.68,12.68,0,0,0,1.87-1.79c.09-.15.18-.31.28-.45s.34-.51.52-.77l.36-.67a14.37,14.37,0,0,0,.74-1.53.4.4,0,0,1,.26-.23l0,0a.51.51,0,0,1,.7,0,1,1,0,0,1,.16.19.4.4,0,0,1,.27.12c.16.15.31.31.47.45a1.64,1.64,0,0,0,.25.21l0,0s0,0,0,0l.14.09q.42.26.84.54l.33.13a.5.5,0,0,1,.16.11l.22.09a.51.51,0,0,1,.16.13,3.92,3.92,0,0,1,1.4.15l.5.15h.22a.54.54,0,0,1,.43.22l.32.13a1.94,1.94,0,0,1,1,1,2.59,2.59,0,0,1,.18.91,2.39,2.39,0,0,1,.14.88.54.54,0,0,1-.16.35,9.58,9.58,0,0,1,.18,2.25A.51.51,0,0,1,679.8,148.67Z"/><path class="cls-1" d="M418.72,160.38a9.13,9.13,0,0,0-3.43-8.32c-.53-.46-1.42-.49-1.67-1.29a1.85,1.85,0,0,1,.17-.32,8.26,8.26,0,0,0,2-6,7.34,7.34,0,0,0-3.06-5.83c-.54-.37-.43-.85-.19-1.41a2.44,2.44,0,0,0-.94-3.13c-.33-.26-.65-.53-1-.78,5.36-10.65-2.43-19.07-11.5-19.14-.1-.19-.29-.36-.3-.55a4.21,4.21,0,0,0-3.44-4.16,1.28,1.28,0,0,1-1-1.45,6.71,6.71,0,0,0-1.52-4.18,9.54,9.54,0,0,0-7.2-3.86,15.09,15.09,0,0,0-10.15,2.45,24.36,24.36,0,0,0-4.8-2.15,9.68,9.68,0,0,0-10.49,3.26c-.51.69-.71,1.69-1.34,2.17a8.39,8.39,0,0,1-2.46.67,7,7,0,0,0-1.77.79,2,2,0,0,1-2.08,0,6.58,6.58,0,0,0-8.16,2.78c-.34.52-.27,1.29-1,1.6-1.1-.47-2.2-.9-3.27-1.42a7.37,7.37,0,0,0-2.84-.59,9.54,9.54,0,0,0-7.31,3,24.64,24.64,0,0,0-7.68,13.27,15.34,15.34,0,0,0,5.13,15.5c.46.41,1.11.64,1.26,1.35-3.91,4.08-4.71,9.32-.85,14.44-.75.73-1.57,1.42-2.27,2.21s-1.41,1.84-2.3,3c-.39-2.76-.85-5.16-2.4-7.19a13.67,13.67,0,0,0-5.84-4.3c7.11-10.44,1-24.57-13.22-23.15.21-.95.42-1.88.62-2.81a7,7,0,0,0-.3-3.84,9.5,9.5,0,0,0-11-6.44,15,15,0,0,0-11.65,12,14.16,14.16,0,0,0,1.07,7.67,16.73,16.73,0,0,0-4.76,2.25,4.26,4.26,0,0,0-1.44,1.42,9.53,9.53,0,0,0,.6-2.26,32.41,32.41,0,0,0,.18-3.54,4.22,4.22,0,0,0-5-4.13,5.53,5.53,0,0,0-1.53.47,1.33,1.33,0,0,1-1.92-.5c-.39-.64-1.37-.71-1.51-1.64a18,18,0,0,0,2.46-4.47A7.88,7.88,0,0,0,260.11,111a10.2,10.2,0,0,0-9.78,5.66c-.3.56-.53,1.16-.82,1.81a6,6,0,0,1-.86-.52c-2.76-2.35-5.75-2.1-8.75-.64a24.89,24.89,0,0,0-3.18,2.18c-.78.23-1.11,1-1.65,1.47a4.24,4.24,0,0,0,.85-2.32c.21-.72.44-1.44.64-2.17a10.81,10.81,0,0,0,.1-5.15,7.09,7.09,0,0,0-9.86-4.92l-1.5.7a24.59,24.59,0,0,0-1.26-3c-1.64-2.8-3.85-5-7.24-5.41a10.38,10.38,0,0,0-6.84,1.5,17,17,0,0,0-7.09,8.61c-1.66,4.23-.11,10.26,4.3,12.8l1.37.78c-1.67,3.19-1.67,3.19-.72,6.2a13.09,13.09,0,0,0-7.3,7.35,14.7,14.7,0,0,0-.32,10.17c1.06,3.76,4.1,5.66,7.27,7.42a8.27,8.27,0,0,1-.57.93c-4.61,5.93-4.36,11.25.86,16.81A1.41,1.41,0,0,1,208,173a13.08,13.08,0,0,0-.9,6.36,3.82,3.82,0,0,1-.55,2.45,6.68,6.68,0,0,0-.38,6.23c.16.39.45.75.05,1.31-2.6,1.64-4.76,3.77-5.55,7.07-.83,3.45.64,6,2.94,8.33-3.06,2.33-3.38,3.4-4.19,5.07-3.24,6.69,1.18,14.53,7.33,15.65a37,37,0,0,0,4.15.68c4.76.33,8.43-1.45,10.78-5.7.35-.62.43-1.48,1.36-1.74.36.11.77.27,1.19.38,4.28,1.15,7.62-1.73,7.05-6.1-.07-.53-.31-1-.43-1.56a1,1,0,0,1,.37-1.15,6.91,6.91,0,0,0,1.24-1c2.16-2.56,3.59-5.4,3.13-8.88s-1.89-6.41-5.23-8.07c-.18-.08-.29-.3-.43-.46,1.9-4.85,1.89-6.34-.07-10.13,3.26-4.51,4.19-8.55.4-12.52a16.21,16.21,0,0,0,2.72-4.73c.55-1.78.17-3.63.5-5.46l4.12.37a11.94,11.94,0,0,0,1.52,3.53c.87,1.12,2.19,1.6,3.29,2.41-5.12,5-4.78,10-.42,13.72-.06.6-.53.94-.91,1.3a10.64,10.64,0,0,0-2.93,6.37,7.66,7.66,0,0,0,3.25,7.94c.52.37,1.07.7,1.77,1.16-.39,1.05-1.19,2.16-.58,3.3a1.48,1.48,0,0,1-.32,2c-2,2-2,4.45-1.56,7a8.58,8.58,0,0,0,1.82,3.38,9.11,9.11,0,0,0-2,6.43c.23,2.59,1.9,4.26,3.72,5.8a12.67,12.67,0,0,0-1.4,3.73,7.16,7.16,0,0,0,0,2.57,8,8,0,0,0,10.34,6.14,14.34,14.34,0,0,0,6-3.78c.84-.84,1.57-1.79,2.39-2.65a.87.87,0,0,1,1.16-.21,9.85,9.85,0,0,0,1.43.77,8.23,8.23,0,0,0,8.57-1.13,26.39,26.39,0,0,0,2.88-2.62c4.93-5.14,5.12-11.53.27-17.18-.49-.57-1.19-1-1.39-1.75,3.85-4.59,3.79-7.81-.28-13.34.15-.36.3-.76.5-1.14.71-1.38,1.23-2.78.54-4.34-.27-.6.14-1,.48-1.42a9.53,9.53,0,0,0,1.84-3.4c.58-2.17.29-3.8-1.17-6.56.21-.17.45-.38.71-.56a12.05,12.05,0,0,0,5.26-7.87.49.49,0,0,1,.13-.29c.15-.12.33-.3.5-.29.38,0,.45.34.43.67a.85.85,0,0,1,0,.32,6,6,0,0,0-.21,4.1c.41,1.67,1.71,2.33,3.12,3-.3.65-.56,1.13-.73,1.63-1,2.92-1.28,5.73,1.32,8.06.54.49.16.94,0,1.44a1.61,1.61,0,0,0,.9,2.15c.48.22,1,.32,1.21.8-.58,1.24-1.13,2.41-1.7,3.57a17.23,17.23,0,0,0-1.34,9.2c.21,2.51,1.18,4.6,3.62,5.74a2.45,2.45,0,0,1,.59.26c.32.28.69.59.38,1.08a3.53,3.53,0,0,0-.58,1.82c0,.65.64,1.14.33,1.87-.44.23-.9.51-1.38.73-2.87,1.32-4.09,3.73-4.4,6.7-.35,3.29.78,4.89,4.07,6,.18.06.31.27.49.44-.31,1.32-.8,2.7.18,4a1.09,1.09,0,0,1,0,1.22c-.27.58-.63,1.13-.87,1.73a7.63,7.63,0,0,0,2.11,9.13,8.42,8.42,0,0,0,5,2.13c6.14.52,11.6-1,15.91-5.62a1.84,1.84,0,0,1,1.94-.69c2.62.52,3.83-.34,4.15-3a2.16,2.16,0,0,1,1.12-1.76,11.91,11.91,0,0,0,4.67-6.81c1.49-4.84-.33-8.2-5.24-9.59-1.08-.31-1.41-.9-.9-1.91.38-.76,1-1.39,1.42-2.14,2.36-4.36,2.86-8.76.32-13.26-.53-.94-1.89-1.52-1.71-2.62a9.09,9.09,0,0,1,1.59-2.75c2.88-4.67,3-11.83-1.32-16.27a1.3,1.3,0,0,1-.39-1.71c.65-1.24-.49-2.69.07-3.71s2-1.53,2.76-2.66c.51-.82,1-1.69,1.53-2.48.33-.46.16-1.29,1-1.42,2.23,7,1.94,7.8,7.78,11.88a11.15,11.15,0,0,0-2.2,4.92,6.61,6.61,0,0,0,1.78,6c2.74,2.7,2.73,2.7,3.71,6.07a3.6,3.6,0,0,0,.29.93,3.41,3.41,0,0,1,.25,3.1,7.28,7.28,0,0,0,.11,4.16,9.23,9.23,0,0,0,4.55,5.89c0,.57,0,1,0,1.43s-.1.87-.11,1.3c-.15,7.07,3.06,12.22,9.16,15.6a14.9,14.9,0,0,0,11,1.49c1.45-.33,1.51-.28,2.2,1a12.35,12.35,0,0,0,4.86,5.09,9.39,9.39,0,0,0,11.65-1.38c.61-.57.89-1.52,2-1.75,1.68,1.86,4,2.38,6.39,2.59,3.71.34,7.24-1.21,8.82-5.19.44-1.09.45-2.5,1.16-3.3s2.19-.88,3.14-1.54a3.24,3.24,0,0,1,3.29-.5c3.62,1.22,6.82.21,9.63-2.21a10.92,10.92,0,0,0,3.74-8,13.25,13.25,0,0,0-3.37-10c3.37-1.8,5.17-4.43,5.27-8.13a9.61,9.61,0,0,0-4.62-8.63c1.32-3.36,1.48-3.54,1.16-5.79A2.84,2.84,0,0,1,415,180c3.65-3.67,3.93-8.5.87-12.65-.36-.49-1-.79-1-1.58.58-.46,1.21-.89,1.76-1.41A6.41,6.41,0,0,0,418.72,160.38ZM271.9,143.15c.45-1.17,1.07-2.28,1.63-3.4A9.48,9.48,0,0,1,271.9,143.15Zm111,24.15a5.07,5.07,0,0,1-2.3,3,3.75,3.75,0,0,1-1.63.57,6.19,6.19,0,0,1-4.61,5.62,5.61,5.61,0,0,1-1.44.2v.22a7.2,7.2,0,0,1-.09,1.68c-.06.42-.12.84-.17,1.26l0,.13a9.71,9.71,0,0,1-.41,1l0,.07-.09.2a.76.76,0,0,0-.08.11v0c-.09.21-.1.18-.46.65l-.39.51h0l-1,.79-1.2.5-1.33.18-1.33-.18-1.19-.5h0l-1-.78a5.05,5.05,0,0,1-1.29-2.21l-.18-1.33c0-.13,0-.25,0-.38a4.84,4.84,0,0,1-.44-1.24c-.05-.08-.08-.17-.12-.25a3.89,3.89,0,0,1-.49-1.12l0-.17v0c-.06-.43-.12-.85-.17-1.28a4.28,4.28,0,0,1-.19-1.33,22.92,22.92,0,0,1,.35-3.41s0,0-.05,0a2.29,2.29,0,0,1-.06-2.13,3.25,3.25,0,0,0-.48-1,28.54,28.54,0,0,0-2.28-1.95.53.53,0,0,1-.14-.49,1.08,1.08,0,0,1-.18,0H358a.5.5,0,0,1,.07-1h.48a1.73,1.73,0,0,0,.31-.07,3,3,0,0,1,.48-1.9,7,7,0,0,0,1.21-2,11.4,11.4,0,0,0,.34-2.17c.09-.74.15-1.49.24-2.23a.84.84,0,0,1,.6-.82,6.46,6.46,0,0,1,2.1.1,10.67,10.67,0,0,0,2.26,0,4.24,4.24,0,0,0,2.36-1.1,2.38,2.38,0,0,1,1.16-.77,1,1,0,0,1,1,.68c.12.26.12.41.41.53s.52.15.76.26c.43.2.75.51,1.15.71a3.85,3.85,0,0,1,1.18.21,10.54,10.54,0,0,0,1.13-.08,19.07,19.07,0,0,0,2.14-.34c.43-.11,1.06-.36,1.49-.15s.53.83.5,1.29a18.3,18.3,0,0,1-.18,2,.49.49,0,0,1-.81.26,5.62,5.62,0,0,1,.55,3.47l.45.06a4.93,4.93,0,0,1,3,2.3A5,5,0,0,1,382.87,167.3Z"/><path class="cls-1" d="M427,224.36c-.71-.52-1.27-.87-1.75-1.29-3.31-2.88-4-6.25-1.47-10.77a7.5,7.5,0,0,1,2.81-3.09,2.19,2.19,0,0,0,1.24-2.37,7.87,7.87,0,0,1,0-1c.09-1,.51-2,.21-2.85s-1.32-1.34-2-2c-2.83-2.83-4-8.92-1.79-13a43,43,0,0,1,2.84-4.29c-8.51-6.34-6.2-15.49.53-19.8a25.26,25.26,0,0,1-2.45-5.9,26.38,26.38,0,0,1,0-12.21,2.73,2.73,0,0,0-.61-2.92c-4.41-4.72-4.19-9.88.58-14.56a3.65,3.65,0,0,1,.87-.56c-.09-1.34-.83-1.91-1.23-2.65a13.94,13.94,0,0,1,2.14-16.52c3-3.07,6.71-3.8,10.73-3.33a6.7,6.7,0,0,1,4.26,2.78,16.64,16.64,0,0,1,3.83,10.13c0,1.06,0,2.13,0,3.11.63.43,1.13.11,1.63,0a5.23,5.23,0,0,1,5.52,1.84,10.36,10.36,0,0,1,2.31,4.59,1,1,0,0,0,1.38.92c.94-.15,1.89-.2,2.83-.3.46-.89.05-1.75.06-2.58a6.42,6.42,0,0,1,1.51-4.17,14.5,14.5,0,0,1,7-4.53,5.86,5.86,0,0,1,4.7.6,20,20,0,0,1,3.56,2.84,12.22,12.22,0,0,1,5.94-2.61c4-.51,7.15,1.2,9.65,4.18a5,5,0,0,1,1.07,3.35c0,1.36.65,1.78,1.88,2.08a18.26,18.26,0,0,1,7.11,3.78c3.69,3,5.24,7,5.84,11.56a5.25,5.25,0,0,1-.47,3.17,3.44,3.44,0,0,0,0,3.87,5.79,5.79,0,0,1,.53,3.79,1.7,1.7,0,0,0,.77,1.62,14.22,14.22,0,0,1,4,17.77c-.55,1.15-1.21,2.24-1.83,3.37.38.83,1.26,1.14,1.86,1.75,3.11,3.15,4.19,6.73,2.48,11-.85,2.12-1.75,4.21-3.66,5.63-.82.6-.67,1.2-.29,1.95a20.78,20.78,0,0,1,1,2.38c2.15,5.93,1.51,11.46-2.39,16.52-.12.16-.2.37-.42.76.81,1.34,2.22,2.46,2.67,4.18a9.52,9.52,0,0,1-.06,4.8,8.23,8.23,0,0,1-2.81,4.49c1,.87,1.84,1.53,2.59,2.29a11.59,11.59,0,0,1,.61,15.63,9.2,9.2,0,0,1-10.62,2.46c-.89-.38-1.71-.91-2.71-1.45-.64-.05-.83.71-1.25,1.15a7,7,0,0,1-2.37,1.67c-3,1.28-5.5.48-7.22-2.29-.22-.36-.43-.73-.69-1.17-1.22.56-2.35,1.14-3.53,1.62a12.44,12.44,0,0,1-7.32.6c-5.1-1-7.37-5.13-7.77-9.19a12.29,12.29,0,0,1,1.56-6.87,21.52,21.52,0,0,1,7.34-8.08c.63-.42,1.31-.77,1.92-1.2.24-.17.47-.51.12-.79a3.65,3.65,0,0,1-1.49-4c.1-.37-.21-.56-.48-.74-3-2.05-3.8-5.09-3.72-8.5a9.26,9.26,0,0,1,3.18-6.53c1-1,1-1.07.08-2.22-1.39-1.67-1.05-3.43-.31-5.17a9.92,9.92,0,0,1,1.3-1.84c-2.89-3.45-3.43-7.44,1.4-13.39.11-.24,0-.39-.19-.55-2.37-1.71-2.57-4.09-2-6.68a21,21,0,0,1,2.09-4.73c-4.57-1.84-5.83-4.05-5-8.8.12-.74.29-1.48.46-2.35-1-.51-2.3.09-3.36-.51a5.4,5.4,0,0,1-2.15-3c-1.85,1.17-3.37,2.54-5.52,2.69s-3.9-.94-5.56-2.19c-.79.66-.53,1.49-.75,2.15-.27.82-.5,1.66-.81,2.46s-.68,1.36-.94,2.06a1,1,0,0,0,.2.86c.28.31.71.48,1,.77a6.61,6.61,0,0,1,1.3,8.8,13.09,13.09,0,0,1-2.47,2.86,4.71,4.71,0,0,1,2.71,4.42,5.45,5.45,0,0,1-2.17,4.83,1.73,1.73,0,0,0-.8,1.91,21.41,21.41,0,0,1,.07,6.14,2.32,2.32,0,0,0,.88,2.24,16.49,16.49,0,0,1,5.16,9.53c1,6.36-.71,11.77-6.16,15.66-.26.18-.5.39-.94.73.22,1,1.24,1.65,1.31,2.76a5.85,5.85,0,0,1-.6,3.13c-.53,1-1.6,1.34-2.49,2.21a10.57,10.57,0,0,1,2.32,7.9,10.9,10.9,0,0,1-6.58,9.34,5.63,5.63,0,0,1-5.86-.63,4.53,4.53,0,0,0-3.59-1c-1.35.23-2.51-.71-3.78-.68s-2.27.6-3.5.53a8.39,8.39,0,0,1-7.25-4.18c-2.51-4.22-3-9.65.84-14.54C425.89,225.42,426.37,225,427,224.36Z"/><path class="cls-2" d="M164.59,148.25c3.38,0,3.51.11,5.18,3.21.71.37,1.21-.24,1.78-.42,7.53-2.33,14.92,2.53,16,9.09.57,3.56.47,6.87-1.66,10.11,1.3.81,2.65,1.53,3.12,3.08s-.34,2.74-.69,4.06c.27.59.88.57,1.35.78,4,1.8,6.09,5,6.77,9.25a14.85,14.85,0,0,1-.89,8.29c-1.36,3.17-3.62,5.3-7.24,5.77a14.21,14.21,0,0,1-7.73-.66c-.91,1.28-1.61,2.67-3,3.43-.71.39-.69,1-.58,1.66a13,13,0,0,1-2.22,9.25,12.55,12.55,0,0,1-9.59,5.95,10.49,10.49,0,0,1-6.76-1.84c-.81-.5-1.56-1.11-2.32-1.66-.86.62-.84,1.57-1.26,2.29a6.78,6.78,0,0,1-5.15,3.53c-4.93.69-8.31-1.35-10.09-6.09-.15-.41-.32-.8-.56-1.4-.75.4-1.46.78-2.17,1.14a10.14,10.14,0,0,1-4.32,1.21,6.55,6.55,0,0,1-6.34-4.21c-.39-1-.6-2-.94-3.2-5.67,2.73-10.65,1.49-14.75-2.87s-3.62-9.2-1.32-14.26c-1.15-.29-2.3-.55-3.42-.87a8.91,8.91,0,0,1-6.27-6.05c-1.48-4.43-1-8.52,2.25-12.07l2.24-2.37c-.53-.71-1.08-1.37-1.54-2.08a9.9,9.9,0,0,1-1.64-4.53,9.45,9.45,0,0,1,12.6-9.92,5,5,0,0,1,.88.41c.7.37,1.18.13,1.64-.47a12.34,12.34,0,0,1,2.85-2.64,11.81,11.81,0,0,1,16,2.42,13.53,13.53,0,0,1,3,8.08c0,.63-.21,1.29.2,1.86,4.48-.29,5.17.08,6.79,3.68,1.14-.19,2.28-.45,3.43-.55s2.15,0,3.39,0c.18-1.63-.1-3.23.57-5-2.34-.1-4.48-.17-6.43-1.23a13.09,13.09,0,0,1-4.84-4.68c-1.18-1.88-1.38-4-1.8-6.1-.84-.38-1.52.13-2.25.13-2.45,0-3.61-.86-4.12-3.23-.1-.51-.12-1-.2-1.78-1.56,0-3,.71-4.46.59a12.24,12.24,0,0,1-4.37-1.1,16.46,16.46,0,0,1-3.54-2.28,11.78,11.78,0,0,1-2.89-3.47c-2.77-5.31-2.6-10.38,1.31-15-.32-1-1.26-.89-1.84-1.27A4.47,4.47,0,0,1,115,118a7.93,7.93,0,0,1,1.09-1.6,15.62,15.62,0,0,1,1.44-1.26c-.71-.56-1.31-1-1.88-1.51a17.12,17.12,0,0,1-4-5,10.79,10.79,0,0,1-.68-8.79,23.61,23.61,0,0,1,3.48-6.56,12.49,12.49,0,0,1,7.7-4.45c.94-.21,1.92-.26,3-.4.29-.88.55-1.81.89-2.7a11.07,11.07,0,0,1,4.11-5.31,5.86,5.86,0,0,1,4-1.16,1.65,1.65,0,0,0,1.62-.8c4.73-6.19,16.77-8.33,22.91,2.26.38.66.68,1.35,1,2,1,0,1.13-.91,1.6-1.44,3.61-4.09,8.89-4,12.29.31a19.89,19.89,0,0,1,3,5.36c.29.77.19,1.77,1.12,2.26.72-.41,1.43-.87,2.18-1.22,1.58-.74,4.06.43,3.61,2.67-.08.42-.12.86-.18,1.29.76.73,1.66.26,2.47.26a9,9,0,0,1,7.73,4,16.06,16.06,0,0,1,2.6,6.59,19.29,19.29,0,0,1-.41,9.63,13.46,13.46,0,0,1-7,8.12c-1.8.93-3.75.92-5.68,1-.27,1,.37,1.71.65,2.49a11,11,0,0,1-3.75,12.77,13,13,0,0,1-12.27,2.22A10.51,10.51,0,0,1,159.92,129c0-.65,0-1.3,0-2.22-1.74.48-3.22,1.4-4.95,1.31s-3.46,0-5.13-1.17c-.41,1.15-.7,2.15-1.14,3.1a5.11,5.11,0,0,1-2.4,2.07c.11.2.16.45.32.57a11.8,11.8,0,0,1,4.42,6.24,1,1,0,0,0,1.47.7,9.49,9.49,0,0,1,6.68,0c3.52,1.09,5.26,3.46,5.4,7.19C164.6,147.18,164.59,147.61,164.59,148.25Z"/><path class="cls-3" d="M714.5,122.53c-5.48-1-7.47-4.72-6.41-10.52-.08-.07-.16-.2-.25-.2-5.4-.26-8.45-3.46-10.05-8.26A24.5,24.5,0,0,1,697,90.73a11.9,11.9,0,0,1,10.55-9.57c4.52-.53,8.84,0,12.41,2.91,1-.28.92-1.08,1.33-1.56,1.79-2.07,4.43-2.08,6,.19.59.83,1,1.29,2,.87,2.67-1.09,5.15-.39,7.37,1.13a17.2,17.2,0,0,1,6.74,8.9,10.12,10.12,0,0,1,.1,5.77c-.18.72-.46,1.41-.69,2.08,3.25,2,3.25,2,4.77,4.79a23.83,23.83,0,0,1,2.39-.78,6.83,6.83,0,0,1,7.92,4.13,8.5,8.5,0,0,1,.33,6c-.17.5-.34,1-.54,1.6,3.18.83,4.33,3.1,4.46,6.05a4.65,4.65,0,0,0,1,.18c1.37-.09,1.44-.11,1.4-1.38a4.4,4.4,0,0,1,2.36-4.29c.36-.2.72-.42,1.09-.64-4.44-4.63-2.68-10.9,2.74-13.65-.68-.6-1.34-1.13-1.93-1.73A14.92,14.92,0,0,1,765.63,97a12.6,12.6,0,0,1,3.6-14.38c.76-.62,1.1-1,.8-2.08-.45-1.6-.23-1.74,1.58-3.69A10.22,10.22,0,0,1,769,68.75a15.84,15.84,0,0,1,3.28-8.34c2.45-3.14,7.47-4.35,11.22-3,.49.18,1,.42,1.4.61,3-3.73,6.17-5,9.57-3.93a9.41,9.41,0,0,1,4.62,3.43,6.77,6.77,0,0,1,1.2,5.18,14,14,0,0,1,8,6.06,10.34,10.34,0,0,1,1.1,9,7.93,7.93,0,0,1-2.61,3.63c-.57.49-1.15,1-1,1.87.44,2.65-.4,5.14-1.11,7.83,2.54,1.46,4.22,3.52,4.09,6.7s-2,4.89-4.46,6.32a7.69,7.69,0,0,1,1.11,4.76,7.6,7.6,0,0,1-1.08,3c-1.37,2.23-1.33,2.22-.87,5a16,16,0,0,1-.65,7.69,18,18,0,0,1-2.91,5.76c-1,1.24-1.78,2.17-.54,3.83a3.21,3.21,0,0,1-.3,3.68c-.28.41-.94.7-.62,1.34a5.08,5.08,0,0,0,.82,1,10.59,10.59,0,0,1,2.87,7.37,9.62,9.62,0,0,1-5.56,9.18c-2.41,1.2-4.88,2.33-7.79,2.3-.26,1.37-.13,2.7-.84,3.85a9.18,9.18,0,0,1-3,2.6c2,3,3.08,6,1.44,9.41a9.51,9.51,0,0,1-7.48,5.57,7.58,7.58,0,0,1-2.12,5c-.47.44-.35.94-.2,1.49,1,3.83-.35,7-2.73,9.88a10.59,10.59,0,0,1-6.69,3.77,9.29,9.29,0,0,1-1.61,5.26c-1,1.46-2,2.83-3.87,3.25a2.1,2.1,0,0,0-1.42,1.21,14.67,14.67,0,0,1-6,6.2c-.7.37-.76.91-.87,1.58-.34,2-1.39,3.4-3.59,3.51a1.35,1.35,0,0,0-1.27.78c-1.57,3.09-4.27,4.46-7.53,5-4.36.69-7.65-1.75-8.26-6.14-.06-.42-.11-.83-.17-1.3-.69-.19-1.31-.36-1.92-.55a9.78,9.78,0,0,1-6.32-5.65c-1.86-4.1,0-7.83,3-10,.78-.57,1.66-1,2.62-1.56a9.59,9.59,0,0,1,7.21-14.71c.63-.51.09-1.2.27-1.79.27-.88.68-1.72,1.6-1.85a1.82,1.82,0,0,0,1.83-1.7c.47-2.19,2.15-3.19,4.31-3.2a2,2,0,0,0,2.11-1.1,5.24,5.24,0,0,1,.78-1c.63-.74,1.54-1.36,1.86-2.2s-.69-1.7-.95-2.62a7.83,7.83,0,0,1,3.95-9.08c1-.57,2.14-1,3.18-1.41a3.16,3.16,0,0,0,0-.72c-.82-3.34.39-5.93,2.93-8,.33-.27.66-.56,1-.82s.22-.53,0-.77-.55-.44-.86-.26c-.55.33-1.06.73-1.58,1.11a6.73,6.73,0,0,1-4.28,1.24,6.57,6.57,0,0,1-6.42-5c-.2-.71-.3-1.45-.49-2.37-2.07.21-3.55-.83-4.94-2.22-4.61,2.62-9.36,3.83-14,.33a13.59,13.59,0,0,1-5.68-12.72h-1.94a5.1,5.1,0,0,1-4.82-3.24A8.84,8.84,0,0,1,714.5,122.53Z"/><path class="cls-4" d="M547.86,185.88a22,22,0,0,1,.88,4.43c.09,2.66-.58,4.86-3,6.38-1.1.7-1.12,1.07-.35,2.09a11.33,11.33,0,0,1,2.22,5,8.28,8.28,0,0,1-1.52,6.72c-.45.6-.88,1.22-1.31,1.83-.16.23-.12.45.13.53a.79.79,0,0,0,.58,0,5.81,5.81,0,0,0,1-.77c.63-.57,1.23-1.18,1.92-1.85a7.9,7.9,0,0,1,3.46,5.31,5.41,5.41,0,0,1-2.37,5.92,11.56,11.56,0,0,1-2,1.09c-.78.33-1.76.42-2.06,1.35s.64,1.29.92,2a3,3,0,0,1-1.3,3.91c-.76.51-2.07.28-2.32,1.46-.2,1,.85,1.43,1.16,2.22a5.47,5.47,0,0,1,.17,3.5c-.48,1.68-1.18,3.25-2.9,4.07a10.06,10.06,0,0,1-11.42-9.94A51.71,51.71,0,0,0,528.41,220c-.84-3.7-2.33-6.65.3-10.11.66-.87-.24-2.28-.74-3.37-2.11-4.61-3.14-9.24-.32-14,.16-.28.39-.66.3-.91-1.31-3.92-.38-8.26-1.87-12s-1.73-4.6.88-7.55c3-3.43,3-3.41.36-7.09-3.25-4.55-2.93-9.43-.72-14.16,1.48-3.18,1-5.7.17-9.1-1.07-4.14-2.37-8.47-2.59-12.87a9.56,9.56,0,0,0-.58-3.79c-2.88-6-2.16-12,.4-17.88a7.47,7.47,0,0,0,.23-6.24c-3.65-9-4.35-18-.77-27.18.83-2.11.58-4.24.58-6.46,0-3.78-1.27-6.82-2.53-10.09a7,7,0,0,1,.09-5.11c.91-2.25.12-3.69-1.66-5-3.9-2.81-4.68-6.6-3.08-10.93,1.82-5,4.42-9.39,9.12-12.23h0c1.51-.64,3-.35,4.58-.16,7,1.16,11.58,5.49,13,12.26a13.28,13.28,0,0,1-.25,5.78c-.23.94-.49,1.88-.72,2.82-.14.54-.25,1.14.46,1.32s.91-.45,1.13-.9a16.63,16.63,0,0,0,.72-1.81c.15-.4.24-.82.39-1.23.22-.59.06-1.45.71-1.73.89-.38,1.69.22,2.37.73,2.06,1.58,1.71,5.43-.64,7-.61.42-1.34.66-2,1.06a.57.57,0,0,0-.21.83.77.77,0,0,0,.79.42,18.13,18.13,0,0,1,3.82-.62,5.5,5.5,0,0,1,3.64,1.12c1.77,1.46,2.54,3.1,1.5,5.42a10.76,10.76,0,0,1-4.64,5.23c-.56.32-1.16.56-1.71.9s-.3,1.14.19,1.35.81.28,1.22.41A6,6,0,0,1,554,72.49a11.66,11.66,0,0,1-2.82,3.92,1.14,1.14,0,0,1-1.7.1,1.23,1.23,0,0,0-.53-.34,1.57,1.57,0,0,0-.89.06c-.35.17-.25.55-.16.86a1.72,1.72,0,0,0,.33.55A7.81,7.81,0,0,1,549.61,85c-.16.6-.49,1.47.14,1.77,1,.49,1.07-.7,1.49-1.23a4,4,0,0,1,.42-.4,13.78,13.78,0,0,1,3.88,14.46,14.78,14.78,0,0,1-3.87,7c-.95.88-.74,1.46.52,2.19a6.47,6.47,0,0,1,.92,10.82,19.89,19.89,0,0,1-1.9,1.23c-.86.56-.9.58-.21,1.74a1.63,1.63,0,0,1,.22,1.21,8,8,0,0,1-1.81,3.89c-1.1-.39-2-1.29-3.19-1.4a3.9,3.9,0,0,0-1-.05c-.17,0-.33.23-.46.39a.32.32,0,0,0,.1.54c.74.43,1.51.83,2.22,1.32a4.57,4.57,0,0,1,2,5.36c-.28,1-.7,2-1,3.07a.67.67,0,0,0,.64.91c1,0,2-.28,2.69.64a4.85,4.85,0,0,1,.8,3.69c-.11,1.07-.25,2.14-.38,3.22,0,2.17-1,4-2,5.84-.19.38-.26.69-.09.3a2.16,2.16,0,0,0,.24,0c2.42-3.55,4.69-7.22,9.07-8.68.22-1.05-.65-1.52-1.18-2.17a8.26,8.26,0,0,1-2.19-4.61,9.26,9.26,0,0,1,0-1.29,2.38,2.38,0,0,1,2.41-2.5c1.22-.14,2.79,1,3.58-.3.68-1.12-.92-2-1.25-3.14a3.28,3.28,0,0,1,.85-3.56,6.69,6.69,0,0,1,2.51-1.41c1.72-.58,1.88-.86.79-2.5-2.84-4.27.75-11.31,6.53-11.77,1.56-.13,1.86.08,2.12,1.63a7.24,7.24,0,0,0,.66,2.5c.2.35.27.94.81.85s.35-.63.31-1a20.14,20.14,0,0,1-.25-2.89c.19-3.53,1.73-6.15,5.1-7.6a7.14,7.14,0,0,1,3.8-.49c.86.1,1.7.34,2.55.47.28,0,.65.08.72-.38a.74.74,0,0,0-.43-.78l-1.49-.86c1.34-2.65,3.3-4,6.25-3.71,2.11.21,3.53,1.28,3.32,3.52a3.5,3.5,0,0,0,0,1,.83.83,0,0,0,.89.74c.21,0,.43,0,.64,0,4.89-.06,8.16,3.4,7.7,8.24a8.73,8.73,0,0,1-5.31,7.57c-.59.28-1.23.44-1.8.73-1.08.53-1.86.36-2.38-.78a.66.66,0,0,0-.52-.24c-.43,0-.44.39-.41.7.11,1.18.29,2.36.34,3.54.27,5.43-5.14,11-10.33,10.89-1.4,0-2.8-.11-4.2-.18a.4.4,0,0,0-.47.3.35.35,0,0,0,.21.52l2.68,1.23c-.69,1.44-1.43,2.44-3,2.77-1.2.25-1.39.84-.73,1.85a8,8,0,0,1,1.28,4.93,7.19,7.19,0,0,1-5.46,6.5,2.66,2.66,0,0,1-1.89-.22,16.41,16.41,0,0,0-1.78-.76.71.71,0,0,0-1,.59c-.08.74,0,1.51,0,2.26a12.29,12.29,0,0,1-4.31,8.93c-1.12-.28-1.54-1.13-2.23-1.63a10.45,10.45,0,0,0-5-2.12.7.7,0,0,0-.53.26.55.55,0,0,0,.1.52c1.33.93,2.71,1.78,4,2.74a4.84,4.84,0,0,1,2.15,4.14c0,1.32-.2,1.72-1.47,2.12a8.18,8.18,0,0,0-3.44,1.73c-.3.29-.67.6-.57,1.09,0,.18.26.5.32.48a11.92,11.92,0,0,0,1.51-.56c3.61-1.71,7.17-1.3,10.63.37a17.25,17.25,0,0,1,8.63,9.29c.25.6.45,1.22.66,1.83,1,2.88,1,2.89,3.51.86,2.18-1.79,4.57-1.78,7-.75s3.21,2.62,3,5.16c0,.11,0,.22,0,.32,0,1-1,2.2.21,3,1,.65,1.85-.36,2.65-.77,2.34-1.2,6,1.76,5.79,4.4-.08.92-.73,2,.29,2.69.86.61,1.66-.15,2.45-.37,5-1.38,9.21.17,12.94,3.31a14.43,14.43,0,0,1,5.13,9.48l.09.41a6.92,6.92,0,0,1,0,3c-.41.13,0,.66-.37.79l0,0c-3,4.15-7.23,4.49-11.78,3.94-2-.24-4-1-5.78.69l0-.05c-.67.82-1.24,2.09-2.53,1.55-2.11-.9-4-.13-6,.32A8.89,8.89,0,0,1,585,211.83c-.2-2.34-1.21-3.16-3.38-3.4-2.72-.3-5.32-1.06-7.07-3.46a6.32,6.32,0,0,1-1.16-4.91c.29-1.85-.37-2.93-2.3-3.13-2.32-.23-4.28-.85-4.35-3.76a1.32,1.32,0,0,0-1.32-1.23c-4.44-.16-6.16-3.65-8-6.74-1.33-2.2-2.37-3.9-5.1-1.9a2.09,2.09,0,0,1-1.89.09C547.86,182.52,547.65,184,547.86,185.88Z"/><path class="cls-4" d="M713.83,137.52a7.82,7.82,0,0,0-2.2-.5c-1.46-.14-1.49-.22-1.4-1.5a8.05,8.05,0,0,0,.13-1.28c-.18-2.06-.85-3.77-3-4.53-1.26-.44-1.22-.51-2.27,1a.93.93,0,0,1-.54.24c-.25.06-.36-.1-.36-.39s0-.43-.07-.64a18.72,18.72,0,0,0-15.21-16.74c-.52-.11-1-.28-1.53-.44-.07,0-.18-.17-.16-.23a1.13,1.13,0,0,1,.23-.56,1.4,1.4,0,0,1,.59-.23c1.68-.45,2-.79,1.9-2.27a5.31,5.31,0,0,0-.27-1.6c-1.94-4.95-5.38-7.54-10.8-6.61a8,8,0,0,0-5.77,3.77c-.23.36-.41.76-.65,1.12a.94.94,0,0,1-1.61.11c-.42-.5-.74-1.07-1.18-1.54a4.07,4.07,0,0,0-4.73-1.1,4.74,4.74,0,0,0-2.44,2c-.71,1-1.17,1-1.89-.05a7.73,7.73,0,0,1-.66-1.11c-1.11-2.39-3.14-3.41-5.59-4a13.1,13.1,0,0,0-6.1.12,15.4,15.4,0,0,0-7.31,16.26c.31,1.51.35,2.69-1.28,3.55-2.76,1.46-3.37,2.72-1.78,5.3,1.47,2.39.71,3.51-1.1,5.08-4.83,4.16-7.92,9.26-6.72,15.93.51,2.85-.21,4.35-2.92,5.52-3.81,1.65-4.3,4-1.94,7.41.81,1.17,1.2,2.13.26,3.49-2.56,3.74-2.37,4.35,1.55,6.7,2.86,1.71,2.95,2.29.7,4.92a11.19,11.19,0,0,0-1.59,2c-1.55,3-3.18,6.27-.91,9.45a57.14,57.14,0,0,0,5.45,5.87,5.63,5.63,0,0,1,1.82,5.1c-.59,8,3.72,13.4,11.73,14.64,2.06.32,3,1.2,3,3.4,0,2.75,1.13,3.53,3.69,2.59,1.78-.66,2.72-.18,3.81,1.23,3.56,4.59,10.87,6.16,15.85,3.25,2.74-1.6,6.2-.64,8.69-2.85.35-.31,1,.05,1.56.21,3.64,1.06,3.86.94,5.22-2.48,1.15-2.94,1.64-3.11,4-1.31,1.37,1,2.75,1.82,4.47,1s2.72-2.14,2.34-4.17c-.29-1.52.64-1.9,1.84-2a29.41,29.41,0,0,1,3.86.43c2.75.16,5.49.27,7.23-2.5a6.47,6.47,0,0,0,.68-3.77,6.77,6.77,0,0,0-2.78-4.92,4,4,0,0,0-4.52-.6.58.58,0,0,1-.78-.31c-.05-.12.17-.4.32-.53a6.53,6.53,0,0,1,3-1.13,3.28,3.28,0,0,0,2-5.29,4.21,4.21,0,0,0-1.94-1.67c-.5-.2-1-.31-1.52-.53s-1.11-.43-1-1.11.84-.5,1.31-.4c.85.16,1.66.47,2.5.65a6.94,6.94,0,0,0,8.13-5.22,11.06,11.06,0,0,0-1.4-8.39,4.59,4.59,0,0,0-3.42-2.21A6.93,6.93,0,0,0,706,174c-.71.34-1.26,0-1.32-.84a13.28,13.28,0,0,0-.49-2.86,3.45,3.45,0,0,0-2.09-2.3c-2.83-1.19-5.1-.47-6.6,2.21a6.23,6.23,0,0,0-.94,4,4.29,4.29,0,0,1,.13,1.27.76.76,0,0,1-1,.62c-.79-.31-1.49-.86-2.29-1.16a3.47,3.47,0,0,0-4.55,3.75c.1.6.57,1.15.29,1.81a.59.59,0,0,1-.76-.18,6.21,6.21,0,0,1-1.07-3c-.14-1-.42-1.13-1.59-1.12a2.87,2.87,0,0,0-.89.31c-4.56,5.18-5.13,9.15-2.13,14.9a1.07,1.07,0,0,1,0,1.2.91.91,0,0,1-.31.09c-2.85-.25-5.17.23-5.53,3.73-.07.6-1.16.65-1.57.07s-.89-1.48-1.41-2.16A7.55,7.55,0,0,0,660.78,193c-.33.27-.6.62-.92.91s-.82,1.26-1.54.9c-1.05-.52-.22-1.28,0-1.89a5.23,5.23,0,0,0-2.21-6.45c-1.15-.69-1.73-.59-2.82.37-.64.57-1.3,1.13-2,1.65a2,2,0,0,1-.87.35.78.78,0,0,1-.58-.2.58.58,0,0,1,0-.53c.62-.75,1.27-1.46,1.9-2.19a4.56,4.56,0,0,0,1.14-2.61c.29-2.84-.44-5.12-3.25-6.37l-.87-.4c.33-2.45,1.78-3.27,3.78-1.76a8.72,8.72,0,0,0,8.57,1.28,2.76,2.76,0,0,1,3.59,1.23c3.07,4.51,7.62,4.63,11.21.47,2.12-2.45,4.35-4.45,7.83-5.33,2.62-.67,5.79-.91,7.8-3.45,4.67-5.89,10.24-6.25,15.74-1,1.6,1.52,3.23,2.12,5.23.88,1.16-2.4.58-4.6-.88-6.64-.43-.6-1.45-.84-1.47-1.64,0-1,1.05-1.24,1.77-1.67l.27-.18a6.35,6.35,0,0,0,1.95-8.59,21.74,21.74,0,0,0-1.45-2.14c-.3-.41-.89-.65-.74-1.31.1-.41,1-.36,1.74.17a8.57,8.57,0,0,1,1.63,1.55c1,1.35,1.55,1.06,2.38-.28C720.15,144.22,718.31,139.26,713.83,137.52Zm-33,11.18a2.61,2.61,0,0,1-1.69,1.07,4.47,4.47,0,0,1-.61.32,11.47,11.47,0,0,1-1.41.43,3.67,3.67,0,0,1-.87.74,9.41,9.41,0,0,0-1.16,1,7.26,7.26,0,0,1-1,.75.86.86,0,0,1-.11.28.59.59,0,0,1-.3.26h0a.47.47,0,0,1-.25.2,4.12,4.12,0,0,1-1.8.33c-.11,0-.21,0-.32,0l-.18.05a15,15,0,0,0-3,.57.64.64,0,0,1-.27.11l-.15,0-.43.15a.41.41,0,0,1-.29,0l-.18,0c-.18.06-.36.11-.54.19-1.81.77-3.19,2.54-5.3,1.88-.45,0-.9-.09-1.34-.14a5.25,5.25,0,0,1-1.58-.11l0,0a1,1,0,0,1-.59-.3c-.41-.46-.14-1.08.15-1.52.41-.62.92-1.19,1.37-1.78l.14-.19c.15-.39.32-.79.44-1.19a2,2,0,0,1,0-.24c0-.2,0-.4,0-.6,0,0,0-.05,0-.08s0-.08,0-.12c0-.22,0-.45,0-.67v0a.43.43,0,0,1,.07-.54,2.15,2.15,0,0,1,1.17-.54,6.25,6.25,0,0,1,1.57-.66,27.68,27.68,0,0,0,3.86-1.27,16.21,16.21,0,0,1,1.6-1.27.87.87,0,0,1,.17-.22,12.68,12.68,0,0,0,1.87-1.79c.09-.15.18-.31.28-.45s.34-.51.52-.77l.36-.67a14.37,14.37,0,0,0,.74-1.53.4.4,0,0,1,.26-.23l0,0a.51.51,0,0,1,.7,0,1,1,0,0,1,.16.19.4.4,0,0,1,.27.12c.16.15.31.31.47.45a1.64,1.64,0,0,0,.25.21l0,0s0,0,0,0l.14.09q.42.26.84.54l.33.13a.5.5,0,0,1,.16.11l.22.09a.44.44,0,0,1,.19.19c.41,0,.83,0,1.24.08l.73.09h0a.42.42,0,0,1,.25.06l.2,0a1.4,1.4,0,0,1,.77.53h0c1.05.36,1.52,1.59,1.78,2.58A4.12,4.12,0,0,1,680.79,148.7Z"/><path class="cls-5" d="M526,24c-.19,1.06-1.12,1.54-1.77,2.23a30.82,30.82,0,0,0-5.11,6.69,18.44,18.44,0,0,0-2,5.79c-.46,2.85.18,5.37,2.65,7.19.87.64,1.76,1.27,2.57,2,1.22,1.08,1.38,1.9.5,3.41a7.23,7.23,0,0,0-.22,6.83,14.73,14.73,0,0,0,1.82,3.05c1.11,1.49,1.32,2.94.19,4.47a1.21,1.21,0,0,0,.21,1.92c1.27,1.08,1.25,2.36.6,3.81s-1.16,3-1.75,4.54c-1.9,4.78-1.82,9.75-1.3,14.72a28.39,28.39,0,0,0,3,10.87,5.26,5.26,0,0,1-.14,5.27,22.57,22.57,0,0,0-2.67,9.61,14.37,14.37,0,0,0,1.89,8.42,4.72,4.72,0,0,1,.51,4.61c-.09.2-.14.41-.21.61a2,2,0,0,0,.74,2.57,5.49,5.49,0,0,1,1.24,1.46,4,4,0,0,1,.47,3.72c-.15.41-.36.79-.5,1.2a2.6,2.6,0,0,0,.6,3c2.75,2.39,2.5,5,.68,7.79-2.13,3.27-2.23,6.95-1.92,10.66a6.61,6.61,0,0,0,2,4c.52.55,1.09,1.06,1.57,1.64a3.17,3.17,0,0,1,.21,4.18,11.07,11.07,0,0,1-1.27,1.47c-.59.63-1.22,1.23-1.79,1.88-1.35,1.54-1.52,2.88-.31,5a14.5,14.5,0,0,0,1.22,1.52,3.13,3.13,0,0,1,.2,3.91c-.39.62-1.12,1.06-1.12,2.05.32.29.74.63,1.12,1,1.65,1.6,1.9,2.79,1,4.94-.21.5-.48,1-.72,1.45a11.21,11.21,0,0,0-.86,8.8,34,34,0,0,0,2,4.79c1.21,2.49,1,3.54-.8,5.55-.21.24-.46.45-.68.69-1.23,1.38-1.23,1.84,0,3.3.29.33.62.61.91.93,1.54,1.7,1.62,2.49.48,4.61-.15.27-.28.56-.48.95,1.93,1.24,2.09,3.07,1.85,5.13a11.12,11.12,0,0,0,.23,4.83,10.67,10.67,0,0,0,7.32,7.21c1,.33,2.1.49,3.15.73-3.8,3.7-8.17,3.34-12.64,1.67a9.71,9.71,0,0,1-6.28-7.31,5.82,5.82,0,0,1,.83-5c.81-1.13,1.67-2.24,2.59-3.47-.54-.68-1.4-.34-2-.68a4.17,4.17,0,0,1-1.55-1.14,2.24,2.24,0,0,1,.49-3.15c1.64-1.42,1.64-1.42,0-2.9a11.18,11.18,0,0,1-3.6-7.42,7.3,7.3,0,0,1,1.26-4.94c.75-1.09,1.41-1.14,2.23-.15a6.52,6.52,0,0,0,.59.77c.59.52,1.15,1.68,2,1.09s-.33-1.32-.6-2c-2-4.95-2.31-9.86.07-14.77.38-.77.74-1.56,1.07-2.36.16-.4.26-.85-.17-1.18-.6-.46-1,0-1.36.35a21.91,21.91,0,0,0-1.4,1.78c-.25.34-.4.78-1.12.91a8,8,0,0,1-1.5-4.63c-.06-1.72.91-2.79,2.1-3.82a.9.9,0,0,0-.19-1.59c-2.35-1-3.35-3.06-3.84-5.31a10.83,10.83,0,0,1,1.11-7.85.9.9,0,0,1,1.36-.37c.92.55,1.74,1.35,2.94,1.17a.85.85,0,0,0,.56-.26.72.72,0,0,0-.07-.6,2.88,2.88,0,0,0-.67-.68c-4.4-3.39-5-7.85-3.52-12.83a14,14,0,0,1,3.58-6.45,2.77,2.77,0,0,0,.67-1.08,1.09,1.09,0,0,0-.51-1.39c-.67-.33-1.45-.45-2.15-.72a5.94,5.94,0,0,1-3.53-3.59,3.21,3.21,0,0,1,1.55-4.39c.55-.34,1.18-.54,1.71-.9a1.29,1.29,0,0,0-.09-2.35c-.47-.24-1-.32-1.51-.56a8.86,8.86,0,0,1-1.65-1,1.18,1.18,0,0,1,.14-1.93c.75-.44,1.56-.75,2.31-1.17a1.25,1.25,0,0,0,.28-1.72,4.11,4.11,0,0,0-.42-.5c-3.48-3.27-4.52-7.52-4.77-12a30.06,30.06,0,0,1,.79-9.35,13.12,13.12,0,0,1,.75-2.13c.29-.63.75-.65,1.26-.16a4,4,0,0,0,1,.71c.1,0,.5-.23.49-.27a17.09,17.09,0,0,0-.64-1.82,37.67,37.67,0,0,1-2.9-16.48,28.59,28.59,0,0,1,3.44-11.73,10.22,10.22,0,0,0,1.39-3.94.64.64,0,0,0-.25-.54,1.7,1.7,0,0,0-.89-.12c-.19,0-.35.23-.53.36-.51.35-.78,1.33-1.45,1.08-1-.36-.66-1.46-.68-2.26a5.62,5.62,0,0,1,.77-2.78,16.6,16.6,0,0,0,.85-1.75,1.3,1.3,0,0,0-.94-1.76c-.62-.19-1.28-.27-1.87-.51a5.77,5.77,0,0,1-1.68-.94c-3.28-2.84-2.15-6.06.1-8.12a25.56,25.56,0,0,1,2.44-1.59,1.37,1.37,0,0,0,.14-2.22,6.55,6.55,0,0,0-1.06-.75,6.9,6.9,0,0,1-3.08-5.45c-.5-4.1.88-7.68,3.13-11A21.93,21.93,0,0,1,522.66,25C523.65,24.36,524.67,23.65,526,24Z"/><path class="cls-5" d="M700.54,209.93a6.41,6.41,0,0,0-1.58-.31,2.22,2.22,0,0,0-2.54,2c-.12.63,0,1.3-.13,1.94a3.29,3.29,0,0,1-5.1,2.44,25.58,25.58,0,0,1-2-1.64c-1.53-1.13-2.91-.72-3.57,1.08-.33.91-.45,1.89-.79,2.8-.62,1.64-1.52,1.95-3,1.11a8.75,8.75,0,0,1-.78-.58,2.38,2.38,0,0,0-3,.07,10.27,10.27,0,0,0-1.24,1,2,2,0,0,1-2.34.66,2.85,2.85,0,0,0-3.06.46c-2.49,2-5.39,2.15-8.33,1.83-3.45-.37-6.47-1.55-8.27-4.9-1-1.93-2-2-4-.9-.38.21-.73.48-1.12.66a1.31,1.31,0,0,1-1.74-.93,4.09,4.09,0,0,1,0-1.26c.39-3.56,0-4.12-3.75-4.27a10.51,10.51,0,0,1-7-3c-3.52-3.32-4.58-7.46-3.83-12.14.11-.63.41-1.24.47-1.88a2.09,2.09,0,0,0-2.05-2.39,5.17,5.17,0,0,0-1.19.12c-.11-.19-.22-.29-.21-.37s.13-.42.15-.63c.15-1.87-.13-2.4-1.62-3.08-.29-.14-.62-.18-.92-.31-2.34-1-3.25-2.28-3-4.75a10.9,10.9,0,0,1,2.95-7c.53-.53,1.09-1,1.58-1.63,1.48-1.72,1.27-3.16-.63-4.25-.65-.37-1.38-.62-2-1a9.72,9.72,0,0,1-1.88-1.24,2,2,0,0,1-.06-2.91c.53-.53,1.23-.88,1.79-1.39a2.1,2.1,0,0,0,.28-2.92c-.53-.68-1.2-1.24-1.77-1.89-1.21-1.36-1.25-2.28-.2-3.75a6,6,0,0,1,2.49-2c.6-.25,1.25-.37,1.84-.63a2.74,2.74,0,0,0,1.94-3.31,9.12,9.12,0,0,0-.27-1.26,13.49,13.49,0,0,1,1.83-10.88c1.62-2.58,3.39-5,6.14-6.55,1.67-.95,1.7-2.25.42-3.77a11.77,11.77,0,0,1-1.46-1.72c-.95-1.7-.21-3.09,1.73-3.42.21,0,.44,0,.65,0a2.27,2.27,0,0,0,1.93-3.1,11.28,11.28,0,0,0-.5-1.2,7.57,7.57,0,0,1-.31-5.06,19.21,19.21,0,0,1,4.85-9c.68-.69,1.29-1.44,1.94-2.17-7,1-11.52,7.19-10.16,13.92.12.64.34,1.26.43,1.9a1.17,1.17,0,0,1-.94,1.46c-.52.13-1.08.12-1.59.28a4.42,4.42,0,0,0-3.25,5,4.12,4.12,0,0,0,.82,2.07,2,2,0,0,0,1.24-.27c.64-.31,1.56-1.06,2-.36.58.88-.7,1-1.18,1.5-.31.3-.69.53-1,.8-3.55,2.92-6.67,6.18-8.47,10.5-1,2.33-1.65,4.69-.76,7.23a1.69,1.69,0,0,1,0,1.56c-.2,0-.48.06-.57,0a1.54,1.54,0,0,0-2.26-.37c-.54.35-1.17.55-1.74.86a8,8,0,0,0-2,12.68c.36.41.76.77,1.1,1.19a1.25,1.25,0,0,1,0,1.76q-.43.48-.9.93a5.23,5.23,0,0,0,.12,7.06,20.27,20.27,0,0,1,1.61,1.6.93.93,0,0,1-.15,1.42c-.57.49-1.25.86-1.82,1.35a10.07,10.07,0,0,0-3.53,9,6.87,6.87,0,0,0,5.48,6.43c.51.14,1.07.12,1.45.77a29.09,29.09,0,0,0-1.28,2.81c-.65,1.85,0,3.09,1.75,3.95a2.9,2.9,0,0,0,3.8-.6c.1-.11.4-.08.59,0s.29.25.16.51A9,9,0,0,0,625.6,202a18.22,18.22,0,0,0,2.78,9.85A11.6,11.6,0,0,0,641.57,217c.59-.14,1.21-.46,1.81,0-.14.63-.7.77-1.15,1-1.19.71-1.56,1.45-1.13,2.57a4.62,4.62,0,0,0,1,1.61,5.76,5.76,0,0,0,7.44.42,8.69,8.69,0,0,0,.7-.66c1.81-1.74,1.84-1.75,2.73.36a6.86,6.86,0,0,0,1.58,2.42,20.42,20.42,0,0,0,5,3.49,11,11,0,0,0,6,1,6.9,6.9,0,0,0,6.48-6.12,2.52,2.52,0,0,1,.09-.63c.08-.18.28-.4.43-.41s.72,0,.86.21c.38.5.59,1.14,1,1.65a1,1,0,0,0,1.43.31,8.66,8.66,0,0,0,1.3-.95c.4-.35.72-.8,1.12-1.15a1.05,1.05,0,0,1,1.64.34c.22.37.34.8.54,1.18a2.55,2.55,0,0,0,2.75,1.3c3.35-.36,5.68-3,5.13-6.2-.14-.85-.35-1.69-.49-2.54a.56.56,0,0,1,.3-.44.69.69,0,0,1,.57.19,2.69,2.69,0,0,1,.7,1.07c.39,2,1.83,2.42,3.6,2.48a6.37,6.37,0,0,0,5.35-2.55c1.12-1.36,1.09-1.94-.08-3.31-.43-.49-1-.92-1-1.62,0-.13.22-.37.36-.4.48-.08.78.29,1.12.55a5.44,5.44,0,0,0,2.84,1.44,8.27,8.27,0,0,0,5-1.11,5.61,5.61,0,0,0,3.1-3.9A9.55,9.55,0,0,1,700.54,209.93Z"/><path class="cls-5" d="M547.86,185.88a4,4,0,0,1-1-2.93,1.35,1.35,0,0,1,1.56-1.27,4.55,4.55,0,0,1,1.46.64,2.55,2.55,0,0,0,3,0c2.78-1.55,3.07-1.51,4.4,1.19a33.08,33.08,0,0,0,4.27,6.08,3.58,3.58,0,0,0,2.78,1.36c2.45.16,2.61.4,3.15,2.81.36,1.65.92,2.2,2.55,2.38.86.1,1.74,0,2.59.11a2.06,2.06,0,0,1,1.85,2.53c0,.21-.13.41-.18.62-.8,3.88,1,6.82,4.85,7.76a32.06,32.06,0,0,0,3.52.5c.43,0,.87,0,1.3.08a2.09,2.09,0,0,1,1.84,2.28c0,.32,0,.64-.06,1a8.34,8.34,0,0,0,10.68,8.31,16.63,16.63,0,0,0,1.81-.72,3.2,3.2,0,0,1,3.38.24,1.59,1.59,0,0,0,2.5-.38c.11-.14.38-.14.58-.21.25.81.51,1.62.76,2.44a1.46,1.46,0,0,1-.8,1.86,2.54,2.54,0,0,1-3-.42c-.6-.58-1-1.39-2-1.66a4.33,4.33,0,0,0-.69,1.05,5.12,5.12,0,0,1-2.85,3.34,9.13,9.13,0,0,1-5.64,1,11.37,11.37,0,0,1-9-9.52,12.26,12.26,0,0,1,.18-2.25c.07-.83.53-1.68,0-2.53-1.16-.21-2,.61-3,.94a6.75,6.75,0,0,1-7.79-3.12c-1.55-2.89-2.14-5.86-.67-9,.14-.29.26-.59.38-.89a1.67,1.67,0,0,0,0-.33c-.33-.63-.88-.43-1.38-.34a2.68,2.68,0,0,1-2.15-.46,4.9,4.9,0,0,1-1.9-2.16c-.4-1,.27-1.87.81-2.67.15-.24.22-.41,0-.52a.76.76,0,0,0-.58-.08,4.07,4.07,0,0,0-1.85,1.75,2.43,2.43,0,0,1-2.21,1.11,7.78,7.78,0,0,1-7-4.85,4.8,4.8,0,0,1,0-2.55c.36-1.47.69-2.94,1-4.41a.65.65,0,0,0-.19-.58.64.64,0,0,0-.85.11,28.34,28.34,0,0,1-1.92,2.17c-1.16,1.08-1.49,1.09-3.11.15C548.67,185.49,548.28,185.35,547.86,185.88Z"/><path class="cls-5" d="M710.94,168.65a3.73,3.73,0,0,1-3.47-1.74c-4.13-5-11.37-3.8-14.62-1a8.49,8.49,0,0,0-1.64,2,16.48,16.48,0,0,0-1,2.14c-2,0-4.09.13-5.68,1.73-.24.25-.82.24-1.23.23a7.63,7.63,0,0,0-5.69,2.66,18.47,18.47,0,0,0-3.1,3.72c-.32.55-.65,1.19-1.29,1.39a8.57,8.57,0,0,1-5.11-.09,3.69,3.69,0,0,1-2.67-2.58,4.08,4.08,0,0,0-.37-.89c-.71-1.36-1.46-1.71-2.89-1.29-.93.27-1.82.7-2.77.89-2.18.42-4.24.35-6-1.34-2.48-2.33-2.54-2.27-4.88.36-.22.24-.54.47-.59.75a.78.78,0,0,0,.84,1c-.08-.58,0-1.19.72-1.11a5.81,5.81,0,0,1,4.59,3.19,14,14,0,0,1,.71,1.8.87.87,0,0,0,1,.56,10,10,0,0,0,4.81-1.76c.42-.34.81-.73,1.24-1.05a.81.81,0,0,1,1.28.42c.15.74.27,1.49.35,2.24a3.55,3.55,0,0,0,1.41,2.46,9.28,9.28,0,0,0,6,2c2.67-.09,3.78-1,4.51-3.64a11.14,11.14,0,0,1,3.92-6.19c1.69-1.29,3.59-2.07,5.74-1.23a1.7,1.7,0,0,0,1.78-.1c1.75-1.16,3.62-1.91,5.83-.94.12-.82.19-1.46.32-2.08,1.09-5.26,5.44-6.65,9.62-5.3a5,5,0,0,1,3.47,3.54A5.55,5.55,0,0,0,707,172a5.79,5.79,0,0,1,3.37-.52c1.1.15,1.57-.51,1.91-1.36a6.28,6.28,0,0,0,.22-1.25A7.33,7.33,0,0,0,710.94,168.65Z"/><path class="cls-5" d="M604.63,218.22c0-1.36.83-1.94,2-2a11.69,11.69,0,0,1,2.56.2c.64.08,1.25.32,1.89.39,3.52.36,6.87,0,9.7-2.44a7.17,7.17,0,0,1,1.4-.74,8.44,8.44,0,0,1-7,7.35,9.57,9.57,0,0,1-7.12-1.23C607,219.05,606,218.16,604.63,218.22Z"/><path class="cls-5" d="M682.85,176.48a4,4,0,0,1-.87,2.37,11.05,11.05,0,0,0-1.78,3.42,8.72,8.72,0,0,0,.41,7.77,5,5,0,0,1,.58,1.48.85.85,0,0,1-.48,1.06c-.27-1.13-1.27-1.69-1.94-2.51-3.38-4.18-1.77-11.18,3.13-13.48A3.59,3.59,0,0,1,682.85,176.48Z"/><path class="cls-5" d="M559.12,142.86a1.09,1.09,0,0,1-.82,1.2,11.49,11.49,0,0,0-5.77,5.27c-.5.81-1,1.6-1.57,2.4a2,2,0,0,1-1.54,1c.23-2.4,1.54-4.25,3.05-6,.21-.49.46-1,.64-1.47.75-2.06,1.08-2.29,3.2-2.26C557.25,143,558.22,143.58,559.12,142.86Z"/><path class="cls-6" d="M552.47,146.73c-.56,2.23-2,4-3.05,6-.28.25-.56.25-.71-.1a.86.86,0,0,1,0-.63q1.56-3.33,3.14-6.66C552.07,145.81,552.27,146.27,552.47,146.73Z"/><path class="cls-7" d="M530.52,23.84l-4.58.16A4.6,4.6,0,0,1,530.52,23.84Z"/><path class="cls-8" d="M622.51,209.88l-.25-.27.16-.15a3.11,3.11,0,0,1,.23.28Z"/><path class="cls-8" d="M622.16,213.64c-.1-.37-.17-.73.38-.79C622.73,213.27,622.61,213.53,622.16,213.64Z"/><path class="cls-4" d="M279,136.94c1.22-.79,2.37-.23,3.55.14.78.24,1.44.07,1.65-.87-2-6.47-.4-12.28,3.24-17.72a9.43,9.43,0,0,1,7.12-1.48,7.29,7.29,0,0,1,5.86,6.47,13.16,13.16,0,0,1-1.08,5c-.26.78-1,1.1-1.59,1.57a12.55,12.55,0,0,0-3.71,4.83,1.24,1.24,0,0,0,.11,1.23c1-.37,1.39-1.34,1.88-2.14,3.83-6.15,13.85-5.71,17.83.68a13.08,13.08,0,0,1-1.24,15.65c-.21.24-.49.42-.73.65a1.13,1.13,0,0,0-.44,1.13c.14.54.61.54,1,.55,3.11.05,5.22,1.75,6.9,4.15a8.71,8.71,0,0,1,1.53,6.46,17.12,17.12,0,0,1-2,6.12,6.33,6.33,0,0,1-4.92,3.29.83.83,0,0,0-.45,1.46c.35.4.82.7,1.15,1.12a2.26,2.26,0,0,1,.13,3c-.7,1-.65,1.13.26,2.06a12.43,12.43,0,0,1,3.63,7.42,11.9,11.9,0,0,1-2.68,8.75c-.39.51-.9.94-1.3,1.44a1.24,1.24,0,0,0,0,1.75c.36.4.76.78,1.1,1.19a11.34,11.34,0,0,1,1.31,12c-.73-.91-.72-2-1.11-2.91-.25-.59-.47-1.2-.76-1.77a.58.58,0,0,0-.51-.2c-.17,0-.41.23-.43.38a4.5,4.5,0,0,0,0,1.27c.14,1.07.3,2.14.49,3.2a16.63,16.63,0,0,1-.88,9.23,1.56,1.56,0,0,0-.17.62.74.74,0,0,0,.21.54.58.58,0,0,0,.83-.19,18,18,0,0,0,1.18-1.92c.39-.77.87-.73,1.58-.46,3,1.11,4.35,3.51,3.44,6.65s-2.28,5.83-5.78,6.85c-1.43.41-1.49,1.1-.49,2.32.07.08.17.13.24.21.19.24.48.53.14.78a1.16,1.16,0,0,1-.88.14c-.89-.22-1.6-1.41-2.63-.73a9.77,9.77,0,0,0-1.71,1.9,11,11,0,0,1-7.07,4.18c-5.64-.44-8.76-5-7-10.41a3.57,3.57,0,0,0-.63-3.67,16.6,16.6,0,0,1-2.54-6.37c-.31-1.9.9-3.48,1.91-5a7.37,7.37,0,0,0-1.27-9.77,4.84,4.84,0,0,1-1.91-3.27c-.28-4.28-.88-8.58,1.47-12.62,1.59-2.74,1.13-4.72-1.14-6.9-2.62-2.54-3.36-5.46-1.8-8.72.83-1.73.84-2.75-1-3.65a2.73,2.73,0,0,1-1.52-2.68c.3-4.56-3.56-5.72-6.29-7.81a2.16,2.16,0,0,0-.59,2.08c1.09,5.65-1.32,9.58-6.06,12.39-1,.59-1.13,1.2-.24,2a4.89,4.89,0,0,1,1.78,3.33,5.51,5.51,0,0,1-.8,3.08c-.87,1.47-1,1.54-3.1,1.47-.38.45-.07.78.2,1.09a3.07,3.07,0,0,1,1.11,2.57,5.6,5.6,0,0,1-1.44,3.19c-.54.53-1.2.94-1.73,1.47a.94.94,0,0,0-.17.85c.11.23.58.52.75.45,2.38-1,3,.67,3.69,2.34a6.57,6.57,0,0,1,.65,4.39,5.64,5.64,0,0,1-1.78,3c-.41.34-.87.64-1.27,1a1.25,1.25,0,0,0,0,2c.64.57,1.36,1.06,2,1.65a10.77,10.77,0,0,1,3.43,7.12,8.77,8.77,0,0,1-1.66,5.8,18.35,18.35,0,0,1-4.3,4.36,6,6,0,0,1-6.71.37,5.49,5.49,0,0,1-1.32-.92c-1-1-1.94-.54-2.83.21-3.9,2.12-7.32.45-7.93-4a7.65,7.65,0,0,0-1.94-4.65,5.82,5.82,0,0,1-1.36-6.3,6,6,0,0,0-.57-5.28,5.4,5.4,0,0,1-.7-5c1.57-3.74.45-7.48-.49-11s-2.16-7-.15-10.61a4.47,4.47,0,0,0-.07-3.78,9.36,9.36,0,0,1,.78-8.41c1.3-2.16,1.53-4.12-.14-6.25a10.13,10.13,0,0,1-2-7,29.18,29.18,0,0,0,0-3.24c-.07-1.27.2-2.86-1.21-3.44s-2.18.75-2.91,1.62c-2.69,3.21-5.9,4.25-9.81,2.55-2.19-1-2.25.7-2.65,2a2.92,2.92,0,0,0,1.13,2.56,2,2,0,0,1,.66,1.41,16,16,0,0,1-.85,6.07,5.64,5.64,0,0,1-2.82,3.41,3.59,3.59,0,0,0-1,.72.76.76,0,0,0,0,1.15c.68.52,1.42,1,2.14,1.42a2.91,2.91,0,0,1,1.41,2.41c.21,2.78-.47,5.11-3,6.7-1.21.76-1.22,1.29,0,2.14a3.69,3.69,0,0,1,1.65,3.61,9,9,0,0,1-1.27,4.63c-1.28,1.86-1.38,2.65,1.34,3.63a7,7,0,0,1,4.41,7.52,10.35,10.35,0,0,1-2.57,5.84,5.75,5.75,0,0,1-2.85,1.42,1.09,1.09,0,0,0-.42,1.63c.27.33.66.56.92.89a3.64,3.64,0,0,1,.52,3.95,2.86,2.86,0,0,1-3.51,1.55,10.27,10.27,0,0,1-1.43-.75c-1.56-.83-1.56-.83-3.2.72a8.53,8.53,0,0,1-11.67,1.29,5.63,5.63,0,0,1-2.19-6.6,23.55,23.55,0,0,1,1.73-4.19,4.16,4.16,0,0,0,.24-4c-2-3.6-.74-6.81,1.46-9.65,1.87-2.41,2.54-4.57,1.65-7.7a14.46,14.46,0,0,1,1.81-11.57c1.8-3,2-5.66-.3-8.65-2-2.58-1.56-5.82-.63-8.74a7.12,7.12,0,0,0-.64-6.17c-3.63-6.33-3.44-12.67.57-18.7,2.87-4.31,2-8.54-.33-12.36-2.62-4.35-3.28-8.55-1.55-13.27a9.28,9.28,0,0,1,5-5.68c2.42-.12,4.13,1.24,5.49,2.95a7.36,7.36,0,0,1,1.69,6.05c-.05.32-.14.63-.18.95-.07.53-.18,1.07.38,1.44s1,0,1.49-.86a18.1,18.1,0,0,1,1.11-2,4.34,4.34,0,0,1,6-1.25,5.52,5.52,0,0,1,3.1,5.3,10,10,0,0,1-2.61,6.81,2.61,2.61,0,0,1-2.29.94,12.55,12.55,0,0,0-1.94-.1c-.42,0-.93,0-1.1.48-.31.88.52.75.93.88a9.51,9.51,0,0,1,6.07,5,3.84,3.84,0,0,0,1,1.2.55.55,0,0,0,.81-.23,3.21,3.21,0,0,0,.16-2.22c-.49-2.29.5-4,2.05-5.49a8.55,8.55,0,0,1,6.73-2.64,4.68,4.68,0,0,1,3.58,2.49c.52.84.53,2.48,1.92,2.17,1.06-.23.67-1.64.8-2.54a8.92,8.92,0,0,1,3.59-5.94,8.1,8.1,0,0,1,9.11-.27,5.37,5.37,0,0,1,2.33,6.21,11.2,11.2,0,0,1-4.81,6.68,19.44,19.44,0,0,0-1.87,1.23.91.91,0,0,0,0,.87.94.94,0,0,0,.78.39,5,5,0,0,0,1.18-.49,9.53,9.53,0,0,1,1.48-.63,1.82,1.82,0,0,1,2.44,1.81,11.46,11.46,0,0,1-.12,1.29c0,.39-.2.83.27,1.12.93,0,1.13-.88,1.71-1.3a5.07,5.07,0,0,1,3-1.06,2.52,2.52,0,0,1,2.89,2.71,11.06,11.06,0,0,1-2.87,7.4c-1.31,1.56-2.86,2.93-4.3,4.39a5.37,5.37,0,0,0-.79,1,.65.65,0,0,0,.06.6.66.66,0,0,0,.55.23c.63-.16,1.23-.42,1.85-.58a6.31,6.31,0,0,1,6,1.42c.32.28.62.59.94.88.47.41.89,1.05,1.62.46s.31-1.17.11-1.78a2.8,2.8,0,0,1-.09-.31C275.53,143.09,276.07,139.69,279,136.94Z"/><path class="cls-4" d="M413,164.85c.57-.49,1.21-.91,1.8-1.37a5.11,5.11,0,0,0,1.86-3.31,6.93,6.93,0,0,0-3.53-7.07c-.86-.45-1.8-.73-2.66-1.18a.65.65,0,0,1-.16-1.08c.55-.52,1.23-.89,1.76-1.41a6.2,6.2,0,0,0-1.63-10,12.46,12.46,0,0,1-1.15-.59.55.55,0,0,1-.12-.84c.35-.4.83-.68,1.21-1a1,1,0,0,0-.08-1.64c-.53-.36-1.14-.61-1.69-.95a1,1,0,0,1-.46-1.36c.18-.38.41-.75.61-1.13,3-5.7,1.42-11.15-4.21-14.32-.47-.27-1-.49-1.45-.72a6,6,0,0,0-4.1-.45c-2,.44-2,.39-2.11-1.8,0-.21,0-.43,0-.64a3.16,3.16,0,0,0-1.17-2.23,2.15,2.15,0,0,0-2.11-.32,1,1,0,0,1-1.3-1,9.4,9.4,0,0,1,0-1.3,5.46,5.46,0,0,0-1.52-3.8,8.35,8.35,0,0,0-4-2.66,10.37,10.37,0,0,0-9.57,1.33,2.59,2.59,0,0,1-3,.32,26.14,26.14,0,0,0-3.57-1.54c-4.2-1.4-7.13-.33-9.72,3.47.26.79,1.19.92,1.56,1.58a1,1,0,0,1,0,.58c0,.06-.19.13-.28.12a7.21,7.21,0,0,1-1.24-.28,6.26,6.26,0,0,0-7.55,2c-.24.28-.4.79-.95.5-.06-.2-.19-.42-.14-.59.2-.79-.05-1.31-.86-1.39a6.11,6.11,0,0,0-4.26,1.24,3.34,3.34,0,0,0-1.41,3.39,1.12,1.12,0,0,1,0,.32c-.13.8-.73,1.09-1.69.81a7.82,7.82,0,0,1-.9-.38c-2.46-.89-3.61.94-4.74,2.45-5.26,7-5,14.75-2.85,22.59.72,2.67.95,5-.24,7.5-1,2.15-1.91,4.61-.73,6.89,1.68,3.27.91,6.16-.31,9.31-1.54,4-1.77,8.15.85,11.79A6,6,0,0,1,336,181c-.82,2.07-.63,4.09,1.36,5.52,1.36,1,1.47,2.25,1.28,3.73-.32,2.4.09,4.52,2.37,5.93,1.53.94,1.18,2.37.76,3.77s-.55,2.83,1.13,3.21c3,.68,3.82,3,4.93,5.44,3.09,6.73,7,12.73,14.94,14.64a5.49,5.49,0,0,1,3.68,2.9c1.19,2.21,3.5,4,5.79,3.62a23.3,23.3,0,0,1,13.28,1.94c3,1.29,6.53-1.64,6.43-4.39a1.87,1.87,0,0,1-.28-.16c-.22-.23-.56-.47-.58-.73s.37-.54.63-.59c.74-.12,1.5-.1,2.25-.18,2.86-.3,5.18-1.45,6.56-4.12a2,2,0,0,1,.62-.69c.09-.06.43.06.52.2s.09.41.11.62c.06.51-.36,1.07.05,1.54a2.77,2.77,0,0,0,1.75.76,7.54,7.54,0,0,0,5.26-1,10.71,10.71,0,0,0,1.74-16.53c-.16-.15-.35-.26-.5-.41a.82.82,0,0,1,0-1.36c.71-.5,1.46-.93,2.17-1.43a6.46,6.46,0,0,0,2.4-2.57c1.28-2.8,1.26-7.26-1.63-9.91-.38-.36-.73-.9-1.29-.8-.37.06-.68.5-1,.76a.66.66,0,0,1-.3.12c-.2,0-.55.05-.59,0a1.25,1.25,0,0,1-.17-.88,16.57,16.57,0,0,1,1-1.65,8,8,0,0,0,.95-6.84c-.28-.92-.65-1.82-1-2.71-.15-.35-.12-.63.17-.8a.84.84,0,0,1,.6,0c.7.28,1,1.19,1.87,1.26A7.68,7.68,0,0,0,415.4,170a8.63,8.63,0,0,0-2.51-3.33C412.13,166,412.18,165.49,413,164.85Zm-30.08,2.45a5.07,5.07,0,0,1-2.3,3,3.75,3.75,0,0,1-1.63.57,6.19,6.19,0,0,1-4.61,5.62,5.61,5.61,0,0,1-1.44.2v.22a7.2,7.2,0,0,1-.09,1.68c-.06.42-.12.84-.17,1.26l0,.13a9.71,9.71,0,0,1-.41,1l0,.07-.09.2a.76.76,0,0,0-.08.11v0c-.09.21-.1.18-.46.65l-.39.51h0l-1,.79-1.2.5-1.33.18-1.33-.18-1.19-.5h0l-1-.78a5.05,5.05,0,0,1-1.29-2.21l-.18-1.33c0-.13,0-.25,0-.38a4.84,4.84,0,0,1-.44-1.24c-.05-.08-.08-.17-.12-.25a3.89,3.89,0,0,1-.49-1.12l0-.17v0c-.06-.43-.12-.85-.17-1.28a4.28,4.28,0,0,1-.19-1.33,22.92,22.92,0,0,1,.35-3.41s0,0-.05,0a2.29,2.29,0,0,1-.06-2.13,3.25,3.25,0,0,0-.48-1,28.54,28.54,0,0,0-2.28-1.95.53.53,0,0,1-.14-.49,1.08,1.08,0,0,1-.18,0H358a.5.5,0,0,1,.07-1h.48a1.73,1.73,0,0,0,.31-.07,3,3,0,0,1,.48-1.9,7,7,0,0,0,1.21-2,11.4,11.4,0,0,0,.34-2.17c.09-.74.15-1.49.24-2.23a.84.84,0,0,1,.6-.82,6.46,6.46,0,0,1,2.1.1,10.67,10.67,0,0,0,2.26,0,4.24,4.24,0,0,0,2.36-1.1,2.38,2.38,0,0,1,1.16-.77,1,1,0,0,1,1,.68c.12.26.12.41.41.53s.52.15.76.26c.43.2.75.51,1.15.71a3.85,3.85,0,0,1,1.18.21,10.54,10.54,0,0,0,1.13-.08,19.07,19.07,0,0,0,2.14-.34c.43-.11,1.06-.36,1.49-.15s.53.83.5,1.29a18.3,18.3,0,0,1-.18,2,.49.49,0,0,1-.81.26,5.62,5.62,0,0,1,.55,3.47l.45.06a4.93,4.93,0,0,1,3,2.3A5,5,0,0,1,382.87,167.3Z"/><path class="cls-5" d="M392,227.28c0,.21.08.47,0,.63a6.09,6.09,0,0,1-8.08,2.55,30.49,30.49,0,0,1-3-1.89,3.56,3.56,0,0,0-4.51-.07,4.47,4.47,0,0,1-4,.7c-2.31-.64-4.59-1.55-5.53-4.06a4,4,0,0,0-2.76-2.5q-1.23-.39-2.49-.69a11.62,11.62,0,0,1-5.61-3.09c-3.56-3.57-6.6-7.47-8-12.41-.66-2.34-1.86-3.86-4.46-3.9a2,2,0,0,1-.64-.12.92.92,0,0,1-.66-1.26c.33-1,.84-2,1.12-3,.37-1.4-.09-2.15-1.47-2.78-2.29-1-2.77-1.83-2.53-4.22a12.66,12.66,0,0,1,.29-1.59c.52-2.4.53-2.4-1.47-3.59-1.59-.95-2-1.65-1.61-3.45a15.09,15.09,0,0,1,.9-3.1,3.13,3.13,0,0,0-.76-4.08,7.31,7.31,0,0,1-2.4-4.49,13.29,13.29,0,0,1,.52-7c.53-1.3,1-2.61,1.63-3.88a4.65,4.65,0,0,0-.16-4.65c-.16-.27-.3-.57-.45-.85a6.21,6.21,0,0,1-.6-4.7,13.35,13.35,0,0,1,1.2-3.68,5.81,5.81,0,0,0,.17-6.43,7.53,7.53,0,0,1-.94-3.07c-.27-3.54-.79-7.05-.26-10.66a18.27,18.27,0,0,1,6-11.18,2.47,2.47,0,0,1,1.79-.55,6.36,6.36,0,0,0-2.75-1.59,7.33,7.33,0,0,0-7.66.85,21.5,21.5,0,0,0-2.48,2.08c-4.76,4.65-6.4,10.41-5.76,16.88a11.25,11.25,0,0,0,4,7.56c1,.84,2,1.61,3,2.42-.16,1.57-1.68,2.13-2.45,3.25-1.49,2.17-2.22,4.42-1.25,7a8.13,8.13,0,0,0,2.88,3.84,1,1,0,0,1,0,1.63c-.51.39-1.08.71-1.6,1.09a10.36,10.36,0,0,0-2.56,2.47c-3.58,5.31-.7,14,5.36,16.21,1.15.41,1.32.87.68,1.9a27.24,27.24,0,0,0-1.76,2.71c-1.33,2.78-1.08,6.06,1.47,7.9a1.1,1.1,0,0,0,1.67-.15c.29-.29.84-.37.93.28a10.94,10.94,0,0,1,0,1.62c0,2.79.52,5.36,2.56,7.45.2.2.23.57.34.87-.25.08-.46.22-.65.19-.95-.14-1.45.21-1.44,1.19A8.51,8.51,0,0,0,339,209c1-.34,1-1.74,2.27-1.76-.28.95-.52,1.76-.75,2.57a13.55,13.55,0,0,0,1.57,11.21,17.53,17.53,0,0,0,7.38,6.64,12.21,12.21,0,0,0,8.19,1.07,17.87,17.87,0,0,0,5.64-2.34c.58-.36,1.05-1.08,2-.8-.54,1.61-2.29,2.05-3,3.55a13.86,13.86,0,0,0,2.89,4.18,8.24,8.24,0,0,0,10.94.57,10.5,10.5,0,0,0,1.48-1.7c1.13-1.46,1.12-1.46,2.75-.29a7.84,7.84,0,0,0,1.33.91c1.88.86,3.8,1.62,5.93,1.22,3.62-.69,5.51-3,6.32-6.46A2.73,2.73,0,0,0,392,227.28Z"/><path class="cls-5" d="M216,101.18c-.79.89-1.63,1.74-2.35,2.68-3.13,4.11-4.2,10.82-.4,15.67.4.51.77,1,1.21,1.52a2.85,2.85,0,0,1,.69,3,2.34,2.34,0,0,0,.29,2.67,2.67,2.67,0,0,1,.08,3.32c-.6,1-1.3,2-1.95,3A16.44,16.44,0,0,0,211.33,147a15.69,15.69,0,0,0,2.56,5.2,3.88,3.88,0,0,1,.52,3.68c-.2.62-.49,1.2-.69,1.82-1.1,3.51-1,6.85,1.71,9.65,1.56,1.57,1.53,3.19.59,5-.75,1.44-1.39,2.93-2.15,4.36-1.5,2.81-1.27,5.86-1.28,8.87a5.1,5.1,0,0,0,.94,2.39,3.32,3.32,0,0,1-.55,4.16,26.59,26.59,0,0,0-1.82,2.27,12.52,12.52,0,0,0-2.09,4.35,4.47,4.47,0,0,0,.63,4.29c1.23,1.47,1,2.91.08,4.48a35.54,35.54,0,0,0-1.84,4.13,5.52,5.52,0,0,0-.43,2.54,4.37,4.37,0,0,0,2.68,4.09c3,1.29,6,1.69,9-.1.55-.34,1.13-.62,1.69-.92A8.39,8.39,0,0,1,219,220.9a8.06,8.06,0,0,1-3.93,2.75,12.34,12.34,0,0,1-12.19-3.21c-4.28-4.93-2.68-9.84.18-13.21a4.28,4.28,0,0,1,2.14-1.4,1.83,1.83,0,0,0,1.36-.86c-.22-1-1.25-1.37-1.87-2.06a6.77,6.77,0,0,1-1.23-7.78,8.54,8.54,0,0,1,3.44-3.77c.66-.37,1.34-.69,2-1.11a1.18,1.18,0,0,0,.29-1.7c-.78-1.05-1.64-2-1.67-3.43,0-.79.1-1,1.22-1.13.32,0,.66-.06.69-.47s0-1.08,0-1.62c0-1.29-.15-2.59-.16-3.88A13.39,13.39,0,0,1,211,171.2c.31-.54,1.13-1.15.71-1.67-.72-.9-1.24.22-1.85.51a1,1,0,0,1-1.39-.4A10.5,10.5,0,0,1,206.72,159a12.23,12.23,0,0,1,2.45-4.16c.44-.48.89-.95,1.28-1.46a1,1,0,0,0-.35-1.38c-.39-.19-.81-.31-1.21-.47-4.4-1.72-6.61-4.92-6.82-9.66a10.94,10.94,0,0,1,2.55-8.11,9.64,9.64,0,0,1,4.14-3,18,18,0,0,0,2.11-.82c1-.49,1.12-1.31.27-2s-1.74-1-1.8-2.14.93-1.86,1.74-2.56a9,9,0,0,0,.75-.6,1,1,0,0,0-.14-1.44c-.64-.38-1.34-.67-2-1-4.72-2.47-6.36-7.32-4-12.07a13.06,13.06,0,0,1,6-6.19A5.9,5.9,0,0,1,216,101.18Z"/><path class="cls-5" d="M229.63,154.58a4.34,4.34,0,0,1-.45-.85c-.22-.82-.64-1.74.08-2.44.91-.88,1.82-.18,2.66.28a8.83,8.83,0,0,0,4.32,1.17,4.51,4.51,0,0,0,3.5-1.39c.82-.87,1.63-1.73,2.44-2.61a16.08,16.08,0,0,1,1.31-1.42,1.8,1.8,0,0,1,2.94.71,5.48,5.48,0,0,1,.51,2.52c0,1.4.05,2.81,0,4.21a11.72,11.72,0,0,0,2.18,7.3c2,3,2.23,2.21.29,6a16.35,16.35,0,0,0-1.53,3.56,6.83,6.83,0,0,0,.57,5,3.94,3.94,0,0,1,0,4.3c-1.81,2.86-1.26,5.79-.24,8.72.25.71.63,1.38.94,2.07a2.6,2.6,0,0,1,.21,2.19,3.52,3.52,0,0,0,.55,3.64,2.7,2.7,0,0,1,0,3.06,12.53,12.53,0,0,0-.65,1.12,4.81,4.81,0,0,0,.23,4.65,12.1,12.1,0,0,0,.92,1.33,3.52,3.52,0,0,1,.44,3.67c-.12.3-.26.59-.37.9-.9,2.37-.6,4.49,1.49,6.09a4.11,4.11,0,0,1,1.63,4,4.5,4.5,0,0,0,1.82,4.26c1.34,1.07,2.75,1.71,4.47.85a3.92,3.92,0,0,1,.94-.18,17.53,17.53,0,0,1-7.31,6.6c-3,1.55-8.47-.81-8.66-5.55a7.58,7.58,0,0,1,.63-3.15c.24-.6.58-1.15.82-1.62-.09-1-1-1.25-1.46-1.77-2.49-2.6-2.83-5.47-1-8.54.28-.46.65-.86,1-1.31.71-1,.76-1.42-.33-2.1-1.52-.93-1.78-2.33-1.87-3.87a4.56,4.56,0,0,1,1.75-4l.77-.59c1.84-1.42,1.84-1.43-.27-2.63-.7-.4-.72-.94,0-1.44,2.4-1.79,2.4-1.79-.26-3.22-4.48-2.42-5.51-7.45-2.36-11.88.75-1,1.74-1.91,2.58-2.89.65-.75.54-1.41-.38-1.78a4.94,4.94,0,0,1-3.11-2.6,6.12,6.12,0,0,1,.44-5.88,10.49,10.49,0,0,1,3.18-3.18,14.55,14.55,0,0,0,1.53-1.15.82.82,0,0,0-.44-1.27c-.54-.06-1.09,0-1.62-.09a6.3,6.3,0,0,1-4.46-2.9c-.8-1.22-.76-1.51.46-2.67a10,10,0,0,0,2.77-3.54c.1-.24-.07-.59-.12-.89a2.89,2.89,0,0,0-.81.3c-.42.34-.77.76-1.17,1.13-2.6,2.41-4.76,2.77-8,1.26a11,11,0,0,1-1.9-1.22A2.2,2.2,0,0,0,229.63,154.58Z"/><path class="cls-5" d="M281.1,162a1,1,0,0,1,1-1,1,1,0,0,1,1,.61,6.71,6.71,0,0,0,4.07,3.9c1.31.55,1.39,1,1.08,2.62a14.36,14.36,0,0,0-.3,1.59,1.9,1.9,0,0,0,1.17,2.07c2.6,1.27,2.76,1.53,1.52,4.11a10.27,10.27,0,0,0-.63,5.38,2.84,2.84,0,0,0,1.69,2.56,2.83,2.83,0,0,1,2,2.67,1.62,1.62,0,0,0,.58,1.1c1.22,1,1,2.08.16,3.1-3.26,4-2.88,8.67-2.57,13.31a4.83,4.83,0,0,0,2.09,3.52,11.42,11.42,0,0,1,1.3.95,3.11,3.11,0,0,1,1.1,3.19c-.16.52-.39,1,0,1.53,1.2,1.58.29,2.9-.68,4.06a14.32,14.32,0,0,0-2.26,3.53c-.82,1.9-.61,2.67,1.13,4.13a1.77,1.77,0,0,1,.67,2.23c-.4,1.13-.3,1.17.75,1.51a4.94,4.94,0,0,1,.92.26,1.33,1.33,0,0,1,.65,1.66,10.88,10.88,0,0,1-.78,1.41c-2,3.84,0,9.44,4.52,10.3a7.84,7.84,0,0,1,1.47.63,10.48,10.48,0,0,1-7.81.73c-4.73-1.21-6.83-6.52-3.61-10.42a11.11,11.11,0,0,0,.79-1,.71.71,0,0,0-.31-1.07c-.27-.18-.59-.27-.86-.45a1.33,1.33,0,0,1-.49-1.72c.41-1,1-1.87,1.44-2.81-.69-.8-1.64-.49-2.44-.69-1.92-.47-2.8-1.45-2.76-3.41a6,6,0,0,1,3.74-5.91c1.19-.5,2.4-1,3.58-1.47.37-.15.35-.8.07-1.11-.62-.71-2-.57-2.09-1.79-.05-1,1.17-1.2,1.52-2,.19-.43.2-.87-.24-1.13-.64-.38-1.33-.7-2-1A5.62,5.62,0,0,1,288,202.8a14.66,14.66,0,0,1,.85-7.64c.7-1.58,1.44-3.13,2.16-4.7.28-.61.57-1.54,0-1.78-1.45-.62-1.76-1.21-.58-2.39.3-.3.09-.82-.34-1.09a.89.89,0,0,0-.3-.11,3.15,3.15,0,0,1-2.7-2,5.43,5.43,0,0,1,0-3.81,9.72,9.72,0,0,1,2.65-4,1.15,1.15,0,0,0,.27-.85c-.06-.6-.59-.51-1-.51s-.64.08-1,.1c-.86,0-1.81.29-2.43-.48-.79-1-1.25-2.36-.63-3.34,1.28-2,.34-2.84-1.24-3.79a3.5,3.5,0,0,1-1.54-2.41A3.37,3.37,0,0,0,281.1,162Z"/><path class="cls-5" d="M287.44,118.49a6.27,6.27,0,0,1-.85,2.41,34.32,34.32,0,0,0-2.52,11.92c0,1.15.81,2.24.13,3.39C279.74,130.16,281.09,122.79,287.44,118.49Z"/><path class="cls-5" d="M279,136.94c-1.76,3.07-2.25,6.49-2.72,9.91-1.93-3.44-1.32-7.26,1.52-9.58A1.5,1.5,0,0,1,279,136.94Z"/><path class="cls-4" d="M437.07,107.71a6.79,6.79,0,0,1,4.16,3.38,14.25,14.25,0,0,1,1.08,13.35,10.69,10.69,0,0,0-1.11,3.37c0,.44.14.9.65,1a1.07,1.07,0,0,0,.86-.26,9.37,9.37,0,0,0,1-1.64,8,8,0,0,1,2.23-2.74,3.79,3.79,0,0,1,5.7.72c1.85,2.79,2.78,5.85,1.59,9.22-.1.31-.21.61-.34.91-.3.67-.86,1.31-.33,2.09.34.47,1.22-.08,1.95-1.21a7.92,7.92,0,0,0,1.22-3.64c.11-1.33.86-1.85,2.13-1.86s2.06.64,3.09.92,1.5-.3,1.31-1.2c-.23-1.05-.58-2.08-.75-3.14a4.75,4.75,0,0,1,1.7-4.65,16.55,16.55,0,0,1,2.9-2.05c2.81-1.4,4.7-1.23,7.48,1a1.08,1.08,0,0,1,.27,1.67,5.82,5.82,0,0,0-1.37,3.57,1.89,1.89,0,0,0,.09.63c.07.17.22.39.37.43a.61.61,0,0,0,.55-.19c.41-.63.73-1.32,1.15-1.94a11.33,11.33,0,0,1,6.53-4.52,7.4,7.4,0,0,1,6.5,1.08c2.24,1.57,3.12,3.53,2.37,6.15a11.09,11.09,0,0,1-2.11,4.35,7.83,7.83,0,0,0-.89,1.32.64.64,0,0,0,.07.6c.23.19.59.45.82.39a5.65,5.65,0,0,0,3.2-2.58,9.34,9.34,0,0,0,.7-1.46c.86-1.89.89-1.89,2.85-1.14a18.44,18.44,0,0,1,6.7,4.47,13.56,13.56,0,0,1,3.73,10.05,4.45,4.45,0,0,1-.14,1c-.21.8-.57,1.38-1.58,1.09a2.36,2.36,0,0,0-1,0,.72.72,0,0,0-.31,1c.54.53,1.14,1,1.65,1.56a5.51,5.51,0,0,1,1.59,5,28.13,28.13,0,0,0-.35,2.89.68.68,0,0,0,.42.77c.36.14.59-.08.87-.26,1.16-.76,1.27-.77,2,.15,3.61,4.44,5,10.18,1.1,16.54-.29.46-.64.87-1,1.31-1.18,1.63-1.15,2,.57,3a9,9,0,0,1,3.12,2.77,6.7,6.7,0,0,1,1,6.44c-.86,2.24-1.66,4.47-3.74,5.94-1.23-.94-2.41-1.87-3.62-2.75a2.16,2.16,0,0,0-1.85-.36c-.38.1-.72.7-.46,1a10.92,10.92,0,0,0,1.35,1.37,17.6,17.6,0,0,1,6,9.43c1.16,4.53,0,8.79-2.7,12.6-.8,1.14-1.8,2.15-2.69,3.23-.32.39-.79.71-.68,1.36,1.27.35,1.78-1.05,2.89-1.24a5.86,5.86,0,0,1,1.94,7.17,5,5,0,0,1-2.15,2.76,9.61,9.61,0,0,0-1.09.7,1.19,1.19,0,0,0-.06,1.94c.47.45,1,.83,1.49,1.26a22.31,22.31,0,0,1,2.15,2,8.7,8.7,0,0,1,2.38,5.55c.06,2.3-.19,4.52-1.83,6.34a8.85,8.85,0,0,1-9.8-.53c-.69-.5-1.17-1.25-2-1.59a1.9,1.9,0,0,0-2,.66c-2.57,2.35-4.06,2.55-6.75.64a3.72,3.72,0,0,0-2.73-.6,14.1,14.1,0,0,1-4.2-.16c-3.62-.71-5.45-3.09-5.06-6.72a16.76,16.76,0,0,1,4.43-10.22c1.41-1.46,2.61-2.9,1.72-5.13a1.8,1.8,0,0,1,.61-2.06c2-1.64,1.49-2.85-.28-4.4-2.75-2.38-3-5.95-.68-10,1-1.79,1.42-3.22,0-5-1-1.33-.48-2.67.68-3.74s1.17-2,0-3.24c-3.14-3.39-3.14-7.31.14-10.61,1.64-1.65,2.4-2.69.27-4.61s-1.7-4.44-.76-6.68c1-2.41.9-4.24-1.11-6.09-2.23-2-2.26-5-2.68-7.8-.21-1.36.05-2.85-1.1-4l-1.42.08c-2.62.8-4-.59-5-2.78-1.14-2.73-2.09-3-4.38-1.28-.68.52-1.23,1.19-1.87,1.76-3.15,2.82-5.08,2.74-7.92-.3a3.14,3.14,0,0,0-1.28-.94c-.55.11-1,.32-1.14.95a11.2,11.2,0,0,0-.1,1.29c-.22,5.55-2.09,10.34-6.36,14.06-.26.22-.42.56-.17.78a1.38,1.38,0,0,0,.91.17,3.72,3.72,0,0,0,2.23-1.21c.46-.46.86-1,1.33-1.41.3-.29.63-.52,1.11-.21a4.75,4.75,0,0,1,1.87,6.47,6.29,6.29,0,0,1-3.67,3.46,1.06,1.06,0,0,0-.81.92c0,.64.47.9,1,1.06.31.09.6.27.91.33a2.7,2.7,0,0,1,2.26,2.78,3.54,3.54,0,0,1-1.81,3.85c-.73-1.22-1.35-2.34-2-3.41a3.06,3.06,0,0,0-2-1.48.74.74,0,0,0-.55.28c-.13.14-.27.42-.21.55.17.39.46.73.67,1.11a23.22,23.22,0,0,1,2.55,6.28,13.61,13.61,0,0,1,0,6.74,15.56,15.56,0,0,0-.44,2.22,1,1,0,0,0,.48,1.1c.36.18.61,0,.87-.23a1.25,1.25,0,0,0,.23-.23c.43-.5.89-.57,1.34,0a21.41,21.41,0,0,1,4.42,8.22c1.35,5.3-1.8,13.18-7.26,14.74a3.1,3.1,0,0,0-1.1.63.78.78,0,0,0-.13,1.15c.43.47,1,.81,1.44,1.25a2.61,2.61,0,0,1-1.2,4.54c-.63.15-1.29.11-1.93.22a.9.9,0,0,0-.44,1.51c.22.24.48.44.71.66a9,9,0,0,1-1.55,14.42c-1.84,1.14-3.61,1.35-5.4,0,0-.88,1.11-1.85-.22-2.6a3.43,3.43,0,0,0-1.58-.3c-6.85.6-11.25-4.63-9.59-11.38a14.83,14.83,0,0,1,1.05-3.07,4.31,4.31,0,0,0-.29-4.6,6.12,6.12,0,0,1,0-7,8,8,0,0,0,.93-6.22,13,13,0,0,1-.19-4.85,17.75,17.75,0,0,0-1-10.44,7.16,7.16,0,0,1,.57-6.28,5.44,5.44,0,0,0-.39-6.36c-2.16-2.88-2-5.85,0-8.72s2.08-5.53.68-8.8c-2.87-6.67-4.41-13.58-1.29-20.71a5.49,5.49,0,0,0,0-4.42,1.75,1.75,0,0,0-.91-1.25c-1.56-2-.65-3.93.49-5.63a5.33,5.33,0,0,0,.19-6.23c-3.05-5.58-.6-14.06,4.73-17.43C436.63,107.47,436.87,107.59,437.07,107.71Z"/><path class="cls-5" d="M432,138.1a2.29,2.29,0,0,1,1.42,3.13c-.4,1.34-.89,2.66-1.38,4a15,15,0,0,0-.71,6.68,33.64,33.64,0,0,0,3.48,12.71,5.86,5.86,0,0,1-.34,6.13c-.69,1.1-1.37,2.2-2,3.34a5.18,5.18,0,0,0,.38,5.52,17.34,17.34,0,0,0,1.17,1.54,4.31,4.31,0,0,1,.35,5.39,8.23,8.23,0,0,0-1.44,3.9,7.34,7.34,0,0,0,.87,4.37,7.79,7.79,0,0,1,.73,6.82,14.3,14.3,0,0,0,0,7.06c.14.74.38,1.46.49,2.21a3.93,3.93,0,0,1-.71,3.06,18.39,18.39,0,0,0-1.37,2.2,4.27,4.27,0,0,0,.18,4.88c2.24,3,1.9,3.25.48,6.46a23.53,23.53,0,0,0-.89,2.77,7.05,7.05,0,0,0,1.13,6.44,12,12,0,0,1,1.29,1.84c.88,1.91,2.42,2.28,4.3,2a22.06,22.06,0,0,1,2.57-.2,1.13,1.13,0,0,1,1.17.91,7.45,7.45,0,0,0-1.25.35,6.07,6.07,0,0,1-6.95-.95,2.65,2.65,0,0,0-.83-.48,1,1,0,0,0-.62.07c-.4.14-.36.51-.27.8.15.51.37,1,.61,1.61a6.52,6.52,0,0,1-7.46-3.33,10.49,10.49,0,0,1-1.09-9,7.8,7.8,0,0,1,3.49-4.53,6.36,6.36,0,0,0,1.53-1.14.75.75,0,0,0-.17-1.14,17.57,17.57,0,0,0-1.78-.75c-3.85-1.74-5-5-3.16-8.8a7.06,7.06,0,0,1,2.85-3.3c.61.67,1.23,1.37,1.88,2a.64.64,0,0,0,.59,0,.62.62,0,0,0,.32-.48,7.39,7.39,0,0,0-.35-1.22,12.51,12.51,0,0,1,1.32-10.87,8.77,8.77,0,0,0,.49-.84.85.85,0,0,0-.23-1.15,1,1,0,0,0-1.21.17,15.4,15.4,0,0,0-1.12,1.16c-.4.46-.49,1.17-1.13,1.45a9.65,9.65,0,0,1-2.46-11.72,29.65,29.65,0,0,1,2.06-3.29c.29-.45.68-.84,1-1.27,1.07-1.43,1-2-.5-2.77a11.9,11.9,0,0,1-2.36-1.68c-4.49-3.95-2.41-11.73,1.8-14a1.34,1.34,0,0,1,1.76.12,4,4,0,0,0,1.88,1.22.48.48,0,0,0,.27-.09c.08,0,.2-.19.18-.23a6.39,6.39,0,0,0-.69-1.08,20.5,20.5,0,0,1-4.74-11.49c-.49-4.9.22-9.48,3.14-13.58C430.67,140.07,431.32,139.08,432,138.1Z"/><path class="cls-5" d="M479.2,153.82c1.28-.07,1.71.77,1.85,1.81.2,1.49.21,3,.43,4.51a9.73,9.73,0,0,0,3.23,6.16c1.69,1.52,1.71,1.79.77,3.93a11.59,11.59,0,0,0-1.25,4.65,4.29,4.29,0,0,0,1.71,3.65c2.57,2.06,2.53,2.06-.1,4.26a7.47,7.47,0,0,0-3,6.49,4.57,4.57,0,0,0,2,3.81c2.76,1.9,2.73,2.26,0,4.29a5.2,5.2,0,0,0-.95.86c-.47.61-.24,1.54.5,2.3,2.06,2.08,2.06,2.08.45,4.42a11.47,11.47,0,0,0-2,6.72,3.68,3.68,0,0,0,1.78,3.25c.63.42,1.33.74,1.92,1.21a2,2,0,0,1,.17,3.11c-.08.08-.15.16-.23.23-.66.54-1.55,1-1.95,1.64-.55.94.8,1.38,1,2.19a2.33,2.33,0,0,1-.35,2.16,15.82,15.82,0,0,1-1.81,1.85c-3.21,2.86-4.36,6.66-4.68,10.73-.24,3.07,1.12,4.68,4.16,5.18a31,31,0,0,0,4.53.24,3,3,0,0,1,2.62,1c.95,1.25,2.29,1.08,3.56.79a30.66,30.66,0,0,0,3.07-1,14.22,14.22,0,0,1,0,2.26A4,4,0,0,1,493,250a2.51,2.51,0,0,1-3-1.92c-.25-.82-.31-1.69-.5-2.53a1,1,0,0,0-1.3-.61c-.85.47-1.67,1-2.5,1.49a11.93,11.93,0,0,1-7.09,1.9,8,8,0,0,1-7.56-9.63,15.57,15.57,0,0,1,4.08-8,24.91,24.91,0,0,1,5.72-4.76c.73-.42,1.55-.77,1.81-1.69-.37-.89-1.39-1-2-1.62-.89-1-1.38-2.29.51-3,.48-.19,1.11-.13,1.35-.73.06-.15,0-.51-.1-.55a4.2,4.2,0,0,0-1.22-.3c-3.26-.21-4.41-1.15-5.15-4.26a7.84,7.84,0,0,1,3.76-9.17c.36-.23.77-.39,1.15-.61,1-.59,1-1.4.06-1.91-.38-.21-.81-.31-1.19-.52-2.21-1.21-2.22-3.4,0-4.76.27-.17.6-.23.86-.41a1.15,1.15,0,0,0,.25-1.71c-.32-.43-.71-.81-1.07-1.21a6.11,6.11,0,0,1-1.12-6.09,11.19,11.19,0,0,1,4.12-5.68,9.19,9.19,0,0,0,1.14-1.11c.07-.08-.06-.48-.17-.53a1.72,1.72,0,0,0-.94-.14,2.58,2.58,0,0,1-2.64-.82,3.43,3.43,0,0,1-.9-3c.39-2.37.91-4.7,3.1-6.18a2.45,2.45,0,0,0,.46-.45.74.74,0,0,0-.27-1.09c-.92-.29-1.87-.52-2.78-.84-2.43-.84-3.24-2-3.35-4.55a11,11,0,0,1,1.65-6.18C478.73,155.88,479.51,155,479.2,153.82Z"/><path class="cls-5" d="M437.07,107.71a29.69,29.69,0,0,0-4.93,7.15,9.26,9.26,0,0,0,.4,9.85c1.68,2.47,1.77,4.45-.13,6.66a6.84,6.84,0,0,0-1.34,5.48c-2.39,1.08-3.47,3.4-4.91,5.36-5.36-4.51-2.93-10.48.72-13,.75-.51,2.08-.49,2.08-1.75,0-.92-1-1.38-1.51-2-4.1-4.82-3-12.36,1.8-16.19A7.76,7.76,0,0,1,437.07,107.71Z"/><path class="cls-5" d="M457.37,150.36c.27-.38.6-.23.84,0,.49.42,1,.87,1.4,1.34,1.94,2,3.54,1.46,5.23.46a13,13,0,0,0,2.18-1.9c.47-.44.87-1,1.35-1.4,1.79-1.61,3.63-1.25,4.69.92a6.1,6.1,0,0,1,.31.91,4.24,4.24,0,0,0,3.47,3l.94.23a5.41,5.41,0,0,1-3.55,2.53,1.83,1.83,0,0,1-2.42-1.49,6.67,6.67,0,0,1-.1-2.88c.11-.63.27-1.26.32-1.9,0-.42,0-.87-.58-1a1,1,0,0,0-1.05.56c-.27.46-.38,1-.62,1.48a7.54,7.54,0,0,1-3.59,3.57c-2.79,1.37-4.9.92-6.81-1.53C458.66,152.34,458,151.33,457.37,150.36Z"/><path class="cls-5" d="M498.68,243.55a1.67,1.67,0,0,1,1.49.36c3.13,2.33,6.62,2.54,10.28,1.76-1.07,2.29-3.2,2.73-5.35,2.8a5.87,5.87,0,0,1-5.2-2.68A23,23,0,0,1,498.68,243.55Z"/><path class="cls-4" d="M157.91,158.63c-.06-1.15-.78-.66-1.35-.54-6.5,3.63-10.89,1.41-11.63-6.05-.23-2.37-.72-3.9-3.5-3.94a3.35,3.35,0,0,1-3.5-3.51c-.1-2.06-1.26-2.38-3.05-2.35-8.42.11-12.89-6.13-10.06-14.06.55-1.56.86-2.83-.52-4.11-1.82-1.69-1.91-3.89-1.13-6s.41-3.74-1.22-5.51C116.87,107,118.5,100.72,125.6,98c1.55-.61,2.79-1.23,2.46-3.18-1.07-6.46,2.33-11,9.75-12.4a1.65,1.65,0,0,0,1.34-.78c-.51-1.26-.51-1.26-2.08-2.18a4.91,4.91,0,0,1,2.61-2.25c8.14-4.34,14.8-.6,17.69,5.53.55,1.17.94,2.41,1.47,3.59a1,1,0,0,0,.77.51,1.19,1.19,0,0,0,.78-.47,4,4,0,0,0,.39-.89c.22-.49.43-1,.69-1.46,3.18-5.9,8.56-4,11-.66a22.21,22.21,0,0,1,3.8,8.85c.09.5-.12,1.2.61,1.31.88.14,1-.65,1.14-1.24a3.37,3.37,0,0,1,2-2.39c.38-.17.88-.31,1.16.17a1.34,1.34,0,0,1,.13.9,6.59,6.59,0,0,1-1.45,2.49c-.39.48-1.25.93-.85,1.58.51.81,1.33.12,2,0,1.17-.23,2.34-.46,3.52-.59a9.41,9.41,0,0,1,2.25,0,7.39,7.39,0,0,1,4.89,2.91c2.41,3,3.1,6.59,3,10.35a17.19,17.19,0,0,1-.32,2.57c-1.16,6.45-7.14,10.78-12.48,9.77-1.25-.24-1.5.14-1.19,1.42s.64,2.28.93,3.43c1.4,5.57-1.11,9.94-6.73,11.75-4.67.2-6.68-3.47-9-6.43-2.45-3.12-2.84-6.81-1.86-10.64-.44-.94-.44-.94-1.5-.42a11.38,11.38,0,0,1-5.84,4.35c-3,1-5.69,1-8.11-1.27-1.62,0-1.95.32-1.5,1.51a10.66,10.66,0,0,1,.75,2.8c.31,3-1.92,4.88-4.86,4.07-1-.29-2.09-.52-3.15-.73a3,3,0,0,0-1,.21,4.67,4.67,0,0,0,.78.71c.57.31,1.17.56,1.76.83a13.09,13.09,0,0,1,8,11.29,21.86,21.86,0,0,0,.34,2.56c0,.23.44.49.71.56a.8.8,0,0,0,1-.63,24.37,24.37,0,0,0,.25-2.56c.08-1.11.39-1.54,1.47-1.77a9.24,9.24,0,0,1,7.15,1.24,5,5,0,0,1,2.44,4.65c0,.54-.12,1.07-.19,1.6-.09.71-.86,1.42-.16,2.11.87.86,1.53-.13,2.27-.4a2,2,0,0,1,2.38.31,2.08,2.08,0,0,1,.38,2.39c-.27.67-1,1.12-.88,2,.75.36,1.21-.25,1.65-.58,4.16-3.18,8.43-2.77,12.76-.45a7.48,7.48,0,0,1,3,2.86,13,13,0,0,1,1.15,10.92,8.87,8.87,0,0,1-2.13,2.81.64.64,0,0,0,.37,1,19.45,19.45,0,0,1,2.19.54,2.47,2.47,0,0,1,1.4,3.68A13.12,13.12,0,0,1,186,177c-1,1.45-1,1.76.62,2.18,2.86.74,5.18,2.14,6.5,4.89a13,13,0,0,1,.8,10.06,8,8,0,0,1-6.56,5.59,11.57,11.57,0,0,1-4.19,0c-1.47-.24-2.7-.68-2.69-2.53a1.06,1.06,0,0,0-.72-1c-.55.34-.31.91-.38,1.38a6.15,6.15,0,0,1-5.28,5.72c-1,.24-2.12.42-3.17.66-.35.08-.43.42-.44.76,1.18,1.82,3.51,1.62,5,2.85-.2,3.27-1.24,6.14-3.9,8.25C165,219,160,217.36,156.47,211c-1.3-2.38-1.59-2.39-3.22-.21-3.22,4.3-5.4,4.61-9.25,1-1.53-1.42-3.05-1.94-5-1.24-3,1.09-5.52.25-7.66-2a7.88,7.88,0,0,0-5-2.65c-5.15-.56-8.07-3.13-9-8.29-.55-3.11-1.45-5.56-4.69-6.66a3.49,3.49,0,0,1-2-2.43c-.94-2.72-1.49-5.56-.31-8.25a13.42,13.42,0,0,0,.22-10.88c-1.63-4.2,1.07-7.95,5.73-8.93.33.27.64.66,1.12.5.71-.24.52-.86.41-1.35a5.3,5.3,0,0,0-.52-1.17c-.13-.29-.29-.58-.43-.86a10.08,10.08,0,0,1,8.22-4.48c4.29-.23,7.27,1.75,9.21,5.39a12.08,12.08,0,0,1,1.49,5.92c0,.76-.05,1.52-.07,2.27-.06,2.32,0,2.38,2.14,1.21a4.46,4.46,0,0,1,3.14-.35c1.74,1.92.41,3.58-.46,5.27-.44,1.2-1.23,2.29-1.1,3.65a.87.87,0,0,0,.33.5c.22.16.4.07.51-.16a12.82,12.82,0,0,1,.73-1.43,9.45,9.45,0,0,1,12.34-3.75c.49.22,1,.48,1.44.73s.91.39,1.16,0,0-1-.31-1.46l-.16-.25,0,0c-1.8-3.18-.77-6.14.75-9A13.86,13.86,0,0,0,157.91,158.63Z"/><path class="cls-5" d="M116.3,160.49c-.88.61-1.76,1.24-2.65,1.83a5.61,5.61,0,0,0-2.53,6.41,14.23,14.23,0,0,0,1.56,4.24,3.08,3.08,0,0,1,0,3.37c-.2.38-.38.78-.57,1.16a15.16,15.16,0,0,0-.85,10.74,2.92,2.92,0,0,0,2,2.31c.51.17,1,.28,1.54.5a4.5,4.5,0,0,1,2.91,3.95,20.76,20.76,0,0,0,.65,3.82c1,3.85,3.74,6.12,7.71,6.15a5.49,5.49,0,0,1,5,2.36,7.66,7.66,0,0,0,1.11,1.17c1.71,1.63,3.76,2.33,6,1.4,2.81-1.19,5-.88,6.74,1.77a1.2,1.2,0,0,0,.22.23c2.57,2.36,4.79,2.16,6.79-.68.55-.79,1-1.68,1.49-2.51.4-.65.88-1.33,1.74-1.25a1.81,1.81,0,0,1,1.48,1.54c.09.31.1.64.22.94a9.91,9.91,0,0,0,8.4,6.71,8.5,8.5,0,0,0,2.88-.26c1.15-.21,2.23-.9,3.47-.56-3.55,3.48-7.24,4-11.43,1.76a25.2,25.2,0,0,1-3.83-3c-.71-.58-1.45-.31-1.73.59-.15.51-.24,1.05-.39,1.57-1.22,4.19-4.87,5.87-8.88,4.15a6.69,6.69,0,0,1-4-4.4c-.33-1.13-.62-2.27-.91-3.32-1-.23-1.29.44-1.74.84a10.75,10.75,0,0,1-4.23,2.28,5.4,5.4,0,0,1-6.88-4.22c-.24-.93-.26-1.92-.44-2.88a1.07,1.07,0,0,0-1.49-.78,14.94,14.94,0,0,0-1.42.77c-3.49,2-6.82,1.6-10-.66-4.16-2.93-5.63-7.93-3.52-12.29a25.4,25.4,0,0,1,2-2.93c.58-.89.12-1.73-1-1.77s-2,.06-2.92,0c-4.8-.3-7.92-3.65-8-8.47-.1-4.11,2-6.91,5.13-9.22a1.54,1.54,0,0,1,1.22-.28c.48.07,1.16.44,1.34-.3s-.63-.8-1-1.06c-3.1-1.95-4.09-4.87-4-8.33a6,6,0,0,1,2.44-4.73C109.58,156.26,113.21,156.72,116.3,160.49Z"/><path class="cls-5" d="M139.15,81.59A1.78,1.78,0,0,1,137.89,83c-1.1.47-2.21.91-3.34,1.27-3.76,1.19-6.86,4.86-5.66,10.64.07.32.26.61.32.92a1.91,1.91,0,0,1-1,2.18,10.3,10.3,0,0,1-1.52.57c-.61.21-1.25.35-1.85.6-6.81,2.81-5.78,9.85-2.07,13.2.08.07.18.12.26.19,2.28,1.94,2.31,2.08,1.19,4.93a12,12,0,0,0-.74,2.13c-.29,1.71,0,3.25,1.7,4.19a6.36,6.36,0,0,1,.83.51,1.79,1.79,0,0,1,.54,2.31c-.22.49-.53.94-.8,1.41-1.24,2.22-1.14,4.62-.73,7,.65,3.69,5.75,7.53,9.88,6.58,3.49-.8,3.78-.39,3.81,3.27a2.34,2.34,0,0,0,2.58,2.62c.75,0,1.51-.14,2.26-.11a2,2,0,0,1,2.09,2c.06.86,0,1.73,0,2.59a10,10,0,0,0,1.83,5.13,4.38,4.38,0,0,0,4.76,2,20.09,20.09,0,0,0,2.78-.83c.51-.17,1-.47,1.54-.19a29,29,0,0,0-2.25,2.32,3.58,3.58,0,0,1-3.08,1.35c-6.23.17-9.45-4.64-10-9.45-.08-.75,0-1.51-.07-2.26s-.6-1.09-1.37-.88a11.85,11.85,0,0,1-2.76.88c-1.7.07-2.47-.52-2.51-2.16a7.92,7.92,0,0,1,.1-1.29c.33-2.1-.39-2.45-2-1.75a8.88,8.88,0,0,1-2.85.58c-3.91.31-6.92-1.42-9.37-4.24a11.31,11.31,0,0,1-2.7-9.35,9,9,0,0,1,2.83-5.34,15.86,15.86,0,0,0,1.35-1.37.74.74,0,0,0-.27-1.11,4.1,4.1,0,0,0-1.17-.52,15.79,15.79,0,0,1-1.58-.35c-1.09-.45-2.28-.85-2.43-2.3a3.53,3.53,0,0,1,1.78-3.56c.82-.51,1.76-.84,2.6-1.32a1,1,0,0,0-.12-1.81l-.29-.15a6.21,6.21,0,0,0-.59-.26c-3.33-1.14-5.27-3.65-6.59-6.72a9.23,9.23,0,0,1-.15-7.27c1.9-4.82,5.12-8.2,10.4-9.23,1.18-.23,1.51,0,1.84,1.2.24.84-.2,2,1,2.4.56-.75.25-1.63.31-2.44a13,13,0,0,1,2.82-7.78c1.89-2.25,4.17-3.41,7.15-2.47A4.45,4.45,0,0,0,139.15,81.59Z"/><path class="cls-5" d="M164,119.53c.12.28.4.61.34.85-.86,3.41.28,6.43,2,9.19,2,3.22,4.59,6,8.5,7a9.46,9.46,0,0,1-7.49-.34,7.69,7.69,0,0,1-4.95-6.62,17.91,17.91,0,0,1,.46-6.4C163.23,122,163.65,120.76,164,119.53Z"/><path class="cls-5" d="M148.57,122.19c4.9,2.3,9,.72,12.86-2.52a5.33,5.33,0,0,1,1.09-.56c-.44,1-.91,1.93-1.3,2.92-1.93,4.85-8.79,5.13-11.28,1.92C149.49,123.36,149,122.78,148.57,122.19Z"/><path class="cls-5" d="M157.91,158.63a1.76,1.76,0,0,1-.19,1.55,16.21,16.21,0,0,0-2.24,10.51c-2.45-1.48-2.78-2.12-2.38-4.62a8.59,8.59,0,0,1,1.92-4.4C155.94,160.62,156.94,159.64,157.91,158.63Z"/><path class="cls-5" d="M175.55,207.58a6.7,6.7,0,0,1-3.64-.74c-.79-.4-1.75-.87-1.39-2.11a7.86,7.86,0,0,0,3.5.37c1.68,0,1.68,0,1.68,1.86A2.94,2.94,0,0,1,175.55,207.58Z"/><path class="cls-5" d="M140.56,172.84c.28-1.74,1-3.45.46-5.27,1,0,1.48.73,1.83,1.52a1.45,1.45,0,0,1-.24,1.76Z"/><polygon class="cls-9" points="155.5 170.71 155.75 170.78 155.66 170.96 155.47 170.93 155.5 170.71"/><path class="cls-4" d="M755.94,174.16c.73-1,.09-1.48-.62-2-.05-2.56,2-3.47,3.73-4.37a5.64,5.64,0,0,0,3.48-5.28c.21-4,1.56-7.61,5.67-9.47.8-.37,1.95-.83,1.77-2.06s-1.26-1.39-2.18-1.67a7.11,7.11,0,0,1-4.15-3c-1.44-2.36-3.38-2.76-5.82-2l-.61.52c-2.64,1.86-4.44,1.34-5-1.81-.54-2.91-1.56-4.42-4.73-3.26a1.92,1.92,0,0,1-2.15-.32c-1.79-2.24-4.52-2.3-6.9-3.19-4-1.49-7.13-4-8.53-8.25a4.3,4.3,0,0,0-2.55-2.76,7.81,7.81,0,0,1-4.94-6.32,4.72,4.72,0,0,0-2.85-3.67c-2-.95-3.35-2.51-3-4.86.4-2.51-.95-3.43-3-4.22-8.75-3.4-10.71-16.92-3.36-22.83a2.61,2.61,0,0,1,1.21-.44A11.11,11.11,0,0,1,719,85.31c.68.5,1.26,1.24,2.31,1.12.43-.81.84-1.68,1.34-2.49a2.09,2.09,0,0,1,1.9-1,1.86,1.86,0,0,1,1.72,1.27c.27.64-.08,1-.51,1.37a2.67,2.67,0,0,0-1.27,1.78,1.17,1.17,0,0,0,1.21,0c1-.56,2.1-1.11,3.17-1.63a6.32,6.32,0,0,1,6.48.49,14.69,14.69,0,0,1,5.7,6.48c2,4.45.76,8.28-3.37,10.84a10.73,10.73,0,0,0-1,.74c-.06.05,0,.19,0,.3s.07.45.33.46a4.08,4.08,0,0,0,1.57-.1,21,21,0,0,0,2.57-1.35,1.38,1.38,0,0,1,1.52,0c1.54.9,2.88,2,3,4a2.25,2.25,0,0,0,.2.93.76.76,0,0,0,1.07.41,12.07,12.07,0,0,0,1.32-.93,5.22,5.22,0,0,1,8.13,3.2,7,7,0,0,1-.8,5.88l-.36.54c-.33.52-1,1-.46,1.69.37.49,1,.23,1.51.1a5.47,5.47,0,0,1,1-.23,2.69,2.69,0,0,1,2.62,1.55,5.63,5.63,0,0,1,.45,2.84c0,.89-.64,1.29-1.16,1.83a6.59,6.59,0,0,0-.91,1.3.65.65,0,0,0,.12.56.62.62,0,0,0,.54.13,4.34,4.34,0,0,0,.85-.45,10.39,10.39,0,0,1,1.09-.68c2-.89,3.95-1.11,5.87.16.45.3.89.61,1.33.92a1.17,1.17,0,0,0,1.76-.11l0,0a7,7,0,0,1,1.9-7.87,3,3,0,0,0,.7-3.81c-1.31-2.72-.7-5.19,1-7.62,1.93-2.82,1.63-3.76-.62-6.49-3.1-3.79-2.92-8.06-.92-12.21A27.64,27.64,0,0,0,773.86,81c.47-3.19.17-6.33.58-9.43A14,14,0,0,1,783.7,59.7h.07c.45.24,1,.27,1.43.54a1.17,1.17,0,0,0,1.47-.91c.42-1.62,1.68-2.46,3-3.21a6.41,6.41,0,0,1,9.26,5.7,1,1,0,0,1-1,1.08A5.72,5.72,0,0,0,795.32,64a2.94,2.94,0,0,0-.7,1c-.12.22,0,.4.31.43a1.34,1.34,0,0,0,.63,0c3.31-1.54,6.1-.47,8.61,1.76a10.43,10.43,0,0,1,3.82,9.2,6.3,6.3,0,0,1-2.18,3.86c-.22.22-.53.11-.86,0-1.1-.38-1.5-.15-1.29.71,1.14,4.71,0,9-2.44,13a2.81,2.81,0,0,0-.28.58.62.62,0,0,0,.25.82.75.75,0,0,0,.61-.08,5.27,5.27,0,0,0,1.7-1.9c.63-.86,1.13-.9,1.84-.26,3.16,2.84,2.17,7.68-1.25,8.77a9.68,9.68,0,0,0-1.79.75,1,1,0,0,0-.43,1.38,3.94,3.94,0,0,0,.54.81,4.69,4.69,0,0,1,.44,5.18c-.25.6-.54,1.25-1.19,1.45-.84.26-.95-.67-1.4-1.06-.24-.21-.47-.43-.72-.63-.08-.06-.27-.12-.3-.08s-.31.38-.27.5c.44,1.1.93,2.18,1.4,3.26a15.69,15.69,0,0,1-5.6,19.16,10.93,10.93,0,0,0-1,.81.34.34,0,0,0,0,.31c.1.17.28.45.36.43,1.05-.25,2.08-.55,3.15-.84a2.44,2.44,0,0,1,.85,2.27,3.19,3.19,0,0,1-1.22,1.83c-1.44,1.32-1.47,1.42,0,2.69a9.31,9.31,0,0,1,3.3,7.76,7.71,7.71,0,0,1-4.38,7.06,14.83,14.83,0,0,1-7.12,2c-2.08,0-2.07,0-1.85,2a5.8,5.8,0,0,1,0,1.61,3.5,3.5,0,0,1-2.78,3.19c-.53.12-1.06.21-1.58.37a.93.93,0,0,0-.39,1.55c.33.42.73.79,1.1,1.18a6.59,6.59,0,0,1,.24,9.3c-1.39,1.56-2.95,2.83-5.35,2.29-1-.23-1.33.15-1.3,1.27a6.27,6.27,0,0,1-.67,3.76c-.28.44-.65.6-1,.23-.54-.52-1-1.13-1.52-1.67a.69.69,0,0,0-.54-.07c-.26.07-.3.28-.16.53.25.47.53.94.75,1.43s.45,1.19.68,1.79c-.23,5.74-3.22,9.67-8.21,12.15a4.05,4.05,0,0,0-2.14,1.78,6.6,6.6,0,0,1-3.45,3.27,5.7,5.7,0,0,0-2.58,2.81,25,25,0,0,1-9,9.56,7,7,0,0,0-2.44,2.92c-1.9,3.32-4.72,3.51-6.73.38a10.47,10.47,0,0,0-3.1-3.22c-3.23-2.16-3.85-4.88-1.57-8,1.6-2.2,2.28-4,1-6.74s.17-5.2,3.12-6.54c1.4-.63,2.86-1,3-2.95.07-1.41,1.23-1.37,2.19-1.21,2.5.42,3.45-.79,4-3.08.73-3.26,2.92-5.76,5-8.22A12.16,12.16,0,0,0,755.94,174.16Z"/><path class="cls-5" d="M711.43,83a19,19,0,0,0-4.84,13.37c0,3.94,3.51,8.46,7.06,9.11a11.82,11.82,0,0,1,2.18.63,2.45,2.45,0,0,1,1.83,3c0,.22-.09.43-.12.64-.49,2.85,0,4,2.69,5,1.75.64,2.76,1.59,2.86,3.46,0,.21.12.41.15.63.42,2.94,1.89,5,4.86,5.84a3.66,3.66,0,0,1,2.58,3c1.13,4.39,6.14,8.38,10.76,8.45a3.5,3.5,0,0,1,3.58,2.13c.65,1.33.88,1.33,2.31.87.61-.2,1.2-.49,1.82-.67a2.35,2.35,0,0,1,3.29,1.67,12.09,12.09,0,0,1,.32,1.91c.11.64.15,1.29.32,1.91a1.78,1.78,0,0,0,1.93,1.4,16.76,16.76,0,0,0,2.2-.43,8.16,8.16,0,0,0,.57,3.47c.46,1,.26,1.36-.61,1.83a7.06,7.06,0,0,1-3,1,4.83,4.83,0,0,1-5.25-4.23c-.13-.95,0-1.94-.19-2.9a1,1,0,0,0-1.21-.8.8.8,0,0,0-.31.09c-1,.48-1.93.88-3,.19a4.83,4.83,0,0,1-2.11-2.76,6,6,0,0,1-.19-1.28c0-.38-.27-.62-.58-.53a1.08,1.08,0,0,0-.66.61,4.53,4.53,0,0,0-.18,1.59c.09.94-.38,1.33-1.16,1.67A10.69,10.69,0,0,1,724,134.37a18.39,18.39,0,0,1,.28-3.86,1.16,1.16,0,0,0-1.34-1.39c-.86,0-1.72.24-2.58.26a3.35,3.35,0,0,1-3.33-2.11,6.42,6.42,0,0,1-.47-4.11c.12-.63.4-1.24.47-1.87a.93.93,0,0,0-.9-1.11,10.48,10.48,0,0,0-1.94,0c-3.18.35-5.41-4.7-3.78-7.29.48-.76,1.95-1.3,1.23-2.34-.55-.8-1.82-.12-2.76-.17-3.26-.15-6-1.46-7.57-4.27-3.3-5.79-3.86-11.87-.73-17.93C702.79,84,706.49,82.31,711.43,83Z"/><path class="cls-5" d="M755.94,174.16a3.29,3.29,0,0,0,.27.92,1.44,1.44,0,0,1-.28,2c-1.16,1.29-2.24,2.65-3.44,3.89a13.68,13.68,0,0,0-3.61,7.12,10.94,10.94,0,0,1-.29,1.26,2.15,2.15,0,0,1-2.12,1.66,6.38,6.38,0,0,1-3.42-.67c-.12.25-.3.44-.27.58.7,2.84.7,2.83-2,3.46A8.32,8.32,0,0,0,739,195a4.46,4.46,0,0,0-1.74,6.59c.23.36.56.66.79,1a1.86,1.86,0,0,1,0,2.14c-.42.63-.9,1.22-1.34,1.83s-.8,1-1.13,1.58c-1.84,3.1-1.21,5.25,2.12,6.76a3.82,3.82,0,0,1,2.52,2.7,2.61,2.61,0,0,0,.22.61c.91,1.94,2.58,2.39,4.53,1.27a1.17,1.17,0,0,0,.71-1c-.09-1.83,1.17-2.65,2.47-3.49a29.17,29.17,0,0,0,4.81-3.84,28,28,0,0,0,5.16-7c.67-1.3,1.44-2.43,3.18-2.31.6,0,1-.45,1.2-.95s.53-1.18.85-1.75a3.13,3.13,0,0,1,1.93-1.63c3.45-.9,5.38-3.5,6.95-6.39a51.93,51.93,0,0,0,2.22-5.38,9.5,9.5,0,0,1-7.88,12.83c-1.32.15-1.42.17-1.26,1.61a7.67,7.67,0,0,1-2.59,6.68,1.72,1.72,0,0,1-.53.36,4.14,4.14,0,0,1-.72.16c-.12-.62-.19-1.25-.36-1.86-.11-.4-.28-.9-.77-1-.76-.06-.8.58-.83,1.09-.26,4.21-3.05,6.78-6,9.2a7.86,7.86,0,0,1-3.3,1.26c-.42.1-.86.14-1.27.27a.83.83,0,0,0-.35.49c-.13.42.22.58.51.65a7.85,7.85,0,0,0,1.28.15c.5,0,1.19-.22,1.25.56a2,2,0,0,1-.5,1.13,1,1,0,0,1-1.39.32c-.55-.31-1-.86-1.87-.6-.11.33-.27.72-.37,1.13a8,8,0,0,1-8.3,5.72,5.35,5.35,0,0,1-4.43-4.87,14.91,14.91,0,0,1,.31-2.56.71.71,0,0,0-.3-.81.68.68,0,0,0-.87.23,1.7,1.7,0,0,1-2,.44,8.88,8.88,0,0,1-6.48-7.66,5.29,5.29,0,0,1,1.72-4.35,11,11,0,0,1,4.81-2.57c1-.26,1.22-1.07.51-1.67-2.85-2.4-2.51-5.29-1.25-8.24s3.78-4.17,7.12-4a5.21,5.21,0,0,0,1,.06c.55-.07.67-.52.59-.95s-.34-.54-.46-.84c-.84-2.18-.41-2.73,1.85-2.4a4.7,4.7,0,0,0,.63.13c.54,0,.78-.29.79-.78,0-.21-.13-.41-.15-.63-.29-2.48,0-2.87,2.88-3.81a8.45,8.45,0,0,1-.62,3.11,8.68,8.68,0,0,0-.12,3.86c.08.37.44.9.74,1s.72-.39.75-.88c0-.32,0-.65.07-1,.71-5.41,3.26-9.54,8.33-11.91Z"/><path class="cls-5" d="M783.7,59.7a8.57,8.57,0,0,1-2.89,2.53A13.18,13.18,0,0,0,775.3,71a11.17,11.17,0,0,0,.16,4.16c.28,1.5.46,3-.86,4.21a1.79,1.79,0,0,0-.26,2.13c1.08,2.24.41,4.13-.88,6a13.67,13.67,0,0,0-2,4.75A10.69,10.69,0,0,0,773.8,102c.27.34.6.62.86,1,1.28,1.63,1.3,2.72.09,4.36a25.33,25.33,0,0,0-1.56,2.06c-1.19,2.09-1.59,4.15,0,6.31,1.07,1.4.9,2.09-.28,3.42-.29.32-.6.61-.92.91-1.76,1.68-2.65,3.64-2,6.11a.88.88,0,0,1-.42,1.09,4.47,4.47,0,0,0-1.74-2.27,4,4,0,0,1-1.24-2.57,2.89,2.89,0,0,1,1.44-3l.56-.33c.88-.54,2.39-.49,2.46-1.78.07-1.11-1.38-1.18-2.06-1.84a4.93,4.93,0,0,1-1.51-4.42,6.13,6.13,0,0,1,3.46-5.14c.77-.37,1.56-.73,2.3-1.16a1,1,0,0,0,.14-1.67c-.57-.5-1.24-.87-1.79-1.38C768.89,99,767,95.94,767,92c0-3.53,1.2-6.56,4.42-8.49a4.35,4.35,0,0,0,.79-.56c.44-.38.7-.81.25-1.36a4.84,4.84,0,0,1-.42-.5c-.78-1.34-.66-1.9.58-2.61.28-.16.61-.23.89-.39.81-.46.94-.9.3-1.49-3.23-3-3.44-6.54-2.17-10.4a17,17,0,0,1,1.63-3.52C775.49,59.05,779.55,57.93,783.7,59.7Z"/><path class="cls-5" d="M757.82,144.41a5.18,5.18,0,0,1,.69-.64c2.32-1.57,3.25-1.49,4.79.81,1.45,2.15,3.12,3.85,5.8,4.28a2.67,2.67,0,0,1,.88.4,2.26,2.26,0,0,1,1.37,2,2,2,0,0,1-1.59,1.84c-4.55,1.51-6.32,5.07-6.4,9.43-.06,3.74,0,4.13-3.51,5.61a10.13,10.13,0,0,0-4.53,4c-.82.25-1.64.5-2.45.77-1.7.58-2.29.25-2.56-1.5a7.18,7.18,0,0,1,6-7.91c.22,0,.44,0,.65,0,2.15-.21,2.29-.43,1.16-2.5a4,4,0,0,1-.05-4,8,8,0,0,1,3.5-3.68,3.32,3.32,0,0,1,2.75-.4,4.28,4.28,0,0,0,3.75-.26c.26-.17.55-.42.43-.78s-.25-.65-.48-.74a7.43,7.43,0,0,0-1.85-.49c-3.29-.46-6-1.81-7.27-5.08A2.69,2.69,0,0,0,757.82,144.41Z"/><path class="cls-10" d="M769.67,127.15c-.72.94-.72.94-1.76.11Z"/><path class="cls-10" d="M785.2,60.25a1.62,1.62,0,0,1-1.43-.54A1.33,1.33,0,0,1,785.2,60.25Z"/><path class="cls-11" d="M685.93,151.11c-3.48-4.69-3.15-9.41-.26-14.2.44-.73,1-1.43.73-2.39a1.65,1.65,0,0,0-2,.35c-.87.94-1.72,1.9-2.59,2.84q-3.93,4.14-7.12-.79c-.29-.45-.49-1-.74-1.43-.62-1.14-1.2-2.56-2.71-2.43-1.67.15-1.59,1.8-1.88,3-1.83,7.63-5.42,10.33-13,9.73a1.33,1.33,0,0,0-.49,1.7,14.77,14.77,0,0,0,.84,1.37c1.88,3.23.82,5.94-2.73,7-.62.18-1.25.32-1.85.54a9.23,9.23,0,0,0-4.44,3.62c-.24.36-.39.84,0,1.16.13.1.56-.08.78-.24.44-.31.8-.72,1.22-1.05a10.14,10.14,0,0,1,14,1.33,21.65,21.65,0,0,0,1.53,1.65,1,1,0,0,0,.89.16.89.89,0,0,0,.24-.82c-.3-.8-.7-1.57-1.07-2.34a1.78,1.78,0,0,1,.17-1.83,3.17,3.17,0,0,1,2.9-1.71,10.67,10.67,0,0,1,3.77.78c1.23.47,1.71.28,2.27-1,1.19-2.81,3.6-3.85,6.28-4.53a2.64,2.64,0,0,1,3.28,1.37c.63.75,1.41,1.7,2.37,1C687.5,153,686.54,151.92,685.93,151.11Zm-6.06-2c-.33.15-.43-.05-1,0a3.68,3.68,0,0,0-2,1c-.2.17-.19.18-1,1-.43.43-.77.78-1,1l-.19.44-.81.56h0a3.81,3.81,0,0,1-2,1,7.67,7.67,0,0,1-1,0h-3a4.92,4.92,0,0,0-3,1c-.58.51-.5.8-1,1s-.48,0-2,0h-2a5.06,5.06,0,0,0-2,0h0a12.18,12.18,0,0,0,2-3,5.6,5.6,0,0,0,0-2,1.77,1.77,0,0,1,0-1,2.57,2.57,0,0,1,1-1l1.42-.77h0a29.72,29.72,0,0,0,3.39-1.08h0c1.26-.68,1.83-.65,2.16-1.13a1.3,1.3,0,0,0,.2-.65,12.38,12.38,0,0,0,1.76-1.71c.08-.14.16-.29.25-.42s.34-.51.52-.77l.36-.67a14.37,14.37,0,0,0,.74-1.53.39.39,0,0,1,.26-.22.08.08,0,0,1,0,0,.51.51,0,0,1,.7,0,.8.8,0,0,1,.18.19.42.42,0,0,1,.25.12c.16.15.31.31.47.45a1.64,1.64,0,0,0,.25.21l0,0s0,0,0,0l.14.09q.42.26.84.54l.33.13a.22.22,0,0,1,.09.07,4.62,4.62,0,0,0,1.61.27,5.49,5.49,0,0,1,1.9.1,1.89,1.89,0,0,1,1.12,1.16,6.84,6.84,0,0,1,.43,1.61c.28,1.73.41,1.69.4,2.07S680.66,148.81,679.87,149.15Z"/><path class="cls-5" d="M680.16,137.55a5.65,5.65,0,0,1-4.54-2.1,19.68,19.68,0,0,1-1.7-2.34c-.35-.54-.6-1.15-.91-1.71-.54-1-1.24-1.79-2.53-1.6s-1.65,1.25-2,2.3c-.15.51-.17,1.06-.3,1.58a19.93,19.93,0,0,1-4.27,8.6c-1.82,2-3.91,3.35-6.74,3.22a2.66,2.66,0,0,0-.88.31l2.39.92a4.49,4.49,0,0,0,4.06-.28c3.49-2.14,6.32-4.85,7-9.16.16-.95.23-1.92.37-2.87a1.06,1.06,0,0,1,.69-1,1.13,1.13,0,0,1,1.34.63,19,19,0,0,1,1.28,2.6,6.27,6.27,0,0,0,4.74,4c2.36.57,2.51.54,3.28-2,.1-.3.18-.61.27-.92A14.45,14.45,0,0,0,680.16,137.55Z"/><path class="cls-5" d="M683.92,152.93c.56.29,1.12.61,1.7.86a.64.64,0,0,0,.55-.19c.12-.13.23-.44.15-.55a11.64,11.64,0,0,0-1.32-1.79c-3.31-3.49-3.09-11.22-.31-14.4.63-.73,1.14-1.56,1.71-2.34a.91.91,0,0,1,.86.8,3.56,3.56,0,0,1-.41,2.19c-2,4.43-1.12,8.65,1,12.76.54,1.06,1.2,2,1.72,3.12a1.9,1.9,0,0,1-.3,2.13,1.94,1.94,0,0,1-2.87.35A8.43,8.43,0,0,1,683.92,152.93Z"/><path class="cls-1" d="M687.15,180.51c.39.17.17-.41.27,0,.06.25-.06.33-.29.18s.12.18.09-.25Z"/><path class="cls-3" d="M392.56,159c-.06-1.12-.44-1.55-1.14-1.24a6.44,6.44,0,0,0-1.41.78c-1,.82-1.94,1.7-2.9,2.55-1.74,1.14-2.95.71-3.79-1.16-1.58-3.51-.89-6.71,1.11-9.8.51-.79,1.29-1.78.44-2.63s-2-.2-2.88.43a20.41,20.41,0,0,1-4.94,3c-1.59.55-2.91.47-4-1.06-2.41-3.47-2.45-3.46-5.38-.49-1.52,1.55-3.16,2.38-5.06.69a8.09,8.09,0,0,1-1.83-3,17.61,17.61,0,0,0-1.32-1.41,1.25,1.25,0,0,0-.89-.1.59.59,0,0,0-.43.75,19.42,19.42,0,0,0,.62,2.5,10.3,10.3,0,0,1,.17,6.07c-1.14,4.09-2.46,8.08-5.62,11.15a3.59,3.59,0,0,0-.61.74c-.1.16-.15.54-.08.58a1.51,1.51,0,0,0,.88.3c1-.16,1.63-1,2.37-1.62a1.24,1.24,0,0,1,1.93.25,4.36,4.36,0,0,1,1,2.36c.17,2.31,0,4.55-1.67,6.4a11.26,11.26,0,0,0-1,1.3c-.48.74-.25,1.41.61,1.82.39.18.83.25,1.23.42a4.43,4.43,0,0,1,2.94,4.25c0,1.3-.06,2.6-.05,3.89a4.88,4.88,0,0,1-1.72,4,6.35,6.35,0,0,0-2.15,3.9c-.06.39,0,1,.26,1.18s.72-.17,1-.55a19.18,19.18,0,0,1,2-2.56,9.56,9.56,0,0,1,7.22-3.15,8.53,8.53,0,0,1,4.3,1.24l3.06,1.83a1.06,1.06,0,0,0,1.47-.11c.24-.33,0-.84-.31-1.16l-2.13-2c.6-4.09,2-5.56,6.37-6.18,1.9-.27,2.74-.9,2.39-2.84a6.94,6.94,0,0,1-.06-2.23c.29-2.13,1.17-2.6,2.78-1,.48.94.92,1.9,1.43,2.83a6.39,6.39,0,0,0,2.13,2.31,1.42,1.42,0,0,0,2-.06,6.92,6.92,0,0,0-.93-2.39c-3.64-6.48-3.47-12.7,1.31-18.59A7,7,0,0,0,392.56,159Zm-9.69,8.34a5.07,5.07,0,0,1-2.3,3,3.75,3.75,0,0,1-1.63.57,6.19,6.19,0,0,1-4.61,5.62,5.61,5.61,0,0,1-1.44.2v.22a7.2,7.2,0,0,1-.09,1.68c-.06.42-.12.84-.17,1.26l0,.13a9.71,9.71,0,0,1-.41,1l0,.07-.09.2a.76.76,0,0,0-.08.11v0c-.09.21-.1.18-.46.65l-.39.51h0l-1,.79-1.2.5-1.33.18-1.33-.18-1.19-.5h0l-1-.78a5.05,5.05,0,0,1-1.29-2.21l-.18-1.33c0-.13,0-.25,0-.38a4.84,4.84,0,0,1-.44-1.24c-.05-.08-.08-.17-.12-.25a3.89,3.89,0,0,1-.49-1.12l0-.17v0c-.06-.43-.12-.85-.17-1.28a4.28,4.28,0,0,1-.19-1.33,22.92,22.92,0,0,1,.35-3.41s0,0-.05,0a2.29,2.29,0,0,1-.06-2.13,3.25,3.25,0,0,0-.48-1,28.54,28.54,0,0,0-2.28-1.95.53.53,0,0,1-.14-.49,1.08,1.08,0,0,1-.18,0H358a.5.5,0,0,1,.07-1h.48a1.73,1.73,0,0,0,.31-.07,3,3,0,0,1,.48-1.9,7,7,0,0,0,1.21-2,11.4,11.4,0,0,0,.34-2.17c.09-.74.15-1.49.24-2.23a.84.84,0,0,1,.6-.82,6.46,6.46,0,0,1,2.1.1,10.67,10.67,0,0,0,2.26,0,4.24,4.24,0,0,0,2.36-1.1,2.38,2.38,0,0,1,1.16-.77,1,1,0,0,1,1,.68c.12.26.12.41.41.53s.52.15.76.26c.43.2.75.51,1.15.71a3.85,3.85,0,0,1,1.18.21,10.54,10.54,0,0,0,1.13-.08,19.07,19.07,0,0,0,2.14-.34c.43-.11,1.06-.36,1.49-.15s.53.83.5,1.29a18.3,18.3,0,0,1-.18,2,.49.49,0,0,1-.81.26,5.62,5.62,0,0,1,.55,3.47l.45.06a4.93,4.93,0,0,1,3,2.3A5,5,0,0,1,382.87,167.3Z"/><path class="cls-5" d="M386.08,151.06a5,5,0,0,0,.17-.95c.31-2.93-1.21-4.12-3.89-3-.8.33-1.55.77-2.34,1.12a11.12,11.12,0,0,1-4,1.08,2.67,2.67,0,0,1-2.57-1.05c-1.36-2-3.13-1.95-5.13-1.11-1.09.45-2.26.74-3.37,1.15a3,3,0,0,1-3-.48c-.34-.27-.72-.49-1.07-.72A13.44,13.44,0,0,0,361,149a3.57,3.57,0,0,0,3.65,3,4.18,4.18,0,0,0,3.62-1.76c.61-.75,1-1.63,1.61-2.41a1.29,1.29,0,0,1,.81-.38.68.68,0,0,1,.72.52c.2.73.3,1.48.55,2.18a2.94,2.94,0,0,0,2.66,2,5.77,5.77,0,0,0,1.6-.1,9.83,9.83,0,0,0,5.52-3.12c.58-.61,1-1.42,1.94-1.62a1.42,1.42,0,0,1,.88.21.58.58,0,0,1,.17.84c-.46.72-1,1.39-1.48,2.1a9.07,9.07,0,0,0-1.61,7.05c.51,2.5,1.52,4.69,4.1,5.75a5,5,0,0,0,1.37-2.23A11.89,11.89,0,0,1,386.08,151.06Z"/><path class="cls-5" d="M390.9,182.18c-4.54-4.89-5.3-10.53-3.33-16.7.88-2.76,2.82-4.73,5-6.52.35,1.12-.19,2.13-.46,3.16a40.9,40.9,0,0,0-1.39,9.27,21.75,21.75,0,0,0,.44,5.8,20,20,0,0,1,.34,3.55A1.63,1.63,0,0,1,390.9,182.18Z"/><path class="cls-5" d="M385.34,177.1c-.19-.72-.35-1.45-.56-2.16-.27-.89-.74-1-1.34-.46a5.51,5.51,0,0,0-1.6,6.14c.46,1.5.1,1.92-1.43,2-.86.06-1.73,0-2.57.14a3.79,3.79,0,0,0-2.31,1,8.14,8.14,0,0,0-2.29,4.52.87.87,0,0,0,.61,1,9.65,9.65,0,0,1,3.56-4.06,9.81,9.81,0,0,1,4.53-1.55c2.57-.13,3.07-.83,3-3.48C385,179.17,384.67,178.08,385.34,177.1Z"/><path class="cls-12" d="M64.51,4.6C53.68,8.82,43.23,24.25,43,36.21a3.66,3.66,0,0,0,2.15,3.46c-3.19,3.17-6.21,2.63-8-1.13C32,28,34.17,15,44.85,9.92,51.12,6.94,57,2.9,64.51,4.6Z"/><path class="cls-13" d="M46.17,54.91C52.1,51.08,58,49,64.12,54.7c1.25,1.14,2.53-.57,3.38-1.76,4.54,3.73,3,8.23,1.61,12.71-3.3,1.76-5.31-.44-6.54-2.76C59,56.11,53.33,54.08,46.17,54.91Z"/><path class="cls-14" d="M99.87,180.15a9.4,9.4,0,0,0,0,2,10.44,10.44,0,0,0,2,5c2.94,4.17,5.85,3.25,7,6,1.31,3.17-2.17,5.24-1,9s5.32,4.24,5,6-5.7,3.61-9.13,1.68c-2.72-1.52-2.66-5.06-4-7.09-4.38-6.61-8.35-13-16.27-16.83-10.8-5.17-16.82-15.35-20.22-26.49-2-6.55-4.42-13.37-2.92-21.22a37.56,37.56,0,0,1,15.76,19.54c2.12-6.37,2.57-11.5,5.29-15.84s5.35-9.32,11.72-7.39a10.56,10.56,0,0,1,7.17,12.16,10.81,10.81,0,0,0,0,5.45,14.23,14.23,0,0,0,4.14,7.47"/><path class="cls-15" d="M0,74.39c6.29-2.65,5.69-8.26,4.93-13.33-.95-6.35,6.19-23.3,12-25.4,4-1.46,8.14-1,9.77,4.51.8,2.67,10.13,4.37,12.27,2.57,1.69-1.42.17-2.5-.43-3.71C30.29,22.37,43.21.77,61.84.34,68,.19,74.56-1.45,79.52,4.12c.39,2.22-1.26,2.33-2.72,2.64-2.5-.06-4.93-.82-7.45-.75-11.61-.28-20.9,3.8-26.79,14.24-2.93,5.21-1.49,10.45.27,15.58,1.43,4.2,4.55,3.59,7.76,2.36,5.27-.14,6,2.56,3.27,6.2-2.91,3.86-4.93,8.18-7.44,12.24-4.21,2.55-4.48-1.22-5.67-3.52-.35-.55-.69-1.11-1-1.66-3.29-4.18-5.89-1.18-8.58.83a6.4,6.4,0,0,1-1.17.86c-2.83,1.44-4.95,6.16-8.52,3.77-3.4-2.28.11-5.62.81-8.46.79-3.23,1.64-6.43-3.32-6.83-4.12,2.78-6.15,7.29-8.81,11.15s-.63,8.64,3.21,8.63A8,8,0,0,1,16.17,60c6.79.22,13.55,1,20.37.85,3.87-.07,7.18-.89,9.9-3.71A7.22,7.22,0,0,1,50,54.44c7.19-1.93,13.22-.39,17.67,5.93a12.11,12.11,0,0,0,6.43,4.35c1,.58,1.83,1.22,1.13,2.54-.8,4.85-3.81,3.77-6.24,1.86a57.07,57.07,0,0,1-7.07-7.33c-4.06-4.55-8.58-5.12-12.21-.16C45.37,67.48,40,67.21,34.08,66c-1.42-.28-2.8-.78-4.23-1C15.53,63.37,15,63.5,8.83,76.37,7,80.15,5,81.61.89,80.26"/><path class="cls-16" d="M75.18,67.26l-1.59-1.61c-1.11-4.19.56-9.05-3.09-12.62-1.45-2.77-1.21-5.36,1.71-6.75s5.43.51,6.7,2.79c2.57,4.65,6,8.64,8.87,13.08,2.71,5.51,2.18,11.6,2.65,17.67,1.58-.77,1.79-2.06,2.53-2.94.35-.92.33.31.36-.62.2-7.55-2.54-15.06-.19-22.7.39-1.24-1.55-2.76-3-2.47C81.26,52.79,78.64,43,71.6,41.22c-2.1-.52-1-3.28.27-4.24,6.2-4.8,9.45-12.23,15.53-17.11,1.84.71,1.87,1.95,1,3.45-.36,4.39-3.13,7.53-5.68,10.76-1.16,1.48-2.95,2.53-3.07,4.69,4.21-.92,3.72,4.58,6.91,5.06,11,1.64,14,6.88,10.39,17.73-.35,1.06-1.28,1.67-.17,3.09,4.81,6.17,3.17,11.74-1.22,17.69-4.13,5.6-.6,11,2.31,16.08,1.89,3.3,7.87,7,3.56,10.22-3.93,3-5.57-3.63-8-6.3-7.72-8.61-6.86-19.68-8.5-30-.29-1.88.27-3.78-.77-5.67C81.29,61.35,78.92,61.46,75.18,67.26Z"/><path class="cls-17" d="M88.42,23.32c-.34-1.12,0-2.54-1.54-3.07-2.08-5.84-8.14-8.86-10.34-14.61,1.13-.24,2.37-.27,3-1.52C90.61,11.48,91.65,13.73,88.42,23.32Z"/><path class="cls-18" d="M103.56,167.72c1.38,3.51-.9,7.68-3.15,9.73s-4.35-2.28-6.64-3.59c-18.39,3.34-23.8-5-28-22.77-.26-1.06.6-1.71,1.61-2,5.66,3.3,4.46,10.54,8.53,14.83,1.41,1.49,1.75,3.93,3.77,5.18,2.58-.95,2.11-3.57,3.06-5.36,4.66-2.56,9-5.88,14.75-5.71,6.6.25,4.76,6.22,6.12,9.69"/><path class="cls-19" d="M67.33,149.09c-.07,14.22,8,23,21.68,23.83,1.61.1,3.42-.54,4.76,1-3.81,5.92,4.74,5.46,4.84,9.37,2,3.86,4,7.71,1.24,12.06-2.26-2.83-4.49-5.7-6.82-8.48-1-1.2-1.63-2.53-3.58-3.18C74.51,178.71,63.28,162,63.84,146,65.8,146.15,66.65,147.53,67.33,149.09Z"/><path class="cls-5" d="M97.44,158c-5.3.92-8.89,6.25-14.75,5.71-.08-2.06,7.22-4.5-.41-6.24-2.12-.49-1.23-2.82-1.45-4.4a11.92,11.92,0,0,1,2.22-8.26c2.19-3.26,3.4-9.14,9.09-7.11,4.9,1.75,6.51,10.58,2.88,15.15C91.72,157,92.88,158.07,97.44,158Z"/><path class="cls-20" d="M102.53,199.39c-1.24-1.12-2.6-2.2-2.68-4.09-.37-4-2.22-7.9-1.24-12.06,5.46,2.8,6.77,8.34,9,13.34"/><path class="cls-21" d="M76.54,5.64c3.8,4.62,11.5,6.48,10.34,14.61a46.81,46.81,0,0,0-10,22,8.45,8.45,0,0,1,4.82,3.24,17.83,17.83,0,0,1,2.48,3.71c.48,1,1.82,2.09,2.9.89,2.32-2.57,4.47-2.68,6.62,0,2.42,3,2.62,6.85.58,9.44-3,3.82-2.06,6.44.54,9.56s2.93,6.06-.59,8.75C90.67,77.46,90.54,74.42,90,72c-.73-3.3-1.18-6.64-3.49-9.33A47.08,47.08,0,0,1,77.29,49.5c-.89-2-3-3.57-5.29-2a3.53,3.53,0,0,0-1.46,1.94c-.27,1.52,2.21,3.78,6.37,5.06-2.26,9.62-4.4,12.16-6.12,12.23-3.47.13-4.84-9.9-12.23-12.23a12.37,12.37,0,0,0-7.91.42l-3,2.25a1.38,1.38,0,0,1-2.12-.52c1-5,2.82-9.57,6.79-13,1.13-1,2.59-1.86,1.79-3.39-1-1.88-2.83-1-4.39-.61-6.62-.29-8.76-2-9.45-3.54-.51-1.13-.16-2,0-6.12.12-3.35,0-4.8,0-6.11.14-6.7,5.2-16.7,12.23-18.35,1.67-.39,1.09.25,6.11,0A73.29,73.29,0,0,0,69,4.6C69.65,4.48,70.51,4.3,76.54,5.64Z"/><path class="cls-22" d="M17.89,39.74c6.2-.18,8.42,3,6.17,8.82-.51,1.32-1.43,2.49-1.95,3.82a33.54,33.54,0,0,0-1.06,4c4.72.19,5.73-5.18,9.67-5.67A26,26,0,0,1,41.4,51l.05.07c1.24,8.21.63,9.1-7.14,9.41-6.31.26-12.64,0-19,.47L13.21,63c-2.88-.94-3.17-3.7-1.85-5.19C16,52.57,15.17,45.55,17.89,39.74Z"/><path class="cls-23" d="M17.89,39.74C17,46,20,53.32,12.51,57.85c-1.39.84-.75,3.56.7,5.15a5.1,5.1,0,0,1-3.11,3.44C2.64,54.57,11.63,47.56,17.89,39.74Z"/><path class="cls-24" d="M15.35,60.91a45.54,45.54,0,0,1,19.13-2.24c5.77.48,8.13-1.91,7-7.64,2.84.8-.57,6.08,4,5.61l2.12.52c-1.58,4.5-4.63,5.78-9.38,5.5C30.59,62.2,22.87,62.93,15.35,60.91Z"/><path class="cls-25" d="M41.4,51c-3.6,2-7.16,2.21-10.67-.21C34.36,46.94,38,44.38,41.4,51Z"/><path class="cls-26" d="M86.51,62.64c5.69,3.47,3.88,10.77,7.75,15.17l-3.73,6.75C86.24,77.17,89.72,69.26,86.51,62.64Z"/><path class="cls-27" d="M814.81,97.17c17.52-11.14,18.14-10.63,28,23.54,5.08-1.74,3.59-7.25,6-10.6,4.23-5.75,7.26-12.57,16.26-5.89,5.56,4.14,5.62-2.07,6-4.78,1.66-10.8,5-21.36,3.89-32.61-.45-4.71,1.49-9.65,3.65-14.45,6,10.55,6.83,21.67,5.23,33.17.2,8.9-.53,17.61-5.07,25.57-8.14-7.94,3.06-14.25.77-20.12-1,6.29-5.2,13.58-4.46,22,.22,3.08.63,6.16-.3,9.19a10.68,10.68,0,0,1-1.39,3.16c-2.68,3.59-4.86,9.22-10.37,7.17-5.19-1.94-2.6-7.25-2.26-11.28.13-1.54,0-3.08,0-4.58-1.19-4.53-3.15-3.72-5.29-.69-4.2,6-4.77,13.06-6.3,19.89-1.32,5.86-1,12.86-8.82,15-6.9-1.25-5.34-6.8-5.5-11.23-.44-12.16.12-24.43-4.69-36-3.67-5.14-6.89-1.54-9.92.68-9.93,7.24-18.3,34.88-14.27,46.64,1.39,4,3.62,7,8.41,6.87,3.17-.08,6.32,0,9.14,1.79,3.15,2.92,2.25,5.57-.7,7.82a36.89,36.89,0,0,0-7.18,7.68c-6.45,8.73-8.89,8.24-13.86-2.32-4.12-6.58-7.95-2.45-10.93.81s-6.86,6.89-2.53,11.82c1.24,1.41,3,2.37,3.85,4.18-2.71,11.57-13.16,21.41-24.06,22-5.94.31-11.78.5-17.31,2.89a14.88,14.88,0,0,0-7,6.1c-1.68,2.51-3.17,5.14-5.66,8.36,4.13-4.4,6.13-9.31,10.72-11.9a11.6,11.6,0,0,1,3.3-1,24.45,24.45,0,0,1,13.55,2.53c12.35,6.8,24.09,7.07,35.47-1.93,3.24,1.45,2.91,3.48,1,5.79-8.68,20.08-17.93,18.89-35.38,9.3-9.58-5.26-15.78-4.18-22.82,2.62-4.8,4.63-9.3,9.68-15.51,12.62-3.51,1.66-7.26,2.19-9.54-1.11-2-2.84,1.06-5.09,3.13-6.77,5.69-4.61,8.8-11.18,11.74-17.35,6.53-13.7,18-18.76,31.71-20.8,8.85-1.33,14.75-3.75,11.81-15.15-2-7.73,2.78-15.3,9-19.25,10.22-6.49,9.64-15.28,8.38-24.92C791.18,126.81,800.48,106.1,814.81,97.17Z"/><path class="cls-28" d="M877.58,110.56c5.69-7.43,3.94-16.76,6.39-25,.36,19.32-2,38.56-10.1,55.9-6.16,13.24-10.75,28.65-26.53,35.65-3,1.32-4.06,7.34-5.61,11.35-3.59,9.27-10.78,15.35-18.43,20.91-4.92,3.57-10.32,5.71-15.36.14-3.47,4.09-.78,10.1-5.62,13-.34-1.73-.68-3.45-1-5.18-1.66-8.64,1.39-16.47,4.17-24.36,2.15-2.53,4.48-4.4,7.84-1.87,5.32,11.46,9.92,11.74,17.59,1A46.67,46.67,0,0,0,836,181.54c2.93-8,7.51-13.5,14.86-19.17,12.41-9.58,19.28-24.68,22-40.8l-1.17-7C873.77,113.42,874.82,110.72,877.58,110.56Z"/><path class="cls-21" d="M812.78,193c-1.7-2.57-3.58-1.13-5.43-.25-4.84,8.52-13,14.62-17,23.84-2.16,4.91-7.59,4.59-12.47,4.66-9.42.14-18.19-4.83-27.74-3.24l.14,0c-4.18-.84-3.77-2.92-1.48-5.51,5.27-2.25,10.56-4.36,16.45-4.31,11.06.1,21.51-7.56,25.75-18.78-3.89-5.82-4.28-11.6.65-17,3.56-3.87,7.52-7.05,12.77-2.33,2.56,2.73-1.69,9.17,4.29,9.44,3.73.17,3.19-4.72,4.37-7.44a10.41,10.41,0,0,1,8.49-6.82c4.65-.87,2.66-3.52.06-5.4-12.4-3-14.68-6.27-13.09-18.8,1.56-12.24,6.39-23.38,11.86-34.24,2.33-4.63,5.43-8.85,11.81-7.37,5.86,13.67,6,28.06,5.13,42.52-.2,3.53-1.65,7.32,4,7.65,7.47-1.09,9.94-6.44,11.18-13,1.16-6.08,1.66-12.33,3.75-18.17,1.1-3.1,1.86-8.32,7.39-4.13,2.82,6.19-2.55,11.59-2.65,18.33,7.16-1.48,8.1-7.8,11.87-11.11,1.69,0,4.21-1.13,3.26,2.43-3.85,14.38-12.59,26.33-19.53,39.16-.88,1.64-3,4.21-3.94,4-14.35-3.33-9.75,10.32-14.3,15.66-2.56,3.32-4.79,6.9-7.46,10.1C823.86,201.29,820.17,201.21,812.78,193Z"/><path class="cls-29" d="M832.19,99.44c-15.12,9.29-15.48,26.07-20.52,40.47-3.51,10,.06,16.6,10,19.94-16.74,1.66-21.9-4.06-19.31-21.3,2-13.6,3.72-27.37,15.66-36.68C822.18,98.59,826.46,94.39,832.19,99.44Z"/><path class="cls-30" d="M863.62,114.35c-6.76-.53-4.43,5.25-5.26,8.26-1.78,6.39-2.68,13-3.81,19.6-1.37,8-5.48,10.94-13.25,7.4,5.88-6.74,4.65-15.5,6.37-23.37C849,120.32,851,115,855.2,110.76S860.88,107.54,863.62,114.35Z"/><path class="cls-31" d="M877.58,110.56c-.38,3.67-1.82,5.79-5.91,4-.73-11.36,7.71-19.93,7.46-31.14l3.1.76Z"/><path class="cls-32" d="M812.78,193c5.9,4.72,11.15,4.9,16.25-1.52,2.6-3.28,6.17-5.79,9.3-8.64-2,5.91-4.43,11.6-9.36,15.73-3.76,3.14-7.37,8.08-12.86,5.94C811.14,202.56,814.35,196.75,812.78,193Z"/></g></g></svg>