<?xml version="1.0" encoding="iso-8859-1"?>
<!-- Generator: Adobe Illustrator 19.0.0, SVG Export Plug-In . SVG Version: 6.00 Build 0)  -->
<svg version="1.1" id="Layer_1" xmlns="http://www.w3.org/2000/svg" xmlns:xlink="http://www.w3.org/1999/xlink" x="0px" y="0px"
	 viewBox="0 0 392.598 392.598" style="enable-background:new 0 0 392.598 392.598;" xml:space="preserve">
<g>
	<g>
		<path d="M384.453,211.612c-41.632-11.119-78.481-60.832-78.869-61.349c-2.909-4.267-9.762-6.077-14.869-2.521V78.052
			c0-2.327-0.711-4.655-2.392-6.788L234.408,4.097c-2.069-2.521-5.172-4.073-8.469-4.073H64.776c-3.297,0-6.4,1.487-8.469,4.073
			L2.392,71.265C0.84,73.139,0.065,75.467,0,78.052v224.453c0,6.012,4.849,10.925,10.925,10.925h198.917
			c14.093,36.848,44.218,66.198,83.782,78.61c2.133,0.711,4.331,0.711,6.465,0c55.337-17.325,92.509-67.943,92.509-125.931v-44.024
			C392.533,217.172,389.236,212.84,384.453,211.612z M70.012,21.81h150.691l36.396,45.382H33.616L70.012,21.81z M167.887,88.978
			v46.545l-16.226-11.507c-3.814-2.715-8.857-2.715-12.606,0l-16.226,11.507V88.978H167.887z M209.067,211.612
			c-4.784,1.228-8.145,5.56-8.145,10.537v44.024c0,8.727,0.905,17.261,2.521,25.471H21.786V88.978h79.192v67.685
			c-0.129,7.434,8.404,14.352,17.261,8.857l27.151-19.329l27.151,19.329c7.176,5.172,17.261,0,17.261-8.857v-67.75h79.192v83.135
			C254.125,187.111,232.339,205.341,209.067,211.612z M370.812,266.044h-0.065v0.129c0,47.321-29.608,88.63-73.956,104.016
			c-32.711-11.378-57.277-36.784-68.008-68.331h15.838c6.012,0,10.925-4.849,10.925-10.925c0-6.012-4.848-10.925-10.925-10.925
			h-20.816c-0.905-6.594-1.164-13.964-0.905-21.786h43.572c6.012,0,10.925-4.849,10.925-10.925c0-6.012-4.849-10.925-10.925-10.925
			h-43.572v-6.335c32.711-11.83,60.444-40.275,73.956-56.048c13.511,15.774,41.244,44.218,73.956,56.048V266.044z"/>
	</g>
</g>
<g>
</g>
<g>
</g>
<g>
</g>
<g>
</g>
<g>
</g>
<g>
</g>
<g>
</g>
<g>
</g>
<g>
</g>
<g>
</g>
<g>
</g>
<g>
</g>
<g>
</g>
<g>
</g>
<g>
</g>
</svg>
