<svg xmlns="http://www.w3.org/2000/svg" viewBox="0 0 141.33 46.56"><defs><style>.cls-1{fill:#9a40e3;}.cls-2{fill:#9743d6;}.cls-3{fill:#231a2a;}.cls-4{fill:#261c2d;}.cls-5{fill:#352641;}.cls-6{fill:#342640;}.cls-7{fill:#402f4d;}.cls-8{fill:#352543;}.cls-9{fill:#251a2e;}.cls-10{fill:#18111e;}.cls-11{fill:#1a131f;}.cls-12{fill:#3a2a46;}.cls-13{fill:#34263f;}.cls-14{fill:#140f18;}.cls-15{fill:#2e1f3a;}.cls-16{fill:#19151b;}.cls-17{fill:#372842;}.cls-18{fill:#2d2037;}.cls-19{fill:#3a2a47;}.cls-20{fill:#402b51;}.cls-21{fill:#e2e2e2;}.cls-22{fill:#251f29;}.cls-23{fill:#352840;}.cls-24{fill:#271d30;}.cls-25{fill:#fee0f8;}.cls-26{fill:#494348;}.cls-27{fill:#3e3147;}.cls-28{fill:#937d9c;}.cls-29{fill:#fddff8;}.cls-30{fill:#fde1f8;}.cls-31{fill:#9842dd;}.cls-32{fill:#9945de;}.cls-33{fill:#9d50d8;}.cls-34{fill:#a154dd;}.cls-35{fill:#953edd;}.cls-36{fill:#954fc9;}.cls-37{fill:#9447d2;}.cls-38{fill:#fafafa;}.cls-39{fill:#723b9c;}.cls-40{fill:#9740e0;}.cls-41{fill:#d5a9e6;}.cls-42{fill:#9854cb;}.cls-43{fill:#bbbabb;}.cls-44{fill:#9840e1;}.cls-45{fill:#a568cc;}.cls-46{fill:#fee1f8;}.cls-47{fill:#9847da;}.cls-48{fill:#9f69c2;}.cls-49{fill:#9743dc;}.cls-50{fill:#9741de;}.cls-51{fill:#9443d5;}.cls-52{fill:#edc1ed;}.cls-53{fill:#9b43df;}.cls-54{fill:#983fe1;}.cls-55{fill:#e4b9e3;}.cls-56{fill:#4c216f;}.cls-57{fill:#f5cef4;}.cls-58{fill:#9b44df;}.cls-59{fill:#9a4ad4;}.cls-60{fill:#a249e2;}.cls-61{fill:#9742d6;}.cls-62{fill:#b794b7;}.cls-63{fill:#9e51da;}.cls-64{fill:#f1c7f1;}.cls-65{fill:#9e45df;}.cls-66{fill:#9f4dd1;}.cls-67{fill:#9a41d2;}.cls-68{fill:#9a4fd4;}.cls-69{fill:#9941e0;}.cls-70{fill:#a34ae2;}.cls-71{fill:#9d56d2;}.cls-72{fill:#9d48d5;}.cls-73{fill:#433150;}.cls-74{fill:#9f59d3;}.cls-75{fill:#a064c9;}.cls-76{fill:#332041;}.cls-77{fill:#a051dd;}.cls-78{fill:#a366cc;}.cls-79{fill:#966eac;}.cls-80{fill:#ac7cc3;}.cls-81{fill:#dbdadb;}</style></defs><g id="Capa_2" data-name="Capa 2"><g id="Capa_1-2" data-name="Capa 1"><path class="cls-1" d="M10.79.75A6.46,6.46,0,0,0,7.28,5.92a.59.59,0,0,0,.35.57c-.52.51-1,.43-1.32-.19A3.38,3.38,0,0,1,7.57,1.62C8.6,1.13,9.56.47,10.79.75Z"/><path class="cls-2" d="M7.79,9c1-.63,1.93-1,2.94,0,.2.19.41-.09.55-.28.74.61.48,1.34.26,2.07-.54.29-.87-.07-1.07-.45A2.42,2.42,0,0,0,7.79,9Z"/><path class="cls-3" d="M38.9,35.91c.21,1.89-1.42,2.52-2.48,3.5-.66.61-1.49.37-2.25.07a2.88,2.88,0,0,1-1-3.29c.19-.92.61-1.78.2-2.77-.15-.35.06-.77.19-1.15a12.86,12.86,0,0,0,.52-6,42.59,42.59,0,0,0-.93-5.14,3.15,3.15,0,0,1,.63-2.5,2.22,2.22,0,0,0,.12-2.34,3.59,3.59,0,0,1,1.92-4.86,1.63,1.63,0,0,1,1.79,1.25c.09.3.15.61.6.6,1,0,1.13.69,1.22,1.45,0,.3,0,.9.13.84.61-.32,1.41.32,1.87-.36s1-1.44,1.9-.88a2.18,2.18,0,0,1,1,2.6c-.12.5-.57,1,.43,1.22.68.17.86.2,1-.5a3.84,3.84,0,0,1,1.17-2.18c.37-.35.81-.72,1.38-.47a1.62,1.62,0,0,1,1,1.49A1.34,1.34,0,0,0,50.49,18c1.28.33,2,2.3,1.38,3.87a1.87,1.87,0,0,0,.37,2.32,2.23,2.23,0,0,1,.31,2.22,6.37,6.37,0,0,0-.1,4.09A1.86,1.86,0,0,1,52.51,32c-1,1.7.22,3.59-.51,5.31-.16.36.43.63.53,1a3.89,3.89,0,0,1-1,4.07c-.77.71-1.66,1.8-3,1.86-1.11.06-1.75-.68-1.77-2,0-.84.4-1.72-.2-2.52-.76-.91-.38-1.87-.1-2.81.13-.42.37-.82.16-1.26a5.75,5.75,0,0,1-.3-3.28,10.5,10.5,0,0,0-.27-2.49,6.38,6.38,0,0,1,0-1.31c0,1.56-.53,3-.4,4.65s.7,3.33.5,5c-.05.44,0,.89-.4,1.21-.57.66-1.06,1.42-2.14,1.19-.39-.08-.52.3-.72.53-.48.52-1,1-1.76.66a1.76,1.76,0,0,1-1-1.75c0-.7.24-1.43-.28-2.06a17.17,17.17,0,0,1-.09-5.16c.55-.86.61-.84,1.25.4a.78.78,0,0,1,.17.67c-.84,2,.25,4,0,6a.51.51,0,0,0,.35.57.62.62,0,0,0,.72-.29A1.49,1.49,0,0,1,44,39.39c.58.1.86-.4,1-.87a2.37,2.37,0,0,0-.16-1.86,2.71,2.71,0,0,1-.38-2c.12-1.12-.46-2.23-.09-3.38s0-2.3.57-3.36a3.14,3.14,0,0,0,.65-1.76c0-.37.17-.75.6-.8s.56.36.75.67a3.83,3.83,0,0,1,.39,1.73c.11,1.8.94,3.56.24,5.39a1.88,1.88,0,0,0,.33,1.7,2.18,2.18,0,0,1-.07,2.48,1.84,1.84,0,0,0-.17,1.81,6.12,6.12,0,0,1,.22,2.25c0,1.61.45,1.84,1.88,1a3.33,3.33,0,0,0,1.65-2.09c.14-.38.28-.84,0-1.15a3.11,3.11,0,0,1-.55-2.6c.15-1.53-.21-3.08.36-4.6.37-1-.37-2-.45-3a4,4,0,0,1,.3-2.31,1.6,1.6,0,0,0-.43-2.23c-.72-.54-.54-1.26-.23-1.95a3.12,3.12,0,0,0,.31-2.2c-.27-1-.79-1.26-1.77-.95s-1.06.21-.91-.76a5.23,5.23,0,0,0,.14-1.42c0-.2-.06-.42-.28-.49s-.38.09-.5.25a3.25,3.25,0,0,0-.66,2.36c.07.59.06,1.1-.53,1.45s-.47.88-.53,1.39c-.11.87-.65.89-1.31.66s-1.28-.41-.89-1.31a3.5,3.5,0,0,1,.35-.63c.58-.79.46-1.41-.47-1.77-.73-.3-.88-.73-.48-1.39a1.41,1.41,0,0,0,.21-.56c.06-.43.21-1-.25-1.19s-.6.37-.79.69-.45.9-1.06.4-.72-.07-.88.35-.14.63-.23.93-.21.52-.57.5c-.83-.06-1.86-1.92-1.44-2.64s.72-1.17-.43-1.45c-.74-.19-.43-1.24-1-1.69s-.82-.13-1.05.31a2.56,2.56,0,0,0-.08,2.82,2.59,2.59,0,0,1-.14,3c-1,1.36-1,2.19.13,3.5a1.23,1.23,0,0,1,.28,1.52,2.63,2.63,0,0,0-.05,2.63,1.37,1.37,0,0,1,.11,1.05,8.68,8.68,0,0,0-.2,3.44,1,1,0,0,1-.16.81,2.16,2.16,0,0,0-.37,2.34,1.23,1.23,0,0,1-.19,1,4.09,4.09,0,0,0-.44,1,1.56,1.56,0,0,0,.48,1.84,1.26,1.26,0,0,0,1.72-.32,2,2,0,0,1,.42-.34c.56-.23,1-.5,1-1.23a.89.89,0,0,1,.65-.89C39,35.36,39.09,35.56,38.9,35.91Z"/><path class="cls-4" d="M17.32,26.1c.47-.12.25-.52.3-.79.14-.67.45-1.47,1-1.5,1.51-.08,2.43-2,4.21-1-.18-.77-.66-.54-1-.66a3.13,3.13,0,0,1-1.79-3.74,5.58,5.58,0,0,0-.52-3.53c-.9-2.08-.52-4,1.43-5.26a.9.9,0,0,0,.47-.51c.32-1.41,1.61-1.92,2.58-2.67s1.81-.13,2.55.53c.43.37.73.78,1.39.33a1,1,0,0,1,1.41.26c.94,1.69,2.75,2.46,3.91,3.89A4.6,4.6,0,0,1,32.44,17a2.73,2.73,0,0,0-.83,1.54,2.91,2.91,0,0,1-.69,1.63c-1.63,1.09-2.8.81-3.66-.92-.28-.57-.53-1-1.22-.5-.3,1.28.84.92,1.39,1.22.84.4.92,1.46,1.67,1.94a3.66,3.66,0,0,0,.91.27,3.14,3.14,0,0,1,2.48,3.21,8.51,8.51,0,0,0,.91,4A3.1,3.1,0,0,1,31.18,34c-.36.09-.55.24-.57.64s.13.71-.13,1c-.66,1.49-1.56,2.54-3.43,1.91-.16-.06-.41.16-.62.26-.22-.28-.13-.61.11-.68.53-.14.28-.55.39-.83.28-.15.53,0,.79.06a1.28,1.28,0,0,0,1.69-1.61c-.07-.38-.28-.73,0-1.11s.51-1.05,1.1-1.27c.61,0,1.3.56,1.76-.33a2,2,0,0,0-.29-2.5A3.43,3.43,0,0,1,31,25.92a1.79,1.79,0,0,0-.41-2c-.5-.5-1-.32-1.52,0a.6.6,0,0,1-1-.32c-.18-.44-.54-.77-.72-1.23-.43-1.11-.45-1.11-1.37-.25a.68.68,0,0,1-.42.21c-.72-.42-.26-1.25-.61-1.8a3.93,3.93,0,0,0-.59-1c-.6-.65-1.27-1.26.14-1.76.28-.11.23-.47.3-.73.15-.55.45-.83,1-.47.49.65.95.58,1.41,0,.18-.25.39-.59.75-.47s.35.58.37.92a10,10,0,0,0,.08,1.55,1,1,0,0,0,1,.91c.59,0,.82-.42.93-.9a2.23,2.23,0,0,0-.2-1.73c-.17-.54-.39-1.1.38-1.37,1.55.73,2.12.17,2-2-.18-1-.43-1.84-1.75-2A2.11,2.11,0,0,1,29.3,9.75c-.31-1.13-.52-1.16-1.58-.62S26.61,8.55,26.21,8a1.23,1.23,0,0,0-.29-.51c-.46-.35-1-.51-1.41-.07s.29.67.46,1,.11.77-.36.95c-.26,0-.41-.15-.57-.33-.57-.69-1-.53-1.37.21a3.53,3.53,0,0,1-.15.46c-.07.15-.15.29-.23.43,0,1.18-1.13.37-1.54.85a2.6,2.6,0,0,0,0,3.51A1.23,1.23,0,0,1,21.09,16a.62.62,0,0,0,.17.66c.44.51.29,1,0,1.55-.69,1.53-.21,2.41,1.35,2.85a2.82,2.82,0,0,1,2.12,2c.22.92.46,1.53,1.62,1.44.87-.08.56.64.5,1.13a2.17,2.17,0,0,0,0,.95c.12.73-.09,1.18-.94,1.09a1.43,1.43,0,0,0-1,.27c-.67.49-1,.42-1.16-.5s-.76-1.85-.93-2.88c-.13-.73-.89-1-1.62-.45-.29.74-.57,1.42-1.59.82-.5-.29-.81.07-.95.56s-.09.79-.2,1.17-.14,1-.75.8A.85.85,0,0,1,17.32,26.1Z"/><path class="cls-5" d="M118.22,23a9.53,9.53,0,0,0-.67,5.55c.17,1.12.36,2.17-.75,3-.56.45-.26,1.28-.07,1.9.53,1.8.23,2.23-.93,3.59-.81,1-2,1.17-2.77,2.06a.82.82,0,0,1-.9.17,1.18,1.18,0,0,0-1.27.43c-1,1-1.63,1-2.63,0-.36-.35-.59-.87-1.26-.54a.69.69,0,0,1-.62-.25c-1-1.58-3-2.42-3-4.76a7.22,7.22,0,0,0-1-2.62,2.5,2.5,0,0,1-.34-2,10.44,10.44,0,0,0,.08-5.15,1.89,1.89,0,0,1,.42-1.81c1.06-.91,1.15-2.23,1.71-3.34a1.89,1.89,0,0,0,.27-1.48c-.11-.34-.13-.82.14-1,.87-.69.83-1.69,1.11-2.61.58-1.86,1.63-2.17,3.32-1.36a3.43,3.43,0,0,0,2.14-.07c1.36-.4,2.1-.24,2.51,1.09a6.06,6.06,0,0,0,1.54,2.67c.41.41.29,1,.61,1.49a7.17,7.17,0,0,1,2,2.23A2.92,2.92,0,0,1,118.22,23Z"/><path class="cls-6" d="M53.32,24.43c.44-.5.12-1,0-1.46a4.79,4.79,0,0,1,.56-4.13,2.11,2.11,0,0,1,2.73-1c.37.13.64,0,1-.07a10,10,0,0,0,3.72-1.07c.33-.18.79.06,1.11.33a1.2,1.2,0,0,0,1.1.22,1.87,1.87,0,0,1,2.34,1.5,3.84,3.84,0,0,0,1.47,2.34,2.48,2.48,0,0,1,1,2.55,5.8,5.8,0,0,0,.17,2.93c.28.84-.64,1.6-.06,2.41a19.46,19.46,0,0,1-.3,4.76v0a2.36,2.36,0,0,0-.45,3.06,1.68,1.68,0,0,1-.26,1.76A1.25,1.25,0,0,0,66.93,40a2.83,2.83,0,0,1-.56,2.36,1.36,1.36,0,0,1-1.87.55c-.76-.44-1.15-.24-1.46.52a1.56,1.56,0,0,1-.66.66c-1.15.63-4.32-.21-5-1.33a1.08,1.08,0,0,0-.7-.55c-1.89-.54-2.53-1.71-2.79-3.64a43.82,43.82,0,0,0-.6-4.84,17,17,0,0,1-1-5.48C53.38,27.17,53.07,25.72,53.32,24.43Z"/><path class="cls-7" d="M83.74,26.08a2.4,2.4,0,0,0,.67,2.38,2.43,2.43,0,0,1,.4,3,1.22,1.22,0,0,0,.08,1.42A1.84,1.84,0,0,1,85,35c-.64.8-.32,1.61-.45,2.42-.22,1.46.19,2.9-.05,4.33a1.9,1.9,0,0,0,.3,1.13,3,3,0,0,1-.27,2.86,2.47,2.47,0,0,1-.66.67,8.91,8.91,0,0,1-3.45-.11.73.73,0,0,0-.76-.09A1.92,1.92,0,0,1,77,44.31a3.37,3.37,0,0,1,1-2.62,1.23,1.23,0,0,0,.22-1.79,1.62,1.62,0,0,1-.28-1.48,18.42,18.42,0,0,0,.52-7,5.46,5.46,0,0,0-.87-2.38c-.45-.75-1.42-.38-2.08-.4-.44,0-.3.95-.17,1.57a7.58,7.58,0,0,1-.16,3.48,2.59,2.59,0,0,0,.06,1.92c-.49.26,0,.42.08.59,1,2,.63,3-1.41,4.29-.56-.16-.62-.69-.79-1.11a1,1,0,0,1,.48-1.23c.59-.36.48.49,1,.56a1.5,1.5,0,0,0-.06-1.89A1.88,1.88,0,0,1,74,35.3a3.73,3.73,0,0,0-.21-1.65,1.84,1.84,0,0,1-.16-1c.19-.73.64-1.45-.3-2-.14-.09-.09-.41,0-.56a6.52,6.52,0,0,0,1.19-2.83.59.59,0,0,1,.58-.52.78.78,0,0,1,.5.29c.21.21.39.57.76.37s.07-.58.15-.86c.69-.65,1.38-.4,1.63.59a11,11,0,0,0,.94,3,3.8,3.8,0,0,1,.38,1.7c.21,1.65-.6,3.26-.07,4.88a1.26,1.26,0,0,1-.23,1.24,1.48,1.48,0,0,0-.06,1.87,1.77,1.77,0,0,1-.36,2.47,2.4,2.4,0,0,0-.77,1.93c0,.81.44,1.2,1.24,1a1.76,1.76,0,0,1,1.57.14c.57.37.62-.1.49-.56A1.36,1.36,0,0,1,81.2,44a6.13,6.13,0,0,1,1.2-1.44c.49.25.39.69.36,1.1,0,.12-.06.23-.08.35-.07.5-.27,1.16.43,1.27s.75-.54.78-1.08c0-1.23-.83-2.33-.68-3.6a1.06,1.06,0,0,1,0-1,4.39,4.39,0,0,0-.07-3.87,1.39,1.39,0,0,1-.1-.33c0-.27,0-.66.26-.67,1.09,0,.83-.75.76-1.38-.06-.09-.11-.18-.17-.26-.56-.23-.73-.77-1-1.23s-.28-.92.38-1.1c.61.34.84.09.82-.54a1.28,1.28,0,0,0-.46-.91,2.4,2.4,0,0,1-.77-2.41C83.43,26.89,83.13,26,83.74,26.08Z"/><path class="cls-8" d="M83.74,26.08c-.42.09,0,1.06-.79.75-.62-.23-.31-.73-.31-1.12,0-1.27-.62-1.75-1.82-1.35-.45.15-.59,0-.63-.42a5.83,5.83,0,0,1,.08-.83c0-.9-.37-1.2-1.19-.85-.64.27-1.13.74-1.92.09-.45-.37-.63.39-.64.81,0,.73-.34,1-1,1.21-.9.25-1.37.11-1.47-.89-.06-.63-.45-.9-1.1-.71s-.89-.2-.82-.83a3.11,3.11,0,0,0-.18-1.88c-.87-.49-1.47-.31-1.72.54a1.33,1.33,0,0,0-.06.71c.29,1.13.47,2.23-.61,3.23,1.54,0,1.55,0,1.12,1.34A5.42,5.42,0,0,0,70.87,30c.2.44.55.95-.43,1.07-.83.11-.64.92-.35,1.31a2,2,0,0,1,.15,2.41.87.87,0,0,0,0,.92c.69.81.47,1.75.43,2.63,0,1-.82,2-.05,3.13.12.17-.29.53-.43.81-.44.92-.22,1.47.7,1.91a4.52,4.52,0,0,0,3.23.28c.64.25.12.56,0,.84-.46.65-1,.9-1.69.32a1.63,1.63,0,0,0-1.12-.28,2.19,2.19,0,0,1-2.27-2.95,2.39,2.39,0,0,0-.07-1.8,2,2,0,0,1,.43-2,1.25,1.25,0,0,0,.16-1.61A2.69,2.69,0,0,1,69.4,34c.08-.17.21-.35,0-.52a2.4,2.4,0,0,1-.26-3.07,1.23,1.23,0,0,0,.45-1.56,4.13,4.13,0,0,1-.16-2,1,1,0,0,0-.09-.81,2.22,2.22,0,0,1-.11-2.86c.2-.31.06-.61,0-.92A3.35,3.35,0,0,1,69.28,20a2.06,2.06,0,0,1,1.93-1.53A1.91,1.91,0,0,1,73,20.13c.19.68.27,1.22,1.13,1.37.6.11.71.88,1,1.36.44-.36.29-.82.47-1.17.43-.89,1.3-1.28,2-.72a1.18,1.18,0,0,0,1.48.07,1.16,1.16,0,0,1,1.68.39,4.83,4.83,0,0,0,1.69,1.73A2.74,2.74,0,0,1,83.74,26.08Z"/><path class="cls-9" d="M90.66,42.13a2.57,2.57,0,0,1-2.92.79c-1.16-.44-1.37-1.4-1.37-2.53a14,14,0,0,0-.32-2.11c0-.27-.15-.65,0-.81,1-1.21.26-2.42,0-3.57a6.74,6.74,0,0,1-.12-3c.27-1.35-.28-2.7-.28-4a35,35,0,0,1,0-5.23c.24-1.64.89-3.81-.72-5.4-.08-.08-.17-.24-.14-.32.55-1.31-.29-2.71.25-4A3.36,3.36,0,0,1,88,9.94a3,3,0,0,1,2.85,2,11.17,11.17,0,0,0,1.53,2.35,3.32,3.32,0,0,1,.36,1.54c.17,1.53-.89,3,0,4.59a2.2,2.2,0,0,1-.17,2.08c-.23.18.1.77-.4.7s-.49-.48-.35-.85a2.39,2.39,0,0,0-.33-2.56c-.17-.22-.35-.59-.22-.77.74-1.07.07-2.3.43-3.4,0-.3-.29-.43-.47-.64a3.51,3.51,0,0,1-1.14-2,1.9,1.9,0,0,0-1.38-1.74,2.45,2.45,0,0,0-2.48.73,1.07,1.07,0,0,0-.43,1.15,3.83,3.83,0,0,1,.14,2.3c-.18.63.48.89,1.28.56a1.37,1.37,0,0,1,.75.39c.8.83.8,1-.18,1.34a1.43,1.43,0,0,0-1,1,3.13,3.13,0,0,0,0,2.66,1.11,1.11,0,0,1-.17,1.33,1.54,1.54,0,0,0-.32,1.57c.38,1.3.25,2.69.7,4a1.46,1.46,0,0,1-.09,1,1.68,1.68,0,0,0,.11,1.5c.29.51.55,1,0,1.46-.2.17-.07.46,0,.68a8.16,8.16,0,0,1,.62,3.84c-.11,1-.08,2-.12,3,0,.66-.27,1.42.48,1.84s1.45.06,2.06-.46.9-.32.89.45A.93.93,0,0,1,90.66,42.13Z"/><path class="cls-10" d="M26.93,36.36l.59.91c-.54-.08-1.1-.22-1.09.57-.52.92-1.25.83-1.86.21s-.85-1-1.64-.6a.7.7,0,0,1-.66-.14c-.64-1-1.75-1.17-2.64-1.73-1.13-.71-1.19-2-1.1-3.22-.2-.07-.19.07-.21.15a1.93,1.93,0,0,0,0,.24c0,.69-.22,1.44-.82,1.57s-.65-.73-.94-1.17a6.82,6.82,0,0,0-2.66-2.75,6.65,6.65,0,0,1-3.31-4.33,7,7,0,0,1-.47-3.47,6.18,6.18,0,0,1,2.57,3.19,12.41,12.41,0,0,1,.87-2.59c.45-.72.87-1.52,1.91-1.2a1.73,1.73,0,0,1,1.18,2,2.38,2.38,0,0,0,.68,2.12,2,2,0,0,0,.47,1.29c.42-.16.13-.69.48-.83a.8.8,0,0,1,.39.54c.09.63-.51,1-.66,1.49-.23.89-.34,1.75.66,2.28a2.29,2.29,0,0,0,.8.23c.52.1.64.4.44.87a3.56,3.56,0,0,0-.28.91,1.54,1.54,0,0,0,1.65,1.91c.53,0,.94,0,1.12.61a.68.68,0,0,0,1.11.45c.68-.39,1-.1,1.26.53s.5,1.1,1.17.4c.35-.21.1-1.22,1-.74A.31.31,0,0,1,26.93,36.36Z"/><path class="cls-11" d="M134.32,27.29c1.55-1.42,1.62-1.38,3.21,1.85.48-.26.23-.78.42-1.16.32-.65.5-1.38,1.52-.87.62.31.52-.31.51-.59a12.78,12.78,0,0,0-.18-3.32,3,3,0,0,1,.11-1.5,5,5,0,0,1,1.1,3.21,4.83,4.83,0,0,1,0,2.64c-1-.65,0-1.47-.28-2a8.09,8.09,0,0,0-.06,2.28,2.39,2.39,0,0,1,.13.92.94.94,0,0,1-.08.34c-.2.41-.32,1-.91.9s-.38-.68-.42-1.09a3.69,3.69,0,0,0-.08-.46c-.2-.43-.38-.31-.54,0a5.51,5.51,0,0,0-.28,2.09c0,.61.13,1.31-.61,1.66-.71,0-.65-.59-.75-1a10.27,10.27,0,0,0-1.1-3.51c-.46-.45-.71,0-1,.24a5.75,5.75,0,0,0-.6,4.9.84.84,0,0,0,1,.54,1.59,1.59,0,0,1,.94,0c.37.23.33.51.07.79a3.68,3.68,0,0,0-.58.89c-.49,1-.74,1-1.42,0-.53-.59-.84-.11-1.08.27s-.56.81,0,1.22c.14.12.34.19.45.35a2.88,2.88,0,0,1-2,2.62,5,5,0,0,0-1.68.59,1.54,1.54,0,0,0-.58.73c-.13.28-.23.57-.42.94.33-.52.45-1,.86-1.38a1.14,1.14,0,0,1,.31-.16,2.47,2.47,0,0,1,1.4,0,3,3,0,0,0,3.5-.81c.35.09.35.29.2.56-.52,2.15-1.46,2.2-3.37,1.55a1.68,1.68,0,0,0-2.23.66,6.25,6.25,0,0,1-1.32,1.53c-.32.23-.69.35-1,.06s0-.53.2-.73a4.77,4.77,0,0,0,.86-1.94,3.8,3.8,0,0,1,2.8-2.63c.86-.29,1.41-.63.91-1.72a1.87,1.87,0,0,1,.56-2.08c.91-.82.69-1.69.4-2.63A4.61,4.61,0,0,1,134.32,27.29Z"/><path class="cls-12" d="M131.87,32.77A2.49,2.49,0,0,1,131,33c-1.28-.15-1.57.54-1.54,1.64,0,.74-.26,1.39-1.08,1.49a1.47,1.47,0,0,0-1.29,1.21c-.5,1.59-1.92,2.11-3.22,2.75a2.77,2.77,0,0,0-.67.44,7.62,7.62,0,0,1-2.45,1.73c-1,.35-1.62.27-2-.69A8.55,8.55,0,0,0,117.8,40a2,2,0,0,1,.2-2.71c.14-.14.37-.3.37-.45,0-2,1.73-2.3,3-3.06.51.08,1,.21,1.11.82,0,.16,0,.44-.12.43-.95-.11-1.3,1.11-2.27,1a.62.62,0,0,0-.7.76,1.6,1.6,0,0,1-.46,1.29c-.47.57-.44,1.07.43,1.12s.76.47.49,1c-.16.33-.32.69.08,1a.75.75,0,0,0,1-.19c.61-.7,1.6-.93,2.06-1.74.33-.57,1.08-.3,1.38-.82a3.39,3.39,0,0,0,2-2.35c.1-.52.62-.71,1-.91a1.46,1.46,0,0,0,1-1.47,1.86,1.86,0,0,1,2-1.93c.84-.06,1.54-.54,1.37-1.33-.37-1.74.37-3,1.34-4.26.33-.85.14-2,1.17-2.48a.3.3,0,0,1,.34,0l-.06.94a3.89,3.89,0,0,0-.58,2.2,9.88,9.88,0,0,0-1,4.45A1.71,1.71,0,0,1,131.87,32.77Z"/><path class="cls-13" d="M92.81,25.55c.21-.63.41-1.26.65-1.89.14-.38.39-.78.8-.82,1.18-.13,1.93-1,2.84-1.57.68-.43,1.29-.64,1.91,0a1.07,1.07,0,0,0,.59.38,1.35,1.35,0,0,1,1.3,1.19,2.13,2.13,0,0,1-.92,1.84c-1.33,1.21-3,2.1-3.52,4.07a1.25,1.25,0,0,1-1,.89c-.7.11-.74.77-1.07,1.18s.09.49.33.57a3.19,3.19,0,0,1,1.72,1.23A.68.68,0,0,0,97,33c1.69-.11,2.54,1.14,3.53,2.17a.52.52,0,0,1,.08.51c-1.16.8-1.72-.37-2.36-.85-.46-.35-.77-.74-1.41-.62a.91.91,0,0,1-1-.5,2.59,2.59,0,0,0-2.28-1.29c-.74,0-1.28-.23-1-1.15a.79.79,0,0,0-.07-.58c-.42-.78-.23-1.13.69-1.25a3.62,3.62,0,0,0,2.24-2.67c0-.7.29-1.14,1.07-1.12A1.14,1.14,0,0,0,97.57,25a2.3,2.3,0,0,1,1.57-1.49c.39-.1.43-.41,0-.68a2.41,2.41,0,0,0-3.13.63c0,.06-.06.18-.11.2-1.36.4-1.71,1.66-2.35,2.68-.09.14-.28.14-.44.15C92.58,26.33,92.68,26,92.81,25.55Z"/><path class="cls-14" d="M12.53,11c-.13.79-.62.61-1,.3a9.35,9.35,0,0,1-1.15-1.2c-.67-.74-1.41-.83-2,0a2.2,2.2,0,0,1-2.55.72c-.23-.05-.46-.13-.69-.16-2.34-.28-2.42-.26-3.44,1.85-.3.62-.63.86-1.3.63C.17,13.05,0,13,0,12.76s-.08-.46.23-.6c1-.43.93-1.35.81-2.17-.16-1,1-3.81,2-4.16a1.09,1.09,0,0,1,1.6.74c.13.44,1.65.71,2,.42s0-.41-.07-.61A4.51,4.51,0,0,1,10.35.05c1,0,2.08-.29,2.89.62.07.37-.2.38-.44.44C12.39,1.1,12,1,11.58,1A4.5,4.5,0,0,0,7.2,3.31a3,3,0,0,0,0,2.55c.24.69.75.59,1.27.39.86,0,1,.41.54,1s-.81,1.34-1.22,2c-.69.42-.73-.2-.93-.57l-.17-.28c-.54-.68-1-.19-1.4.14a1.33,1.33,0,0,1-.19.14c-.47.24-.81,1-1.4.62s0-.92.14-1.39.26-1-.55-1.11A6.2,6.2,0,0,0,1.89,8.63c-.45.65-.1,1.41.53,1.41a1.17,1.17,0,0,1,.46-.23C4,9.84,5.1,10,6.21,10a2.16,2.16,0,0,0,1.62-.61,1.21,1.21,0,0,1,.58-.44,2.46,2.46,0,0,1,2.89,1,2,2,0,0,0,1,.71C12.51,10.68,12.65,10.78,12.53,11Z"/><path class="cls-13" d="M90.7,41.71l-.07-.54-.43.26a.56.56,0,0,1-.16-.49c.16-.49.52-.87.65-1.39s.29-.83-.22-1.24-.06-1.13-.15-1.69c-.15-.91.24-1.79.12-2.7a.65.65,0,0,1,.66-.81c.8.06,1.48.25,1.63,1.22.08.47.54.52.93.61A1.66,1.66,0,0,1,95,36.26c0,.08,0,.18.07.23C96,37.35,97,38.14,97.89,39c.59.52,1.39-.09,1.51-.93.09-.67,1.32-1,2-.59a1.83,1.83,0,0,1,0,.33c-.15.68.26.78.75.65a.84.84,0,0,0,.57-1.23,1.79,1.79,0,0,0-1.24-1c-.24-.12-.41-.28-.36-.58.37-.49.8-.25,1.23-.11,1.88,1.47,2.05,2.39.72,3.82a2,2,0,0,1-1.78.23c-.34-.15-.59,0-.79.31-.82.15-1.65.31-2.47.43a.92.92,0,0,1-.69-.1c-1-1-2.41-1.72-3.14-3.06a7.4,7.4,0,0,0-2.43-1.76c-.43,0-.55,1-.18,1.54.95,1.39.95,1.85,0,3.14A2.93,2.93,0,0,1,90.7,41.71Z"/><path class="cls-15" d="M122.36,34.5c-.12-.54-.93-.16-1-.76,0-.06.08-.18.13-.19A1.45,1.45,0,0,0,123,31.88c0-.54.56-.82,1.08-1a1.11,1.11,0,0,0,.7-.91c.11-.51-.43-.23-.64-.39a1.43,1.43,0,0,1-.7-1.05,1.3,1.3,0,0,0-1.36-1.32,2.37,2.37,0,0,1-2.1-2.48c0-.42.1-.9-.47-1.1-.68-.61-.61-1.57-.93-2.33-.47-1.13-1.33-2.14-1.37-3.44.12-.73-.27-1.56.44-2.16.51,1.3,1.12,2.57,1.69,3.83a21.4,21.4,0,0,1,1.27,3.6,4.24,4.24,0,0,0,2.9,3.43,1.63,1.63,0,0,1,.84,1.25c.13.55.43.6.85.3,1.11.13,1.36,1.2,2,1.86.27.29-.15.64-.46.62-1.25-.06-1.43,1.42-2.46,1.66-.11,0-.12.18-.13.3C124,33.94,123.89,34.08,122.36,34.5Z"/><path class="cls-16" d="M12.53,11l-.26-.27c-.18-.68.1-1.47-.5-2.06-.24-.45-.2-.87.28-1.1A.82.82,0,0,1,13.14,8c.42.76,1,1.42,1.45,2.14A7.58,7.58,0,0,1,15,13.05c.26-.12.29-.33.41-.48s.05,0,.06-.1c0-1.23-.41-2.46,0-3.71.06-.2-.25-.45-.5-.41C13.53,8.63,13.1,7,12,6.74c-.35-.09-.16-.54,0-.69,1-.79,1.55-2,2.54-2.8.3.12.31.32.17.56a3.32,3.32,0,0,1-.93,1.76c-.19.24-.48.42-.5.77.69-.15.61.75,1.13.83,1.79.26,2.29,1.12,1.7,2.9-.06.17-.21.27,0,.5.79,1,.52,1.92-.2,2.89s-.1,1.8.38,2.63c.31.54,1.28,1.14.58,1.68s-.91-.6-1.3-1c-1.27-1.41-1.12-3.22-1.39-4.91-.05-.31,0-.62-.13-.93C13.53,10,13.14,10.05,12.53,11Z"/><path class="cls-17" d="M38.9,35.91c-.62-.56-.72.16-.68.38.21,1.09-.42,1.39-1.29,1.52.31-.94.82-1.8,1.16-2.73a2,2,0,0,0,0-1.95c-.83-1.2-.58-2.5-.42-3.78a3.79,3.79,0,0,0,0-1.64,1.06,1.06,0,0,1,0-.82,3,3,0,0,0,.08-2.43.61.61,0,0,1,.13-.57c.76-.2,1.55.16,2.32-.12.22-.08.54.16.47.4-.27,1,.62,1.91.07,2.89a1,1,0,0,0,0,.82,2.71,2.71,0,0,1-.16,2.49,1.64,1.64,0,0,0,.2,1.59c.29.49.52,1,.09,1.54-.38-.15-.19-.55-.34-.79-.32-.5-.36-.09-.44.15-1.13-.38-1.11-1.33-.86-2.16.43-1.47,0-2.92.08-4.37.14,2.17-1,4.32.19,6.53a2.67,2.67,0,0,1-.39,3l-.09,0Z"/><path class="cls-18" d="M117.76,15.78c-.61.62.19,1.6-.55,2.19l-.09.06L117,18h0a4.8,4.8,0,0,1,.74-3.84.28.28,0,0,1,.22,0,2.42,2.42,0,0,1,2.41-.23c.84.93,2.12.94,3.14,1.54a3.05,3.05,0,0,1,1.61,3.37c-.2.84-.18,1.43.78,1.78a1.6,1.6,0,0,1,.91,2,1.8,1.8,0,0,0,.35,1.59c.93-.35.29-1.41.85-1.9.79-.89.79-.89,1.17-.27a9.1,9.1,0,0,0-.73,3.71.56.56,0,0,1-.22.24c-.93-.47-2.16-.55-2.44-1.87a1.12,1.12,0,0,1-.1-.31c.17-1.84-.07-2.29-1.88-3.24-.7-.37-.18-.71,0-1,.73-1.45.43-2.51-.9-3.1a2.88,2.88,0,0,1-2.15-1C119.43,14.32,119,14.39,117.76,15.78Z"/><path class="cls-19" d="M129.05,22c-.51-.73-.63.33-1,.21a2.32,2.32,0,0,0,.35-1.87,2.65,2.65,0,0,1,.6-2.58,5.31,5.31,0,0,0,1-2.69,1.66,1.66,0,0,1,2-1.46,15.08,15.08,0,0,0,2.34.21,1.1,1.1,0,0,1,1.11,1.05c0,1,.69,1.55,1,2.32a2.39,2.39,0,0,1-.33,2.31c-.33.41-.71.59-.81-.18.2-.68.59-1.33.2-2.06a5.89,5.89,0,0,0-.51-.61c-.29-.32-.67-.57-.68-1.07,0-1.06-.76-.76-1.37-.66-1.58-.35-1.92-.14-2.05,1.46-.06.67-.54,1.05-.82,1.56-.59,1.07-1.22,2.08-.69,3.37C129.52,21.59,129.55,22,129.05,22Z"/><path class="cls-20" d="M92.81,25.55c0,.34,0,.75.52.78a3.68,3.68,0,0,1-1.41,3.08c-.25.2-.5.45-.85.22s-.24-.48-.16-.76a2,2,0,0,0,0-1.4,2.5,2.5,0,0,1,.35-3.08.88.88,0,0,0,.2-1,1.91,1.91,0,0,1,0-1.62,1.16,1.16,0,0,0-.17-1c-.45-1-1-2,0-3,.23-.25.08-.51,0-.78-.36-.89,0-1.35.9-1.49-.16.6-.54,1.16,0,1.81a.77.77,0,0,1-.22,1,.92.92,0,0,0-.07,1.45A2.2,2.2,0,0,1,92,22.57c-.06.11,0,.29,0,.46.44,0,.26-.49.55-.53.53,1.59-.44,2.94-.89,4.37L92,27Z"/><path class="cls-21" d="M45.81,39.49a4.25,4.25,0,0,0-.31-3.77s-.06-.07,0-.1c.45-1.48-.49-2.94-.08-4.41a4.17,4.17,0,0,0,.21-2.1c-.12-.51.34-.82.76-1.19-.21,1.63.6,3.15.3,4.76A3.79,3.79,0,0,0,47,35.56a.89.89,0,0,1,0,1.2,2.55,2.55,0,0,0-.36,3Z"/><path class="cls-22" d="M140.82,27.52c.43-.84.09-1.74.19-2.61a12.73,12.73,0,0,1,0,5.76c-.38,1.43-.57,3-2,4-.27.18-.28.8-.36,1.23a4.8,4.8,0,0,1-1.47,2.41c-.43.44-.93.75-1.53.28-.27.47.1,1-.33,1.4l-.19-.5a4.62,4.62,0,0,1,0-2.5c.17-.29.37-.52.75-.33.73,1,1.2,1,1.77-.21a5,5,0,0,0,.33-1.14,4.1,4.1,0,0,1,1.14-2.17,6.48,6.48,0,0,0,1.48-4.46L140.3,28C140.49,27.87,140.54,27.58,140.82,27.52Z"/><path class="cls-23" d="M73.86,40.49c0-.19,0-.48.17-.55,1.72-1,2-2.08.86-3.74-.39-.55-.38-.69.3-.56a3.79,3.79,0,0,1,0,4.75c-.32.42-.2.92-.48,1.31-.49.14-.52-.35-.75-.56S73.7,40.72,73.86,40.49Z"/><path class="cls-24" d="M134.58,23.7h-.26c-.54-.51.3-1.06,0-1.58a2,2,0,0,1,.53-1.82.53.53,0,0,1,.33-.05l.14.09a3.62,3.62,0,0,0,.07,1.05A1.74,1.74,0,0,1,134.58,23.7Z"/><path class="cls-25" d="M69.13,30.42a3.34,3.34,0,0,0,.26,3.07c-1-.41-.63-1.41-.88-2.22-.36.85.24,1.76-.42,2.46-.13-1.6.45-3.15.3-4.76.38.3.24.72.24,1.09S68.8,30.52,69.13,30.42Z"/><path class="cls-7" d="M74,41c.43,0,.29.59.64.7a3.25,3.25,0,0,0,.13,1.38,1.84,1.84,0,0,1-.66,2.18c-.09-.24.28-.49,0-.72-.37-.58.17-1.27-.25-1.84A1.4,1.4,0,0,1,74,41Z"/><path class="cls-26" d="M14.7,3.81c-.06-.18,0-.41-.25-.5-.34-1-1.33-1.45-1.69-2.39.18,0,.38,0,.48-.25C15.06,1.88,15.23,2.25,14.7,3.81Z"/><path class="cls-25" d="M67.39,38.53a3.55,3.55,0,0,0-.21-2.63c-.54-1,.36-1.55.92-2.19a3.38,3.38,0,0,0-.24,3.37A1.16,1.16,0,0,1,67.39,38.53Z"/><path class="cls-27" d="M135.51,19.16c0,.38,0,.84.51.28s.44-1.46.45-2.23c.59,1.36.26,2.23-1.2,3.12h0C135,19.88,134.69,19.4,135.51,19.16Z"/><path class="cls-5" d="M102.38,35.45c-.4,0-.87-.18-1.18.28a.49.49,0,0,1-.69-.07l0-.53A1.88,1.88,0,0,1,102.38,35.45Z"/><path class="cls-15" d="M120.4,13.86a6.76,6.76,0,0,0-2.41.23A1.65,1.65,0,0,1,120.4,13.86Z"/><path class="cls-5" d="M100.53,39.81c.09-.34.35-.63.65-.48.68.33,1.28,0,1.92-.06C102.39,40.16,101.33,39.37,100.53,39.81Z"/><path class="cls-28" d="M134.06,26.78l-.2,0c0-.78-.15-1.63.66-2.17C134.37,25.35,134.21,26.07,134.06,26.78Z"/><path class="cls-29" d="M90.7,41.71,91.63,40a2.7,2.7,0,0,1-1,2.13Z"/><path class="cls-30" d="M38,23.91c.29,1.1.6,2.2-.15,3.25.83,1.6-.33,3.18-.05,4.78a1.26,1.26,0,0,0,.35.72,2,2,0,0,1,.07,2.8c0,.06-.14.12-.14.18a2.53,2.53,0,0,1-1.14,2.17l-.29.3a1.44,1.44,0,0,1-1.77-2c.51-1.47-.16-3.12.87-4.48.2-.28,0-.7-.1-1.05s-.34-1-.12-1.4c1-1.79-.19-3.69.33-5.49.09-.31-.13-.69-.24-1a5.38,5.38,0,0,1-.1-3.52,6,6,0,0,0-.1-3.06,5,5,0,0,1,0-2.59c.2-.55.51-1,1.19-1a2.3,2.3,0,0,1,.57,1.29c0,.51,0,.68.73.56,1-.16.5.75.57,1.27s-1.46.81-.42,1.59c.52.39.78,1,1.27,1.39.46-.32.23-.77.32-1.13s.22-1.08.77-1.27.65.55,1.06.81c.17-.44.31-.86.48-1.25s.37-.67.8-.59.55.44.64.79a1.43,1.43,0,0,1-.11,1.27c-1,1.11,0,1.66.69,1.79,1.08.2.58.7.42,1.15a3,3,0,0,1-.54.94c-.64.77-.44,1,.5,1.29s1.2.3,1-.73c-.08-.4-.08-1,.25-1.11,1.14-.42.79-1.28.79-2.07a3.13,3.13,0,0,1,.53-1.7c.28-.43.56-1,1.17-.81s.52.86.46,1.37a16.45,16.45,0,0,1-.4,1.76c.27.21.41-.08.59-.17a1.42,1.42,0,0,1,2.17.87,3.17,3.17,0,0,1-.33,2.76c-.31.53-.44,1.3.08,1.5,1.57.62,1.14,1.79.65,2.64-.67,1.16-.3,2.21,0,3.27a3.71,3.71,0,0,1,.24,1.86c-.61,1.88-.35,3.8-.43,5.7,0,.4-.21.75.47,1.08s.34,1.29,0,2a3.31,3.31,0,0,1-1.71,2c-1,.25-1.53,0-1.64-1-.18-1.62-.89-3.24-.12-4.9A1.62,1.62,0,0,0,48,35.19a3.39,3.39,0,0,1-.26-2.88,1.58,1.58,0,0,0,.13-.7A27.06,27.06,0,0,0,46.78,26c-.11-.28-.14-.69-.56-.66s-.47.44-.5.81A4.38,4.38,0,0,1,45.14,28c-.63,1-.16,2.16-.45,3.23-.21.82-.65,1.82.27,2.62a.59.59,0,0,1,0,.56c-.63.85-.24,1.54.26,2.24a3.32,3.32,0,0,1-.09,1.77c-.26.7-.6,1.39-1.56.87-.2-.1-.4-.15-.54,0-.74,1-1,.11-1.21-.37a9.49,9.49,0,0,1-.54-4.78,5.19,5.19,0,0,0-.06-1.31,30.61,30.61,0,0,1,0-6.42c.09-1.23-.49-2.38-.58-3.82-.7.72-1.3,1.13-2.14.9C38.25,23.5,38.12,23.76,38,23.91Z"/><path class="cls-31" d="M36.64,12.57a1.82,1.82,0,0,0-1.06,2.08c.15,1.19-.12,2.42.41,3.56a1.06,1.06,0,0,1-.07.93,4.23,4.23,0,0,0-.15,2.93,14.4,14.4,0,0,1,.29,3.14c.08,1.39.49,2.73-.23,4.08a1.26,1.26,0,0,0,0,.93,3.35,3.35,0,0,1-.21,2.57A21.71,21.71,0,0,0,35.15,37c-.11.71.62,1.24,1.49,1.16a1.37,1.37,0,0,1-2,.56A1.85,1.85,0,0,1,34,36.23c.34-.95.9-1.8.29-2.84a.76.76,0,0,1,.11-.68c1.43-1.61.23-3.68,1-5.43.18-.44-.73-1.16-.48-1.76a3.36,3.36,0,0,0-.59-3.82,2,2,0,0,1,.31-2.46,2.4,2.4,0,0,0,.18-3.37,2.92,2.92,0,0,1,.59-3.1C35.76,12.43,36.16,12.19,36.64,12.57Z"/><path class="cls-32" d="M38,23.91c0-.55-.37-1.68.87-.68.39.31.63.14.89-.19a2.68,2.68,0,0,1,1.15-1c-.34,2,.88,3.55.48,5.55a9.65,9.65,0,0,0,.07,4.68,7.51,7.51,0,0,1,0,2.12,12.68,12.68,0,0,0,.65,4.81c.11.29.41.75.62,0a.5.5,0,0,1,.87-.18c.78.85,1,0,1.25-.41a5.06,5.06,0,0,0,.33-1.86,2.64,2.64,0,0,1,0,2.28c-.17.41-.5.9-.94.77a1.32,1.32,0,0,0-1.76.83A.85.85,0,0,1,40.87,40a19.42,19.42,0,0,0-.44-4.75,1,1,0,0,1,.32-.86c.24-.27.52-.55.09-.89A2.84,2.84,0,0,0,40.36,32a1.94,1.94,0,0,1,.08-2.23c.28-.45.43-.79.06-1.28a1.51,1.51,0,0,1-.11-1.37c.19-.62.63-1.14-.14-1.75-.4-.31.3-.83.18-1.47A2,2,0,0,1,38,23.91Z"/><path class="cls-33" d="M45.14,28c.14-.74.33-1.47.42-2.22a.81.81,0,0,1,.72-.79c.62-.16.45.34.59.62a11,11,0,0,1,1.21,5.56,31.06,31.06,0,0,0,.44,5.58,1.46,1.46,0,0,1-.31,1A1.29,1.29,0,0,0,48,38.93a7.38,7.38,0,0,1,.5,2.61c0,.76.51,1.22,1.37,1.06-.51.57-1.14,1-1.88.63s-.48-1.16-.48-1.83A4.06,4.06,0,0,0,47.16,39a1.24,1.24,0,0,1,.2-1.54,1.8,1.8,0,0,0,.16-2.55,2.26,2.26,0,0,1-.24-2.06,4.05,4.05,0,0,0-.12-3.09c-.36-.73.21-1.73-.24-2.57-.07-.13,0-.35-.05-.46-.28-.4-.13-1.24-.75-1.19s-.23.75-.33,1.15S45.65,27.73,45.14,28Z"/><path class="cls-25" d="M25.66,22.32c.13-.24.29-.48.4-.73s.39-.69.89-.61.87.47.72.91c-.32.92,1.24,1,.51,2.19,1.05-.74,1.83-1.37,2.67-.43a2.35,2.35,0,0,1,.27,2.87c-.2.38-.32.61.09.87.18.1.36.3.28.48-.41.83.35,1.08.7,1.54.49,1.56.23,2.17-1.21,2.76a2.41,2.41,0,0,0-.5.33c-.33.44-.42,1.07-1,1.31-.3.18-.37.38-.12.67.66.77.21,1.35-.45,1.71s-1.24-.13-1.62-.73a1.65,1.65,0,0,1-.16-1c-.35-.61-.63-.27-.91.08-.22.92-.71,1.06-1.66,1-1.38-.17-2.26-1.08-3.3-1.74a1.53,1.53,0,0,1-.71-1.66c.37-1.07-.31-1.19-1-1.44a1.67,1.67,0,0,1,0-2.2,1,1,0,0,0,.1-1.1c-.47-1.38-.45-1.41.85-2.14.55-.3,0-.93.4-1.27a1,1,0,0,1,1.34-.42,1.6,1.6,0,0,1,1.09,1.31c.08.66-.45,1.48.73,1.84.43.13-.38.91,0,1.49.64-.53,1.26-1.13,2.24-.66.4.19.37-.33.32-.56-.1-.45-.41-.87-.05-1.34.55-.74.53-1.17-.56-1.2a1.09,1.09,0,0,1-1-1C24.93,22.86,25,22.39,25.66,22.32Z"/><path class="cls-25" d="M30.74,15.61c-.85.27-.45.76-.21,1.22a1.5,1.5,0,0,1,0,1,1.23,1.23,0,0,1-1.3,1c-.72,0-1-.5-1-1.19a1.92,1.92,0,0,0,0-.24c-.05-.46.23-1.13-.13-1.35-.53-.31-.67.49-1.05.71a1.13,1.13,0,0,1-1.33-.07c-.33-.31-.69-.24-.6.2.2,1.1-.13,1.59-1.63,1.21a7,7,0,0,1,1.82,2.29,3.28,3.28,0,0,1,0,.83c0,.34.12.76-.35.91a.85.85,0,0,1-1.1-.47,1.89,1.89,0,0,0-1.14-.93,2,2,0,0,1-1.15-2.39,9,9,0,0,0-.52-3.68c-.27-1-.39-2,.46-2.76.69-.61.42-1.51.82-2.19l0-.36c.89-1,.89-1,2.11-.06.18-.2.83-.23.28-.72-.28-.43-.45-.93,0-1.25.64-.44,1.18-.06,1.63.44s.35,1.13.85,1.54c.45-.36.53-1.23,1.31-1s.9.94,1.08,1.58c.23.82.64,1.37,1.59,1.28a1,1,0,0,1,1.2.86c.1.45.29.88.43,1.32a3.08,3.08,0,0,1-.88,2A1.15,1.15,0,0,1,30.74,15.61Z"/><path class="cls-34" d="M22.36,9.74c0,1,.14,2-.92,2.76a1.23,1.23,0,0,0-.2,1.65A5.92,5.92,0,0,1,21.68,16a11.21,11.21,0,0,1,.23,3.11,1.33,1.33,0,0,0,1.36,1.5c.4,0,.72.15.76.59s.24.87.81.8.35-.6.42-1c0-.19,0-.39,0-.58.45.57-.12,1.33.35,1.9-.35.3-.61.63-.41,1.11a1.07,1.07,0,0,0,1,.75c.33,0,.81-.17.92.31a1,1,0,0,1-.54,1.08c.05-.27.1-.54.16-.88-.57-.13-1.21.49-1.75-.16a2.49,2.49,0,0,1-.57-1.64,4.21,4.21,0,0,0-1.8-1.59,2,2,0,0,1-1.74-3c.3-.64.75-1.19-.19-1.65a.52.52,0,0,1-.15-.41c1-.88,0-1.3-.4-1.88a2.82,2.82,0,0,1,.5-3.58c.5-.37.76.11,1.08.33.46-.27.1-.76.34-1.07Z"/><path class="cls-35" d="M21,23.91c-.1.63.21,1.34-.89,1.6-.66.16-.42,1.07-.09,1.65s.77,1-.21,1.58c-.65.36-.2,1.23,0,1.87,0,1.22-.83.42-1.29.54-1.16-.69-1-1.68-.65-2.73.18-.5,1.15-.58.73-1.38l-.25-.48a.9.9,0,0,0,0-.23c-.07-.68-.09-1.39.58-1.79s1.08.25,1.58.49C20.87,24.74,20.45,24.12,21,23.91Z"/><path class="cls-36" d="M25.72,16.72a1.82,1.82,0,0,0,1.8-.68.49.49,0,0,1,.63-.2c.26.13.24.39.23.62s-.07.4-.08.6c0,.71,0,1.48.91,1.52s1.28-.54,1.28-1.4c0-.11,0-.23,0-.35a2.2,2.2,0,0,1,.16,1.72c-.11.65-.44,1.24-1.22,1.25a1.34,1.34,0,0,1-1.32-1.16,10.07,10.07,0,0,1,0-2.58c-.73.38-.78,1.41-1.67,1.32A.78.78,0,0,1,25.72,16.72Z"/><path class="cls-37" d="M30.48,32.5c0-.3-.11-.81.3-.75C32.34,32,32,30.81,32.16,30a3.82,3.82,0,0,0,0-.59,1.9,1.9,0,0,1,.64,1.93C32.65,32.83,31.76,33.26,30.48,32.5Z"/><path class="cls-37" d="M27.37,34.29a1.48,1.48,0,0,0,.87,1.77c.5.22.82-.16,1.11-.5s.24-.61-.12-.91-.82-.84.24-.84c-.09.56.47.94.36,1.55-.26,1.35-1.42,1.77-2.9,1a1.29,1.29,0,0,0,0-.19C26.62,35.43,26.16,34.65,27.37,34.29Z"/><path class="cls-38" d="M25.61,18.61c1.39-.32,1.56-.18,1.77,1.53C25.65,20.08,25.55,20,25.61,18.61Z"/><path class="cls-36" d="M30.74,15.61c1.32-.19,1.7-1.28,2.15-2.28a2.67,2.67,0,0,1-.65,2.5C31.68,16.43,31.12,16.55,30.74,15.61Z"/><path class="cls-39" d="M26.43,7.79c-.46-.16-.81-.72-1.4-.37s-.29.76-.26,1.18a1.13,1.13,0,0,1-.88-1c0-.47.51-.59.9-.64C25.51,6.87,26.15,7,26.43,7.79Z"/><path class="cls-39" d="M24.49,9.32c-.07.23-.37.52-.42.34-.38-1.45-1.08-.54-1.69-.29,0-.68.43-.94,1-1C24.14,8.22,24.18,8.93,24.49,9.32Z"/><path class="cls-39" d="M22.09,10c0,.24,0,.47,0,.71s.08.51-.19.63-.42-.13-.53-.33-.46-.25-.73-.27c.11-.24.43-.43.53-.34C21.86,11,21.91,10.37,22.09,10Z"/><path class="cls-25" d="M107.69,13.13c.24,0,.52-.05.67.15.46.63.87,1.36,1.71.43.78.6,1.16-.12,1.72-.44s1.48.76,1.15,1.58c-.24.61,0,.77.41,1A3.05,3.05,0,0,1,115,17.47a16.7,16.7,0,0,0,2.22,3.84c.07.09.16.27.12.33-.73,1.08.41,2.52-.67,3.53a.77.77,0,0,0-.09,1c.17.47.24.91-.46.51-1.46-.84-1.45-.86-2.49.4a2.25,2.25,0,0,1-.85.65,2.58,2.58,0,0,0-1.45,1.15.74.74,0,0,1-.91.41.5.5,0,0,1-.35-.75c0-.45,0-1-.71-.57-.29.64-.8.55-1.31.36s-.83,0-.71.61a2.54,2.54,0,0,1,0,2.68c1.6-1,1.25.21,1.37,1,.79-.35,1.55-.77,2.17.25.18.3,1.25-.87,1.25-1.49a11.22,11.22,0,0,1,0-1.42c0-.27.07-1,.62-.25.06.07.19.09.29.13-.1-.95,1.42-.67,1.27-1.7a.8.8,0,0,1,.7-.95c.47-.06.55.36.62.72a.66.66,0,0,0,.31.48c1.22.69,1.31,1.7.18,2.51-.27.2-.53.34-.51.72a1.41,1.41,0,0,1,0,1.25c-.26.46-.27.76.19,1.11s.31.86,0,1.25-1.23.45-1.57,1.14c-.12.23-.32.09-.52-1.05-.55.62-1.62.46-1.62,1.71,0,.74-2.41,1.24-3.09.67-.45-.39-1-.67-1.4-1.09-.14-.27,0-.55,0-.94-.68.23-1.4.45-2-.18a3.34,3.34,0,0,1-.76-2.79c.07-.73.2-1.32-.59-1.84-.64-.43-.47-1.23-.18-1.87a2.06,2.06,0,0,0-.08-1.9,3.6,3.6,0,0,1,.16-2.87,5.4,5.4,0,0,0,.41-1.85,2.78,2.78,0,0,1,.35-1.61c.93-1.23,1-2.72,1.41-4.11a1.78,1.78,0,0,0,.09-.82A2.37,2.37,0,0,1,107.69,13.13Z"/><path class="cls-40" d="M107.69,13.13c-1.66,1.42-1.11,3.44-1.41,5.22-.08.48,0,.93-.45,1.29a3.55,3.55,0,0,0-1,2.39,7.31,7.31,0,0,1-.56,2.59c-.28.59-.8,1.91.25,2.73.5.4.19.86,0,1.29-.47,1-1,1.95.59,2.42.42.13.36.41.19.76a3.53,3.53,0,0,0,0,2.46c.32,1.26.77,1.48,2,1a4.84,4.84,0,0,1,1-.1c0,.61-.81.8-.53,1.4.12.18.39.1.51.26,1.48,1.89,3,.61,4.55.1.39,1,.37,1.61-1,1.38a1.05,1.05,0,0,0-1.19.47c-.67,1-1.6.94-2.25-.14-.3-.51-.48-.77-1.06-.42-.24.14-.75,0-.67-.23.34-1.07-.57-.88-1-1.13a3.19,3.19,0,0,1-1.53-3c0-.4.29-1-.57-1-.06,0-.19-.1-.18-.14.2-1.42-1.44-2.55-.43-4.22.46-.75,0-2.1-.12-3.15s-.46-2.17.8-2.83c.35-.19.29-.53.36-.83.28-1.08,1.09-2.15,1.14-3.08.08-1.33,1.42-2.1,1.09-3.46a1.79,1.79,0,0,1,.47-1.45C106.87,13.39,107.15,13,107.69,13.13Z"/><path class="cls-41" d="M112.79,37c-.08.37.11.86-.7.71a2.23,2.23,0,0,0-1.76.32,1.2,1.2,0,0,1-1.5-.35c-.36-.36-.73-.7-1.1-1l.47,0,3.28.62c.23,0,.49-.17.43-.31-.7-1.66,1.43-1,1.64-2,.08-.36.54,0,.57.35s-.09.59-.08.93c.36-.44.43-1.11,1.29-1,.35,0,.78-.75.43-1-.84-.62-.49-1.16-.19-1.82a2.22,2.22,0,0,0,.05-.82c.06.06.14.1.16.17.28.89-.2,1.83.47,2.77.35.5-.14,1.51-1.14,1.52-.39,0-.5.1-.5.44s-.11,1-.72.79-.54-.63-.37-1.09a.77.77,0,0,0,0-.48C113.47,36.26,111.7,35.72,112.79,37Z"/><path class="cls-42" d="M110.07,28.53c.19.6.58.92,1,.26a4,4,0,0,1,1.69-1.38,2.31,2.31,0,0,0,.91-.72c.73-1.13,1.38-1.22,2.37-.32.43.39.55.32.59-.21.3.17.25.47.26.74s0,.43-.22.5-.34-.13-.47-.28c-1.09-1.15-1.49-1.12-2.31.16-.09.13-.15.35-.26.38a3.32,3.32,0,0,0-2.44,2.47c-.16.55-.82.41-1.1-.14A1.34,1.34,0,0,1,110.07,28.53Z"/><path class="cls-42" d="M107.34,28.93c-.45-.34-.28-.66,0-1a.46.46,0,0,1,.72,0c.43.43.85.29,1.26,0a1.06,1.06,0,0,1-.46,1.33c-.57.32-.71-.32-1-.56S107.44,28.63,107.34,28.93Z"/><path class="cls-43" d="M109.54,31.46c-.45-.1-.52-.54-.67-.88-.08-.19,0-.44.27-.4.46.06.57.51.74.85S109.76,31.38,109.54,31.46Z"/><path class="cls-25" d="M67.42,26l.09.08c.24.23.5.67.32.83-1.37,1.2.73,2.64-.3,3.8a1,1,0,0,0-.18,1.08c.11.52.24,1-.39,1.46s-.11,1.19-.34,1.79-.79,1.1.16,1.72c.42.28.16,1.21-.44,1.52s-.73.65-.43,1.31c.58,1.32.07,1.82-1.34,2.19-.78.21-1.75.15-2.38.87-.7.56-1.31.37-2.64-.82a1,1,0,0,1-.26-1.47c.15-.23.82-.38.26-.79-.39-.29-.58.06-.82.38-.48.65-1.18.56-1.87-.25A10.29,10.29,0,0,1,55,35.39c-.51-2-.21-3.94-.54-5.89a1.7,1.7,0,0,1,0-.95c.7-1.34.23-2.92.93-4.26a2,2,0,0,0,0-1.18,5.85,5.85,0,0,1,.26-2.59,1.66,1.66,0,0,1,1.59-1.36c.63-1.06,1.82-.29,2.64-.78.2-.12.57.15.74-.18.47-.89,1.11-.62,1.69-.2a1.27,1.27,0,0,0,1.22.1,1.2,1.2,0,0,1,1.6,1,3.26,3.26,0,0,0,1.77,2.68,2,2,0,0,1,.32,2C67,24.53,67.42,25.27,67.42,26Z"/><path class="cls-44" d="M57.27,19.16a3.62,3.62,0,0,0-1.49,4.12,1.33,1.33,0,0,1-.25,1.42.29.29,0,0,0-.11.21c.34,1.91-1.34,3.64-.42,5.7.33.74-.27,1.83,0,2.81.45,1.91.52,3.93,1.75,5.6a3.14,3.14,0,0,0,1,1c.45.23.9.35.83-.41s.18-.94.82-.46a1,1,0,0,0,.35.08c.29,0,.72-.11.77.34s-.29.62-.61.82c-.83.51-.84.94,0,1.33a3.36,3.36,0,0,1,1,.8.84.84,0,0,0,1.26.13c.05.67-.45,1-1.09.61s-.87-.64-1.49-.07c-.36.34-.88,0-1.3-.29-.64-.41-.19-.89-.07-1.39-.5,0-.93-.05-1.35-.12-1.11-.2-2.13-.79-2.13-1.93,0-1.94-.68-3.79-.56-5.73,0-.4.12-.77-.42-1a.53.53,0,0,1-.2-.82c.58-.8.23-1.38-.23-2.09a1.65,1.65,0,0,1,.24-2.1c.16-.18.5-.41.46-.51-.48-1.36.53-2.7.07-4a5.32,5.32,0,0,1-.39-2.07C53.86,18.87,55.31,18,57.27,19.16Z"/><path class="cls-45" d="M67.42,26c-.24-.94-.94-1.8-.29-2.86.26-.42-.13-.91-.2-1.37a1.35,1.35,0,0,1,.69,1.5C67.38,24.2,67.65,25.12,67.42,26Z"/><path class="cls-46" d="M74,41a1.79,1.79,0,0,0,.13,1.68,1.2,1.2,0,0,1,.08.81c-.12,1-.53,1.24-1.52,1-1.81-.48-1.86-.8-1.87-2.66,0-2.05.36-4.1,0-6.15-.22-1.11.25-2.29-.26-3.39,1-1.47,0-2.9-.07-4.34a8.2,8.2,0,0,1,.23-2.36c.26-1.1-.16-2.23-.16-3.35a3.26,3.26,0,0,1,.17-1.64c.29-.54.62-1,1.38-.8.47.85.47.85.28,2.83,1.61-.53,1.68-.49,2,1.17.07.39,0,.94.66.38a14.4,14.4,0,0,0,1.17-1.53c.1-.45.27-.87.79-.92.68-.07.68.52.82,1,.78-.47,1.47-1.43,2.45-.84s0,1.61.17,2.43c.58,0,.62-1.37,1.47-.55.7.67,1.5,1.28.91,2.43a.46.46,0,0,0,.15.64c.37.76,0,1.85,1,2.34.22.68.57,1.4-.48,1.75-.91.08-.4.59-.28,1s.19,1.19,1,1.14h0a1,1,0,0,1-.66,1.4c-.6.23-.54.55-.3,1h0a5.1,5.1,0,0,1,0,4.27c-.22.44-.18.46.26.8-.35,1.38.87,2.46.69,3.81-.13.11-.12.28-.2.42-.2.35-.41.72-.89.64s-.58-.5-.68-.89a1,1,0,0,1,0-.59c.06-.4.28-.83-.2-1.14-.11.58-.81.7-1,1.24l.36.61c0,.6-.32.66-.77.54a2.22,2.22,0,0,1-1.45-3.33,2.87,2.87,0,0,0,.2-2.64c-.49-1,.23-1.93.13-2.93-.18-1.82.31-3.71-.09-5.48-.24-1-.41-2.36-1.59-3a.43.43,0,0,1-.14-.63c0-.18.4-.7-.12-.46s-.78-1.13-1.08,0-.92.47-1.45.2c-.55-.07-.54.35-.55.7a3.46,3.46,0,0,1-1,2.48c-.18.18-.32.37-.2.63s.3.18.5.14c.94-.14.68.51.39.78-.78.73-.56,1.48-.24,2.27,0,0,0,.08,0,.12.36,1.06-.4,2.38.76,3.28.14.12.07.54.06.81,0,.56,0,1.27-.7,1.33s-.37-.75-.6-1.11c-1.19.79,0,1.5.08,2.24A.48.48,0,0,0,74,41Z"/><path class="cls-47" d="M78,27.09s0,.1,0,.11c1.42.42,1,2,1.84,2.84a.78.78,0,0,1,.16.88,1.56,1.56,0,0,0,.17,1.48,1,1,0,0,1-.06,1.12A1.56,1.56,0,0,0,80,35a4.44,4.44,0,0,1-.06,2.77c-.07.34-.32.69-.11,1,.86,1.32.39,2.44-.38,3.59A1.19,1.19,0,0,0,80,44.2c.48.2.84,1.57,1.66.4a.8.8,0,0,1-.31,1.21c-.45.27-.63-.12-.81-.43s-.3-.4-.57-.23c-.75.46-1.58.72-2.07-.2a2.15,2.15,0,0,1,.41-2.66c1-.93,1.27-1.76.38-2.87a.88.88,0,0,1-.1-1c.94-1.16.47-2.44.39-3.69a1.42,1.42,0,0,1,.18-1c.38-.46.54-.88,0-1.31-.08-.06-.15-.27-.11-.32,1.17-1.43-1.22-2.28-.59-3.67C78.6,28,77.09,27.94,78,27.09Z"/><path class="cls-48" d="M83.53,40.5c-.68,0-.85,0-.6-.52a6.73,6.73,0,0,0,.33-4.55,4.23,4.23,0,0,1,.28,4.25C83.42,39.94,83.14,40.22,83.53,40.5Z"/><path class="cls-48" d="M83.25,35.42c-.46-.5-.77-1,.22-1.2.61-.15.65-.69.74-1.19.46.42.28,1,.22,1.45s-.2.78-.79.46S83.4,35.27,83.25,35.42Z"/><path class="cls-47" d="M82.47,43.89c.13.49.15,1.11.72,1.25s.67-.57,1-.83c0,.81-.34,1.55-1.23,1.33S82.13,44.64,82.47,43.89Z"/><path class="cls-47" d="M75.3,26.82c.5.05,1,.48,1.45-.2.25.38.46.83-.08,1.07C75.85,28.06,75.63,27.31,75.3,26.82Z"/><path class="cls-48" d="M83.47,30.92c.59-.47.39-1.15.48-1.75a1.5,1.5,0,0,1,.3,1.85C83.89,31.84,83.68,31.35,83.47,30.92Z"/><path class="cls-48" d="M84.21,33c-1.13.32-1-.51-1-1.14C83.26,32.52,84.09,32.46,84.21,33Z"/><path class="cls-47" d="M81.3,44c-.25-.86.8-.71,1-1.24C82.41,43.52,81.75,43.67,81.3,44Z"/><path class="cls-49" d="M72.09,19.78a1.9,1.9,0,0,0-1.25,2.42,11.08,11.08,0,0,1,0,3.68,6.48,6.48,0,0,0,.15,3.3,2.72,2.72,0,0,1,0,2.41,1,1,0,0,0-.14.69c.56,2,.16,4.07.53,6.07a1.43,1.43,0,0,1-.09,1,.88.88,0,0,0-.1.22c-.34,1.15.22,2.32-.09,3.5-.1.39,2,1.56,2.38,1.36.72-.38.63-1.13.67-1.79.56.63.06,1.24,0,1.86-.73.82-1.66.22-2.48.29-.41,0-.82-.43-1.36-.51-.73-.12-.89-1.63-.28-2.39.42-.52.67-.84-.09-1.29-.53-.31-.55-1.19-.11-1.31,1.12-.3.52-1,.5-1.5s.54-1.13-.26-1.7c-.6-.43-.37-1.29,0-1.86s.52-1-.13-1.49a1.18,1.18,0,0,1-.4-1.09c0-.83.3-1.38,1.48-.85a5.72,5.72,0,0,1-.26-6c-.59-.36-.82.84-1.28.16a1.1,1.1,0,0,1,.37-1.48A.78.78,0,0,0,70,22.39a2.44,2.44,0,0,1-.16-1.87C70.11,19.38,71,19.09,72.09,19.78Z"/><path class="cls-29" d="M100.51,35.66l.69.07c.09.24.32.21.51.26a1.78,1.78,0,0,1,.74.56c.39.37.6.8.16,1.23s-.87.77-1.36.07l0-.33c0-.12.07-.3,0-.34-.39-.19-1.84.33-1.84.69,0,.58-.18.92-.79,1a1.48,1.48,0,0,1-1.35-.55,15.42,15.42,0,0,0-3.45-3.44,2.88,2.88,0,0,1-1.21-1.11c-.35-.73-1.05-.08-1.49-.42-.26-.07-.61,0-.49.26.43.95-.27,1.85,0,2.78a3.63,3.63,0,0,1-.13,1.16c0,.19-.07.44,0,.56.85,1.06.77,1.87-.31,2.93-.53.81-1.08.65-1.65,0A2,2,0,0,1,88,39.75c-.11-1.58-.08-3.18-.19-4.75a30.34,30.34,0,0,0-.19-4.47,1.09,1.09,0,0,1,0-.59c.54-1.56-.17-3-.48-4.44a3.45,3.45,0,0,1,.06-2.33A2.38,2.38,0,0,0,87,21.43a3.54,3.54,0,0,1,.56-3.7c.1-.05.21-.08.31-.14.27-.18.76-.16.73-.6s-.55-.29-.82-.48A.84.84,0,0,1,87.3,16a3.68,3.68,0,0,1-1-3.3,2.26,2.26,0,0,1,2.36-1.75A2,2,0,0,1,90.39,13a2.38,2.38,0,0,0,1.24,1.78c.27.21.48.38.46.74-.59.51-1.35,1-.3,1.8.21.16.06.52-.19.72s-.89,0-.64.43c.41.66-.25,1.54.52,2.05.12.09.34.26.33.29-.7,1.22.75,2.74-.5,3.86-.88.78-.55,1.7-.22,2.47a2,2,0,0,1,0,1.91.33.33,0,0,0,.1.51c.18.1.29-.06.4-.17.43-.45.62-1.11,1.28-1.37.2-.08.18-.37,0-.52-.58-.65.14-.83.4-1.17.27-.68.83-1.24.8-2.06,0-.28.36-.63.53-.56,1,.43,1.07-.4,1.39-.93a1,1,0,0,1,.45-.37,3.85,3.85,0,0,1,3.28.26.4.4,0,0,1,.24.49c-.15.45-.49.84-.94.79-.71-.07-.87.24-1,.84A1.36,1.36,0,0,1,96.51,26c-.79-.12-.84.17-.81.84s.15,1.73-1.1,1.87c-.21,0-.45.45-.56.73-.33.91-1.21-.1-1.52.43s1,.81.46,1.52c-.11.15-.25.29-.38.44.38.39.8.15,1.17.21a2.46,2.46,0,0,1,1.88.91c.46.76.92,1.22,1.86.91.22-.07.61,0,.62.23,0,1.14,1.53.76,1.75,1.7Z"/><path class="cls-50" d="M87.78,17.69a4,4,0,0,0-.36,4,1.53,1.53,0,0,1,0,1.57,2.15,2.15,0,0,0-.13,1.84c.31,1,.54,2.07.83,3.1a1.25,1.25,0,0,1,0,.81c-.08.19-.25.4-.21.55.33,1.39-.06,2.79.16,4.17.06.38.29.73.19,1.15-.44,1.79,0,3.58.11,5.36.08,1,1,1.25,1.82.77v.44a2.06,2.06,0,0,1-1.81.72A1.35,1.35,0,0,1,87,40.54c0-.87.46-1.77-.34-2.54-.14-.14,0-.53.08-.52,1.3.15.47-.68.46-1a8.45,8.45,0,0,0-.82-3.85c-.35-.69.44-.63.87-.84a2.35,2.35,0,0,1-.52-3c.35-.62-.49-1-.44-1.73a6.2,6.2,0,0,0-.26-2.37c-.25-.77-.61-1.71.45-2.32.41-.24,0-.57-.06-.84a3.31,3.31,0,0,1,.08-2.88C86.92,18.27,86.91,17.41,87.78,17.69Z"/><path class="cls-51" d="M88.63,10.94a2.41,2.41,0,0,0-1.95,3.23c.22.6.14,1.31.62,1.82-.38.19-.61,1.18-.85.73s-1.82-.73-.7-1.79c.31-.28.22-.65,0-1a1.61,1.61,0,0,1,.11-2.18A2.52,2.52,0,0,1,88.63,10.94Z"/><path class="cls-51" d="M87.78,17.69c-.66,0-.77.71-1.24.95a1.36,1.36,0,0,1,1.17-1.26c.25,0,.64,0,.63-.34,0-.18-.36-.35-.55-.53.41,0,1-.24,1.12.26C89,17.46,88.34,17.6,87.78,17.69Z"/><path class="cls-37" d="M18.44,31.15c.44-.16,1.13.28,1.29-.54a1.36,1.36,0,0,1,1.3.2c.3.21.39.31.18.63a1.46,1.46,0,0,0,.71,2.35c.18.06.48.1.52.22.43,1.41,1.85.74,2.72,1.26.55.33.67-.55.8-1,.74.18.6.79.5,1.24a9.19,9.19,0,0,1-.25,1.39c-.18.36-.33.8-.83.71-1-.17-.79-1.16-1.14-1.77-.4,0-.5.35-.77.48-.48.24-1.1.26-1.2-.28-.17-1-.56-1.05-1.46-.9S19,33.87,19.32,32.65a10.14,10.14,0,0,1,.48-1.21C19.37,31.21,18.82,31.55,18.44,31.15Z"/><path class="cls-52" d="M11.25,24.38c.93.54.73,1.72,1.39,2.43.24.24.29.64.62.84.42-.15.35-.58.5-.87a4.73,4.73,0,0,1,2.41-.94c1.08,0,.78,1,1,1.59A1.57,1.57,0,0,1,16.66,29c-.37.33-.71-.38-1.09-.59-3,.55-3.89-.82-4.58-3.72C10.94,24.53,11.08,24.43,11.25,24.38Z"/><path class="cls-53" d="M11.25,24.38a3.53,3.53,0,0,0,3.55,3.9c.26,0,.55-.09.77.15-.62,1,.78.9.8,1.53.32.64.65,1.27.2,2-.37-.47-.74-.94-1.12-1.39-.16-.2-.26-.41-.58-.52a6.52,6.52,0,0,1-4.19-6.16C11,23.9,11.14,24.12,11.25,24.38Z"/><path class="cls-54" d="M16.17,25.84c-.86.15-1.45,1-2.41.94,0-.34,1.18-.74-.06-1-.35-.08-.21-.47-.24-.72a2,2,0,0,1,.36-1.35c.36-.54.56-1.5,1.49-1.17A1.73,1.73,0,0,1,15.78,25C15.24,25.68,15.43,25.85,16.17,25.84Z"/><path class="cls-55" d="M16.57,31.94a6,6,0,0,1-.2-2c.89.46,1.1,1.37,1.47,2.19.15.33.19.62-.11.83s-.52-.19-.72-.37S16.58,32.25,16.57,31.94Z"/><path class="cls-56" d="M26.21,36.88c-.1-.87.28-1.79-.25-2.63.37-.54,1.05-.38,1.55-.63.15-.07-.13.43-.14.67-.84.46-.36,1.24-.48,1.88C26.1,35.87,26.65,36.84,26.21,36.88Z"/><path class="cls-4" d="M18.52,27c.36.15.67.33.2.71-.3.24-.62.45-.93.67C17.81,27.83,18.57,27.65,18.52,27Z"/><path class="cls-57" d="M135.8,36.88c-.21-.23-.37-.05-.54.07A26.32,26.32,0,0,0,134,39.63c-.13.53-.68.59-1.16.68-.94.18-1.9-.16-2.83.17h0c-.43,0-.42-.22-.24-.52a4.16,4.16,0,0,1,1.57-.72,2.84,2.84,0,0,0,2.23-2.32,1.28,1.28,0,0,1-.23-1.71c.29-.45.63-.83,1.23-.46.31.23,0,.95.6.87.37,0,.23-.53.3-.82a1.06,1.06,0,0,1,.73-.83c.45-.17.2-.4-.09-.54-1.29-.08-1.57-.37-1.64-1.64a10.91,10.91,0,0,1,.58-3.63c.16-.5.39-1,1.05-.94a9.22,9.22,0,0,1,1.26,4.15c0,.36,0,.76.53.69.73-.24.88-.81.89-1.49a11.66,11.66,0,0,1,.06-1.87c0-.33,0-.87.66-.55.39.57-.05,1.2.06,1.88.69-.28.67-.92,1-1.32.17,0,.4-.18.36.19a19.19,19.19,0,0,1-1.25,4.25c-.06.18-.23.47-.33.46-1.49-.08-.79,1.21-1.15,1.82-.19.37-.35.77-.56,1.14C137.05,37.52,136.68,37.57,135.8,36.88Z"/><path class="cls-58" d="M136.09,27.21c-1.34,1.19-1.08,2.87-1.33,4.4a1.4,1.4,0,0,0,1.34,1.81c-1.64.46-2.25,0-2.3-1.78,0-1.4-.11-2.8.92-3.94C135.08,27.3,135.43,26.81,136.09,27.21Z"/><path class="cls-59" d="M130,40.48a11.21,11.21,0,0,1,2.87-.44c.46,0,.94-.06.95-.65A3.26,3.26,0,0,1,135.26,37a18.25,18.25,0,0,1-.17,2.56c-.75,1.33-1.41,1.64-3.12,1.16A7.39,7.39,0,0,0,130,40.48Z"/><path class="cls-60" d="M139.49,28.14c-.68.07-.35.61-.38.92a19.45,19.45,0,0,0,0,2c0,.83-.36,1.19-1.2,1,.47-.77.19-1.62.23-2.44a3,3,0,0,1,.48-1.68C138.92,27.45,139.1,27.51,139.49,28.14Z"/><path class="cls-61" d="M134.56,34.74c-1.12.18-1.3.58-1,2.17-.39,0-.91.1-.94-.45a2.38,2.38,0,0,1,.88-1.88C133.93,34.18,134.27,34.29,134.56,34.74Z"/><path class="cls-59" d="M129.76,40l.24.52a6.37,6.37,0,0,1-1.35,2A3.84,3.84,0,0,1,129.76,40Z"/><path class="cls-62" d="M140.82,27.52c0,.37-.08.61-.52.5-.28-1.12.42-2.12.19-3.23l.33,0Z"/><path class="cls-29" d="M135,20.29c-.11.6-.83,1-.47,1.75s-.24,1.39-.41,1.55c-.85.8-.49,1.83-.8,2.71a3.59,3.59,0,0,1-1.07,1.5c-.71.51-.33,1.29-.24,1.93.23,1.79-.39,2.49-2.15,2.25-.33-.05-1.29,1.1-1.21,1.57a1.42,1.42,0,0,1-1.16,1.87,1.25,1.25,0,0,0-1,1.21c0,1.19-1,1.56-2,1.89-1.4.36-2.27,1.58-3.56,2.14-.59.26-1,.17-1-.5,0-.48.25-.94-.46-1.08a.25.25,0,0,1-.16-.29c.29-.77.59-1.53.87-2.3.15-.41.74-.41,1.17-.48h.24c1-.07.77-1.17,1.43-1.59s1.59-.18,1.39-1.31c0-.15-.11-.05,0-.1,1-.6,1.24-2,2.36-2.45.83-.33.88-.57.18-1.05a2.25,2.25,0,0,1-.73-.94c-.08-.18-.13-.48-.27-.51-1.4-.28-1.71-1.95-3-2.31-.57-.73-1.65-1.32-.54-2.47.17-.18-.09-.68-.6-.51s-.82-.17-.93-.63A11.51,11.51,0,0,0,119.22,18c-.6-.84-.2-1.76.25-2.58A1,1,0,0,1,120.8,15a3.11,3.11,0,0,0,2.32,1.11c1.23,1,1.35,1.58.77,3-.22.53-1.12,1.36.48,1.43.57,0,.57,1,1.27,1.26s.37,1.1.17,1.71a.43.43,0,0,0,.11.44v0c.07,1.54,1.5,1.39,2.39,1.9v0a17.12,17.12,0,0,1,1.22-3.77.67.67,0,0,0,.07-.58,3.59,3.59,0,0,1,.75-3.25,2.88,2.88,0,0,0,.62-1.4c.17-1.6.49-1.91,2.05-2.05.35-.14.62-.73,1.09-.28.26.25.86.44.41,1-.45.83.42.71.72,1l.47.49a1.54,1.54,0,0,1-.29,1.9C134.94,19.3,135.36,19.9,135,20.29Z"/><path class="cls-63" d="M123.05,25.57c.92.42,2,.72,2,2.14.84-.8,1.16-.31,1.39.49a1.62,1.62,0,0,0,.88,1.21c.33.12.78.12.66.64a.8.8,0,0,1-.79.63c-.86,0-1.15.38-1.09,1.16.09,1.16-1.51.39-1.43,1.1s.29,1.19-.73,1.35a1.75,1.75,0,0,0-1.43,1.45c-.09.49,0,1.09-.9.57-.23-.13-1.62-.28-1.26,1a.66.66,0,0,1-.16.53c-.47.47-1.17.9,0,1.34,0,0,.09.15.08.21-.56,2,.45.81,1.09.56a3.45,3.45,0,0,0,1.74-1.2c.4-.67,1,.06,1.36-.28.05.25,0,.64-.19.6-1.49-.33-1.62,1.49-2.76,1.74a1.67,1.67,0,0,0-.8.53.74.74,0,0,1-1.16,0,.82.82,0,0,1-.14-1.18l.45-.68c-.2-.35-.43-.07-.63,0-.43,0-.81,0-1-.46a1,1,0,0,1,.19-1.11c.14-.14.42-.24.44-.38.11-1.25.41-2.27,2-2a3.56,3.56,0,0,0,.06-.44c0-.93.36-.79.83-.3.12.13.18.29.34.11a2.06,2.06,0,0,0,.21-.42,5.2,5.2,0,0,1,1.8-1.1c-.85-1-.85-1,.41-1.51.13-.05.35-.15.36-.25.13-1.28,1.09-1.26,2.26-1.27l-1.93-2.1s-.09.05-.11,0A9.64,9.64,0,0,1,123.05,25.57Z"/><path class="cls-28" d="M133.32,26.3c-.18-1.59.62-2.89,1.21-4.26.52.15.29.47.11.7s-.46.55-.32,1C133.42,24.34,133.89,25.52,133.32,26.3Z"/><path class="cls-57" d="M12.76.92c.62.76,1.88,1.06,1.69,2.39a7.59,7.59,0,0,0-1.11,1.82,7.83,7.83,0,0,0-.52,1.78,1.36,1.36,0,0,1,.78.53,2.44,2.44,0,0,1,.41.61c.08.17.3.34.48.14.37-.42.73-.43,1.08,0a1.23,1.23,0,0,1,.09,1.54,1.05,1.05,0,0,0,.09,1.56c.41.5.48,1-.1,1.43-.58-.05-.6-.55-.69-1a3.35,3.35,0,0,0-.57-1.53,7.53,7.53,0,0,1-1.51-2.15A.58.58,0,0,0,12,7.77a.5.5,0,0,0-.23.31c0,.25.36.62,1,.83-.37,1.57-.72,2-1,2-.57,0-.8-1.62-2-2A2.09,2.09,0,0,0,8.52,9L8,9.35a.22.22,0,0,1-.34-.09A3.49,3.49,0,0,1,8.79,7.14c.18-.16.42-.3.29-.55s-.46-.17-.72-.1c-1.08,0-1.43-.33-1.54-.58s0-.32,0-1,0-.79,0-1c0-1.1.85-2.73,2-3,.27-.06.18,0,1,0a12.14,12.14,0,0,0,1.7-.16C11.63.73,11.77.7,12.76.92Z"/><path class="cls-64" d="M3.17,6.5c1,0,1.37.48,1,1.44-.08.22-.23.41-.31.62a4.7,4.7,0,0,0-.18.67c.77,0,.94-.85,1.58-.93A4.3,4.3,0,0,1,7,8.33v0c.2,1.34.1,1.48-1.17,1.53-1,0-2.07,0-3.1.08l-.35.34a.51.51,0,0,1-.3-.84C2.86,8.6,2.72,7.45,3.17,6.5Z"/><path class="cls-65" d="M3.17,6.5c-.15,1,.34,2.22-.88,3-.23.14-.13.58.11.84a.86.86,0,0,1-.51.57C.67,8.92,2.14,7.78,3.17,6.5Z"/><path class="cls-66" d="M2.75,10a7.56,7.56,0,0,1,3.13-.37c.94.08,1.33-.31,1.14-1.24.46.13-.1,1,.66.91L8,9.35a1.3,1.3,0,0,1-1.53.9A18.75,18.75,0,0,1,2.75,10Z"/><path class="cls-67" d="M7,8.33a1.54,1.54,0,0,1-1.75,0C5.86,7.68,6.45,7.26,7,8.33Z"/><path class="cls-68" d="M91.16,33.3c1.6-.76,2,1,3.11,1.45A2.44,2.44,0,0,1,96,36.55a.78.78,0,0,0,.75.51c.5,0,.67.27.73.74.08.63.5.83,1.11.79s.79-.23.78-.81c0-.35,1.71-1.19,2-1a.47.47,0,0,1,0,.73c-.63-.52-1,.62-1.64.24-.22.51.32.65.55,1.07a17.5,17.5,0,0,1-1.87.59c-.39.09-1.06-.08-1.08-.3C97.12,37.54,95,38,94.82,36.75s-.65-1.59-1.75-1.53c-.35,0-.73-.23-.69-.53C92.54,33.67,91.78,33.57,91.16,33.3Z"/><path class="cls-68" d="M101.25,37.85a.87.87,0,0,0,1.25-.3c.31-.48-.1-.8-.4-1.12l-.39-.44a1.63,1.63,0,0,1,1.44,1.94c-.11.8-.82.91-1.49.85S100.75,38.44,101.25,37.85Z"/><path class="cls-69" d="M123.05,25.57a13.9,13.9,0,0,1,2.2,2.7c-.09.4-.3.68-.75.53a.76.76,0,0,1-.53-.73,1.76,1.76,0,0,0-1.79-1.73,1.63,1.63,0,0,1-1.5-1.73c0-.67.12-1.37-.71-1.72a.44.44,0,0,1-.22-.39c.31-1.14-1.2-1.9-.61-3.09A.5.5,0,0,0,119,19c-1.42-.7-1.26-2-1.21-3.21.46-1.5,1.56-1.79,3-.8a2,2,0,0,0-1.11,3.23c1,1,1.06,2.28,1.39,3.5.09.34,0,.8.41.9s.23-.58.56-.71c.35.09.18.43.32.59.44.45,1.59.94-.11,1.24-.25.05-.05.51.08.74C122.55,24.85,122.81,25.21,123.05,25.57Z"/><path class="cls-70" d="M14.39,10.24c.93.57.63,1.76,1.26,2.48L15,13.83C14.34,12.62,14.91,11.33,14.39,10.24Z"/><path class="cls-71" d="M133,14.8c-1.11.44-2.05.88-1.75,2.46.09.51-.64,1.2-1,1.78-.2.3-.54.63-.45.94.41,1.4-.24,2.64-.54,3.92a10.27,10.27,0,0,1-.94,2,4.77,4.77,0,0,1,.74-3.83c.36-.19.24-.46.1-.71-.64-1.11-.11-2.07.39-3s1.12-1.47,1.1-2.59S131.76,14.15,133,14.8Z"/><path class="cls-71" d="M125.92,23.91c-.32-.18-.26-.48-.18-.74a1.13,1.13,0,0,0-.63-1.54c-.57-.32-.71-1.2-1.66-1.22-.36,0-.33-.83-.06-1.15,1-1.19.6-2.19-.27-3.17,1.66.86,1.87,2.31.46,4.16,1.36-.59,1.23.91,2.07,1.23C126.85,22,125.85,23.08,125.92,23.91Z"/><path class="cls-71" d="M128.32,25.83c-.19.49-.4.15-.61,0s-.41-.34-.61-.33c-1.17,0-1.39-.61-1.17-1.59C126.29,25.11,127.59,25.11,128.32,25.83Z"/><path class="cls-28" d="M135,20.29a2.65,2.65,0,0,1,.61-1.93c.34-.33.1-.89.1-1.35a1.57,1.57,0,0,1-.2,2.15c-.35.34-.22.78-.24,1.18Z"/><path class="cls-28" d="M135.24,16.52c-.37-.07-.86.08-1.07-.36-.15-.29,0-.53.35-.63C134.41,16.11,135.13,16.1,135.24,16.52Z"/><path class="cls-72" d="M135.8,36.88a1,1,0,0,0,1.6-.44,8.27,8.27,0,0,1,.77-1,3.4,3.4,0,0,1-.65,1.73c-.32.38-.6.94-1.18.82S136,37.23,135.8,36.88Z"/><path class="cls-73" d="M109.86,19.16a1.14,1.14,0,0,1-.23-1.42c.59,1.15,1.33.65,2.11.18-.31.92-1.21,1.82-.07,2.54.73.46.64-.7,1.12-.87s.47.11.43.42a8.49,8.49,0,0,0,.15,3.75c.13.43,0,.91-.69.65-.59-.47-1.2-1.09-1.44.29,0,.11-.25.29-.32.27-.75-.29-.81.3-1,.89-.75-.81-1.61-.73-2.67-.56l.87-1.16c.26-.31.13-.68.12-1a.81.81,0,0,1,.58-.88A2.1,2.1,0,0,0,109.86,19.16Z"/><path class="cls-74" d="M112.68,24.41c.33-.06.67-.14.47-.58a5.44,5.44,0,0,1-.1-3.91c.06-.19-.13-.25-.26-.33.35-.52.82-.57.77.11-.11,1.58-.45,3.14.55,4.59.12.18,0,.4-.21.49A.86.86,0,0,1,112.68,24.41Z"/><path class="cls-75" d="M109.86,19.16a2.14,2.14,0,0,1-.1,3c-1.25,1.1-1.25,1.1-1.59,2,0-.94-.14-1.79,1-2.37C110.16,21.28,109.9,20.11,109.86,19.16Z"/><path class="cls-76" d="M58.09,34a2,2,0,0,0-.15-2.09.77.77,0,0,1-.09-.77c.63-.76-.23-1.46-.08-2.2l.84-1.72c.2-.6-.09-1.26.31-2.18.43,1.41,1.69,1,2.53,1.59s1.26-.23,1.64-.85l0-.72a2.17,2.17,0,0,1-.07-.91c0-.18-.06-.43.2-.46s.22.33.39.46h0a2.74,2.74,0,0,0,1,1c.27.15.41.36.25.67l-.8.31a2.92,2.92,0,0,0-.77,1.57c-.21.6-.48,1.24.66,1,.46-.11.65.29.43.57-1.06,1.35-1,2.87-.82,4.43,0,.11-.1.22-.19.3-.29,0-.36-.24-.48-.43s.06,0-.08-.09-.14-.17-.25-.21c.09,1.14-1.93.06-1.57,1.49h0c-.08.66-.53.36-.78.23a2.51,2.51,0,0,0-1.62-.16c-.32.06-.67.56-.93.12S57.93,34.32,58.09,34Z"/><path class="cls-77" d="M63.34,34c-.07-.54-.14-1.08-.22-1.62a4,4,0,0,1,1.35-3.47l-.59,0c-.41,0-.65.81-1.08.33s-.13-.95.1-1.35c.33-.59.35-1.4,1.13-1.68-.1.3-.21.6-.3.9s-.28,1,0,1.26.62-.49,1.12-.41c.28.31.14.82.48,1.14s0,.48-.2.57c-1.64.61-1.31,2-1.19,3.2C64,33.33,64.29,33.94,63.34,34Z"/><path class="cls-78" d="M63.09,25.8c0,.75-.61,1.05-1.17,1.34-.34.17-.72.21-.84-.3,0-.2-.14-.52-.3-.41-1.12.78-1.43-.1-1.77-1-.37.66.06,1.32-.4,1.8,0-.27,0-.55,0-.83,0-1.37,0-1.38,1.24-.76a.78.78,0,0,0,1,0c.3-.26.65-.27.78.1C62,27,62.57,26.17,63.09,25.8Z"/><path class="cls-79" d="M58.09,34l-.44,1.18c1.18-1.23,2.26-.53,3.31-.49.41.36.31.69-.08,1s-.58-.08-.77-.3a1.61,1.61,0,0,0-1.63-.4c-.37.05-.77.76-1.07.13S57.64,34.25,58.09,34Z"/><path class="cls-79" d="M61,34.71c-.46-.41-.2-.88.18-.87,1,0,1.18-.57,1-1.66.62.54.82.87.74,1.34-.36.31-.53.94-1.28.59C61.13,33.89,61.06,34.38,61,34.71Z"/><path class="cls-80" d="M57.77,29c.21.72,1.09,1.43.08,2.2-.09-.44.17-.89-.47-1.28S57.47,29.21,57.77,29Z"/><path class="cls-78" d="M64.83,25.81c-.14-.76-1.35-.71-1.25-1.64.48.24.75,1,1.5.6a.25.25,0,0,1,.32.25C65.34,25.36,65.25,25.72,64.83,25.81Z"/><path class="cls-78" d="M63.59,24.17c-.21-.06-.54-.74-.54.12,0,.26,0,.53,0,.79a1,1,0,0,1-.25-.87c0-.33-.15-.86.28-.9S63.62,23.77,63.59,24.17Z"/><path class="cls-81" d="M109.08,24.57c.07,0,0-.14-.07-.29-.08-.36-.09-.82.21-1a3.83,3.83,0,0,0,1.6-1.49c.3-.53.56.13.86.21s.58.47.34.72A8.81,8.81,0,0,1,109.08,24.57Z"/><path class="cls-79" d="M60.71,27.71a3.51,3.51,0,0,0-1.7.21C59.48,27.06,60.06,27.08,60.71,27.71Z"/></g></g></svg>