<svg xmlns="http://www.w3.org/2000/svg" viewBox="0 0 854.9 279.03"><defs><style>.cls-1{fill:none;stroke:#000;stroke-miterlimit:10;stroke-width:2px;}.cls-2{fill:#3ec8ff;}.cls-3{fill:#42c2f7;}.cls-4{fill:#3fc8fe;}</style></defs><g id="Capa_2" data-name="Capa 2"><g id="Capa_1-2" data-name="Capa 1"><path class="cls-1" d="M580.34,193.35a10.36,10.36,0,0,1,10.8-1.37c4,1.59,5.61,4.77,5.56,8.89,6,.06,8.43,2,10.12,7.94,3-.41,6-.8,9.11.05a21,21,0,0,1,8.24,4.18,34.76,34.76,0,0,1,6,6.93c1,0,.72-.68.84-1.08a7.26,7.26,0,0,0,.19-1.15c.3-2.41.61-2.57-2-3.06-3.83-.72-5.25-2.89-4.7-6.71a18.81,18.81,0,0,1,.57-2.18c-.15-.66-.74-.74-1.17-1a11.86,11.86,0,0,1-5.83-14.47c1-3,2.38-5,5.67-8-3.71-4.29-4.55-8.78-.28-13.24-6.23-6.38-5.84-17.5,6.19-22,.25-7.36,3.84-13.11,9.08-17.85,1.82-1.64,2.27-2.79,1.33-5.1a6.29,6.29,0,0,1,2.19-8,20.05,20.05,0,0,1,3.15-1.38,2.82,2.82,0,0,0,0-1.92c-1.18-7.15,1.44-13.21,7.54-17a19.33,19.33,0,0,1,13.85-2.61c3.77.66,7.29,2,9.26,6,1-.56,1.78-1.12,2.66-1.53a8.23,8.23,0,0,1,3.4-.75,5.51,5.51,0,0,1,3,.79,30.11,30.11,0,0,1,2.58,2c1.15-1.12,2.25-2.36,3.51-3.4a9.08,9.08,0,0,1,4.63-1.88c1.67-.23,3.31-.74,5-.44a14.36,14.36,0,0,1,4.78,1.56,13.33,13.33,0,0,1,5.44,6c1.19,2.49,2,5.08.68,7.5a3.11,3.11,0,0,0,1.94,1.17c7.68,3.26,12.72,8.77,14.47,17,.16.79.22,1.4,1.25,1.62,5.74,1.18,7,2.72,7.2,8.71,0,.1.13.19.28.4.77.17,1.66.31,2.51.55,8.14,2.29,9.65,11.6,4.59,17.14a3.89,3.89,0,0,0-1.24,3.29,9.51,9.51,0,0,1-2.88,7.39c-.63.65-1.35,1.21-2.22,2,1.23,2.14,2.85,4.23,2.72,7a15,15,0,0,1-2.1,6.91c2.75,3.41,3.38,4.55,4.32,7.8a11.55,11.55,0,0,1-4.43,12.73,14.17,14.17,0,0,1-5.3,1.88c2,3.11,1.92,6-.51,8.58,5,3.92,5.42,8.76,3.63,13.7s-5.63,7-12.91,7.32c-3.41,5.93-6.41,7.45-12.26,6.21-.91.48-.83,1.52-1.25,2.29a9.39,9.39,0,0,1-6,4.64,6.08,6.08,0,0,1-6.15-1.4c-.36-.35-.69-.73-1-1.07-2.52,1.56-2.51,1.6-5.43,1.63a1.92,1.92,0,0,0-1.6.82c-4.51,5.34-9.5,6.58-15.95,4a20.29,20.29,0,0,1-9.65-7.54c-1.12-.07-1.81.87-2.75,1.25a9.76,9.76,0,0,1-5.74.49c-3.5-.71-5.21-2.75-5.91-7a19.64,19.64,0,0,1-6.73-1,17.34,17.34,0,0,1-5.52-3.57,43.77,43.77,0,0,1-4.3-5.72c-2.1,14.29-12.09,17.34-21,13.11-.57,0-.83.44-1.16.86-2.34,3-4.11,3.43-7.32,1.63-1-.55-1.44-.55-2.23.28-5.12,5.41-12.93,5.56-18.44.54-3.59-3.28-5.45-7.19-4.86-12-.77-.93-1.57-.31-2.24-.21A10.31,10.31,0,0,1,564,224.05c-.41-2.17-1-4.31-.21-6.52.33-.84.18-1.57-.76-1.85a7.91,7.91,0,0,1-4.23-3.26c-.41-.57-.88-.94-1.62-.66-3.15,1.18-5.84.18-8.31-1.79s-4.12-4.64-3.68-8.1a2.55,2.55,0,0,0-.12-.75c-.45-.61-.88-.1-1.31,0-.76.27-1.42.6-1.22,1.64a11.36,11.36,0,0,1,.13,1.94c0,3-.82,5.63-3.54,7.33a6.15,6.15,0,0,0-.81.71,3.74,3.74,0,0,0,.37.75,12.31,12.31,0,0,1,2.59,10.61,3,3,0,0,0,1.41,3.56,9.77,9.77,0,0,1,3.79,6.17,8.48,8.48,0,0,1-3.79,9.45,16.15,16.15,0,0,1-2.44,1.18,1.1,1.1,0,0,0-.74,1.2,11,11,0,0,0,.24,1.14c.45,2.68-.21,4.89-2.67,6.34-.2.12-.3.41-.59.81,1.48,2.39,1.38,5,.43,7.69a10.54,10.54,0,0,1-3.35,4.7,23.16,23.16,0,0,1-7.49,4,6.07,6.07,0,0,1-1.91.35c-7.78-.25-15.06-3.57-17-12.5-.66-3.08-.43-5.93,1.93-8.31a8.36,8.36,0,0,0,.72-1.06c-.81-.76-1.67-1.46-2.4-2.29s-.76-2.13-.8-3.32,1.14-2,1.25-3.3a13,13,0,0,1-4.38-6.2,12.62,12.62,0,0,1-.17-8,7,7,0,0,1,3.15-4.3c1.16-.7,1.19-1.46.87-2.6a19.35,19.35,0,0,1-.2-9.26,2.74,2.74,0,0,0-.76-3.07,10,10,0,0,1-2.81-5.86,8.6,8.6,0,0,1,1.54-6.53c-5.61-6.52-5.95-13.18-1.2-20.42-3.35-7.38-1.84-14.32,2.78-21.81a33.58,33.58,0,0,1-2.83-2,8.79,8.79,0,0,1-3.37-7.52,7.59,7.59,0,0,1,2.38-4.56c-.06-1.11-1-1.31-1.45-1.9-1.67-2.16-1.69-3.88.11-5.93a14.43,14.43,0,0,1,1.79-1.49c-.07-.23-.06-.55-.21-.71-3.62-3.59-4.91-8.17-5.43-13a45.11,45.11,0,0,1,.93-13.16,9.79,9.79,0,0,1,2-4.62c1.08-1.29.9-2.45.43-3.93a43.85,43.85,0,0,1-1.19-21.55,33.5,33.5,0,0,1,2.39-7.38,2.42,2.42,0,0,0-.18-2.81,7.2,7.2,0,0,1-.75-7.39c.26-.59.45-1.19.66-1.76-.27-1-1.16-1-1.85-1.26a9.15,9.15,0,0,1-3.68-2.8,8.22,8.22,0,0,1,.18-11c.77-.85,1.67-1.58,2.47-2.32,0-1-.86-1.3-1.33-1.84a11,11,0,0,1-2.57-6,18.92,18.92,0,0,1,.61-8.08A26.84,26.84,0,0,1,506.53,4a16.41,16.41,0,0,1,13.36-2.56c2.91.65,5.8,1.33,8.32,3.11a19.06,19.06,0,0,1,7.67,10A34.67,34.67,0,0,1,537.29,21c.51.83,1.4.44,2.11.66,3.56,1.1,5.26,3.77,4.59,7.46a35.18,35.18,0,0,1-1,3.46c.85.81,2.1.68,3.13,1.11,4.27,1.8,6,5.45,4.35,9.8a12.92,12.92,0,0,1-3.06,4.91c-.75.72-1.44,1.5-2.19,2.28.16.58.78.85,1.23,1.29a10.09,10.09,0,0,1,1.61,13.11c-.76,1.19-1.71,2.27-2.58,3.4-.53.69-1.71,1.13-1.43,2.15.46,1.68-.13,3.55,1.55,5A18,18,0,0,1,551.41,86a21.05,21.05,0,0,1-3,15.28c-.53.87-1.17,1.68-1.73,2.49a2.38,2.38,0,0,0,.32.73c5.15,5.08,5.09,11.59-.29,16.27-.87.76-1.38,1.22-1.15,2.5.4,2.17-.61,4.07-1.87,5.75a2.69,2.69,0,0,0-.61,2.83c.8,2.24-.41,4.32-.71,6.46.34.9,1.32.67,1.94,1.11a5.41,5.41,0,0,1,2.44,4.2c.14,1.79.24,1.79,2.4,1.53.45-.73-.14-1.18-.49-1.65a10.12,10.12,0,0,1-1.71-5.11c-.42-3.72,1.14-5.72,5-6.56.25-.05.49-.15.93-.28,0-1.8-1-3.66.07-5.55a8.63,8.63,0,0,1,4.34-3.61c.58-1.18-.58-2-.55-3s-.13-2.07-.06-3.1c.43-6.73,4.64-11,11.34-11.61a4.07,4.07,0,0,1,.78,0c1.1.13,1.62-.42,2-1.4a9.89,9.89,0,0,1,1.46-2.72c2.24-2.72,5-4.63,8.69-4.26,1.62.16,2.17-.5,2.82-1.81,1.92-3.85,4.68-5.19,8.92-4.66,3.13.39,4.59,1.59,5.29,4.77.24,1.06.47,1.52,1.63,1.61,5.16.39,8.84,4.09,9.25,9.82a13,13,0,0,1-6.29,12.56,14.32,14.32,0,0,1-4.6,2,1.26,1.26,0,0,0-1,1.42c.13,3.87-1.54,7-4,9.85s-5.1,4.79-8.87,5.06a2.14,2.14,0,0,0-2.26,1.72,4.33,4.33,0,0,1-2,2.76c-1.51.88-2,1.83-1.11,3.4a5.33,5.33,0,0,1,.4,1.51,9.87,9.87,0,0,1-10.3,12.24l-1.12-.05A1.5,1.5,0,0,0,567,160a13.94,13.94,0,0,1-5.2,10.47c-1.09.95-1.74,1.73-1.43,3.22a13.6,13.6,0,0,1,0,2.72A23.53,23.53,0,0,1,573,181.92C576.54,185,578.54,189,580.34,193.35Z"/><path class="cls-1" d="M167.21,118.18c.66-.42,1.3-.85,2-1.25,4.27-2.63,8.45-2.89,12.37.6,1.05-.51,1-1.56,1.43-2.33a12.44,12.44,0,0,1,13.1-6.4,9.33,9.33,0,0,1,7.83,11.68,26.79,26.79,0,0,1-3.4,6.7l2.76,2.56c.8.25,1.45-.29,2.17-.48,4.35-1.17,7.51,1.35,7.29,5.85-.06,1.29-.35,2.56-.53,3.84-.41.79,0,1.82-.73,2.5-.89,1.9-2.09,3.66-2.62,5.72,1.22-1.61,1.38-3.66,2.35-5.37a9.4,9.4,0,0,1,1.7-2,13.84,13.84,0,0,1,6.17-3.2c-.31-1-.56-1.86-.83-2.7a14,14,0,0,1,0-8.43A18.84,18.84,0,0,1,226,115a13.73,13.73,0,0,1,13-1.28c4.21,1.61,7.17,7.4,6.28,11.82-.2,1-.45,2-.68,3,17.7-1.61,24.15,15.93,15.83,27.75,6,2.53,9.56,6.83,9.67,13.77,1.41-.81,1.75-2.3,2.7-3.25l3-3c-3.62-4.94-4.75-10.29,1-17.67-.37-.33-.75-.68-1.14-1-5.85-4.85-8-11.13-6.61-18.45a28.79,28.79,0,0,1,10.12-17.08A11,11,0,0,1,291.58,108c.95.42,1.88.9,2.82,1.35.89-.47.91-1.5,1.41-2.22a7.85,7.85,0,0,1,9.54-3.07,2.64,2.64,0,0,0,2.85-.18,5,5,0,0,1,1-.53A22.12,22.12,0,0,0,315,99.14a11.43,11.43,0,0,1,12.06-3.39,20.44,20.44,0,0,1,5.75,2.61,18.8,18.8,0,0,1,12.2-3,11.35,11.35,0,0,1,9.1,5.23,9,9,0,0,1,1.05,2.07c1,3,1.27,3.33,3.62,5a4,4,0,0,1,1.6,2.14c.26.87.5,1.75.78,2.74A15.25,15.25,0,0,1,375,119.79c3.24,5,2.81,10.34,0,15.48a11.61,11.61,0,0,0,1,.84c1.47,1,2.11,2.36,1.41,4-.4,1-.06,1.35.54,2,3.94,3.87,4.5,8.3,1.68,13-.26.45-.6.85-.94,1.32.36.93,1.39,1,2,1.53a10.94,10.94,0,0,1,4.17,9.59,8.22,8.22,0,0,1-4.56,6.76c-.08,1.16.87,1.58,1.35,2.26a11.22,11.22,0,0,1-1.19,14.9,3.71,3.71,0,0,0-1.35,3.31c.26,3.17.15,3.18-1.4,6.95A11.58,11.58,0,0,1,383.18,212c-.09,4.5-2.34,7.56-6.28,9.88a16.08,16.08,0,0,1,3,4.93,18.56,18.56,0,0,1,1,5.34c.13,4.66-1.26,8.7-5,11.68-3.28,2.58-6.93,3.58-10.94,2.19a3.83,3.83,0,0,0-3.93.56c-1.23.88-3,1.1-4,2.15s-.81,2.68-1.35,4c-1.53,3.72-4.71,5.95-9.6,6a12.74,12.74,0,0,1-8.54-3.21,1.56,1.56,0,0,0-1.18.81c-5.17,6.73-14.21,5.95-19.62-1-.93-1.19-1-3.24-2.66-3.56-1.3-.25-2.77.49-4.18.61A18.71,18.71,0,0,1,295,246.93a19.07,19.07,0,0,1-6.39-15.69c0-.64.07-1.29.14-1.94a1.57,1.57,0,0,0-.74-1.63c-4.38-3-5.74-7.15-4.72-12.22a2.94,2.94,0,0,0,0-1.9,18.14,18.14,0,0,1-1.5-6.4,1.88,1.88,0,0,0-.53-1c-.16-.19-.46-.23-.68-.37-5-3.23-6.16-7.7-3.27-13,.36-.66.8-1.27,1.33-2.11-6-2.83-8.13-8.1-9.22-14.33-1.28.93-1.32,2.22-2,3.09a32.51,32.51,0,0,1-2.06,2.83,26.9,26.9,0,0,1-2.63,2.25A11.68,11.68,0,0,1,263,188a3.88,3.88,0,0,0,.93,3.8c4.45,5.57,4.5,11.65,1.45,17.88a21.64,21.64,0,0,1-2.07,3.29,1.37,1.37,0,0,0,.15,2c4.09,4.42,4.15,9.54,2.66,14.95a10.78,10.78,0,0,1-2,3.74,5.49,5.49,0,0,0-1.23,1.95c-.28,1.07,0,1.79,1.05,2.1a1.59,1.59,0,0,0,.38.07c5.11.46,7.67,6.16,6.22,11-1,3.42-2.62,6.52-5.7,8.57a2.84,2.84,0,0,0-1.37,2.45c-.29,2.82-2.05,4-4.9,3.36a2.44,2.44,0,0,0-2.63,1c-5.23,5.5-11.8,7.28-19.15,6.53a9.93,9.93,0,0,1-6.19-3,9,9,0,0,1-2.1-10.37c.28-.72.67-1.4,1-2.09.22-.46.56-1,.17-1.44-1.37-1.64-.5-3.44-.29-5.07a2.36,2.36,0,0,0-.46-.34c-4.1-1.36-5.45-3.31-5-7.45.38-3.41,1.87-6.18,5.12-7.74.58-.28,1.15-.58,1.85-.94-.14-.91-.75-2.14-.37-2.79,1.33-2.25.11-3-1.63-3.94-2.53-1.41-3.13-4.06-3.34-6.69a20.32,20.32,0,0,1,1.71-10.64c.66-1.39,1.34-2.78,2-4.18-.3-.67-1-.71-1.57-1a1.73,1.73,0,0,1-1-2.26,2.09,2.09,0,0,0-.63-2.69c-2.22-2.2-1.88-5-1.34-7.69a22,22,0,0,1,1.21-3.25c-3.73-2-4.49-3.68-3.64-7.87a9.66,9.66,0,0,0,.15-1.51c0-.1-.15-.29-.23-.29a1.7,1.7,0,0,0-.66.14c-.08,0-.11.23-.14.36a15.6,15.6,0,0,1-7.17,10.12c-.28,1,.55,1.43.87,2.06,1.29,2.55.92,5.05-.21,7.5a19.66,19.66,0,0,1-1.66,2.63c-.28.42-.75.77-.52,1.36.92,2.45,0,4.57-1.4,6.79,2.06,2.37,3.8,4.93,3.91,8.19a9.47,9.47,0,0,1-3.48,7.72c.45,1.23,1.41,1.77,2.05,2.57,5.38,6.72,5.14,13.79-.15,19.78a30.94,30.94,0,0,1-3.69,3.45A9.81,9.81,0,0,1,199,251.54c-.47-.21-.9-.5-1.36-.75a1.06,1.06,0,0,0-1.37.32c-1.06,1.14-2.05,2.35-3.15,3.44a16.43,16.43,0,0,1-6.53,4.12,9.37,9.37,0,0,1-10-2.23c-3-2.87-3.28-6.33-2.13-10.06a21.93,21.93,0,0,1,1.06-2.41c-5.31-5.45-5.71-8.4-2.09-14.87a15.33,15.33,0,0,1-1.88-3.36c-.88-3.18-.79-6.18,1.5-8.78.74-.85,1.19-1.53.51-2.72s.23-2.48.7-3.81c-.71-.49-1.45-1-2.17-1.5-3.18-2.28-4.27-5.44-3.8-9.2a12.89,12.89,0,0,1,3.6-8,2.75,2.75,0,0,0,1.07-1.57c-5.62-4.71-5.54-9.29.31-16.33-3.94-2.54-4.21-2.87-5.7-7.15l-4.76-.45c-1,9.57-.82,7.41-3.94,12.32,3.46,4.09,3.79,7.8,1.06,12.44-.39.66-.92,1.25-1.3,1.92a1.24,1.24,0,0,0-.12,1.06c2.74,3.85,1.43,7.62,0,11.49-.29.78,1,1,1.62,1.38,3.86,2.17,6.57,9.41,4.57,14.16a28.43,28.43,0,0,1-1.88,3.84,12,12,0,0,1-3.23,3.31,32,32,0,0,1,.45,4.55c-.15,4.16-3.71,6.77-7.83,5.86-.62-.14-1.21-.49-1.84-.59a1.25,1.25,0,0,0-1,.41,12.78,12.78,0,0,0-.93,1.71c-2.72,5-7.06,7-12.58,6.74a42.63,42.63,0,0,1-5-.75c-7.82-1.36-13.06-11.16-8.81-19.34a18.85,18.85,0,0,1,2.14-3.23,26.65,26.65,0,0,1,2.56-2.39,6.52,6.52,0,0,0-.63-1c-3.77-4.15-4.06-9-.76-13.39a13.81,13.81,0,0,1,4.32-3.87,1,1,0,0,0,.49-1.31,8.58,8.58,0,0,1,.53-8.54,3.34,3.34,0,0,0,.4-1.85,40.39,40.39,0,0,1,.17-5.05,35.7,35.7,0,0,1,1.18-4.43c-6.86-5.95-7.23-14.4-1.17-21.81-.33-1-1.3-1.1-2-1.54a15.81,15.81,0,0,1-5.16-21.74,16.8,16.8,0,0,1,5.58-5.88c.66-.39,1.56-.53,2-1.06.63-.71-.37-1.36-.52-2.08a5.37,5.37,0,0,1,1.55-4.77c-.19-.84-.71-1-1.16-1.22-5.35-2.62-8.38-10.58-4.93-17.28a20.51,20.51,0,0,1,7.69-8.58,17.78,17.78,0,0,1,2.82-1.25C143.84,92,149.26,96,151.59,101c.44.92.76,1.9,1.1,2.77.85.38,1.29-.27,1.83-.51a8.45,8.45,0,0,1,11.78,5.38,9.83,9.83,0,0,1,.22,5.76,17.26,17.26,0,0,0-.38,1.9,10.28,10.28,0,0,1-1.24,3.81A2.85,2.85,0,0,1,167.21,118.18Z"/><path class="cls-1" d="M456.09,209.8c-3.94-5.22-3.25-10.12,1.66-16.15.14-.29.05-.48-.21-.67-2.73-2.1-3.14-4.83-2.37-8a30.49,30.49,0,0,1,2.49-5.67c-5.4-2.22-7-4.95-6.07-10.61.14-.89.39-1.76.61-2.73-1.3-.71-2.83,0-4.14-.72s-1.75-2.13-2.46-3.31c-7.44,4.54-8.33,3.38-13.57.44-.44,1.51-.81,3-1.3,4.44s-1.06,2.62-1.66,4.09c2.57,1.84,4.62,4.07,4.55,7.56-.07,3.25-1.93,5.55-4.08,7.68,3.21,2.9,3.92,5.31,2.49,8.57a4.17,4.17,0,0,1-1.26,1.92c-1.92,1.15-2,2.75-1.56,4.63.6,2.45-.27,4.89,0,7.34a24.9,24.9,0,0,1,4.45,5.36c4,6.69,4.18,13.45.58,20.36a16.19,16.19,0,0,1-6.44,6.4c.94,1.7,2.25,3.25,1.69,5.33a5.87,5.87,0,0,1-3.91,4.19,14.57,14.57,0,0,1,3,7.39c.69,5.36-2.7,11.08-7.53,13.41a6.93,6.93,0,0,1-7.38-.62,5.42,5.42,0,0,0-4.31-1.17c-1.62.27-3-.83-4.53-.81s-2.73.72-4.2.63a10.16,10.16,0,0,1-8.71-5,15,15,0,0,1,1-17.47c.49-.6,1-1.15,1.55-1.71-.29-.85-1.1-1-1.66-1.47-4.83-3.93-4.56-8.85-2-13.21a10,10,0,0,1,3.73-3.9,2,2,0,0,0,1-1.91,18.32,18.32,0,0,1,.33-3.48,2.72,2.72,0,0,0-1.28-3.24c-4-2.94-6.2-10.7-3.37-16.34a29.87,29.87,0,0,1,3.35-5.09c0-1.29-1.06-1.52-1.71-2-7.11-5.58-5.36-16.09.4-20.37.72-.53,1.43-1.08,2.2-1.67a27.78,27.78,0,0,1-3.84-16.51,31,31,0,0,1,.92-5.75,2.48,2.48,0,0,0-.63-2.75c-5.66-5.87-5.1-12.33.51-17.77a7.79,7.79,0,0,1,1.37-.84c-.85-1.39-1.52-2.33-2-3.35-2.44-4.94-2.74-9.94-.29-15a14.37,14.37,0,0,1,12.85-8.66,9.08,9.08,0,0,1,7.93,3.28,19.82,19.82,0,0,1,4.85,12.44c.05,1.28,0,2.57,0,4a16.14,16.14,0,0,0,1.73-.25c3.19-.87,5.59.37,7.41,2.91a19.93,19.93,0,0,1,1.79,3.43c.37.8.36,1.78,1.21,2.52a12.78,12.78,0,0,1,4.13-.23c.58-1.16.17-2.19.15-3.17a7.74,7.74,0,0,1,2-5.34,17.45,17.45,0,0,1,8.07-5.21,7,7,0,0,1,5.65.62,16.91,16.91,0,0,1,4.26,3.46,17,17,0,0,1,7.11-3.09c4.82-.63,8.58,1.33,11.65,4.85a4.69,4.69,0,0,1,1.2,3.24c-.15,2.48,1.27,3.33,3.4,3.75a15.49,15.49,0,0,1,4.56,2.11c5.34,3,8.33,7.68,9.62,13.53.57,2.58.66,5.18-.79,7.56a1.76,1.76,0,0,0,0,2.12,7.92,7.92,0,0,1,1.16,5.22,2.56,2.56,0,0,0,1.13,2.6,17.1,17.1,0,0,1,5.14,20,28.13,28.13,0,0,1-2.79,5.08c.26,1,1.24,1.31,1.88,1.92A14.09,14.09,0,0,1,500,193.2a9.91,9.91,0,0,1,.66,7.55c-1.05,3.1-2.17,6.15-4.83,8.28a1.7,1.7,0,0,0-.52,2.36c.58,1.29,1.14,2.61,1.61,4,2.31,6.5,1.18,12.53-2.66,18.09-1.07,1.55-1,1.8-.08,3,3.5,4.51,3.43,9.25-.11,13.82-.22.28-.42.57-.64.86.61,1.31,1.81,1.95,2.69,2.88a14,14,0,0,1,.92,18.48,11,11,0,0,1-13,3.21c-1.16-.49-2.25-1.16-3.36-1.74-4,4.93-10.21,6.25-13.8-.68-1.26.57-2.51,1.17-3.79,1.74a14.28,14.28,0,0,1-6.83,1.2A12.11,12.11,0,0,1,445,260.91a22.49,22.49,0,0,1,7.33-11.68,33.62,33.62,0,0,1,5.69-4c-.15-1.23-1.38-1.55-1.72-2.51a5.34,5.34,0,0,1-.25-2.68c.13-.79-.43-1.06-.93-1.49a11.72,11.72,0,0,1-1.33-16.66c.51-.58,1.07-1.12,1.63-1.67s.82-1,.11-1.58a4,4,0,0,1-1.74-3.31,6.62,6.62,0,0,1,1.1-4.06C455.26,210.76,455.69,210.28,456.09,209.8Z"/><path class="cls-1" d="M24.8,125.61c-6.21-3.19-6.62-7-1.19-11.94-.8-.67-1.62-1.3-2.38-2a19.53,19.53,0,0,1-5.5-7.9,12.18,12.18,0,0,1-.24-7.64,26.59,26.59,0,0,1,4.35-8.65c2.45-3.32,6-4.84,9.92-5.6a9.62,9.62,0,0,1,1.93-.17,1.19,1.19,0,0,0,1.37-1,14.28,14.28,0,0,1,2.08-5c2.07-3,4.56-5.34,8.55-5.16.89,0,1.32-.48,1.86-1.12a16.49,16.49,0,0,1,26.86,2c.67,1.08,1.25,2.22,2,3.56.87-1,1.52-2,2.29-2.74a9,9,0,0,1,13.17.08A19.64,19.64,0,0,1,94,78.91c.46,1.2.94,2.4,1.46,3.74a23.87,23.87,0,0,1,2.62-1.49c2.68-1.11,4.62.27,4.55,3.19a9.34,9.34,0,0,1-.24,1.39c.9.88,1.84.39,2.69.37,4.45-.14,7.71,1.85,10.06,5.52a18.23,18.23,0,0,1,2.42,6.12,23.77,23.77,0,0,1-.41,13.06,15.83,15.83,0,0,1-9.4,9.79c-1.87.77-3.84.46-5.75.83-.1,1.25.67,2.21,1,3.29,1.78,5.38.46,10.07-3.51,13.89-4.86,4.68-10.71,5.72-16.94,3.33-4.89-1.88-7.63-5.67-8.14-10.94-.1-1,0-2.06,0-3.39a30.56,30.56,0,0,1-4.07,1.31,23.9,23.9,0,0,1-3.88.12,8.22,8.22,0,0,1-4.21-1.32c-.41,1.25-.71,2.46-1.2,3.6s-1.67,1.94-3.13,2.65c2.85,2.55,5.5,5.17,6,8.78,1.13.77,1.79.1,2.49-.09A12.19,12.19,0,0,1,75.78,144a7.64,7.64,0,0,1,4.23,7c0,.77,0,1.55,0,2.32,4.22.25,4.3.3,6.32,4.14a35.13,35.13,0,0,1,4-1.11,17.94,17.94,0,0,1,3.88-.15,14,14,0,0,1,13.15,10.79c1.1,4.43,1,8.75-1.8,12.88,1.64.92,3.24,1.82,3.77,3.69s-.34,3.29-.8,4.79c.49.89,1.37.9,2,1.22a13.05,13.05,0,0,1,7,8,17.71,17.71,0,0,1-.4,12.93c-1.61,3.83-4.38,6.31-8.72,6.86-3.13.4-6.18.49-9-.74-3.5,4.68-3.39,4.7-4.32,10-1,5.82-3.93,10.38-9.44,13a12.53,12.53,0,0,1-12.28-.57c-1.2-.69-2.31-1.54-3.44-2.3-1,.66-1,1.85-1.49,2.73a8.23,8.23,0,0,1-6.19,4.22c-6.61,1-10.93-2.77-12.1-7.33a3.77,3.77,0,0,0-.2-.75c-.34-.69-.78-.92-1.51-.44a12.43,12.43,0,0,1-6.11,2.31,7.89,7.89,0,0,1-8.52-5.89c-.15-.5-.2-1-.33-1.52s-.25-.72-.44-1.27a45.92,45.92,0,0,1-4.71,1.4,11.37,11.37,0,0,1-5.39-.36,18,18,0,0,1-4.62-2,13.84,13.84,0,0,1-3.74-3.37c-3.82-5.18-3.42-10.64-.92-16.23-.8-.77-1.91-.55-2.85-.81-7.31-2.07-11.15-9-9.24-16.35a15.6,15.6,0,0,1,4-6.58c.6-.68,1.28-1.27,2-2-.73-1-1.46-1.9-2-2.88a12,12,0,0,1-1.79-7.82,11.41,11.41,0,0,1,14.69-9.35c.62.19,1.18.54,1.79.76a1.17,1.17,0,0,0,1.38-.38,23.19,23.19,0,0,1,1.83-2A13.78,13.78,0,0,1,31.22,157a14.58,14.58,0,0,1,16.56,13.7c.09,1.15,0,2.32,0,3.7,1-.14,1.85-.28,2.68-.37a4.78,4.78,0,0,1,2.66.44,4.35,4.35,0,0,1,2,1.77c.42.77.74,1.6,1.15,2.52a14.48,14.48,0,0,1,4.22-.89h4c.12-2.07.22-4,.33-5.86-9.86-.33-14.43-6.22-15.34-14.44-1-.69-2,.12-3,.07-2.73-.12-4-1.08-4.72-3.72-.19-.72.16-1.56-.64-2.31-7.21,2.13-12.82-.68-17.17-6.43a15,15,0,0,1-2.87-9.91C21.25,132.14,21.5,131.43,24.8,125.61Z"/><path class="cls-1" d="M807.81,67.58a20.84,20.84,0,0,1-1.32-1.83,12.92,12.92,0,0,1-1.58-9,22.78,22.78,0,0,1,2.34-6.58,12.22,12.22,0,0,1,15.34-5.56c.47.18.95.33,1.54.54.32-.51.59-.94.86-1.35,2.3-3.5,7-4.3,10-3.46,4,1.12,7.21,5,7.35,8.22a4.06,4.06,0,0,1,0,.78c-.17,1.1.36,1.59,1.36,2a15.87,15.87,0,0,1,8.44,7.15,12.54,12.54,0,0,1,.89,10.88A9,9,0,0,1,850,73.26,2.46,2.46,0,0,0,849,75.59a20.88,20.88,0,0,1-1.34,9c.22.77.78.88,1.21,1.13,4.72,2.75,5,10.28.23,13.54-.43.3-.9.54-1.29.87a.77.77,0,0,0-.29,1,6.36,6.36,0,0,1,.31.71,8.48,8.48,0,0,1-2,9.66c-.27.27-.51.57-.76.86,2.82,6.83,1,13-2.65,18.86a29.4,29.4,0,0,1-1.88,2.48,1.25,1.25,0,0,0-.09,1.41c1.7,3.81,1.69,3.87-.41,7.08,0,1,1,1.41,1.53,2.08,2.94,3.62,3.54,7.71,2.48,12.12a10.84,10.84,0,0,1-6.07,7.21c-2.9,1.46-5.86,2.81-9.36,2.82-.28,3.31-1.06,6.29-4.77,7.48.67,1.72,1.77,2.87,2.2,4.35a11.16,11.16,0,0,1,.37,4.62,10.64,10.64,0,0,1-2,4.61,12.36,12.36,0,0,1-3.43,3.13,14.57,14.57,0,0,1-4.47,1.6,8.82,8.82,0,0,1-2.42,6,1.91,1.91,0,0,0-.37,1,3.14,3.14,0,0,0,.14.77c1,7.87-2.67,13.67-10.18,16.1l-1.23.41a10.38,10.38,0,0,1-1.88,6.17c-1.18,1.75-2.44,3.4-4.66,3.87-1,.22-1.42,1-1.85,1.83a16.11,16.11,0,0,1-5.42,6c-1.57,1-2.74,2-3,4.07a3.34,3.34,0,0,1-3.2,2.95c-1.52.09-2.14.87-2.88,2-2.38,3.75-6.15,5.11-10.34,5.14s-7.31-2.82-7.91-7.12c-.21-1.54-.64-2.26-2.19-2.57-3.57-.71-6-3-7.63-6.13-2.68-5-.74-9.58,2.9-12.44a31.83,31.83,0,0,1,3.29-2,27.79,27.79,0,0,1-1.41-3.62,11.5,11.5,0,0,1,9.14-13.92c1.08-.19,1.58-.39,1.5-1.63a2.65,2.65,0,0,1,2.68-3.12c.74-.06,1.05-.43,1.26-1.17.93-3.35,2-4.3,5.35-4.49a2.68,2.68,0,0,0,2.49-1.41,5.5,5.5,0,0,1,1.17-1.55c1.87-1.47,2-2.9,1-5.19-1.82-4.1.33-8.81,4.61-11.16,1.22-.68,2.57-1.12,3.86-1.68-.14-1-.31-1.88-.37-2.76a7.73,7.73,0,0,1,2.16-6.05c.89-.94,1.88-1.78,2.84-2.65.35-.32.35-.68,0-.93s-.76-.44-1-.32c-.68.35-1.26.89-1.92,1.3-5.65,3.52-11.76.91-13.08-5.57-.11-.5-.18-1-.29-1.66-2.57.15-4.46-1.18-6.18-2.76a16.67,16.67,0,0,1-9.65,2.9,10.5,10.5,0,0,1-5.55-1.57c-5.39-3.65-8.7-8.44-8.06-15.3a5.06,5.06,0,0,0,0-.77c-.74-.4-1.52-.11-2.28-.11a6.19,6.19,0,0,1-6-4.14,8.86,8.86,0,0,1-.87-4.15c0-.76,0-1.52,0-2.25-6.62-1.89-8.72-5.58-7.27-12.61-.52-.5-1.2-.35-1.83-.44a12,12,0,0,1-9-6.12,21.81,21.81,0,0,1-2.43-6.53,30.92,30.92,0,0,1-.3-11.62,14.41,14.41,0,0,1,13.47-12.45c5.18-.47,10.11.25,14.52,3.79,1-1.11,1.29-2.6,2.58-3.27A5.07,5.07,0,0,1,753,73c1.44.49,2,2,2.79,3.21,4.28-2,8-1,11.39,1.67a22,22,0,0,1,4.47,4.86c3,4.47,4.24,9.18,1.66,14.45,1.22.77,2.42,1.46,3.54,2.26s1.53,2.34,2.21,3.55c1-.35,1.84-.71,2.69-.92a8.11,8.11,0,0,1,9.92,5.37,10.12,10.12,0,0,1-.1,7.59c-.21.5-.35,1.15.26,1.31,3.11.83,4.23,3.15,4.75,6a1.82,1.82,0,0,0,2.64,1.06,1,1,0,0,0,.47-1c.23-4.18.24-4.18,3.9-6.39-4.75-6.67-3.81-11.75,3.21-16.35-1-1-2-1.94-2.89-3-5.88-6.46-4.94-13.65-2-18.71a9.68,9.68,0,0,1,3.37-3.7,1.68,1.68,0,0,0,.84-1.92C805.83,69.84,805.89,69.83,807.81,67.58Z"/><path class="cls-1" d="M660.29,186a2.77,2.77,0,0,1,.92-1.65c1.9-2.33,2.21-2.49,4.14-.36,2.55,2.81,5.55,3,8.88,2.18,1-.26,1.94-.72,2.94-1a2.23,2.23,0,0,1,2.66,1.08,7.2,7.2,0,0,1,.67,1.4c.89,2.57,3,3.46,5.4,3.74a22.65,22.65,0,0,0,2.33,0,3.3,3.3,0,0,0,3.16-1.82,19.37,19.37,0,0,1,3.65-4.53c2-1.92,4.24-3.4,7.19-3.31a2.23,2.23,0,0,0,1.82-.52c1.46-1.6,3.31-1.87,5.33-1.73a1.28,1.28,0,0,0,1.49-.94c1.26-4.82,5.09-6.24,9.37-6.81s8.29.65,11,4.3a4.28,4.28,0,0,0,1.81,1.53,4.35,4.35,0,0,0,1.74.2,7.49,7.49,0,0,1,3.6,1.11c0,2.08-.51,2.79-1,3a1.46,1.46,0,0,1-1,0c0-.05,2,0,2,0s-4.3,0-8,0c-1-1.14-.69-2.41-1.13-3.48a6.28,6.28,0,0,0-3.68-3.75c-4.16-1.66-10.23-.93-11.83,5.77-.21.87-.35,1.75-.53,2.62-3.45-.4-3.47-.43-7,1.45a2.11,2.11,0,0,1-2.13.09,6,6,0,0,0-5.58.64,12.14,12.14,0,0,0-5.51,6.81c-.17.49-.37,1-.5,1.47-.28,1.11-.23,2.35-1.37,3.1a7.56,7.56,0,0,1-4,1.25,11.35,11.35,0,0,1-6.59-2,4.5,4.5,0,0,1-2.36-3.78,11.1,11.1,0,0,0-.33-2.29,1,1,0,0,0-1.56-.52,4,4,0,0,0-.6.48,10.74,10.74,0,0,1-5.88,2.79c-1.43.32-1.71.21-2.27-1.31C666.33,187.86,664,186,660.29,186Z"/><path class="cls-2" d="M518.69,4.06l-4.84.13C515.43,3,517.05,3.31,518.69,4.06Z"/><path class="cls-3" d="M431.06,155.92c.53-.47.77-.35.94.45A.75.75,0,0,1,431.06,155.92Z"/><path class="cls-4" d="M824.08,47.74a.62.62,0,0,1-.86-.45A.65.65,0,0,1,824.08,47.74Z"/><path class="cls-1" d="M703.73,160a10.39,10.39,0,0,1-.75-.89c-1.25-1.92-3-2.25-5.05-1.56-2.91,1-5.48,2.22-6.7,5.36-.55,1.44-1.24,1.62-2.83,1a12.43,12.43,0,0,0-4.15-.88,3.77,3.77,0,0,0-3.58,1.89,2.16,2.16,0,0,0-.24,2.51,17.78,17.78,0,0,1,1.2,2.84.75.75,0,0,1-.2.66.76.76,0,0,1-1,0c-.65-.61-1.27-1.28-1.87-1.94a12.11,12.11,0,0,0-17-1.53c-.71.55-1.4,1.12-2.1,1.68a1.32,1.32,0,0,1,0-1.81,11.1,11.1,0,0,1,6.11-4.54c.74-.22,1.53-.29,2.25-.56a5.1,5.1,0,0,0,2.9-7.28c-.4-.81-1-1.51-1.44-2.3-.56-1-.41-1.28,1.06-2.37,7.16,1.33,12.93-2.83,14.73-10.55.39-1.68-.12-4.15,2.08-4.57,2.35-.46,3,2,4,3.59.35.54.62,1.13,1,1.65,2.57,3.42,5.06,3.51,8.09.29,1-1.13,2.07-2.27,3.13-3.39a2,2,0,0,1,2.45-.46c.28,1.28-.47,2.23-1.07,3.21-3.27,5.35-3.57,10.66.09,16a5.86,5.86,0,0,1,1.2,2.42C706.11,160.24,705.53,161,703.73,160Z"/><path class="cls-1" d="M347.15,168.48c1.52-1.19,2.69-2.81,4.51-3.63,1.12-.51,1.58-.13,1.67,1.44-.77,1.51-1.85,2.82-2.75,4.23-4.14,6.44-4.6,13.08-.72,19.83.71,1.23,1.77,2.3,1.46,3.89a1.94,1.94,0,0,1-2.43-.12,8.68,8.68,0,0,1-2.68-3.09c-.52-1-1-2-1.53-3-2.42-1.77-3.19-1.49-3.49,1.28a6,6,0,0,0,.1,1.93c.58,2.57-.26,3.7-3.06,4.05-4.84.62-7,3.09-7.15,7.51.84.8,1.71,1.58,2.51,2.42a1,1,0,0,1,.11,1.38,1.06,1.06,0,0,1-1.42.09c-1.13-.62-2.23-1.31-3.32-2A10.94,10.94,0,0,0,315.37,206c-.94.87-1.69,1.95-2.6,2.86-.53.54-.5,2.17-1.73,1.4-.85-.53-.2-1.66.07-2.51a8.42,8.42,0,0,1,2.58-3.81,4.48,4.48,0,0,0,1.59-3.38c.06-1.81.31-3.63.23-5.43-.12-2.66-1.25-4.72-4-5.54a5.59,5.59,0,0,1-1.42-.61,1.21,1.21,0,0,1-.43-1.69,21.06,21.06,0,0,1,1.58-2.2c1.95-2.6,2-5.53,1.36-8.52a3.23,3.23,0,0,0-1.22-1.93c-.56-.43-1.13-.67-1.73-.16-1,.81-1.74,2-3.14,2.15a1.31,1.31,0,0,1-.73-.19c-.49-.26-.23-.65-.08-1a2.15,2.15,0,0,1,.48-.6c4.11-3.94,5.78-9.1,7.11-14.41a10,10,0,0,0-.24-5.74,29.84,29.84,0,0,1-.88-3c-.15-.6-.3-1.33.46-1.66s1.24.09,1.7.59c.26.28.5.59.75.88a7.27,7.27,0,0,1,1.23,2c2.37,4,4.77,4.19,7.83.7,2.76-3.15,3.19-3.11,5.42.52,1.63,2.65,4.15,3,7.33,1,1.53-1,2.78-2.33,4.33-3.29.94-.57,2-.89,2.85-.05s.48,1.92,0,2.87-1.17,1.7-1.68,2.61a9.39,9.39,0,0,0-.26,8.94C343.16,169.23,344.65,170.44,347.15,168.48Z"/></g></g></svg>