<svg viewBox="-8.64 -8.64 49.28 49.28" enable-background="new 0 0 32 32" version="1.1" xml:space="preserve" xmlns="http://www.w3.org/2000/svg" xmlns:xlink="http://www.w3.org/1999/xlink" fill="#000000" stroke="#000000" stroke-width="0.096"><g id="SVGRepo_bgCarrier" stroke-width="0"></g><g id="SVGRepo_iconCarrier"> <g id="Energy20"></g> <g id="Energy19"></g> <g id="Energy18"></g> <g id="Energy17"></g> <g id="Energy16"></g> <g id="Energy15"></g> <g id="Energy14"> <g> <path d="M30,18v8c0,1.65-1.35,3-3,3H5c-1.65,0-3-1.35-3-3v-8c0-0.55,0.45-1,1-1h26C29.55,17,30,17.45,30,18z" fill="#9f52da"></path> </g> <g> <path d="M29.02,14c0,0.55-0.45,1-1,1c-0.01,0-0.01,0-0.02,0H4c-0.31,0-0.6-0.14-0.79-0.38 c-0.19-0.25-0.25-0.56-0.18-0.86l1-4C4.12,9.4,4.4,9.12,4.76,9.03l3.65-0.91L11.2,4.4c0.27-0.36,0.76-0.49,1.17-0.33l4.21,1.68 l2.56-4.26c0.15-0.25,0.4-0.42,0.68-0.47c0.29-0.06,0.58,0.02,0.8,0.2l5,4C25.86,5.41,26,5.7,26,6v3.38l1.45,0.73 c0.23,0.11,0.42,0.32,0.5,0.57l0.94,2.82C28.97,13.65,29.02,13.82,29.02,14z" fill="#52daa0"></path> </g> <g> <path d="M31,14v4c0,0.55-0.45,1-1,1H2c-0.55,0-1-0.45-1-1v-4c0-0.55,0.45-1,1-1h28C30.55,13,31,13.45,31,14z" fill="#8acaffbc"></path> </g> <g> <path d="M12,28c0,1.65-1.35,3-3,3s-3-1.35-3-3c0-1.65,1.35-3,3-3S12,26.35,12,28z" fill="#000000"></path> </g> <g> <path d="M26,28c0,1.65-1.35,3-3,3s-3-1.35-3-3c0-1.65,1.35-3,3-3S26,26.35,26,28z" fill="#000000"></path> </g> </g> <g id="Energy13"></g> <g id="Energy12"></g> <g id="Energy11"></g> <g id="Energy10"></g> <g id="Energy09"></g> <g id="Energy08"></g> <g id="Energy07"></g> <g id="Energy06"></g> <g id="Energy05"></g> <g id="Energy04"></g> <g id="Energy03"></g> <g id="Energy02"></g> <g id="Energy01"></g> </g></svg>