<svg id="Capa_1" data-name="Capa 1" xmlns="http://www.w3.org/2000/svg" viewBox="0 0 18 18"><defs><style>.cls-1{fill:#b5afda;fill-rule:evenodd;}</style></defs><g id="SVGRepo_iconCarrier" data-name="SVGRepo iconCarrier"><path class="cls-1" d="M294.94,996.77a13,13,0,0,1,5.94,0,7.65,7.65,0,0,1,5.69,5.69,13.24,13.24,0,0,1,0,5.94,7.64,7.64,0,0,1-5.69,5.68,13,13,0,0,1-5.94,0,7.64,7.64,0,0,1-5.69-5.68,13.24,13.24,0,0,1,0-5.94A7.65,7.65,0,0,1,294.94,996.77Zm1.68,6.56a.56.56,0,0,0-.81,0,.58.58,0,0,0,0,.81l1.29,1.29-1.29,1.28a.59.59,0,0,0,0,.82.58.58,0,0,0,.81,0l1.29-1.29,1.29,1.29a.58.58,0,0,0,.81,0,.59.59,0,0,0,0-.82l-1.29-1.28,1.29-1.29a.58.58,0,0,0,0-.81.56.56,0,0,0-.81,0l-1.29,1.28Z" transform="translate(-288.91 -996.43)"/></g></svg>