<svg xmlns="http://www.w3.org/2000/svg" viewBox="0 0 1050.84 341.63"><defs><style>.cls-1{fill:#3ec8ff;}</style></defs><g id="Capa_2" data-name="Capa 2"><g id="Capa_2-2" data-name="Capa 2"><path class="cls-1" d="M623.81,255.19c-4.6-5.26-7-10.71-3.1-17-6.63-9.66-7-16.15-1.26-25.14-4.32-9.34-1.91-18.15,3.12-26.53-8.65-7.86-9.37-10.82-4.48-18.18a32.52,32.52,0,0,1-2.17-2.49,4.58,4.58,0,0,1-.11-5.78,37.66,37.66,0,0,1,2.84-3.22,16.86,16.86,0,0,0-1.17-1.57c-3.52-3.83-5-8.55-5.48-13.55a58.34,58.34,0,0,1,.57-15.77,21.93,21.93,0,0,1,4-9.52C612.4,102.86,612,89.57,618,76.26c-2.91-4-3.19-8.43-1-13.21-.92-.53-1.69-1-2.51-1.43-8.72-4.17-8.46-14.56-2.24-18.83a15.4,15.4,0,0,0,1.23-1.07,13.59,13.59,0,0,0-1-1.49c-3.77-4.09-4.75-9.06-3.89-14.29A32.6,32.6,0,0,1,621,5C626.61.56,632.82-1.09,639.87.74c2.79.72,5.61,1.26,8.14,2.73a24.06,24.06,0,0,1,11.88,16.1c.39,1.71.71,3.43,1.09,5.28,1,.31,2.11.57,3.12.95a7.26,7.26,0,0,1,5,8.26c-.19,1.58-.69,3.12-1.1,4.92,1.24.46,2.57.89,3.86,1.43,5,2.1,7,6.6,5.29,11.76a15.67,15.67,0,0,1-3.62,6.15c-.9.91-1.9,1.71-3,2.73.84.9,1.48,1.56,2.09,2.24,4.24,4.67,4.86,10.59,1.48,15.87-1.37,2.14-3.08,4-4.85,6.35.14,1.42.32,3.15.51,5.06,5,4.65,8.51,10.26,8.88,17.37a27.22,27.22,0,0,1-6,18.58c-.16,1.19.76,1.48,1.24,2,4.92,5.79,4.68,13.24-.63,18.55-.67.67-1.45,1.24-2,1.73a32.32,32.32,0,0,1-.79,5.74,35.49,35.49,0,0,1-2.78,5.37c1.24,2.9.23,6-.48,9,1.47,1.24,3.19,2.22,4.2,3.69s1.09,3.25,1.65,5.1l2.37-.39a16.12,16.12,0,0,1-1.5-2.75,25.16,25.16,0,0,1-1.38-5.53c-.34-4.72,1.13-6.58,5.76-7.92a14.12,14.12,0,0,0,1.42-.59c-1.68-5.43.6-9,5.68-11.24-2-5.37-1.59-10.55,1.49-15.19s8.08-6.53,13.81-6.57c1.13-1.84,2.15-3.81,3.45-5.56a11,11,0,0,1,5.88-4,54.57,54.57,0,0,1,6.75-1.06c.34-.65.73-1.52,1.22-2.33,3.39-5.66,7.68-5.9,12.31-5a6.14,6.14,0,0,1,4.88,4.16c.31.9.53,1.84.86,3,.76.15,1.68.28,2.58.5A13.18,13.18,0,0,1,749,132c-.58,6.17-3.47,10.9-9,13.86-1.68.9-3.48,1.58-5.36,2.42-1.15,11-6.7,18.21-18.42,20.19-.62,2.78-2.68,4.75-5.05,6.48.41,1.67.85,3.19,1.16,4.74a12.4,12.4,0,0,1-13.06,14.89c-.45,0-.91,0-1.36,0-1.32,8.32-2.65,10.84-8.58,16.1V216c5.52,1.09,10.75,2.89,15.11,6.67s7.07,8.54,9.21,14.12c4.51-2.79,9-3.33,13.5-1.4s6.81,5.58,6.91,10.7a28.57,28.57,0,0,1,4.15.62,12.34,12.34,0,0,1,3.84,1.82,12.06,12.06,0,0,1,2.81,3.22,32.29,32.29,0,0,1,1.86,4.23c3.6-.43,7.32-.78,11.1.23s7,2.92,10.8,5.34c-.91-3.34-1.23-6.16.12-9a19.33,19.33,0,0,0-1.6-1.12c-5.87-3.35-8.44-8.48-7.63-15.18A18.29,18.29,0,0,1,764.42,226a27.71,27.71,0,0,1,2.7-2.3c-4.66-5.37-5.2-10.71-.67-16.44-.49-.66-1.05-1.38-1.57-2.13-5.32-7.53-3.8-16.6,3.73-21.89,1.68-1.18,3.56-2.09,5.5-3.21.81-10.24,6.41-18,14-24.34-.55-2.18-1.19-4.14-1.51-6.14a7.63,7.63,0,0,1,1.82-6.25c1.4-1.69,3.42-2.22,5.4-2.85-.18-1.9-.4-3.47-.47-5a20.06,20.06,0,0,1,12.83-20c5.32-2.07,10.79-2.78,16.43-1.07,3.8,1.15,7,3,9.15,6.68,4.91-3.22,9.59-4.09,14,.82,6.05-7.08,13.44-9.18,21.89-5.25,6.29,2.92,9.1,9.21,8.47,17.34,10.82,4,17.78,11.44,20.17,23.27,2.81.79,6.12,1.16,8.17,4a11.27,11.27,0,0,1,1.89,7.49c1,.3,2.05.65,3.1.91,9.79,2.45,12.68,14.28,5.61,21.79-.43.46-.92.87-1.31,1.24.38,5.12.27,8-5.84,14.06.86,1.82,2,3.58,2.52,5.51a14.47,14.47,0,0,1,.06,5.68,46.58,46.58,0,0,1-1.95,6.17c2.44,2.18,3.77,5.19,4.93,8.37,2.75,7.57-1.89,17.08-9.71,18.42a6.3,6.3,0,0,0-1.29.54q1.34,6.12-1.21,10.48c5.83,4.59,6.82,10.6,4.11,17.16-2.81,6.81-8.66,8.91-15.75,8.85-3.15,6.13-7.91,9.46-15.27,7.74-.52,1-1,1.77-1.39,2.59a12.1,12.1,0,0,1-6.84,5.68,7.92,7.92,0,0,1-7.33-.8,18.63,18.63,0,0,1-2.25-1.95,19.12,19.12,0,0,1-3.65,1.88,17.21,17.21,0,0,1-4.12.07c-.14.22-.4.6-.67,1-4.17,6-11.21,7.72-18.38,5.39a25.6,25.6,0,0,1-13.5-9.84,31.61,31.61,0,0,1-3,1.55,11.41,11.41,0,0,1-8.44.3c-3.15-1.17-5.66-3-5.92-6.79a10.09,10.09,0,0,0-.39-1.53c-4.22,0-8.21-.73-11.83-3.12-3.39-2.24-5.67-5.46-8.12-9.05-3.15,15.64-12.55,21-26.45,15.84-1.38,1.5-2.57,3.51-5,3.93a7.35,7.35,0,0,1-6.34-1.86c-5.48,6.22-12.14,8.25-19.49,4.88s-11.53-9.43-10.82-18.24c-3.63.09-7.14.69-10.36-1.19s-5.56-4.37-6.36-8c-.75-3.4-2.2-6.82,0-10.48-2.81-1.6-5.65-2.83-7.28-5.83-4.16.82-8.2.85-11.68-2.23s-4.06-4.21-4.83-11.09l-2.25.64c-.25,2.6-.39,5.12-.76,7.61-.41,2.73-2.39,4.42-4.76,6.05,1.15,2.68,3.37,4.84,3.5,7.77s0,5.74,0,9c.52.48,1.32,1.21,2.14,1.93a13.69,13.69,0,0,1,4,6.43A10.71,10.71,0,0,1,667.2,299c-1.07.68-2.25,1.2-3.6,1.92.77,4,.85,8-3.55,10.47.18.68.31,1.27.49,1.84,1.65,5.32.11,9.8-3.78,13.5a24.39,24.39,0,0,1-9.51,5.42,10.35,10.35,0,0,1-5.68.36,64.25,64.25,0,0,1-6.49-1.66c-6.39-2.33-10.13-7-11.55-13.59-.89-4.13-.49-8,3-11.19a14.28,14.28,0,0,0-1.1-1.5c-3.35-3.44-3.53-4.72-1.14-9.52a27.14,27.14,0,0,1-2.14-2.33c-3.31-4.39-5.16-9.09-3.69-14.76.82-3.16,2.72-5.35,5.39-7.37-.88-5.1-1.65-10.31-.05-15.39Zm84.49-89.27c1-.5,1.09-.64,1.22-.63,1.43.06,2.86.16,4.29.21a16.48,16.48,0,0,0,16.78-11.67c.9-2.82.62-5.69.31-8.56-.08-.73-.54-1.56.57-2.15.33.21.82.37,1,.7a2,2,0,0,0,2.42,1c7.26-2.21,10.35-6.13,11.12-12.3.87-7-4.21-12.45-11.34-12.23-.6,0-1.2,0-2.07,0a29.07,29.07,0,0,0-.4-3.94,4.22,4.22,0,0,0-1.33-2.4,7,7,0,0,0-5.91-1.22,8.53,8.53,0,0,0-5.92,4.47,2.1,2.1,0,0,0,0,.83c.4,1.14,2.73.85,1.91,3-1.19-.12-2.45-.18-3.68-.37-6.71-1-11.9,2.47-13.49,9.11a13.54,13.54,0,0,0-.17,6.17,13.32,13.32,0,0,1,0,2.57c-3-2.07-2-5.36-3.55-7.48a5.12,5.12,0,0,0-4.2.21,17.84,17.84,0,0,0-4.16,2.28,12.34,12.34,0,0,0-3.09,3.59,20,20,0,0,0-1.64,5c-.72,3.19,1.59,5.65,2.61,8.53-.79.48-1.28.85-1.83,1.11a28.89,28.89,0,0,0-3.06,1.34c-2.77,1.72-3.38,4-2,7,.28.57.68,1.08,1,1.65.43.83,1.18,1.77.23,2.57a3.55,3.55,0,0,1-2.16.47c-1,0-1.89-.4-2.83-.39a3.62,3.62,0,0,0-3.71,3.59,10.09,10.09,0,0,0,1.88,6.79c.74,1,1.59,2,2.38,3a1.86,1.86,0,0,1,0,2.66c-2.18.78-4.7-.48-6.89.71q-5.43,11.73-7.93,13.09c.38-1,.64-1.69.94-2.39,1-2.19,2-4.35,2.9-6.58a19.31,19.31,0,0,0,1.13-9.43c-.25-2.18-1.07-2.84-3.46-3.16-.74-.1-1.48-.22-2.23-.34-.5-2.28.85-3.91,1.21-5.75.69-3.5-.08-5.91-3-7.93-.91-.64-2-1-2.9-1.68-.29-.2-.32-.78-.54-1.39,2.69-.91,4.69.67,6.94,1.76a26.48,26.48,0,0,0,1.76-3,7.12,7.12,0,0,0,.8-3.21c-.08-.89-.94-1.71-1.53-2.68,2.39-1.88,5.2-3,6.69-5.61,1.62-2.89,1.34-5.8.52-8.82s-3.82-4-6.1-5.92a22.68,22.68,0,0,1,1.68-2.46c6.09-6.86,9.66-19.55.54-30.25-.26-.3-.79-.38-1.15-.54-.89.85-1,2.64-2.8,2.08-.76-1.48-.19-2.86.11-4.22a10.71,10.71,0,0,0-1.39-7.83c-.59-1-2.16-2.09-1.28-3.27,1.23-1.64,2.41.72,3.75.57,2.82-2.37,4.34-4.32,5.25-6.66a8.82,8.82,0,0,0-5.24-11.66c-.74-.27-1.51-.48-2.23-.81A1.33,1.33,0,0,1,665,61c.79-.52,1.66-.93,2.49-1.38a15,15,0,0,0,6.62-7.35c1.62-3.7.4-6.92-3.2-8.85a9.59,9.59,0,0,0-6.53-.82c-1.09.21-2.17.5-3.28.61a1.28,1.28,0,0,1-1.07-.63,1.34,1.34,0,0,1,.3-1.23,13.44,13.44,0,0,1,2.07-1.16c2.71-1.48,3.65-3.88,3.5-6.82a4.69,4.69,0,0,0-1.46-3.44c-1.09-1-2.29-1.71-3.93-1.23C659,31.33,659.37,35,656.56,37a1.47,1.47,0,0,1-1.19-1.88,32.79,32.79,0,0,1,1-4.19c3-8.79-2.93-19.51-8.64-23.27A22.53,22.53,0,0,0,631.28,4a12.51,12.51,0,0,0-4.45,1.67c-7.09,4.32-12.18,10.23-14.34,18.44a17.8,17.8,0,0,0-.3,7.61c.49,2.92,1.64,5.51,4.31,7.17a9.94,9.94,0,0,1,1.86,1.5,2.14,2.14,0,0,1-.2,3c-1.13.87-2.45,1.51-3.56,2.4-2.24,1.81-3.61,4.24-3.22,7.1a7.69,7.69,0,0,0,5.34,6.25c.59.22,1.25.28,1.86.45a4.63,4.63,0,0,1,1.33.5,1.94,1.94,0,0,1,1,2.42c-.45,1.19-1.1,2.31-1.59,3.48-1.08,2.55-1.06,3.27.13,6.38.53-.41,1-.77,1.47-1.16.72-.62,1.43-1.49,2.48-.87,1.3.77.74,2,.36,3a46,46,0,0,1-1.93,4.37,43.58,43.58,0,0,0-4.48,26.51,64.16,64.16,0,0,0,4.44,16.12c.31.72.73,1.45-.19,2.06-1.34.36-1.86-1.93-3.64-.88a42.32,42.32,0,0,0-1.6,21.48c.87,5,2.7,9.52,6.5,13.09a6.45,6.45,0,0,1,1,1.73c-.63,3.07-4.59,2.12-5.1,5a4.26,4.26,0,0,0,.77,1.13,12.29,12.29,0,0,0,2.06,1.17c.86.41,1.8.67,2.62,1.14a2,2,0,0,1,.26,3.26c-1,.74-2.23,1.23-3.29,1.92a4.47,4.47,0,0,0-2,5.4,8.4,8.4,0,0,0,5.29,5.79c1,.41,2.14.65,3.16,1.09a2,2,0,0,1,.82,2.49,6.58,6.58,0,0,1-1.08,1.56,21.22,21.22,0,0,0-5.2,9.59c-2.06,7.21-1.14,13.62,5.15,18.54a13.62,13.62,0,0,1,1.58,1.77c-3,2.54-4.74-1.35-7.2-.92-2.49,3.64-2.84,7.78-2,11.92.66,3.31,2.17,6.35,5.68,7.83a1.62,1.62,0,0,1,.34,2.5c-.2.25-.46.45-.67.69-3.37,3.82-3.38,7,.07,11.38.69-.91,1.32-1.81,2-2.64a8.24,8.24,0,0,1,1.76-1.58,1.51,1.51,0,0,1,1.33,0,1.34,1.34,0,0,1,.59,1.14c-.35,1.22-.92,2.37-1.33,3.57a59.54,59.54,0,0,0-2.34,7.26c-1.11,5.51,0,10.8,2.26,15.88.38.84,1.14,1.62.29,2.69-2.66-.06-3.13-2.91-5-4.1-1.94.8-2.73,2.5-3.13,4.4-1.2,5.63.6,10.39,4.4,14.51a25.72,25.72,0,0,1,2.09,1.92,1.94,1.94,0,0,1-.06,1.72c-.28.51-1,.78-1.44,1.21-2.08,1.92-1.76,4.56.8,5.79a27,27,0,0,0,3.84,1.18c-1.37,1.83-2.52,3.32-3.62,4.85a8.55,8.55,0,0,0-1.91,6.27c.5,3.77,1.83,7.24,4.92,9.57,7.14,5.39,16.5,6.65,24.08-.34,3.71-3.42,4.28-7.65,1.84-12.11a14.2,14.2,0,0,1-.76-2.26c1.35-.66,2.53-1.13,3.59-1.78,2.21-1.36,2.75-3.35,1.67-5.77-.43-1-.89-1.92-1.47-3.16,1.7-.82,3.13-1.46,4.51-2.18,2.65-1.38,4.77-3.27,5.33-6.38a10,10,0,0,0-.95-6.07c-1-2-2.07-3.88-4.27-4.83-1.31,1.21-2.44,2.33-3.67,3.35-.45.37-1.13.61-1.75-.43.61-.91,1.25-2,2-3a12,12,0,0,0,2.33-8.58,15,15,0,0,0-2.64-7.6c-.6-.88-1.06-1.85-1.66-2.93.79-.67,1.34-1.22,2-1.66,2.93-2,4-4.91,3.84-8.31,0-1.43-.36-2.84-.55-4.26-.14-1.07-.26-2.14-.44-3.63a7.24,7.24,0,0,1,2,.69c1.59,1.25,3,.82,4.28-.4.92-.88,1.66-1.94,2.54-2.86a13.28,13.28,0,0,1,1.91-1.3,18.82,18.82,0,0,1,0,3.22c-.36,2-1,4-1.23,6.09a7.31,7.31,0,0,0,.71,4.13,11.09,11.09,0,0,0,7.5,5.53c2,.39,3.81.21,5.13-1.65a11.35,11.35,0,0,1,2-2c.6-.51,1.31-1,2,0l-1.7,3.94c1.64,2.87,3.39,5.19,7.19,4.18.3-.08.75.43,1.28.75a19.75,19.75,0,0,1-.85,2.26,11.41,11.41,0,0,0-.82,7.49c1.31,7.94,7.65,12.67,15.31,9.1.84-.39,1.68-1,2.83.1-.07,1.2-.16,2.61-.25,4a15.88,15.88,0,0,0,12.17,16.23,13.29,13.29,0,0,0,8.42-1.08,8.23,8.23,0,0,0,4.67-5.19c.17-.54.73-1,1.25-1.62.76.56,1.4,1,2,1.47a13.17,13.17,0,0,0,1.78,1.58,3.42,3.42,0,0,0,3.65-.13c1.19-.77,1-1.9.56-3-.33-.87-1-1.71.18-2.85a9.51,9.51,0,0,1,2,.57c1.42.72,2.74,1.66,4.19,2.33a13,13,0,0,0,12.45-.46,13.77,13.77,0,0,0,7-13.31c-.89-14.82-13.82-24.12-28.22-20.52a12.27,12.27,0,0,1-2.9,0c0-1.57,0-2.81,0-4a6.51,6.51,0,0,0-8.22-6.27c-.61.16-1.16.54-1.76.75-2.55.92-3.39.14-3-2.73.12-.79.26-1.58.35-2.37.36-3.3-1.17-5.58-4-7-4.1-2-8-1.59-11.08,1.45a23.31,23.31,0,0,1-2.4,1.86c-2-.93-2.1-2.71-2.6-4.16a29.4,29.4,0,0,0-5-9.22,23.44,23.44,0,0,0-12.22-8,17.63,17.63,0,0,0-13.06,1.31c-.44.23-1.11,0-1.85,0a7.94,7.94,0,0,1,.58-1.64c1.76-2.54,5.06-2.47,7.25-4,1.07-3.8-.34-6.46-3.17-8.53-1.55-1.13-3.21-2.1-4.77-3.22-.4-.29-.6-.85-1.15-1.7,5.22-.19,8.32,3,11.66,5.35,3-2.8,4.18-4.49,5.32-7.55a20.34,20.34,0,0,0,1.11-7.54,8,8,0,0,1,.92-2.54,22.73,22.73,0,0,1,2.52,1c2.25,1.3,4.29.66,6.32-.55,5-3,6.59-8.54,4.07-14.21-.44-1-1-1.92-1.46-2.92,1.87-2,5.71-1.56,5.76-5.19L708.27,166Zm124-39.95c-2.35-.25-2.85-1.74-3.45-3a9.65,9.65,0,0,0-7.49-5.4,29,29,0,0,0-8.57-.27c-11.57,1.56-18.82,12.65-15.63,21.56a16.59,16.59,0,0,1,.41,3.78c-1.78.54-3.31.92-4.77,1.48a4.93,4.93,0,0,0-3.33,3.78c-.39,2-.63,4,.92,5.65,1.79,0,3.06-1.81,4.84-.56-.13.39-.15,1-.44,1.21-1.09.94-2.29,1.74-3.4,2.65-5.26,4.31-9.73,9.25-12.29,15.69-1.2,3-1.94,6.08-1,9.35a8.24,8.24,0,0,1,.32,2.36c0,.37-.43.74-.68,1.12l-2.46-1.51c-1.42.67-2.76,1.21-4,1.91a11.78,11.78,0,0,0-3.2,18.08,11.65,11.65,0,0,1,2.25,3c.63,1.68-1.13,2.43-2,3.54a7.43,7.43,0,0,0,.19,9.69c.6.74,1.39,1.32,2,2,1.15,1.23,1.12,2.24-.08,3.27a15.75,15.75,0,0,1-1.55,1.13,14.65,14.65,0,0,0-5.9,10.07c-1.06,6.29,2.24,11.29,8.4,13a9.23,9.23,0,0,1,2,1.15,33.25,33.25,0,0,0-2,4.12c-1,3.27.55,5.68,4,6.24a3.47,3.47,0,0,0,3.13-.76c.52-.47,1.14-1.23,2.22-.21-.24.62-.54,1.3-.78,2a16.67,16.67,0,0,0-1.11,3.63,24.53,24.53,0,0,0,4.28,16.84,17,17,0,0,0,18.54,6.93c1-.25,2.1-.39,3.37-.63-.28,2.56-3,2.08-3.69,3.79-.47,2.29.67,3.92,2.48,5.2a8.11,8.11,0,0,0,10.2-.49c.72-.62,1.26-1.44,2-2.1a1.46,1.46,0,0,1,2.38.49c.83,1.54,1.36,3.35,2.51,4.58a23.17,23.17,0,0,0,10,6.45,15.29,15.29,0,0,0,7.11.52c5-.81,7.85-3.51,8.94-8.59.13-.61.31-1.2.47-1.81,3-.74,2.34,2.73,4.46,3.34a7.57,7.57,0,0,0,1.81-.83c.75-.57,1.32-1.39,2-2,1.39-1.28,2.31-1.09,3.39.65.17.27.26.59.44.85,1.41,2.18,2.8,2.73,5.25,2.06,4.8-1.3,6.89-4.76,5.92-9.83-.23-1.19-.91-2.39.07-3.56,1.52,1.09,1.46,1.13,2.62,3.08a4.21,4.21,0,0,0,1.9,1.94,8.93,8.93,0,0,0,7-.39c2.3-1.22,4.27-2.8,4.69-5.73-.88-1.14-1.79-2.24-2.59-3.42-.35-.51-.54-1.17.49-1.77a15.12,15.12,0,0,1,2.19,1.35c2.31,2,5,2.09,7.69,1.4a13.34,13.34,0,0,0,3.92-1.72c6.12-4,6.65-13.37,1.07-17.8a6.27,6.27,0,0,0-5.35-1.5l-3,.59c.51-1.46,1.12-2.12,2.07-2.42,1.21-.38,2.48-.62,3.68-1a4.38,4.38,0,0,0,3.13-5.22,5.75,5.75,0,0,0-2.84-4.23,14.93,14.93,0,0,0-2.21-.93c-1-.41-2.26-.56-2.25-2,0-.81,1-1,2.87-.48.93.24,1.85.52,2.79.69a10.12,10.12,0,0,0,12.06-8.19,16.39,16.39,0,0,0-.86-9c-1.94-5.4-5.93-7.33-11.34-5.45-.86.3-1.73.53-2.88.88-.44-2-.82-3.65-1.18-5.33a4.57,4.57,0,0,0-1.94-3.19c-3.68-2.18-7.69-2.28-10.44,1.95a9.57,9.57,0,0,0-1.5,7.32c.21,1.05-.16,1.89-1.58,2.25a23.46,23.46,0,0,0-2.68-1.54,5.38,5.38,0,0,0-5.84.87c-1.59,1.27-1.62,2.95-1.29,4.8.14.78,1.29,1.66-.16,2.63-2.39-1.46-2-4.37-3-6.46-3.85-.62-6.42,1.1-8.48,3.76-4.33,5.57-4.05,12.08.63,17.46a28.17,28.17,0,0,1,1.78,2.59c-1.62.08-2.7.19-3.77.17a4,4,0,0,0-4.05,2.77c-.36.88-.53,1.84-.89,2.72a1.34,1.34,0,0,1-2.33.34,19,19,0,0,1-1.08-1.57c-5.28-7.87-12.26-8.54-19.19-1.87a13.71,13.71,0,0,1-1.81,1.28c-1.38-1.46-.41-2.55-.09-3.71,1.34-4.84-.7-8.2-5.78-9.61-1.63,1.26-3.21,2.58-4.91,3.74-.6.41-1.5.53-2.05-.72,1-1.12,2-2.27,3-3.52A8.57,8.57,0,0,0,815,231.23l-3.43-2.37c1.09-.4,1.66-.82,2.18-.76a8.65,8.65,0,0,1,6.79,4.75c.59,1.07,1.08,2.2,1.63,3.33a13.75,13.75,0,0,0,8.58-3.2,11,11,0,0,1,2.27-1.19c.43.48.76.68.84,1,.26.91.38,1.86.63,2.77a9.38,9.38,0,0,0,1,3.1c2.39,3.2,8.32,4.84,12.22,3.61a5.29,5.29,0,0,0,3.83-3.85,26.29,26.29,0,0,1,2.71-6.59c3.26-5.18,7.43-6.67,13.41-5.26a26.28,26.28,0,0,1,4.43-1.94,34,34,0,0,1,5.19-.47c.15-.82.29-1.6.43-2.38,1.41-7.68,8.62-10.14,14.65-7.78a7.58,7.58,0,0,1,4.87,4.9c.38,1.19.75,2.39,1.15,3.66l6.76-.69a12.9,12.9,0,0,0,2.25-7.2c.07-3.66-2.2-6.14-4.5-8.47.56-1.59,1.83-2,2.9-2.66a8.73,8.73,0,0,0,3.48-3.86c1.34-2.94,1.53-5.88-.26-8.72-1.09-1.72-2.25-3.4-3.48-5.24.69-.19,1.18-.5,1.55-.39a11.85,11.85,0,0,1,2.11,1.05c1.35.74,1.73,2.77,3.67,2.81,2.57-2.25,3-5.22,2.72-8.32s-2.14-5.61-4.72-7.45a11.19,11.19,0,0,0-5.38-1.85,9.83,9.83,0,0,1-2.39-.88,38.63,38.63,0,0,0,0-4.6c-.47-3.73-2.1-5.08-6.41-5.6l-2.11,2.48a15.24,15.24,0,0,1-.44-1.85c-.61-7.4-4.1-13.36-9.25-18.45a22.76,22.76,0,0,0-12.19-6.25,22.32,22.32,0,0,1-3.16-.92c-.15,0-.15-.52-.3-1.1l3.56-1.41c.33-4.21.17-4.77-1.68-8a13.62,13.62,0,0,0-5.78-5.57c-5-2.53-13.57-.92-16.71,4.35-.68,1.14-.93,2.87-3,2.82-1.91-1.84-3-4.86-6.53-4.86a7,7,0,0,0-6.91,4.31Zm-2,124.56c7.85-4.54,13.82-1.6,19.33,3.58l4-3.59-2.57-5.71a18.25,18.25,0,0,0-1.94.29,15.28,15.28,0,0,1-17.42-7.43,2.15,2.15,0,0,0-.63-.62l-7.75,1.6c-1,.22-1.82.63-1.38,2.22,4.42,1.37,7.34,4.46,8.36,9.67Zm-53.95,13.29c-2.64.36-4.36-1.21-6.9-1.32l3.07,3.65c1,1.17,1.92,2.34,3.35,4.09.18-2.41.29-4.05.47-6.42Z"/><path class="cls-1" d="M201.91,146.89a33.36,33.36,0,0,1,2.9-2.31,35,35,0,0,1,5.75-3.35,10.48,10.48,0,0,1,10.49,1.21c.49.35,1,.66,1.61,1.05.71-1.27,1.28-2.41,2-3.48,3.4-5.41,8.45-7.62,14.66-7.31,6.9.34,13.3,7,10.68,15.29a31.39,31.39,0,0,1-1.91,4.38c-.55,1.13-1.23,2.19-1.89,3.35l3.38,3.07a29.63,29.63,0,0,1,3.59-1.07,6.49,6.49,0,0,1,7.77,5.91,17.79,17.79,0,0,1-.09,3.34c-.15,1.4-.43,2.79-.67,4.28l8.1-4.56c-.29-1-.61-2.08-.87-3.14a19,19,0,0,1,3.27-16.36,29.92,29.92,0,0,1,4.4-5.05c5.27-4.67,11.47-5.45,18-3.36,5.16,1.66,9.18,9,8.27,14.32-.21,1.25-.5,2.49-.82,4.1,1.41.05,2.6.17,3.79.12,10.23-.49,19.65,8.31,20,19.16a22.13,22.13,0,0,1-2.86,12.44c-.48.8-.93,1.62-1.48,2.58,7,3.09,11.24,8.07,11.9,16.2.79-.73,1.32-1.15,1.77-1.65,1.49-1.66,2.94-3.34,4.61-5.24a26.48,26.48,0,0,1-2.36-4.26c-1.65-4.75-1.64-9.42,1.39-13.75.81-1.16,1.6-2.33,2.46-3.58-1-.85-1.83-1.55-2.62-2.33-6.42-6.37-8.65-14-6.66-22.81a35.59,35.59,0,0,1,8.88-16.76,32.73,32.73,0,0,1,5.43-4.68A12.67,12.67,0,0,1,357,131.48c1.47.59,2.93,1.22,4.37,1.82,4.79-7.08,8.08-8.33,15.06-5.86l7.81-2.75c5.78-10.33,14.88-10.46,24.65-4.83a23.3,23.3,0,0,1,15-3.54,14.54,14.54,0,0,1,11.24,6.46c1.46,2,1.78,4.4,2.07,7,3.51,1.1,6.18,3.15,6.44,7.42.9.12,1.64.25,2.39.32,11.48,1.11,19,10.85,17.05,22.15a39.22,39.22,0,0,1-2,5.83,9,9,0,0,1,2.56,7.51c6,6.09,6.5,10.91,1.75,18.62.82.63,1.7,1.23,2.51,1.92a13.57,13.57,0,0,1,5,9.52,10.25,10.25,0,0,1-3.78,9.37c-.59.48-1.14,1-1.68,1.48,6.16,9.88,5.81,14.68-1.69,23,.41,3.36.4,6.86-1.65,10.25,2.47,2.26,5.18,4.31,6.1,7.75a17.12,17.12,0,0,1-.08,9.9c-1.1,3.43-3.82,5.4-6.56,7.52.74,1.11,1.41,2,2,2.95a20.45,20.45,0,0,1,2.08,15.32c-1.94,7.88-9.49,14-19.06,11.77-.92-.22-1.82-.53-2.49-.73l-7.33,3.63c-.4,1.24-.81,2.77-1.37,4.24-2.1,5.49-6.33,8.42-12.16,8.33a16.59,16.59,0,0,1-10.81-3.81,16.94,16.94,0,0,0-1.38,1.16c-7.71,8-18.27,7.12-24.51-2.08-.8-1.18-1.48-2.45-2.3-3.84-4.26.44-8.46,1.59-12.77.25a28,28,0,0,1-11.27-6.11,26.5,26.5,0,0,1-6.78-10.34c-1.51-4.13-1.44-8.44-1-12.86a14.32,14.32,0,0,1-6.84-8.93,9.82,9.82,0,0,1-.23-5.67,8,8,0,0,0-.38-5.55,55.91,55.91,0,0,1-1.42-6.53c-.52-.35-1.43-.94-2.33-1.55-4.29-3-5.8-7-4.27-12.12a56.7,56.7,0,0,1,2.44-5.76,44.08,44.08,0,0,1-5.34-4.57,23.23,23.23,0,0,1-3.41-5.72c-.95-2.14-1.51-4.46-2.42-7.26-1.92,4.13-4,7.5-7.44,9.67v7c7.06,8.83,7.92,17.12,0,29.4l1.33,1.83a19,19,0,0,1,.21,22.34,7.19,7.19,0,0,0-1.26,4.37,4.41,4.41,0,0,0,1.24.54c7,.83,9.53,8.42,7.81,14-1.51,4.87-3.36,7.62-8.46,11.69a6.48,6.48,0,0,1-2.07,5.32c-1.87,1.57-3.94.79-6.07.54-1,1-2.06,2-3,3-4.08,4.28-16.34,8.27-23.3,6.15a14.23,14.23,0,0,1-6.95-4c-3-3.4-4.07-7.19-2.48-11.54.55-1.49,1.25-2.93,1.61-3.77-.29-2.76-.51-4.93-.8-7.64-.21-.1-.91-.39-1.58-.73-3.59-1.83-5.18-4.68-4.62-8.58.64-4.51,2.5-8.24,6.94-10.21a10.85,10.85,0,0,0,1.56-1,22.15,22.15,0,0,1-.2-3.38,14,14,0,0,1,.71-2.63c-.32-.31-.51-.61-.77-.73-4.4-1.92-5.89-5.65-6.15-10.05a25.83,25.83,0,0,1,1.74-11.76c.87-2.05,1.84-4.06,2.76-6.08a5.44,5.44,0,0,1-2.71-5.68c-4-5.23-4.19-7.22-1.5-14.9-1.75-1.13-3.71-2.25-4.28-4.64a16.54,16.54,0,0,1-.21-6.73,50.22,50.22,0,0,1-3.49,6.72,62.28,62.28,0,0,1-5.67,6.09c.52,1.47,1.5,3.18,1.68,5a13.65,13.65,0,0,1-.75,5.62,33,33,0,0,1-3,5.25,8.87,8.87,0,0,1-1.63,8.49c.6.86,1.1,1.63,1.65,2.36,4,5.33,4.33,11.61-.24,16.67a7.92,7.92,0,0,0-.79,1.36c.87,1,1.79,1.83,2.55,2.82,6.23,8.14,6.33,16.53-.53,24.41a38.73,38.73,0,0,1-3.83,3.63A12.57,12.57,0,0,1,243.94,309c-.44-.19-.84-.47-1.28-.66a8.59,8.59,0,0,0-1.32-.27c-1.14,1.18-2.43,2.56-3.75,3.89a23.65,23.65,0,0,1-10.54,6.33c-6.61,1.87-16.54-4.87-13.87-14.45.38-1.38.92-2.71,1.49-4.36-2.16-2.47-4.88-4.81-5.1-8.63a13,13,0,0,1,2.7-9.31c-3.64-5.79-4.19-11.24.37-16.48v-7.26l-1.3-.87c-4.93-3.21-6.28-7.88-5.2-13.37a15,15,0,0,1,3.91-8.09c.54-.54,1-1.17,1.47-1.74-6.78-7.34-6.15-13,.2-20.46a32.66,32.66,0,0,1-4.17-3.68,29.8,29.8,0,0,1-2.61-4.88l-5.46-.86c-.33,2.8-.31,5.55-1,8.08s-2.17,4.56-3.47,7.14a11.39,11.39,0,0,1,3.16,8.81c-.24,3.54-2.07,6.32-4,9.36.93,2.34,2.59,4.69,2,7.54-.5,2.48-1.1,4.94-1.74,7.77,2.19,1.4,4.56,3,6,5.63a21.15,21.15,0,0,1,2.3,7.76,13.31,13.31,0,0,1-2.15,8.23,68.34,68.34,0,0,1-4.94,6.57c2.72,10.08-4.29,14.52-12.16,11.5-.62,1-1.28,2.07-1.92,3.14-3.6,6-9.08,8.32-15.81,7.92a38.05,38.05,0,0,1-7-1.4c-8.18-2.08-13.48-12-10.79-20.69a18.58,18.58,0,0,1,6.9-9.77c-.44-.57-.78-1-1.16-1.49-4-4.63-4.58-10-1.33-15a33.12,33.12,0,0,1,4.44-5,15.52,15.52,0,0,1,2.34-1.67,17.47,17.47,0,0,0-.51-2,10.58,10.58,0,0,1,.4-8.38,11.55,11.55,0,0,0,1-3.12c.23-2.05.08-4.15.36-6.2a50.69,50.69,0,0,1,1.34-5.5c-8.1-8.63-9.08-16.1-1.39-27.35-4.26-2.71-8.75-5.33-10.28-10.64s-1.86-10.47.36-15.5c2.11-4.77,5.27-8.76,10.47-10.77a19.49,19.49,0,0,1-.63-4.65c.14-1.35,1-2.62,1.74-4.24-.7-.53-1.53-1.21-2.41-1.8-6.72-4.51-7.94-13.58-5.5-19.25a24.76,24.76,0,0,1,10.39-12.2,21.44,21.44,0,0,1,4-1.66c7.84-2.64,13.83,2,16.92,7.36a39.75,39.75,0,0,1,1.82,4.26c.88-.33,1.71-.63,2.53-1a10.62,10.62,0,0,1,14.27,7.32,15.33,15.33,0,0,1-.4,9c-.55,1.65-1,3.32-1.53,5a5.22,5.22,0,0,0-1.89,3.87,17.57,17.57,0,0,0,1.43-2.15,7.56,7.56,0,0,0,.36-1.8Zm14.6,85a5,5,0,0,1-.34,1.86,16.84,16.84,0,0,1-2.22,2.49,14.45,14.45,0,0,0-4.06,7.48q-1.66,7.77,5.29,11.71c.83.47,1.76.77,2.6,1.21,1.41.75,1.48,2,.16,3-.82.65-1.7,1.22-2.52,1.8.23.45.27.65.39.73,3.39,2.29,3.4,2.4.4,4.78-.38.3-.78.56-1.13.89a7.3,7.3,0,0,0,.28,10.94c.57.5,1.06,1.09,1.7,1.76-.82,1.23-1.5,2.28-2.21,3.31-3.22,4.72-2.23,9.63,1.42,13,.68.63,1.33,1.29,2.06,2-.6,1.34-1.21,2.46-1.61,3.65-1.67,5,.21,9.51,4.76,11.68a8.77,8.77,0,0,0,8.29-.34,28.86,28.86,0,0,0,8.6-7.53c2.73-3.3,2.77-3.26,6.44-1,3.92,2.4,7.54,2.32,11.11-.55a32.85,32.85,0,0,0,5.08-5.06c3.93-4.94,4.28-10.66,1-16.1a29.83,29.83,0,0,0-3.61-4.44c-.63-.7-1.53-1.16-2.22-1.82a1.93,1.93,0,0,1-.08-3c.68-.67,1.51-1.2,2.18-1.87a7.8,7.8,0,0,0,2.3-7.46c-.55-2.46-1.34-4.91-3.28-6.73a26,26,0,0,1-3,.12,1.49,1.49,0,0,1-1.12-.65,1.45,1.45,0,0,1,.19-1.29c.64-.7,1.46-1.24,2.17-1.89a7.75,7.75,0,0,0,2.31-4.63c.29-1.78-.6-3-1.66-4.31-.25-.3-.22-.84-.32-1.25.4-.17.73-.45.92-.38,1.74.71,2.71-.2,3.55-1.54,2.11-3.39,1.86-6-.93-9.57-1.41-1.79-1.29-2.42.7-3.71a19.6,19.6,0,0,0,2-1.3c5-4.18,7.74-9.28,6.48-16a7.19,7.19,0,0,1,0-2.36c.06-.38.54-.69.88-1.09,2.16,1,1.49,3.53,2.85,4.83s2.78,2.55,4.33,4c-1.13,2.8-2.77,5.66.41,8.46.76,0,1.71,0,2.65,0s2.08.08,3,.12c.57,1.72-.46,2.41-1.23,3.16a11.53,11.53,0,0,0-3.36,6.75c-.45,3.08.77,5,3.79,6.29.56.24,1.08.54,1.84.93l-1.22,3.4c2.18,1.54,2.56,2.25,1.87,3.86-1,2.35-2.1,4.66-3.16,7a21.19,21.19,0,0,0-1.42,10.82,8.63,8.63,0,0,0,5,7.6c1.22.59,2.85.79,3.54,2.68l-2.71,3.77c.85.61,1.65,1.09,2.35,1.7a14.65,14.65,0,0,1,1.44,1.67c-1.46,1.91-3.53,2-5.25,2.71a9.35,9.35,0,0,0-6.1,7.41c-.62,3.32.87,5.6,4.1,6.45,1.15.3,2.6-.3,3.58,1.28-.44.72-1,1.5-1.41,2.31-1.39,2.55-1.3,2.81,1.36,4.92.22.18.3.54.57,1-.81,1.19-1.77,2.44-2.54,3.79a8.6,8.6,0,0,0,1.13,10.23,10.07,10.07,0,0,0,7.09,3.6,22.21,22.21,0,0,0,21.3-9.48,2.56,2.56,0,0,1,3.38-.83c.92.39,1.76,1.51,3,.34a8.75,8.75,0,0,1-1.21-1.47,1.81,1.81,0,0,1,.76-2.8,5.67,5.67,0,0,1,.89-.35c5.27-1.71,7.26-6.07,8.33-10.87s-1.58-8.12-6.87-8.76c-.64,1-1.24,2.15-2,3.16-.5.69-1.22,1-2.13,0,2.77-6.32,2.28-12.94.92-19.61a3.1,3.1,0,0,1,0-1.42c.12-.39.47-.91.8-1a1.28,1.28,0,0,1,1.07.62c.79,1.88,1.47,3.81,2.39,6.23.53-1.12,1.09-1.77,1.12-2.45a61.9,61.9,0,0,0,.1-8.61c-.36-3.85-3.55-6.27-5.69-9.58,3.71-4.12,6.91-8.44,6.89-14.33s-2.88-10.31-6.7-14.18a6,6,0,0,1,.33-1.1c1.65-3,1.66-3.18-.19-5.44-.3-.37-.74-.62-1-1-.84-1-.49-2.3.9-2.48,4.45-.56,6.63-3.6,8.09-7.3a27.31,27.31,0,0,0,1.6-6.48c1-8-4-14.41-12-15.48a7.55,7.55,0,0,1-.94-.12,1.41,1.41,0,0,1-.67-2c.5-.62,1.11-1.14,1.63-1.75A19.16,19.16,0,0,0,317.82,168c-5.69-9.21-20-10.45-26-1.36a21.58,21.58,0,0,1-1.7,2.32,10.55,10.55,0,0,1-1.8,1.22,10.75,10.75,0,0,1,.3-2.38A16.12,16.12,0,0,1,293.9,161c3.54-2.6,4.26-6.45,3.87-10.25a9.56,9.56,0,0,0-6.34-8.38,13.69,13.69,0,0,0-11.63,1c-7.11,4.19-13,15.15-6.86,24.94a11.61,11.61,0,0,1,.89,1.67,1.31,1.31,0,0,1-1.26,1.63,8,8,0,0,1-1.82-.43c-3.88-1.37-7.64.86-9,5a12.88,12.88,0,0,0,.09,8.93,8.3,8.3,0,0,1,.88,2.2c.05.64-.43,1.32-.82,2.37-1.34-1-2.34-1.75-3.3-2.53-2.92-2.4-6.06-3.49-9.77-1.93a6.56,6.56,0,0,1-2.3.51c-.29,0-.6-.6-1-1.07.57-.65,1.06-1.26,1.6-1.82,2-2.06,4.15-4,6-6.16a17.13,17.13,0,0,0,4.47-10.39c.22-3.54-2.09-5.43-5.5-4.41a17.55,17.55,0,0,0-3.72,2c-.62.37-1.19.83-2.23,1.56,0-1.65.05-2.73,0-3.79-.14-2.32-1.72-3.35-4-2.58-1,.36-2,1-3.09,1.25a1.71,1.71,0,0,1-1.53-.62,1.9,1.9,0,0,1,.5-1.65,18,18,0,0,1,2.43-1.51,16.15,16.15,0,0,0,6.81-9.54c1.25-4.55-1-9.05-5.42-10.3-4.67-1.31-9.18-.93-12.92,2.79a12.66,12.66,0,0,0-3.76,7.58c-.16,1.2-.35,2.4-.58,4-.92-.41-1.65-.51-2-.91-.67-.88-1.06-2-1.67-2.89A6.72,6.72,0,0,0,214.6,144a13.42,13.42,0,0,0-9.26,4.46c-2,2.06-3.06,4.47-2.35,7.44a7.25,7.25,0,0,1,.13,2.37,1.5,1.5,0,0,1-.76,1.05,1.36,1.36,0,0,1-1.24-.23,12.8,12.8,0,0,1-1.66-2.33,12.47,12.47,0,0,0-7.27-5.9c-.88-.29-1.72-.7-3-1.23.8-.66,1.2-1.25,1.67-1.31a12,12,0,0,1,3.33,0,3.64,3.64,0,0,0,3.41-1.31,14,14,0,0,0,3.56-12,7.54,7.54,0,0,0-6.28-6.43c-3.25-.74-5.33.35-7.49,3.76-.59.93-1.18,1.87-1.84,2.76a.91.91,0,0,1-.87.19c-.38-.19-.95-.57-.95-.88,0-1.43.21-2.86.24-4.29.15-7.61-8.28-15.08-16.94-10.48a19.76,19.76,0,0,0-9.12,10.11,12.43,12.43,0,0,0,5.43,16.1c1.1.63,2.32,1.06,3.43,1.7a1.81,1.81,0,0,1,.37,2.88c-.68.66-1.53,1.17-2.19,1.84-1.66,1.68-1.64,2.92,0,4.49.78.75,1.62,1.45,2.31,2.06-.24,2.1-1.69,2.44-3,2.94a16.63,16.63,0,0,0-6.18,3.53c-5.15,5-6,11-4.35,17.69a12.21,12.21,0,0,0,5.46,7.61,37.9,37.9,0,0,0,4.68,2.35c2,.89,2.22,1.91.8,3.65-.81,1-1.72,1.9-2.46,2.94-4.86,6.78-4.41,14.56,1.16,20.5,1.43.5,2.31-2,4.32-.31-1.95,2.93-3.64,6.21-3.87,9.87s-.05,7.32-.05,11L161,241.75a7.26,7.26,0,0,0,.21,2,22.45,22.45,0,0,0,1.59,2.93c1.41,2.36,1.24,3-1.28,4.46-.55.32-1.16.55-1.69.9-7.18,4.81-7.74,13.4-1.88,17.78a16.89,16.89,0,0,1,2.05,2.28c-1.18.61-2,1-2.8,1.46a11.72,11.72,0,0,0-3.07,2.2c-5,6.22-5.2,13,.2,19.14,3.83,4.36,9,5.24,14.43,5a11.83,11.83,0,0,0,10.08-6.38c.72-1.24,1.27-2.58,2-3.83,1-1.79,2.2-2.14,4-1.27.86.42,1.63,1,2.52,1.37a4.1,4.1,0,0,0,5.31-2.74,5.26,5.26,0,0,0-1.14-5.34c-.51-.59-1.06-1.14-1.49-1.61a2.35,2.35,0,0,1,2.1-2.46c2.44-.48,3.78-2.28,4.87-4.28a20.57,20.57,0,0,0,1.45-3.54,10.76,10.76,0,0,0-5.91-13.52l-.87-.4c-3-1.33-3-1.44-1.45-4.55a24,24,0,0,0,1.85-4.9c.74-3.1.76-6.09-2.58-7.93a1.22,1.22,0,0,1-.59-.72c-.09-.44-.17-1.06.06-1.34a9.44,9.44,0,0,1,1.78-1.54,9.41,9.41,0,0,0,3.62-7c.3-2.77-.44-5.08-3.11-6.43a13.44,13.44,0,0,1-1.67-.92,1.7,1.7,0,0,1,0-2.84,23.7,23.7,0,0,0,3.69-2.94c2.29-2.71,2.33-6.19,2.82-9.5.34-2.31-.8-3.95-2.13-5.57a1.35,1.35,0,0,1-.24-.42c-.29-1-.38-1.93,1.11-2.1a28.78,28.78,0,0,0,3.62,2.23c5,2.16,8.4,1.88,11.82-1.73a33.24,33.24,0,0,1,2.85-2.43c.28.59.55.88.53,1.15-.36,3.68-4,5.11-5.64,7.82,2.52,4.71,3.71,5.57,8.52,6.1,1,.11,2.13.08,2.2,1.29,0,.63-.61,1.42-1.15,1.93-.69.64-1.69,1-2.36,1.62a22.75,22.75,0,0,0-3.81,4.24c-2.73,4.51-1.28,9.21,3.36,11.64.55.29,1.09.6,1.77,1Zm129.33,18.54,2.84-1q1,9.69,4.8,15.72l-2.85.93c-.4,5.35,1.84,10.8,4.56,11.2l3.37-3.11c-.35,1.72-.47,2.58-.71,3.39-1.11,3.73-1.75,7.47-.75,11.33,2.23,8.59,7.82,14.1,15.9,17.26a16.81,16.81,0,0,0,9.91.52,23.19,23.19,0,0,0,7.47-3.12c1-.63,1.9-1.62,3.43-1.61-.05,3-3.55,3.32-4,6.13.83,1.22,1.81,2.67,2.79,4.1,4.54,6.6,15.45,6.25,19.29-.22a15.17,15.17,0,0,1,2-2.15c1.21.88,2.17,1.69,3.24,2.34,3.08,1.85,6.35,3.12,10,2.36,4.75-1,7.32-4.18,8.64-8.72a10.27,10.27,0,0,0-1.22-.81,9.94,9.94,0,0,1-1.78-.68c-.39-.28-.56-.87-.9-1.44,7.85-1.44,8.34,0,15.28-7.88,1.41,1-.19,2.85,1.46,4a10.46,10.46,0,0,0,9.29-.85c8.52-5,9.94-17.51,2.74-24.41a20.31,20.31,0,0,1-1.51-1.81c2.39-2.5,5.81-3.42,7.32-6.43a12.93,12.93,0,0,0,1-9.33c-.76-2.83-2.09-5.32-4.78-6.62-1.19.29-1.91,1.7-3.24.67-.45-1.59.87-2.56,1.53-3.74a11.57,11.57,0,0,0,1.44-8.31c-.37-1.7-1.05-3.33-1.54-5a17.5,17.5,0,0,1-.26-2.27l3.94,2.37c6-6.39,5.65-10.6-1.33-19.44.33-1.51,1.68-2.17,2.81-3a8.12,8.12,0,0,0,3.11-4.13,10.06,10.06,0,0,0-4.6-11.54,38.17,38.17,0,0,0-3.55-1.44,1.58,1.58,0,0,1-1-2.1c.48-.36,1.12-.82,1.72-1.32,5.67-4.72,4.8-12.34-1.77-15.61-1.93-1-2-1.57-.55-3.05.53-.52,1-1.08,1.71-1.82l-4.61-3.66a14.72,14.72,0,0,1,.91-1.95c2.62-3.84,2.79-8,1.95-12.43a10.67,10.67,0,0,0-3-5.86,21.29,21.29,0,0,0-7.22-4.64c-1.79-.69-3.61-1.19-5.6-.44a9.12,9.12,0,0,1-2.88,0,17.05,17.05,0,0,1-.44-1.91c-.07-.63.06-1.29,0-1.91-.34-2.57-1.36-3.47-4.07-3.71-.74-.07-1.48-.18-2.29-.28a12.55,12.55,0,0,1-.35-2.11,8.78,8.78,0,0,0-1.92-6.25,12,12,0,0,0-6.24-4.24c-4.81-1.26-9.5-1.1-13.81,1.79-.78.52-1.58,1-2.32,1.49-2.86-1.15-5.49-2.29-8.18-3.26a10.89,10.89,0,0,0-7.53,0,9.89,9.89,0,0,0-5.95,5.07l3.07,4.1c-2.15-.6-3.35-.86-4.51-1.27-3.05-1.07-5.68-.06-8.11,1.66a25.18,25.18,0,0,0-2.35,2.38c-.17.17-.56.11-1,.19-.1-.9-.2-1.79-.3-2.7-2.79-.87-5.09,0-7.26,1.55-1.79,1.25-2,3.06-2.08,5.07,0,1.51-1.36,2.15-2.77,1.49-1.74-.81-3.4-1.79-5.14-2.57a10.73,10.73,0,0,0-11.33,1.22,31.07,31.07,0,0,0-4,3.44c-6,6.05-8.4,13.44-8.21,21.82a17.9,17.9,0,0,0,7.57,14.79c1,.74,2,1.49,2.91,2.17-.05,2.33-1.89,3.13-3,4.43-4.34,5.29-4.06,11,.82,15.84.64.63,1.21,1.35,1.7,1.91-.57,1.85-2.05,2.33-3.19,3.15a13.85,13.85,0,0,0-5.07,6.22c-2.47,6.16.22,15.67,5.64,19.47a18.41,18.41,0,0,0,3,1.44l2.27,1a15.51,15.51,0,0,1-.85,2.4c-.71,1.25-1.59,2.4-2.31,3.64a10.46,10.46,0,0,0-1,7c.32,2.21,1.67,3.74,3.69,5Zm-92.35-69.63,4.43,1.37c.07-1.41.1-2.5.19-3.58s.24-2.14.44-4l-5.06,6.16Z"/><path class="cls-1" d="M485.45,210.61c-5.14-9-5.25-18.88-3-28.83-8.73-9.95-7.21-16.86.84-24.93-.57-1-1.19-2.09-1.78-3.19-4.66-8.76-3.16-17.17,2.73-24.06,4.23-4.95,10-6.16,16.1-5.56,2.8.27,5,2.12,6.74,4.27a25.56,25.56,0,0,1,5.73,15c.09,1.4,0,2.81,0,4.58,1.11-.07,1.86-.06,2.59-.17,4.44-.69,7.38,1.47,9.43,5.09a61.68,61.68,0,0,1,2.57,5.78l5.18-.33c.15-.4.38-.71.33-.95-1.07-5.44,1.41-9.28,5.61-12.28a36.66,36.66,0,0,1,4.56-2.62c3.81-1.95,7.43-1.46,10.83,1,1.28.93,2.46,2,3.65,3,10.8-7.87,24.8-2.16,25.2,9.71.91.34,1.9.79,2.94,1.08a28.24,28.24,0,0,1,10,5.54c5.28,4.28,7.62,10.12,8.48,16.66a11.51,11.51,0,0,1-1.85,7.79,33,33,0,0,1,1.75,5,27.38,27.38,0,0,1,.06,5c5.69,3.39,8,9,9.25,15,1.31,6.38-1.52,11.85-4.79,17.34.74.71,1.39,1.35,2.07,2a16.93,16.93,0,0,1,4.28,5.71,12.43,12.43,0,0,1,.76,8.87c-1.25,4-2.75,7.85-6.12,10.64a5.82,5.82,0,0,0-.83,1.09c6.23,14.27,4,21.64-2.16,30.95,6.22,6.35,5.26,13,.26,19.84,1.17,1.19,2.3,2.29,3.37,3.43a17.51,17.51,0,0,1,.55,23.18,13.54,13.54,0,0,1-15.71,3.65c-1.32-.55-2.53-1.35-4-2.16-.7.67-1.49,1.41-2.26,2.17a10.43,10.43,0,0,1-6,2.75,7.09,7.09,0,0,1-6.83-2.65,33.4,33.4,0,0,1-2-3.08c-1.25.56-2.51,1.09-3.76,1.68a19.77,19.77,0,0,1-10.29,1.65c-8.17-.65-12.62-6.54-13.38-13.32a17.78,17.78,0,0,1,1.67-9.8,30.27,30.27,0,0,1,9.24-11.46c1.66-1.24,3.37-2.41,5.26-3.75-1.55-2-3.18-4.07-2.39-6.9-4.33-3.11-6.06-7.29-6.16-12.43s2.59-8.73,6-12c-3-4.71-4-5.5.05-12.4-5.31-7-2.81-13.34,2.11-19.35-.07-.34,0-.77-.2-.92-3.89-3.38-3.68-7.52-2.21-11.86.55-1.63,1.36-3.17,2.13-4.94-.62-.37-1.13-.71-1.66-1-4.54-2.4-6.43-6-5.73-11,.19-1.39.46-2.78.7-4.14a13.59,13.59,0,0,1-7.91-4.92c-1.26-.2-1.93.85-2.83,1.41-3.93,2.43-7.8,2.6-11.64-.17a8.46,8.46,0,0,0-1.24-.71c-.11-.05-.29,0-.59.1-1.11,3.18-2.25,6.43-3.38,9.68,7,6.68,7.18,10.57.76,18.88,4.43,4.21,5.14,9.69-.9,15.1v12.5c.61.63,1.53,1.49,2.34,2.44,5.83,6.86,8.55,14.6,6.14,23.56-1.35,5-3.69,9.54-8.27,12.5a15.06,15.06,0,0,0-1.42,1.18c2.78,6.86,2,7.57-2.73,12.35a16.59,16.59,0,0,1,3.1,8.76c.48,6.94-2.55,12-8.15,15.76a8.84,8.84,0,0,1-9.54.45,30.43,30.43,0,0,1-2.86-1.83c-2.73-.32-5.12-.47-7.44-.95a7.73,7.73,0,0,0-2.76,0,26.28,26.28,0,0,1-5.24.27,11.1,11.1,0,0,1-8.52-4.72c-3.9-5.3-6-14-.43-22,.72-1,1.55-2,2.54-3.23-.8-.67-1.52-1.22-2.2-1.82-5.34-4.71-5.83-10.22-1.74-16.73a14.67,14.67,0,0,1,2.14-2.58c.91-.89,1.95-1.64,3.26-2.71.16-2.37.35-5.06.55-8a17.21,17.21,0,0,1-7.32-13.81c-.31-5.65,2.37-10.1,5.65-14.28a85.14,85.14,0,0,1-5.75-6.56,12.92,12.92,0,0,1-2.13-8.69,14.91,14.91,0,0,1,2.63-8.12c1.74-2.24,3.82-4.22,6-6.55Zm83.19,8c-1.18,1.06-1.9,1.65-2.55,2.31a12.29,12.29,0,0,0-3.37,9.67c.13,2.63,1.57,3.82,4.36,4a5.85,5.85,0,0,1,1.84.2c.28.11.58,1,.44,1.14a16,16,0,0,1-2.06,2,16.62,16.62,0,0,0-5.66,8.13,8.88,8.88,0,0,0,1.55,8.57c.78,1,1.86,2,2,3.14.23,1.8-1.83,1.88-2.89,2.73a3.58,3.58,0,0,0,.56,6c.68.4,1.48.62,2.16,1,1.3.76,1.27,2.22-.06,3.07-.54.34-1.16.55-1.7.89-5.48,3.44-7.22,8.32-5.19,14.44,1.26,3.81,2.48,4.73,6.57,5,.91.06,2.16-.32,2.51.8.5,1.59-1.07,1.61-2,2.1-2.06,1.08-2.29,2.47-.6,4,.91.84,1.94,1.54,2.84,2.26-.51,2-2.19,2.51-3.48,3.39-5.25,3.56-9.76,7.78-12.33,13.73a15.29,15.29,0,0,0-1.2,8.9c.9,5.1,4,8.21,9,9.37a13.71,13.71,0,0,0,8.45-.78,39.66,39.66,0,0,0,5.09-2.65c3.74-2.19,4-2.09,5,1.95,0,.16.06.32.1.47.86,3.46,3.28,4.59,6.49,3a5.55,5.55,0,0,0,3.15-4c.2-.93,0-1.95.3-2.85a3.13,3.13,0,0,1,1.3-1.82c1-.48,1.8.28,2.37,1.11.36.53.6,1.13.94,1.67a8.93,8.93,0,0,0,9,4.26,9.51,9.51,0,0,0,8-6.08c2.61-6.06,1.33-12.05-3.56-16.63-1.17-1.09-2.47-2-3.64-3.13-1.53-1.42-1.45-2.58.33-3.85a9.87,9.87,0,0,0,3.64-3.7c1.95-4.15,1.38-7.17-2.26-11.19-1.6-.19-2.38,2.27-4.48,1.24a11.25,11.25,0,0,1,.87-1.55c1.21-1.49,2.59-2.85,3.69-4.41,5.63-8,7-16.37,1.91-25.13a60.94,60.94,0,0,0-5.13-6.89,18.88,18.88,0,0,0-2.18-1.88c-1-.88-1.31-2-.78-2.42a2.2,2.2,0,0,1,2.68-.18,39,39,0,0,1,3.57,2.4c.75.56,1.42,1.25,2.18,1.93,3.07-1.9,4.24-4.91,5.35-7.86,1.92-5.09.42-9.86-3.93-13.14-.76-.57-1.66-1-2.45-1.5-1.51-1-1.68-2-.62-3.65.53-.8,1.21-1.5,1.69-2.32,1.8-3.05,3.35-6.22,3.55-9.83a19.81,19.81,0,0,0-5.65-15.27,1.51,1.51,0,0,0-.62-.3c-1.31-.15-1.81,1.74-3.35.65a17.41,17.41,0,0,1,0-3.53c.86-4.35-.29-7.89-3.87-10.6a2.14,2.14,0,0,1-.62-.72,3.2,3.2,0,0,1-.17-.9c.73-1.71,2.26-.46,3.36-.89,1.36-1.42,1.34-3.23,1.12-5-.66-5.38-2.43-10.25-6.74-13.89a27.24,27.24,0,0,0-9.42-5.59,18.79,18.79,0,0,0-2.21-.43c-.63,1.41-1.09,2.6-1.67,3.72a8.82,8.82,0,0,1-4.78,4.47,2.17,2.17,0,0,1-1.66-.51c-.23-.18-.22-1,0-1.33.35-.7,1-1.25,1.36-2a51.06,51.06,0,0,0,2.86-6,6.66,6.66,0,0,0-1.36-7.18c-2.8-2.86-6.19-4.6-10.37-3.66A17.3,17.3,0,0,0,555,154.78c-.55.85-.54,2.28-2.2,2.39a3.53,3.53,0,0,1-.61-1c-.55-2.74,1.47-4.73,2.34-6.91-4.11-4.33-7-5-11.6-2.68a25,25,0,0,0-4.31,3,7.21,7.21,0,0,0-2.51,7.33c.22,1.25.67,2.47.94,3.71a1.94,1.94,0,0,1-1.22,2.54c-1.26-.45-2.72-1.07-4.23-1.49-2.17-.6-3.9.44-4.09,2.67a10.86,10.86,0,0,1-2.73,6.5,9.31,9.31,0,0,1-2.32,1.27,10.21,10.21,0,0,1,0-2.3c.26-.92.72-1.77,1.06-2.67,1.84-4.78.54-9.19-2-13.26-2.19-3.58-5.86-4-8.94-1.12a24.59,24.59,0,0,0-3.36,4.6c-.61.93-1,2.1-2.4,1.92-1-.13-1.28-1.53-.71-3.28.84-2.58,1.88-5.11,2.51-7.73,1.49-6.18-.22-11.71-3.89-16.71a8.4,8.4,0,0,0-5.45-3.67c-3.92-.55-7.69,0-10.89,2.61-6.66,5.34-8.68,16.19-3,23.25.7.87,1.49,1.67,2.17,2.56a1.71,1.71,0,0,1-.4,2.52c-.93.61-2,1-2.87,1.71-4.95,3.73-8.06,12.06-.62,18.08a24.28,24.28,0,0,1,1.62-2.34q2-2.34,4.22-4.55c.6-.61,1.55-.88,2.09-.13a2.56,2.56,0,0,1,.27,2.18,26,26,0,0,1-2.32,3.61,23,23,0,0,0-4.25,9.57c-1.4,9.68-.34,18.83,6.08,26.75a18.63,18.63,0,0,1,1.18,1.51,1.12,1.12,0,0,1-.29,1.79l-4.52-2.79c-9.69,6.13-9.79,17.38-.44,23.11a9.51,9.51,0,0,1,1.59,1.05,6.87,6.87,0,0,1,.87,1.55L486.8,244c-1.94,2.59-3.64,5.32-4,8.59-.6,5,.4,9.47,4.55,13,.91-1.15,1.64-2.17,2.47-3.09a4.16,4.16,0,0,1,1.53-1.1,1.56,1.56,0,0,1,1.33.19,1.51,1.51,0,0,1,.48,1.25,8.31,8.31,0,0,1-1,2.14,18.73,18.73,0,0,0-2,14.77c.19.77.61,1.49.74,2.26a1.42,1.42,0,0,1-.5,1.19,1.45,1.45,0,0,1-1.33,0c-.94-.75-1.77-1.65-2.7-2.55a11.75,11.75,0,0,0-4.09,5.38c-2.06,5.09-.56,9.21,4.29,11.63.85.43,1.8.65,2.68,1a1.68,1.68,0,0,1,.29,3c-.63.48-1.36.83-2,1.26-7.84,5.12-6.44,18.32-.45,22.66a11.26,11.26,0,0,0,1.62,1c1.88.92,3.79,1.39,5.81.51a7.55,7.55,0,0,0-.18-1.15c-.27-.77-.56-1.6.25-2.16s1.51,0,2.17.42c.39.27.78.56,1.16.85a8,8,0,0,0,7.27,1.31c.92-.25,1.82-.61,2.75-.81,1.44-.31,2.08.53,1.85,2.31-.06.43-.12.86-.16,1.19a4.17,4.17,0,0,0,3.63,1.31,7.9,7.9,0,0,0,2.76-.65,13.32,13.32,0,0,0,4.27-21c-.83-.91-2.44-1.44-2.13-3,.41-2,2.29-1.23,3.59-1.51a3.5,3.5,0,0,0,3-2.71,3.65,3.65,0,0,0-1.17-3.91c-.91-.79-2.33-1.21-2.26-3.12a7.86,7.86,0,0,1,2.1-1.46c7.25-2,12.62-12.52,10.69-21.38A26.92,26.92,0,0,0,527,259c-1.18.39-2.43,1.26-3.13.94-1.46-.68-.7-2.19-.43-3.41.1-.46.17-1,.3-1.4a18.83,18.83,0,0,0,.1-9.49,33.21,33.21,0,0,0-3.88-9.75c-.38-.66-.72-1.35-1.32-2.45,1.14-.1,2.06-.47,2.47-.17a15.68,15.68,0,0,1,3,3,35.58,35.58,0,0,1,2.31,3.77c2.42-1.7,2.46-3.85,2.23-6.11a3.75,3.75,0,0,0-2.93-3.38c-1.17-.38-2.55-.49-3.09-2.24a5.93,5.93,0,0,1,1.09-1.28c.78-.54,1.79-.79,2.5-1.38,2.27-1.92,4-4.3,3.87-7.36a6.64,6.64,0,0,0-4.26-6.09,28.12,28.12,0,0,1-2.37,2.26,23.76,23.76,0,0,1-3.64,2.22,1.12,1.12,0,0,1-1.76-.93,8.66,8.66,0,0,1,.86-1.08,26.66,26.66,0,0,0,8.81-19.07,16.9,16.9,0,0,1,.2-2.86,2.08,2.08,0,0,1,1.08-1.37,1.94,1.94,0,0,1,1.64.58c1.12,1.34,2,2.9,3.14,4.21,1.55,1.75,3.51,2.89,6,2.34a11.2,11.2,0,0,0,7.92-5.69,19.13,19.13,0,0,1,1.48-3c.36-.47,1.31-.47,2.34-.79,0,1.32,0,2.25,0,3.18,0,1.75-.21,3.52-.06,5.26a2.39,2.39,0,0,0,3.41,2.23,19.63,19.63,0,0,0,3.75-2c.81-.48,1.52-1.11,2.32-1.6.44-.27,1.48.49,1.33,1a13,13,0,0,1-1.16,3.06,19.51,19.51,0,0,0-2.65,7.16c-.75,5.12,1,7.88,5.87,9.37.76.22,1.59.28,2.32.57a11.36,11.36,0,0,1,2,1.4Z"/><path class="cls-1" d="M84.75,290.67c-.47.9-.74,1.3-.91,1.74-2,5-5.89,7.07-10.93,7a12.34,12.34,0,0,1-11.41-6.68c-.76-1.39-1.28-2.9-1.91-4.36-2.13.92-4.14,1.82-6.18,2.65a10.05,10.05,0,0,1-13-6.51c-.39-1.2-.69-2.42-1.07-3.78-8,3.51-15.19,2.17-21.24-3.81-6.28-6.21-6.12-13.61-2.81-21.54-1.06-.34-1.9-.69-2.77-.88-5.58-1.21-9.6-4.22-11.36-9.82-1.82-5.81-1.62-11.36,2.3-16.35,1.28-1.62,2.71-3.12,4.24-4.86-.63-.87-1.27-1.73-1.88-2.6a15.29,15.29,0,0,1-2.46-11.43,11.51,11.51,0,0,1,4.06-7.4c4.22-3.49,8.94-4.81,14.3-3.18.9.27,1.77.63,2.82,1,5.66-6.8,12.72-9.94,21.28-6.88,9.24,3.31,12.09,11.08,12.38,20.43,4.74-1,8.43,0,10,5.19,1.61-.25,3.13-.58,4.67-.7s3.16,0,5,0c.8-2.31.17-4.57.8-7-3.17-.75-6.44-.33-9.25-2a21,21,0,0,1-6.83-6.59c-1.77-2.74-2.25-5.89-2.87-9.22-1.41,0-2.66,0-3.91,0-3.21-.13-4.63-1.27-5.41-4.34a19.51,19.51,0,0,1-.3-2.22c-1.19-1-2.3-.32-3.33-.15-9.82,1.67-18.84-6-21.21-14.29-1.64-5.72-1.09-11.06,2.39-16,.37-.52.71-1.06,1-1.61a3.64,3.64,0,0,0,.18-.66c-.88-.52-1.87-1-2.76-1.63a6.75,6.75,0,0,1-2.12-9.28A35.56,35.56,0,0,1,27.13,139c-.06-1.19-1.33-1.49-2.09-2.19a24.91,24.91,0,0,1-6.88-9.68,14.73,14.73,0,0,1-.62-8.93,31.88,31.88,0,0,1,6.2-12.32c2.72-3.36,6.54-5,10.66-6,1.38-.33,2.83-.41,4.51-.64.29-.83.54-1.72.91-2.56a36.21,36.21,0,0,1,2.27-4.74c2.8-4.41,5.75-6,11.61-6.52,5.06-6.27,11.74-9.34,19.75-8.32S86.82,83.28,90.32,91c1.21-1.33,2-2.28,2.86-3.14a11.29,11.29,0,0,1,16.93.65A26.24,26.24,0,0,1,115,96.68c.43,1.17,1,2.3,1.5,3.62a32.64,32.64,0,0,1,3.08-1.54c3.4-1.28,5.58.19,5.79,3.87,0,.32-.09.64-.06,1a5.34,5.34,0,0,0,.25.88c1,.74,2.13.33,3.21.34a13.6,13.6,0,0,1,11.67,6.41,22.82,22.82,0,0,1,3.39,8.4,29.43,29.43,0,0,1-.25,14.71c-2.48,8.09-7.83,13-16.31,14.25-.77.11-1.54.2-2.61.33a18,18,0,0,0,.69,2.42c4.51,9.8-2,20.58-12.48,23.39a18.37,18.37,0,0,1-16.38-3.06,14.28,14.28,0,0,1-6-11c-.08-1.27-.16-2.54-.24-3.83-10.46,2.52-9.77,1.15-14.55,0a28.54,28.54,0,0,1-1.82,4.32,22.12,22.12,0,0,1-3.07,3.23c3.71,2.7,5.79,6.41,7.36,10.59a34.55,34.55,0,0,1,5.25-1,17,17,0,0,1,5.2.66,17.31,17.31,0,0,1,4.74,2.19,9,9,0,0,1,4.15,7.21c.06,1.11.12,2.22.17,3.3a10,10,0,0,1,7.54,4.89c1.17.48,2.09-.41,3.12-.68,10.37-2.7,21.22,3.32,23.12,13.76.94,5.2.75,10.19-2.18,14.75,5,4,5.18,4.56,3.54,10.87l2.82,1.5a16.26,16.26,0,0,1,7.93,9.22,22.25,22.25,0,0,1-.31,16.39,13.14,13.14,0,0,1-11.6,8.74c-3.5.32-7,.38-10.31-.82l-5.49,5.85c1.15,5.38-.36,10.47-3.38,15.22a19,19,0,0,1-12.36,8.42c-4.09.92-7.93-.2-11.48-2.31-1.21-.72-2.36-1.54-3.89-2.55ZM106,271.19c.61-.58.88-1,1.24-1.13,1.39-.36,2.81-.58,4.22-.89,4.39-.94,7-3.58,7.73-8.06.13-.79-.31-1.86,1.11-2.45l1.54,4.17a13.7,13.7,0,0,0,7.76,1.22c5.47-.44,9.26-3.21,11.1-8.45a18.74,18.74,0,0,0-.2-12.24,13.19,13.19,0,0,0-9.06-9.14c-1.17-.36-2.29-.88-3.62-1.4a13,13,0,0,1,.79-2c.5-.82,1.19-1.51,1.65-2.35,1.2-2.16.59-4.16-1.61-5.2a16.72,16.72,0,0,0-2.29-.61c-.7-.21-1.38-.5-2.33-.85A8.51,8.51,0,0,1,125.2,220c2.24-1.91,2.92-4.49,3.3-7.24a21,21,0,0,0-1-9,12.21,12.21,0,0,0-6.26-7.56c-6.1-3.16-12.17-3.71-18.09.54-.82.59-1.58,1.59-3.1,1,.51-1.12,1-2.11,1.41-3.08a2.67,2.67,0,0,0-.44-3.12,2.54,2.54,0,0,0-3.06-.64c-1.14.44-2.29.82-3.79,1.35a12.13,12.13,0,0,1-.35-2.56c.15-1.41.62-2.8.7-4.21a6.41,6.41,0,0,0-2.86-5.78c-4-2.8-8.31-3.78-13-1.5-.18,1.87-.27,3.45-.5,5a1.39,1.39,0,0,1-1.64,1.33,1.93,1.93,0,0,1-1.24-1.2c-.42-2-.62-4.11-1-6.16a16.45,16.45,0,0,0-7.28-11.38c-1.86-1.22-3.87-2.24-5.83-3.31-.68-.37-1.56-.49-1.6-1.8a10,10,0,0,1,2.18-.07c1.25.24,2.47.65,3.7,1,4.16,1.15,7.34-1.39,7-5.7a28.83,28.83,0,0,0-.86-3.71,10.72,10.72,0,0,1-.22-1.87c0-.76,1.17-1.48,1.73-1,1.21,1,2.3,2.19,3.49,3.24a10,10,0,0,0,15.24-2.7c.67-1.27,1.16-2.64,1.87-3.88.45-.79.92-1.75,2.3-1.59.74,1.33.25,2.66-.18,4a29.55,29.55,0,0,0-1.45,11.35,11.92,11.92,0,0,0,9.15,11,21.15,21.15,0,0,0,4.74.66,14.23,14.23,0,0,0,14.23-17.73c-.37-1.55-.87-3.08-1.23-4.63-.2-.88-.25-1.8-.41-3,1.71,0,3.12-.05,4.52,0a12.07,12.07,0,0,0,6-1.31,17.38,17.38,0,0,0,9-10.13,24.9,24.9,0,0,0-.27-16.94,21.36,21.36,0,0,0-3.16-5.33,9.31,9.31,0,0,0-8.33-3.92c-2.54.17-5,.67-7.57,1-.88.12-1.87.52-2.69-1,1.3-1.81,3.48-3.48,3.62-6.19a2,2,0,0,0-2.7,0,14.74,14.74,0,0,0-1.92,2.67c-.42.65-.67,1.41-1.15,2a1.24,1.24,0,0,1-1.17-.14,5.62,5.62,0,0,1-.52-1.79,35.27,35.27,0,0,0-5.41-12.71c-4.63-6.8-12.23-6.46-16.22.61-.31.55-.56,1.15-.82,1.73s-.49,1.19-.81,1.74a1.48,1.48,0,0,1-2.43,0c-.74-1.59-1.35-3.24-2-4.86-4.79-11.41-18.68-15.92-30.1-5.64.54,1.41,3,1.25,2.82,3.32-1.45,1.16-2.89.35-4.2.08-4.32-.87-7.57.75-10,4.14a17.88,17.88,0,0,0-2.78,5.51,75.94,75.94,0,0,0-1.18,8,9.13,9.13,0,0,1-1,2l-2.06-6a13.59,13.59,0,0,0-2,0c-9,1.58-15,10.43-15.69,16.82A11.87,11.87,0,0,0,20.8,124c1.48,5.65,4.37,10.27,10.06,12.61a15.27,15.27,0,0,1,2.15,1,1.54,1.54,0,0,1,0,2.46c-.64.46-1.36.81-2,1.21a16.23,16.23,0,0,0-2.85,1.72c-2.93,2.67-2.23,6.14,1.48,7.47,1.2.43,2.48.63,3.69,1.06,1.51.53,1.77,1.82.65,3-.66.69-1.45,1.26-2.1,2a14.42,14.42,0,0,0-3.75,9.1c-.6,9.16,8.61,20.91,21.57,17.28,1-.28,2.06-.38,3.42-.62a24.22,24.22,0,0,1,.12,3.59c-.44,3.66,1.06,5.26,5.24,4.11.61-.17,1.17-.57,1.78-.68a16.06,16.06,0,0,1,2.44,0c.13,1.49.23,2.73.36,4a17.11,17.11,0,0,0,5.06,11.1c2.74,2.62,6.14,3.09,9.73,3.34,2.75.19,3.91-1.76,5.5-3.26a20.23,20.23,0,0,1,2.2-1.84,5.69,5.69,0,0,1,1.52-.55c.78,1.2,0,1.73-.47,2.3-1.4,1.74-3,3.35-4.23,5.2-1.59,2.34-1.78,5.06-1.64,7.84.11,2.17,2.07,2.68,3.23,3.91a3.59,3.59,0,0,1,.32.36c.46.65,1,1.29-.09,2.26-1-.41-2.2-.82-3.34-1.3-7.23-3.09-14-1-18.3,5.61-.47.72-.47,1.9-1.66,2.07-1.1-2.74-.77-3.5,4.36-10.08-.92-2.6-1.34-3.16-2.59-3.67-2.83-1.16-4.84.75-6.87,2-1.59-1-1.3-2.28-1.14-3.55a19.88,19.88,0,0,0-1.76-11.23c-2.63-5.51-7-8.82-13.23-8.62-5.16.16-9.63,2-12.79,6.56.53,1.15,1.14,2.25,1.55,3.42A1.3,1.3,0,0,1,27.35,207c-1.22-1.12-2.43-2.39-3.81-3.44-5.37-4.12-14.29-1.07-15.84,5.54A12.72,12.72,0,0,0,12,222.47c1,.88,2.77,1.08,2.89,2.89-1.42.91-3.15-.16-4.6,1-3.87,3.17-6.71,6.86-6.94,12.06-.27,6,3,12.7,11.53,13.26a31.2,31.2,0,0,0,3.35,0c1.16-.05,2.35-.08,2.92,1.13s-.37,2.09-1,3c-.28.39-.59.75-.88,1.14a12.93,12.93,0,0,0-2.56,7.61c-.16,6.09,2.95,10.27,7.94,13.29a12.13,12.13,0,0,0,12.35.44c.86-.43,1.64-1,2.5-1.43a1.91,1.91,0,0,1,2.91,1.4,38,38,0,0,0,1,5.14c1.52,4.25,5.3,6.21,9.54,4.86a29.39,29.39,0,0,0,5.52-2.77,24.09,24.09,0,0,0,2.79-2.27,13.92,13.92,0,0,1,1.23,2.19c.4,1.21.62,2.47,1,3.7a9.18,9.18,0,0,0,5.7,6.08c5.79,2.49,11.06,0,12.77-6a12.17,12.17,0,0,1,.63-2.3,10.08,10.08,0,0,1,1.61-1.81c1.32,1.07,2.38,2,3.53,2.84a36.12,36.12,0,0,0,4.39,2.89,12.07,12.07,0,0,0,11.52,0c6.32-3.16,9.23-8.57,10-15.34a14.48,14.48,0,0,0-.28-3.1c-2.48-.74-4.84.39-7.33-1.22Z"/><path class="cls-1" d="M931.69,267.87c-2.42-7.52-2.4-10.44.21-14.86,2.42-4.08,5.88-6.69,10.75-7.14.53-1.46.79-3.11,1.66-4.3.66-.9,2.11-1.23,3.51-2,.72-4.65,3.87-6.7,8.77-6.47l5.17-6.21c-4.84-11.09.8-16.53,8.88-19.4.09-.3.32-.62.26-.89-1.16-4.9.52-8.77,4.23-11.95a24.35,24.35,0,0,0,2-2.37c-1,0-1.52-.16-1.85,0-1.11.63-2.1,1.46-3.23,2.06a10.24,10.24,0,0,1-14.67-6.12c-.29-1.08-.59-2.16-.95-3.49a10.06,10.06,0,0,1-6.76-3,96.23,96.23,0,0,1-9.35,2.92,13.88,13.88,0,0,1-12.09-3.22c-5.12-4.33-8.19-9.73-8.07-16.65a6.43,6.43,0,0,0-.26-1.32c-8.53-1.1-11.11-4.3-10.68-13.46-3.42-.74-6.55-2.15-8.3-5.59a12.88,12.88,0,0,1-.77-9.88l-3.54-.86a14.33,14.33,0,0,1-9.94-7.65,33.06,33.06,0,0,1-2.47-25.14c2.31-7.81,8.21-11.6,16-12.48,6-.68,11.82.14,16.89,3.88a2.31,2.31,0,0,0,.86.21c4.09-5.47,7.71-5.91,12.22-.23a12.46,12.46,0,0,0,1.74-.38c3.45-1.3,6.72-.52,9.65,1.27a24.89,24.89,0,0,1,11.27,14.94c1,3.57.08,6.95-1,10.52a27.32,27.32,0,0,1,3.9,2.61,31.23,31.23,0,0,1,3.13,4.09c.77-.21,1.79-.52,2.82-.76,6.6-1.49,12.22,2.38,13.16,9.11a13.81,13.81,0,0,1-.85,7.52c1.58,1.34,3.4,2.43,4.56,4s1.49,3.48,2.3,5.51l2,.19c.31-.34.72-.58.7-.8-.26-3.76,1.23-6.52,5-8.24-2.66-3.36-4.3-6.82-3.28-11,.95-4,3.07-7,6.63-8.58.23-1.54-.88-1.85-1.42-2.54-.29-.38-.68-.68-1-1-8.45-9.2-7.62-21.09,2.3-29.21-.62-2.52-.91-5.24,2-7.18a16.49,16.49,0,0,1-3.7-9.2,22.59,22.59,0,0,1,4.57-14.83c3.45-4.75,10.49-6.84,16.41-5.09.89.26,1.75.67,2.74,1,3.45-5.22,8.2-7.45,14.07-5.59s8.94,6,8.9,12.43l2.88,1.41a20.29,20.29,0,0,1,9,8.31,15.36,15.36,0,0,1,1.3,12.94,9.49,9.49,0,0,1-2.75,4.42c-.84.73-1.7,1.45-2.55,2.17a59.9,59.9,0,0,1,0,6.46,60.57,60.57,0,0,1-1.44,6.4c3.17,2.23,5.94,5,5.88,9.48s-2.07,7.61-6.17,9.76c.59,2.68,1.6,5.22,1.12,8s-2.13,4.91-4,6.88c3.68,10.3.21,18.9-5.83,26.83.51,1.88,1.4,3.69,1.38,5.49,0,1.61-1,3.21-1.67,5,.51.58,1.15,1.28,1.75,2,3.27,4,4.13,8.57,3.34,13.53a13.64,13.64,0,0,1-7.35,10.11,26.94,26.94,0,0,1-9.87,3.54,15.32,15.32,0,0,0-1.81.4c-.61,1.92-.89,3.89-1.84,5.45s-2.58,2.75-3.91,4.11c6.64,10.18.77,19.66-9.16,22.12a31.19,31.19,0,0,1-1.23,4.06,37.86,37.86,0,0,1-2.41,4c.86,4.48.77,9.14-2.12,13.45s-6.35,7.13-11.62,8.07a16.71,16.71,0,0,1-2.44,7.66c-1.44,2.18-3,4.16-5.63,5a4.31,4.31,0,0,0-2.45,2.06c-3.11,4.93-4.37,6.15-9.19,9.26a35.65,35.65,0,0,1-2.32,5.32c-1.1,1.73-3.16,2-5.09,2.12a14.57,14.57,0,0,1-9.88,7.88c-7.76,2-13.25-1.58-14.29-9.56a6.57,6.57,0,0,0-.36-1.05c-.79-.26-1.67-.59-2.57-.82A13.94,13.94,0,0,1,926.7,289c-5.76-6.31-4.76-14.78,2.3-19.41.91-.6,1.84-1.17,2.71-1.72ZM923.85,97.93,927,93.79c-.43-1.26-1-2.2-2.25-2.41a3.18,3.18,0,0,0-3.19,1.72c-.78,1.16-1.35,2.44-2.15,3.91a29,29,0,0,1-2.58-1.61c-4.11-3.23-8.81-4.23-14-4.1-6.78.17-11.61,3.19-14.37,9.35-3.36,7.48-2.68,15,.37,22.35,2.46,5.91,7.07,8.88,13.57,8.73,1,0,2.09.06,3,.09.72,1.88-.57,2.62-1.31,3.58-1.81,2.36-1.38,4.81-.23,7.24s2.92,3.76,5.67,3.61a13.9,13.9,0,0,1,1.44-.08c2.1.07,2.74.92,2.32,3.12a11.68,11.68,0,0,0-.47,1.85,16.61,16.61,0,0,0,.21,4.24c.92,3.64,2.93,4.85,6.73,4.4,1.22-.15,2.46-.2,3.41-.27,1.47,1.59.82,3,.72,4.44-.5,6.71,2.38,11.85,7.79,15.46,5.23,3.5,10.58,2.43,15.56-.19.82-1.94-.41-4.31,2.36-5.32.45,1.52.73,2.91,1.26,4.19a4.94,4.94,0,0,0,5.28,3.23q3.91-.76,4.23,3.3a10.83,10.83,0,0,0,.29,2.37c.83,2.62,2.47,4.53,5.27,5,3,.51,5.63-.1,7.5-2.2-.38-2.11-.83-3.81-1-5.53-.07-1,.38-1.93,1.83-1.63a6.18,6.18,0,0,1,.78,1.12c1.9,4.62,5.51,6.84,10.3,7.52a15.65,15.65,0,0,1,3.22.87,1.38,1.38,0,0,1,.76,1.08,2.19,2.19,0,0,1-.82,1.53,7,7,0,0,1-5.15.41,5.77,5.77,0,0,0-5.4,1.23,21.09,21.09,0,0,0-4,4.71,5.26,5.26,0,0,0,0,5.5c.51.92.93,1.88,1.31,2.64-1.09,1.65-2.48,1.25-3.7,1.46a10.52,10.52,0,0,0-8.94,8.79A5.83,5.83,0,0,0,964.2,225a22.19,22.19,0,0,1,2.69-.88,16.62,16.62,0,0,1,3.3-.31,1.41,1.41,0,0,1,1,.79,1.46,1.46,0,0,1-.2,1.3,13.28,13.28,0,0,1-2.72,1.87c-7.11,3.47-10.59,9.42-11.71,17a19.79,19.79,0,0,1-.44,2.32.88.88,0,0,1-.69.53,1.68,1.68,0,0,1-1.15-.52,3.24,3.24,0,0,1-.55-1.78c.14-2.06.45-4.1.64-6.16.08-.85,0-1.72,0-2.7-3.33,1.46-3.66,1.92-3.46,4.51.07.88.19,1.75.32,3l-4.71-.58a3.84,3.84,0,0,0,.11,3.93,11.17,11.17,0,0,1,.44,2.48c-1.78,0-3.2-.12-4.6,0a9.45,9.45,0,0,0-8.55,6.69c-1.25,3.74-1.64,7.54,1.76,10.65a11.53,11.53,0,0,1,1.41,2.09,29.34,29.34,0,0,1-3.23,1.55,14.73,14.73,0,0,0-5.36,3.08,7.57,7.57,0,0,0-2.67,6.86c.54,4.71,3.25,7.9,7.31,10,1.86,1,3.87,1.65,5.69-.27.12-.12.57.08,1.17.18-.12,1-.25,2.1-.36,3.16-.58,5.68,3.54,9.72,9.13,8.62,4.6-.91,8.52-2.91,9.26-8.32a6.63,6.63,0,0,1,1-1.79c1.27.5,2.42,1,3.75,1.47l1.43-2.48a35,35,0,0,1-3.64-.58,1.46,1.46,0,0,1-.86-1,1.52,1.52,0,0,1,.66-1.11,3.88,3.88,0,0,1,1.35-.42c8-1.94,12.44-7.25,14.06-15.15.15-.75,0-1.63,1-2,2.57.17,1.26,2.88,2.55,4a4.14,4.14,0,0,0,1.25-.6,11,11,0,0,0,3.81-8.95c-.07-1.08-.5-2.24.78-3.21,4.36.19,7.83-1.78,10.49-5.33,3.71-4.95,4.19-10.2,1.5-15.78-.52-1.09-1.67-2-1.27-3.46,2.24-.32,2.23,2.65,4.49,2.67a20.72,20.72,0,0,0,1.19-3.35,37.1,37.1,0,0,0,.27-4.46c1.21,0,2.13,0,3,0a6.52,6.52,0,0,0,2.36-.25c5.1-2.35,8.51-8.26,6-13.89-.62-1.39-1.93-2.49-3-3.68-.76-.86-1.54-1.67-.69-3.21.7-.18,1.62-.38,2.51-.67,3.22-1,4.35-2.6,4.31-6,0-1.23-.15-2.45-.24-3.93a19.33,19.33,0,0,1,2.57-.22c3.82.24,7.25-1.08,10.57-2.69a11.2,11.2,0,0,0,6.66-8.81,13.9,13.9,0,0,0-4.19-12.67c-.89-.85-2.22-1.41-2-3,4-4.22,4-4.41,1.75-7.26-1.65,0-3.13,1.86-5.18.25a9.34,9.34,0,0,1,1.61-1.55,19.41,19.41,0,0,0,7.93-9.38c2.83-6.39,3.62-12.9.27-19.43a35.29,35.29,0,0,1-1.61-3.48,8,8,0,0,1,0-2.17c.91.76,1.4,1.13,1.84,1.54s1.06,1.06,1.78,1.78c4.1-4.25,2.65-8.24.16-12,.9-2,2.73-2,4.11-2.66a6.65,6.65,0,0,0,4-6.56c-.1-2.93-1.2-5.5-4.09-6.69-2,1.24-2.23,3.95-4.69,4-1-1.35,0-2.21.49-3.15,2.88-5.52,4.69-11.21,3.15-17.53a9.18,9.18,0,0,1,.11-2.51l2.95.62c3.47-3.2,4-7,2.69-11.39a17.14,17.14,0,0,0-8.79-10.29,8.53,8.53,0,0,0-7.41-.62,23.59,23.59,0,0,1-2.58.73c-.19-.63-.43-1-.34-1.19,1.19-2.69,4.38-2.25,6.43-4a32.36,32.36,0,0,0-.68-3.19,8.79,8.79,0,0,0-8.08-6.47c-4.11-.42-7,1.51-9.1,5-.38.64-.77,1.28-1.24,2-2-.61-3.83-1.24-5.67-1.68a11.67,11.67,0,0,0-12.87,5.23,29.67,29.67,0,0,0-3,7,12.74,12.74,0,0,0,3.06,12.88A13.8,13.8,0,0,1,998,83c-.17.48-.17.71-.28.78q-4,2.58-1.93,6.71a1.38,1.38,0,0,1-.21.42,16.29,16.29,0,0,1-1.83,1.51c-4.62,3-6.42,7.42-6.35,12.68.08,5.64,2.8,10.1,6.9,13.73,4.26,3.76,4.35,3.75-.78,6.4a9.1,9.1,0,0,0-5,6.1c-.73,2.94-.44,5.71,2,7.94,1,.94,3,1.06,3,2.8-.06,2-2.3,1.88-3.52,2.77a6.84,6.84,0,0,1-.85.44,3.81,3.81,0,0,0-2.06,3.54,5.39,5.39,0,0,0,1.52,4.38,27.57,27.57,0,0,1,2,2.07c.43.5.72,1.23.07,1.65a2.31,2.31,0,0,1-1.72,0,7.11,7.11,0,0,1-1.63-1,9.11,9.11,0,0,0-10.38,0c-.75.46-1.55.85-2.49,1.36-1.18-3,2-3.54,2.63-6.08a20.62,20.62,0,0,0-.44-3.59,3.68,3.68,0,0,0-4-2.69c-.79,0-1.57.4-2.35.41a7.07,7.07,0,0,1-1.93-.66c.88-1.51,1.58-2.72,2.29-3.92,2-3.41,1.4-6.84-.22-10.1a7.08,7.08,0,0,0-9-3.25c-1,.41-1.88,1.19-2.88,1.67a11.79,11.79,0,0,1-2.11.59c-2.37-6.52-2.45-6.61-6.75-8a36,36,0,0,1-3.31,1.78c-1.27.54-2.62.92-3.8.09-.1-1.67,1.14-1.72,1.86-2.21,5.42-3.62,7.11-8.93,4.75-15a21.5,21.5,0,0,0-8.5-10.13,9.48,9.48,0,0,0-9.6-.78c-1.45.66-2.82,1.52-4.29,2.14a11.3,11.3,0,0,1-2.75.29Z"/><path class="cls-1" d="M776.34,263.82c-.17,2.37-.29,4-.47,6.42l-3.35-4.09-3.07-3.65c2.54.11,4.25,1.68,6.9,1.32Z"/><path class="cls-1" d="M253.49,180.84l5.06-6.16c-.21,1.82-.36,2.88-.44,4s-.12,2.17-.19,3.58l-4.43-1.37Z"/><path class="cls-1" d="M201.91,146.89a8.09,8.09,0,0,1-.36,1.8,16.47,16.47,0,0,1-1.43,2.15A5.25,5.25,0,0,1,202,147c2-1.91-.1-.09-.1-.09Z"/><path class="cls-1" d="M859.66,176.8a16.1,16.1,0,0,1,4.93-8.37,8,8,0,0,1,1.54-1.11,1.26,1.26,0,0,1,.92,0c.27.08.48.35.91.69a32,32,0,0,1-2.05,3.1c-4.45,5.29-4.42,16.32.47,21.41a11.5,11.5,0,0,1,1.68,2.3,1.31,1.31,0,0,1-.28,1.23,1.33,1.33,0,0,1-1.26.14c-1.29-.91-2.49-1.94-4-3.16-5.08-.33-9.35,1.32-12,6.39-1.21,2.34-1.48,2.35-4.16,1.5-.76-.24-1.51-.53-2.28-.72-3.7-.91-5.06-.26-7.51,3.71.37.82.78,1.83,1.26,2.81s1.09,2,.21,3.37a5,5,0,0,1-1.51-.63,22.88,22.88,0,0,1-1.94-2.11c-5.88-6.51-14-7.22-21-1.82-.75.57-1.47,1.18-2.13,1.71-1.28-.56-1-1.41-.57-2a13.15,13.15,0,0,1,6.55-5.37c.89-.34,1.83-.55,2.75-.84,4.83-1.48,6.44-5.06,4.3-9.65a16.55,16.55,0,0,1-1.15-2.09,3.53,3.53,0,0,1-.06-2.22c.39-.86,1.34-.64,2.1-.35a12.88,12.88,0,0,1,1.3.62c2.75,1.4,5.32.77,7.67-.88,5-3.52,8.84-7.84,9.25-14.36a17.54,17.54,0,0,1,.61-3.28,1.56,1.56,0,0,1,2.41-.54,7.06,7.06,0,0,1,1.17,1.49,17.6,17.6,0,0,1,1.22,2.6c1.75,4.73,5.4,6.37,10.63,6.49Zm-12.33,21.12c2.59-5.94,7.7-7.67,13.31-8.84-.45-2.88-.87-5.52-1.29-8.2a44.28,44.28,0,0,1-6.79-2.24,50.78,50.78,0,0,1-6.17-4.35,23.77,23.77,0,0,1-6.58,10.53,15.73,15.73,0,0,1-11.1,4.77,25.12,25.12,0,0,1-.06,4.55,30,30,0,0,1-1.58,4.44l7.64,3.15c2.87-5.21,7.26-5.43,12.61-3.82Z"/><path class="cls-1" d="M423.93,210.08c2.56-3.52,4.73-6.74,8.46-8.26.49-.2,1.17.08,1.71.14.37,2.19-1.14,3.1-2.25,4.16a18.79,18.79,0,0,0-5.47,9.38c-1.88,7.74-.89,14.89,4.3,21.19a9.18,9.18,0,0,1,.69,1.12c-.28,1.16-1,1.25-1.84.89a10,10,0,0,1-4.78-5.17c-1-2.13-1.89-4.35-2.82-6.53-2.74,1.15-4,2.8-3.9,5.65a23.3,23.3,0,0,0,.7,3.73,2,2,0,0,1-1.89,2.7,18.35,18.35,0,0,1-2.87.08c-3.3-.15-5.45,1.53-6.84,4.33-.63,1.26-1,2.64-1.6,4.14,1.16,1,2.24,1.93,3.23,2.93a10.11,10.11,0,0,1,1.38,1.91c.27.44-.5,1.38-1.05,1.27a6.41,6.41,0,0,1-1.8-.5c-1.13-.6-2.2-1.3-3.28-2-6.5-4.13-13.07-2-17.1,2-1.56,1.55-2.87,3.34-4.24,5-1.3-.16-1.19-1.07-1.11-1.8a8.84,8.84,0,0,1,3.11-5.78,7.87,7.87,0,0,0,2.6-6.42c0-1.6.07-3.2.06-4.79a6.84,6.84,0,0,0-4.5-6.71,23.54,23.54,0,0,1-2.52-1.24c-.22-.13-.28-.54-.57-1.16.68-1,1.41-2.2,2.27-3.3,2-2.57,2.33-5.55,2.16-8.62a8.08,8.08,0,0,0-1-3.15,7.54,7.54,0,0,0-1.7-1.62c-2.25.6-3.2,3.43-5.77,3-.22,0-.39-.45-.79-.95.52-.64,1.06-1.37,1.66-2a33.7,33.7,0,0,0,8.26-19.5c.23-2.13-.6-4.37-1-6.56a24.25,24.25,0,0,1-.47-2.79,1.32,1.32,0,0,1,.74-1,1.47,1.47,0,0,1,1.29.26A9.63,9.63,0,0,1,387,186.4a22.49,22.49,0,0,1,.79,2.76,5.6,5.6,0,0,0,9.49,2.42c1.23-1.2,2-2.85,3.11-4.21a2.05,2.05,0,0,1,1.59-.73,2.22,2.22,0,0,1,1.26,1.24c.31.71.27,1.57.51,2.32a4.65,4.65,0,0,0,5.53,3.44,14.85,14.85,0,0,0,8.36-4.36,23.61,23.61,0,0,1,2.77-2.62,2,2,0,0,1,1.76,0,1.41,1.41,0,0,1,.39,2.09c-.76,1.21-1.73,2.3-2.47,3.52a13.2,13.2,0,0,0,1.29,16,19.37,19.37,0,0,0,2.56,1.89ZM402.41,246c2.47-6.44,2.81-9.33,12.21-11.23.52-7.16.87-7.81,6.87-12.69.4-2.81.8-5.63,1.19-8.35-7.27-5.87-7.47-6.3-8.65-17.55-2.34.26-4.67.63-7,.76-2.8.15-4.42-2.13-6.12-3.4-2.27,1.15-4.14,2.57-6.23,3s-4.31-.12-6.27-.23l-5.54,14.51a5.05,5.05,0,0,0,.76.85c3.06,2.39,4,5.6,3.78,9.33a15.8,15.8,0,0,1-1.77,6.41c-.41.8-.77,1.62-1.26,2.67,4.81,2.07,6.32,5.9,6.38,10.53,0,.95-.15,1.91-.19,2.86,0,.75,0,1.5,0,2.54,2.11-.2,4-.52,5.87-.52s3.79.3,6,.5Z"/></g></g></svg>