<svg id="Capa_1" data-name="Capa 1" xmlns="http://www.w3.org/2000/svg" viewBox="0 0 18 18"><defs><style>.cls-1{fill:#b5afda;}</style></defs><g id="SVGRepo_iconCarrier" data-name="SVGRepo iconCarrier"><path class="cls-1" d="M292.67,975.57a5.82,5.82,0,0,0-2.69,0,3.14,3.14,0,0,0-2.34,2.34,5.86,5.86,0,0,0,0,2.7A3.15,3.15,0,0,0,290,983a6.11,6.11,0,0,0,2.69,0,3.14,3.14,0,0,0,2.34-2.34,5.86,5.86,0,0,0,0-2.7A3.12,3.12,0,0,0,292.67,975.57Z" transform="translate(-287.48 -975.42)"/><path class="cls-1" d="M292.67,985.88a6.11,6.11,0,0,0-2.69,0,3.15,3.15,0,0,0-2.34,2.34,5.86,5.86,0,0,0,0,2.7,3.14,3.14,0,0,0,2.34,2.34,5.82,5.82,0,0,0,2.69,0,3.12,3.12,0,0,0,2.34-2.34,5.86,5.86,0,0,0,0-2.7A3.14,3.14,0,0,0,292.67,985.88Z" transform="translate(-287.48 -975.42)"/><path class="cls-1" d="M303,975.57a5.86,5.86,0,0,0-2.7,0,3.14,3.14,0,0,0-2.34,2.34,5.86,5.86,0,0,0,0,2.7,3.15,3.15,0,0,0,2.34,2.34,6.15,6.15,0,0,0,2.7,0,3.17,3.17,0,0,0,2.34-2.34,5.86,5.86,0,0,0,0-2.7A3.15,3.15,0,0,0,303,975.57Z" transform="translate(-287.48 -975.42)"/><path class="cls-1" d="M303,985.88a6.15,6.15,0,0,0-2.7,0,3.15,3.15,0,0,0-2.34,2.34,5.86,5.86,0,0,0,0,2.7,3.14,3.14,0,0,0,2.34,2.34,5.86,5.86,0,0,0,2.7,0,3.15,3.15,0,0,0,2.34-2.34,5.86,5.86,0,0,0,0-2.7A3.17,3.17,0,0,0,303,985.88Z" transform="translate(-287.48 -975.42)"/></g></svg>