<svg id="Capa_1" data-name="Capa 1" xmlns="http://www.w3.org/2000/svg" viewBox="0 0 142.3 46.56"><defs><style>.cls-1{fill:#231a2a;}.cls-2{fill:#261c2d;}.cls-3{fill:#352641;}.cls-4{fill:#342640;}.cls-5{fill:#402f4d;}.cls-6{fill:#352543;}.cls-7{fill:#251a2e;}.cls-8{fill:#18111e;}.cls-9{fill:#1a131f;}.cls-10{fill:#3a2a46;}.cls-11{fill:#31243b;}.cls-12{fill:#140f18;}.cls-13{fill:#2e1f3a;}.cls-14{fill:#19151b;}.cls-15{fill:#372842;}.cls-16{fill:#2d2037;}.cls-17{fill:#3a2a47;}.cls-18{fill:#402b51;}.cls-19{fill:#251f29;}.cls-20{fill:#352840;}.cls-21{fill:#271d30;}.cls-22{fill:#fee0f8;}.cls-23{fill:#494348;}.cls-24{fill:#3e3147;}.cls-25{fill:#937d9c;}.cls-26{fill:#fddff8;}.cls-27{fill:#fde0f8;}.cls-28{fill:#9842dd;}.cls-29{fill:#9945de;}.cls-30{fill:#9341d5;}.cls-31{fill:#a154dd;}.cls-32{fill:#953edd;}.cls-33{fill:#954fc9;}.cls-34{fill:#9447d1;}.cls-35{fill:#723b9c;}.cls-36{fill:#973fdf;}.cls-37{fill:#d5a9e6;}.cls-38{fill:#9854cb;}.cls-39{fill:#9840e1;}.cls-40{fill:#a568cc;}.cls-41{fill:#fee1f8;}.cls-42{fill:#9847da;}.cls-43{fill:#9f69c2;}.cls-44{fill:#9743dc;}.cls-45{fill:#9740de;}.cls-46{fill:#9443d5;}.cls-47{fill:#edc1ed;}.cls-48{fill:#9b43df;}.cls-49{fill:#983fe1;}.cls-50{fill:#e4b9e3;}.cls-51{fill:#4c216f;}.cls-52{fill:#f5cef4;}.cls-53{fill:#9b44df;}.cls-54{fill:#9a4ad4;}.cls-55{fill:#a249e2;}.cls-56{fill:#9742d6;}.cls-57{fill:#b794b7;}.cls-58{fill:#9f52da;}.cls-59{fill:#993fe3;}.cls-60{fill:#f1c7f1;}.cls-61{fill:#9743d7;}.cls-62{fill:#9e45df;}.cls-63{fill:#9f4dd1;}.cls-64{fill:#9a41d2;}.cls-65{fill:#9a4fd4;}.cls-66{fill:#9941e0;}.cls-67{fill:#a34ae2;}.cls-68{fill:#9d56d2;}.cls-69{fill:#9d48d5;}.cls-70{fill:#433150;}.cls-71{fill:#9f59d3;}.cls-72{fill:#a064c9;}.cls-73{fill:#332041;}.cls-74{fill:#a051dd;}.cls-75{fill:#a366cc;}.cls-76{fill:#966eac;}.cls-77{fill:#ac7cc3;}</style></defs><path class="cls-1" d="M164.05,752.47a1.64,1.64,0,0,1,1.79,1.25c.09.3.15.61.6.6,1,0,1.11.7,1.23,1.45.05.29-.17,1,.24.82.59-.23,1.32.35,1.76-.33s1-1.45,1.89-.89a2.19,2.19,0,0,1,1,2.6c-.12.51-.57,1,.43,1.22.68.17.86.21,1-.5a3.84,3.84,0,0,1,1.17-2.18c.37-.35.81-.72,1.38-.47a1.62,1.62,0,0,1,1,1.49,1.33,1.33,0,0,0,1.21,1.49c1.28.33,2,2.3,1.38,3.88a1.85,1.85,0,0,0,.37,2.31,2.25,2.25,0,0,1,.31,2.23,6.33,6.33,0,0,0-.1,4.08,1.86,1.86,0,0,1,.06,1.51c-1,1.7.22,3.59-.51,5.32-.16.35.43.62.53,1a3.88,3.88,0,0,1-1,4.06c-.77.71-1.66,1.8-3,1.86-1.11.06-1.75-.68-1.77-2,0-.84.4-1.72-.2-2.52-.76-.91-.38-1.87-.1-2.81.13-.42.37-.82.16-1.26a5.75,5.75,0,0,1-.3-3.28,10.5,10.5,0,0,0-.27-2.49,6.38,6.38,0,0,1,0-1.31c0,1.56-.53,3-.4,4.66s.7,3.32.5,5a1.64,1.64,0,0,1-.4,1.2c-.57.67-1.06,1.43-2.14,1.2-.39-.09-.52.3-.72.52-.48.52-1,1-1.76.66a1.76,1.76,0,0,1-1-1.75c0-.7.24-1.43-.28-2.06a17.17,17.17,0,0,1-.09-5.16c.55-.86.61-.84,1.25.4a.8.8,0,0,1,.17.68c-.84,2,.25,4,0,5.95a.5.5,0,0,0,.35.56.61.61,0,0,0,.72-.29,1.5,1.5,0,0,1,1.69-.81c.58.1.86-.4,1-.87a2.37,2.37,0,0,0-.16-1.86,2.72,2.72,0,0,1-.38-2c.11-1.11-.45-2.23-.09-3.39s0-2.3.58-3.36a3.21,3.21,0,0,0,.65-1.76c0-.37.19-.76.61-.78a.74.74,0,0,1,.71.7c.17,1,.75,1.94.53,3a.91.91,0,0,0,0,.59,4.36,4.36,0,0,1,.1,3.38,2.16,2.16,0,0,0,.26,1.82,2.09,2.09,0,0,1,0,2.46,2.11,2.11,0,0,0-.19,2.05,6.31,6.31,0,0,1,.23,2.12c0,.5-.15,1.1.44,1.38s1-.11,1.4-.42a3.28,3.28,0,0,0,1.67-2.06c.15-.42.29-.91,0-1.26a2.62,2.62,0,0,1-.52-2.14c.15-1.69-.17-3.39.38-5.08.34-1-.43-2.07-.49-3.16a3.48,3.48,0,0,1,.27-2,1.72,1.72,0,0,0-.43-2.44c-.66-.5-.47-1.21-.18-1.86a3.15,3.15,0,0,0,.3-2.31c-.29-.92-.79-1.17-1.73-.88s-1.08.23-.91-.84c0-.08,0-.15,0-.23,0-.54.35-1.37-.2-1.52s-.81.69-1,1.23a2.28,2.28,0,0,0-.15,1.29,1.33,1.33,0,0,1-.6,1.54c-.47.29-.39.84-.46,1.31s-.13.76-.58.78a2.16,2.16,0,0,1-1.56-.52c-.33-.29-.16-.66,0-1,.07-.15.16-.28.24-.42.67-1.23.69-1.27-.5-1.93-.58-.33-.76-.65-.43-1.23a2.15,2.15,0,0,0,.28-.78c0-.4.16-.91-.26-1.09s-.6.36-.79.68-.44.92-1.06.41c-.47-.38-.72-.08-.89.35s-.14.62-.23.93-.21.52-.57.5c-.82,0-1.86-1.91-1.45-2.64s.73-1.16-.42-1.45c-.74-.19-.43-1.24-1-1.69s-.82-.12-1.05.31a2.56,2.56,0,0,0-.08,2.82,2.59,2.59,0,0,1-.14,3c-1,1.36-1,2.19.13,3.51a1.24,1.24,0,0,1,.29,1.52,2.59,2.59,0,0,0-.06,2.62,1.42,1.42,0,0,1,.12,1,8.55,8.55,0,0,0-.21,3.45,1,1,0,0,1-.16.8,2.16,2.16,0,0,0-.37,2.34,1.23,1.23,0,0,1-.19,1,4.09,4.09,0,0,0-.44,1,1.56,1.56,0,0,0,.48,1.84,1.26,1.26,0,0,0,1.72-.32,2,2,0,0,1,.42-.34c.56-.22,1-.49,1-1.23a.87.87,0,0,1,.65-.88c.39-.1.5.1.31.45.21,1.9-1.42,2.52-2.48,3.51a2.06,2.06,0,0,1-2.25.07,2.88,2.88,0,0,1-1-3.29c.19-.92.61-1.79.2-2.77-.15-.36.06-.78.19-1.16a12.82,12.82,0,0,0,.52-5.95,42.75,42.75,0,0,0-.93-5.15,3.21,3.21,0,0,1,.63-2.5,2.2,2.2,0,0,0,.12-2.33A3.6,3.6,0,0,1,164.05,752.47Z" transform="translate(-128.24 -741)"/><path class="cls-2" d="M160.73,766.38a3.14,3.14,0,0,0-2.48-3.21,3.28,3.28,0,0,1-.91-.27,2.25,2.25,0,0,1-.69-.81,3.84,3.84,0,0,1-.35-.18c-.25-.15-.46-.33-.69-.5l-.08,0a.5.5,0,0,1-.26-.52c-.56-.1-1.23-.08-1-1.1.68-.52.93-.07,1.21.5,0,.08.08.13.12.2a.5.5,0,0,1,.36,0c.23.13.43.31.65.46a9.5,9.5,0,0,0,.89.48.47.47,0,0,1,.26.35,3.57,3.57,0,0,0,1.38-.6,2.88,2.88,0,0,0,.69-1.63,2.73,2.73,0,0,1,.83-1.54,4.6,4.6,0,0,0,.89-5.51c-1.16-1.43-3-2.2-3.91-3.89a1,1,0,0,0-1.41-.26c-.66.45-1,0-1.39-.33-.74-.66-1.63-1.25-2.55-.53s-2.26,1.26-2.58,2.67a.9.9,0,0,1-.47.51c-1.95,1.25-2.33,3.18-1.42,5.26a5.65,5.65,0,0,1,.51,3.53,3.14,3.14,0,0,0,1.67,3.69l.1,0,.31.08h.09a2.38,2.38,0,0,1,.75.06,1.5,1.5,0,0,1,.5.22,3.2,3.2,0,0,1,.27.25l.28.25a.82.82,0,0,1,.23.66.41.41,0,0,1,0,.09c.13.38.21.77.36,1.14l.06.15a.16.16,0,0,1,0,.07l.15.24,0,0,0,0,0,0h0a.5.5,0,0,1,0,1,1.14,1.14,0,0,1-.79-.36,2.45,2.45,0,0,1-.46-.76c-.17-.4-.27-.81-.4-1.22a2.2,2.2,0,0,1-.25-.17,1.48,1.48,0,0,1-.28-.33,1.63,1.63,0,0,1-.11-.17,2.54,2.54,0,0,0-.39-.13l-.74-.18-.33-.08-.13,0h-.18a.32.32,0,0,1-.14,0,12.4,12.4,0,0,0-2.23.76,2.28,2.28,0,0,0-1,1.55c-.05.27.17.68-.3.79a.85.85,0,0,0,.39,1.36c.61.24.56-.46.75-.79s.09-.8.2-1.18.45-.85.95-.56c1,.61,1.3-.07,1.59-.81.73-.53,1.49-.29,1.62.44.17,1,.77,1.89.93,2.88s.49,1,1.16.51a1.44,1.44,0,0,1,1-.28c.85.09,1.06-.36.94-1.09a2.17,2.17,0,0,1,0-1c.09-.54.34-1.24-.61-1.14s-1.3-.46-1.47-1.29a2.85,2.85,0,0,0-2.11-2.16c-1.58-.49-2.09-1.34-1.43-2.81.27-.58.45-1.09,0-1.64a.59.59,0,0,1-.14-.66c.27-.58,0-1-.36-1.4a2.59,2.59,0,0,1,0-3.49c.41-.48,1.53.34,1.54-.85.08-.14.16-.28.23-.43a4,4,0,0,0,.15-.45c.35-.75.8-.91,1.37-.22.16.19.31.35.57.33.47-.18.64-.48.36-.95s-.93-.5-.46-1,.95-.27,1.41.07a1.3,1.3,0,0,1,.29.51c.4.52.33,1.69,1.52,1.09s1.26-.51,1.57.62a2.09,2.09,0,0,0,1.51,1.62c1.32.19,1.57,1,1.75,2,.11,2.18-.46,2.74-2,2-.77.28-.55.83-.38,1.37a2.23,2.23,0,0,1,.2,1.73c-.11.49-.34.94-.93.91a1,1,0,0,1-1-.92,10,10,0,0,1-.08-1.55c0-.34,0-.78-.37-.92s-.57.22-.75.47c-.46.62-.92.7-1.41,0-.58-.37-.88-.09-1,.46-.07.26,0,.63-.3.73-1.41.5-.74,1.11-.14,1.76a3.93,3.93,0,0,1,.59,1c.35.55-.11,1.38.61,1.8a.63.63,0,0,0,.42-.21c.92-.86.94-.86,1.37.25.18.46.54.79.72,1.24a.6.6,0,0,0,1,.31c.51-.3,1-.48,1.52,0a1.79,1.79,0,0,1,.42,2c-.56,1.46,0,2.59.94,3.65a2,2,0,0,1,.29,2.5c-.46.9-1.15.34-1.76.33-.59.23-.73.85-1.1,1.27s0,.74,0,1.12A1.29,1.29,0,0,1,156,777.4c-.26-.07-.51-.22-.79-.07-.11.28.15.69-.39.83a.41.41,0,0,0-.11.68c.21-.09.46-.31.62-.26,1.87.64,2.77-.41,3.43-1.91.26-.31.12-.69.14-1s.2-.54.56-.63a3.11,3.11,0,0,0,2.22-4.62A8.51,8.51,0,0,1,160.73,766.38Z" transform="translate(-128.24 -741)"/><path class="cls-3" d="M246,761.21a7.19,7.19,0,0,0-2-2.23c-.31-.45-.19-1.08-.6-1.49a6.06,6.06,0,0,1-1.54-2.67c-.41-1.33-1.15-1.49-2.51-1.09a3.36,3.36,0,0,1-2.14.07c-1.69-.81-2.74-.5-3.32,1.37-.28.91-.24,1.92-1.11,2.6-.27.21-.25.69-.14,1a1.88,1.88,0,0,1-.27,1.48c-.56,1.11-.65,2.44-1.72,3.34a1.92,1.92,0,0,0-.41,1.81,10.48,10.48,0,0,1-.08,5.16,2.51,2.51,0,0,0,.33,1.95,7.26,7.26,0,0,1,1.06,2.62c0,2.35,2.06,3.18,3,4.76a.69.69,0,0,0,.62.25c.67-.33.9.19,1.26.54,1,1,1.63,1,2.63,0a1.18,1.18,0,0,1,1.27-.43.82.82,0,0,0,.9-.16c.76-.9,2-1.11,2.77-2.06,1.16-1.37,1.46-1.8.93-3.6-.19-.62-.49-1.45.07-1.9,1.11-.87.92-1.91.74-3a9.62,9.62,0,0,1,.68-5.55A2.92,2.92,0,0,0,246,761.21ZM236.83,765c.21-.76.94-1.22,1.52-1.69l.09-.08h0l.17-.16c.11-.11.22-.23.32-.35v0l.06-.09.09-.19v0l0-.1s0,0,0-.08v-.06a.52.52,0,0,1,.48-.53.5.5,0,0,1,.52.48,2.45,2.45,0,0,1-1,1.83c-.27.24-.55.45-.83.68h0l-.08.07-.17.16-.2.23a.59.59,0,0,1,0,.08l0,0v0a.5.5,0,1,1-1-.2Zm3.15,8a1.29,1.29,0,0,1-.56.36,1,1,0,0,1-.74,0,.73.73,0,0,1-.16-.14h0l-.13-.06c.07,0-.08,0-.08,0A1.87,1.87,0,0,0,238,773c-.12,0-.27,0-.4,0a.91.91,0,0,1-.58-.43c-.08-.13-.15-.25-.24-.37l0,0h-.08a.49.49,0,0,1-.51-.33.32.32,0,0,1,0-.17.29.29,0,0,1,0-.09v0h0v0l0-.14s0-.06,0-.09a.86.86,0,0,1,0-.61.5.5,0,0,1,.67-.22c-.08,0,.06,0,.07,0l.13,0,.11,0,0,0,.08-.05a.64.64,0,0,1,.43-.08.67.67,0,0,1,.46.39c.08.15.18.29.26.44l.06.12.05.07.06,0c.06.06,0,0,0,0l.1.05.08,0h.06l.24,0h.09l.28-.13-.11.06.3-.14a.51.51,0,0,1,.63.32.55.55,0,0,1,0,.18s0,.05,0,.09a.19.19,0,0,1,0,.08,2.09,2.09,0,0,1,0,.25A1.29,1.29,0,0,1,240,773Z" transform="translate(-128.24 -741)"/><path class="cls-4" d="M196.69,767.56a5.75,5.75,0,0,1-.17-2.92,2.49,2.49,0,0,0-1-2.56,3.84,3.84,0,0,1-1.47-2.34,1.88,1.88,0,0,0-2.34-1.5,1.2,1.2,0,0,1-1.1-.22c-.32-.26-.78-.5-1.11-.32a10.12,10.12,0,0,1-3.72,1.06c-.33,0-.6.2-1,.07a2.11,2.11,0,0,0-2.73,1,4.79,4.79,0,0,0-.56,4.13c.16.49.48,1,0,1.46-.25,1.3.06,2.74-1,3.83a17.13,17.13,0,0,0,1,5.48,43.34,43.34,0,0,1,.6,4.83c.26,1.93.9,3.1,2.79,3.64a1.09,1.09,0,0,1,.7.56c.65,1.11,3.81,2,5,1.32a1.56,1.56,0,0,0,.66-.66c.31-.76.7-.95,1.46-.52a1.37,1.37,0,0,0,1.87-.54,2.86,2.86,0,0,0,.56-2.37,1.26,1.26,0,0,1,.46-1.47,1.66,1.66,0,0,0,.26-1.75,2.36,2.36,0,0,1,.44-3.06,19.33,19.33,0,0,0,.3-4.74C196.05,769.17,197,768.41,196.69,767.56Zm-5.83,4.11c0,.13-.08.25-.12.37a.93.93,0,0,1-.05.1.86.86,0,0,1-.07.1s0,0,0,.06l0,.12a.49.49,0,0,1-.18.2h0l0,.06c-.09.26-.13.53-.23.79a1.61,1.61,0,0,1-.56.73.39.39,0,0,0,.1-.08l-.1.09h0a.71.71,0,0,1-.26.16.55.55,0,0,1-.22,0,1.61,1.61,0,0,1-.86.65,1.16,1.16,0,0,1-1.06-.1.66.66,0,0,1-.19-.64.71.71,0,0,1,.11-.21c0-.05,0-.12,0-.14a1.48,1.48,0,0,0-.1-.27,2,2,0,0,1-.2-.65,4.73,4.73,0,0,1,0-1.3,3,3,0,0,1,.15-.57.75.75,0,0,1-.28-.57.8.8,0,0,1,.35-.69.82.82,0,0,1,.12-.33.94.94,0,0,1,.09-.12l.09-.13.06-.07a1.23,1.23,0,0,1,.42-.26,1.35,1.35,0,0,1,.33-.09h0a2.11,2.11,0,0,1,1.22,0h.07l.12.05a2.23,2.23,0,0,1,.93,1.18,2.81,2.81,0,0,1,.25.74c0,.06,0,.11,0,.17a.77.77,0,0,1,.07.16A1,1,0,0,1,190.86,771.67Z" transform="translate(-128.24 -741)"/><path class="cls-5" d="M212,767.09a2.39,2.39,0,0,0,.67,2.37,2.44,2.44,0,0,1,.4,3,1.22,1.22,0,0,0,.08,1.42,1.84,1.84,0,0,1,.07,2.15c-.64.8-.32,1.61-.45,2.42-.23,1.47.19,2.9-.05,4.33a1.9,1.9,0,0,0,.3,1.13,3,3,0,0,1-.27,2.86,2.47,2.47,0,0,1-.66.67,8.91,8.91,0,0,1-3.45-.11.73.73,0,0,0-.76-.09,1.92,1.92,0,0,1-2.65-1.93,3.33,3.33,0,0,1,1-2.61,1.23,1.23,0,0,0,.22-1.79,1.65,1.65,0,0,1-.28-1.49,18.42,18.42,0,0,0,.52-7,5.5,5.5,0,0,0-.87-2.37c-.45-.76-1.42-.39-2.08-.41-.44,0-.3,1-.17,1.57a7.58,7.58,0,0,1-.16,3.48,2.59,2.59,0,0,0,.06,1.92c-.49.26,0,.43.08.6,1,2,.63,3-1.41,4.29-.56-.16-.62-.7-.79-1.12a1,1,0,0,1,.48-1.23c.59-.36.48.49,1,.56a1.51,1.51,0,0,0-.06-1.89,1.86,1.86,0,0,1-.41-1.54,3.71,3.71,0,0,0-.21-1.65,1.88,1.88,0,0,1-.16-1.06c.19-.72.64-1.45-.3-2-.14-.08-.09-.41.05-.56a6.52,6.52,0,0,0,1.19-2.83.6.6,0,0,1,.58-.52.88.88,0,0,1,.5.29c.21.21.39.57.76.37s.07-.58.15-.86c.69-.65,1.38-.39,1.62.6a11.56,11.56,0,0,0,1,2.95,3.75,3.75,0,0,1,.38,1.69c.21,1.66-.6,3.26-.07,4.88a1.26,1.26,0,0,1-.23,1.24,1.48,1.48,0,0,0-.06,1.87,1.78,1.78,0,0,1-.36,2.47,2.4,2.4,0,0,0-.77,1.93c0,.81.44,1.2,1.24,1a1.73,1.73,0,0,1,1.57.15c.57.36.62-.1.49-.56a1.41,1.41,0,0,1-.15-.66,5.94,5.94,0,0,1,1.2-1.44c.49.24.39.68.36,1.09,0,.12-.06.23-.08.35-.07.5-.27,1.16.43,1.27s.75-.54.78-1.07a2.08,2.08,0,0,0-.34-1.46c-.54-.66,0-1.47-.34-2.14a1.06,1.06,0,0,1,0-1,4.41,4.41,0,0,0-.07-3.88,1.15,1.15,0,0,1-.1-.33c0-.27,0-.65.26-.67,1.09,0,.83-.75.76-1.38-.06-.09-.11-.18-.17-.26-.56-.23-.73-.77-1-1.23s-.28-.92.38-1.1c.61.34.84.09.82-.54a1.28,1.28,0,0,0-.46-.91,2.39,2.39,0,0,1-.77-2.41C211.67,767.89,211.37,767,212,767.09Z" transform="translate(-128.24 -741)"/><path class="cls-6" d="M212,767.09c-.42.08,0,1-.79.74-.62-.23-.31-.73-.31-1.12,0-1.27-.62-1.75-1.82-1.35-.45.15-.59,0-.63-.42a5.83,5.83,0,0,1,.08-.83c0-.9-.37-1.2-1.19-.85-.64.28-1.13.74-1.92.09-.45-.37-.63.4-.64.81,0,.73-.34,1-1,1.21-.9.26-1.37.11-1.47-.88-.06-.63-.45-.91-1.1-.72s-.89-.2-.82-.83a3.11,3.11,0,0,0-.18-1.88c-.87-.49-1.47-.31-1.72.54a2.81,2.81,0,0,0-.07.71c0,.61.36,1.15.3,1.75s-.74.85-.67,1.49c1.31,0,1.32,0,.89,1.33a5.42,5.42,0,0,0,.22,4.07c.2.44.55.95-.43,1.07s-.64.93-.35,1.31a2,2,0,0,1,.15,2.41.87.87,0,0,0,0,.92c.69.81.47,1.75.43,2.63,0,1-.82,2,0,3.13.12.17-.29.53-.43.81-.45.92-.22,1.47.7,1.91a4.47,4.47,0,0,0,3.23.28c.64.26.12.56,0,.84-.46.65-1,.91-1.69.33a1.59,1.59,0,0,0-1.12-.29,2.2,2.2,0,0,1-2.28-2.95,2.34,2.34,0,0,0-.06-1.8,2,2,0,0,1,.43-2,1.25,1.25,0,0,0,.16-1.61,2.69,2.69,0,0,1-.18-2.93c.08-.16.21-.35,0-.52a2.4,2.4,0,0,1-.26-3.07,1.23,1.23,0,0,0,.45-1.56,4.13,4.13,0,0,1-.16-2,1,1,0,0,0-.09-.8,2.24,2.24,0,0,1-.11-2.87c.2-.31.06-.61,0-.92a3.35,3.35,0,0,1,.09-2.23,2.06,2.06,0,0,1,1.93-1.53,1.92,1.92,0,0,1,1.82,1.64c.19.67.27,1.22,1.13,1.36.62.11.66.92,1.07,1.33.4-.33.25-.79.43-1.14.43-.89,1.3-1.28,2-.72a1.18,1.18,0,0,0,1.48.08,1.15,1.15,0,0,1,1.68.39,5,5,0,0,0,1.69,1.73A2.73,2.73,0,0,1,212,767.09Z" transform="translate(-128.24 -741)"/><path class="cls-7" d="M218.9,783.13a2.57,2.57,0,0,1-2.92.79c-1.16-.44-1.37-1.4-1.37-2.53a14.17,14.17,0,0,0-.32-2.11c0-.27-.15-.65,0-.81,1-1.21.26-2.42,0-3.56a6.75,6.75,0,0,1-.12-3c.27-1.36-.28-2.71-.28-4a35,35,0,0,1,0-5.23c.24-1.64.89-3.8-.72-5.4-.08-.07-.17-.24-.14-.32.55-1.31-.29-2.71.25-4a3.38,3.38,0,0,1,3.06-1.92,3,3,0,0,1,2.85,2,11.1,11.1,0,0,0,1.53,2.34,3.22,3.22,0,0,1,.35,1.54c.18,1.53-.88,3,0,4.6a2.15,2.15,0,0,1-.16,2.07c-.23.19.1.77-.4.7s-.49-.48-.35-.85a2.39,2.39,0,0,0-.33-2.56c-.17-.22-.35-.58-.22-.77.74-1.07.07-2.3.43-3.39,0-.3-.3-.44-.47-.65a3.54,3.54,0,0,1-1.15-2,1.89,1.89,0,0,0-1.38-1.74,2.46,2.46,0,0,0-2.47.73,1.07,1.07,0,0,0-.43,1.15,3.86,3.86,0,0,1,.14,2.31c-.18.62.48.89,1.28.55a1.51,1.51,0,0,1,.75.39c.79.83.8,1-.18,1.35a1.41,1.41,0,0,0-1,1,3.1,3.1,0,0,0,0,2.66,1.11,1.11,0,0,1-.17,1.33,1.52,1.52,0,0,0-.32,1.57c.38,1.31.25,2.7.7,4a1.22,1.22,0,0,1,0,.82c-.07.23-.26.51-.17.68.76,1.42-.12,3,.52,4.45a4.63,4.63,0,0,1,.28,2.9,19.17,19.17,0,0,0-.11,2.7c-.08.64-.28,1.42.47,1.83s1.45.06,2.06-.46.9-.31.89.45A.89.89,0,0,1,218.9,783.13Z" transform="translate(-128.24 -741)"/><path class="cls-8" d="M155.17,777.36a.33.33,0,0,0,0-.32c-.88-.48-.63.53-1,.74-.67.7-.95.16-1.17-.4s-.58-.91-1.26-.53a.68.68,0,0,1-1.11-.45c-.18-.57-.59-.63-1.12-.61a1.53,1.53,0,0,1-1.65-1.91,3.68,3.68,0,0,1,.28-.91c.2-.47.08-.77-.44-.87a2.29,2.29,0,0,1-.8-.23c-1-.53-.89-1.38-.66-2.28.15-.53.75-.85.66-1.49a.8.8,0,0,0-.38-.53c-.36.13-.07.66-.49.82a2,2,0,0,1-.47-1.29,2.36,2.36,0,0,1-.68-2.11,1.74,1.74,0,0,0-1.18-2c-1-.32-1.46.48-1.91,1.21a11.78,11.78,0,0,0-.86,2.58,6.35,6.35,0,0,0-2.58-3.2,7,7,0,0,0,.47,3.48,6.65,6.65,0,0,0,3.31,4.33,6.79,6.79,0,0,1,2.66,2.76c.29.43.3,1.31.94,1.17s.83-.89.83-1.58c0-.13-.12-.36.17-.4,0,1.79.29,2.79,1.13,3.24s2,.74,2.65,1.72a.67.67,0,0,0,.66.14c.79-.39,1.15.09,1.64.6s1.34.71,1.86-.21c0-.79.55-.65,1.09-.57C155.53,777.93,155.35,777.64,155.17,777.36Z" transform="translate(-128.24 -741)"/><path class="cls-9" d="M264.48,782.31c-.51,2.16-1.45,2.2-3.36,1.55a1.68,1.68,0,0,0-2.23.67,6.26,6.26,0,0,1-1.33,1.53c-.32.23-.68.34-1,.06s0-.53.2-.74a4.79,4.79,0,0,0,.86-1.93,3.83,3.83,0,0,1,2.8-2.64c.86-.28,1.4-.63.91-1.71a1.87,1.87,0,0,1,.56-2.08c.9-.83.69-1.7.4-2.64a4.6,4.6,0,0,1,1.21-4.79c1.55-1.42,1.62-1.38,3.21,1.86.47-.27.23-.79.41-1.17.33-.64.51-1.38,1.52-.87.63.32.53-.3.52-.58a13.21,13.21,0,0,0-.18-3.32,2.58,2.58,0,0,1,.13-1.7,6.23,6.23,0,0,1,1.08,3.41,4.84,4.84,0,0,1-.05,2.64c-1-.65.05-1.48-.28-2a8,8,0,0,0-.06,2.27,2.47,2.47,0,0,1,.13.93.94.94,0,0,1-.08.33c-.21.41-.32,1-.91.9s-.39-.68-.42-1.08c0-.16-.05-.31-.08-.46-.2-.43-.38-.32-.54,0a5.17,5.17,0,0,0-.28,2.1c0,.61.12,1.3-.62,1.65-.71,0-.65-.58-.74-1a10.27,10.27,0,0,0-1.1-3.51c-.46-.45-.72,0-1,.24a5.78,5.78,0,0,0-.6,4.91.85.85,0,0,0,1,.54,1.51,1.51,0,0,1,.94,0c.37.24.32.52.07.8a3.33,3.33,0,0,0-.58.89c-.49,1-.75,1-1.43,0-.52-.58-.83-.1-1.07.27s-.57.81-.05,1.23c.15.12.34.18.46.35a2.89,2.89,0,0,1-2,2.61,5,5,0,0,0-1.68.6c-.59.36-.65,1-1.07,1.76.4-.61.51-1.14.92-1.48a1.33,1.33,0,0,1,.32-.15,2.43,2.43,0,0,1,1.39,0,3,3,0,0,0,3.51-.82C264.63,781.84,264.64,782.05,264.48,782.31Z" transform="translate(-128.24 -741)"/><path class="cls-10" d="M262.82,764.71l-.06.93a3.81,3.81,0,0,0-.58,2.2,9.92,9.92,0,0,0-1,4.45,1.68,1.68,0,0,1-1,1.48c-.31.1-.62.31-.91.27-1.29-.14-1.57.55-1.54,1.64,0,.74-.26,1.39-1.08,1.49a1.47,1.47,0,0,0-1.29,1.21c-.5,1.59-1.93,2.11-3.22,2.76a3,3,0,0,0-.68.43,7.41,7.41,0,0,1-2.45,1.73c-1,.35-1.61.27-2-.69A8.77,8.77,0,0,0,246,781a2,2,0,0,1,.2-2.72c.14-.13.37-.3.37-.45,0-2,1.73-2.3,3-3.06.51.08,1,.21,1.11.82,0,.16,0,.44-.12.43-1-.12-1.31,1.19-2.29,1a.41.41,0,0,0-.24,0,15,15,0,0,0-1.15,2.79.68.68,0,0,0,.7.36c.74,0,.78.36.51.92-.17.35-.42.76,0,1s.79,0,1.09-.26a19.64,19.64,0,0,1,3.32-2.5,3.39,3.39,0,0,0,2-2.35c.1-.51.62-.71,1.05-.91a1.46,1.46,0,0,0,1-1.47,1.87,1.87,0,0,1,2-1.93c.84-.06,1.54-.54,1.37-1.33a4.92,4.92,0,0,1,1.34-4.25c.33-.86.14-2,1.17-2.49A.3.3,0,0,1,262.82,764.71Z" transform="translate(-128.24 -741)"/><path class="cls-11" d="M221.05,766.56c.21-.63.41-1.27.65-1.89.14-.38.39-.78.8-.83,1.18-.13,1.93-1,2.84-1.57.68-.43,1.29-.64,1.91.05a1,1,0,0,0,.59.37,1.36,1.36,0,0,1,1.3,1.2,2.13,2.13,0,0,1-.93,1.83c-1.34,1.21-3,2.11-3.52,4.08a1.26,1.26,0,0,1-1.05.89c-.71.11-.73.79-1.07,1.19s0,.44.24.51a3.69,3.69,0,0,1,1.91,1.36.66.66,0,0,0,.65.2c1.51-.11,2.22,1.11,3.17,1.92.23.8-.31.63-.74.6-.62-.16-1.26-.28-1.56-1-.09-.19-.29-.38-.46-.34-1.17.29-1.7-.52-2.34-1.23a2.44,2.44,0,0,0-1.78-.57c-.66,0-1.1-.27-.88-1a1.1,1.1,0,0,0-.12-.81c-.31-.61-.16-.93.55-1.08a3.45,3.45,0,0,0,2.45-2.77c.07-.58.23-1,.92-1a1.22,1.22,0,0,0,1.13-.56,2.81,2.81,0,0,1,1.74-1.66c.35-.08.29-.39,0-.62a2.42,2.42,0,0,0-3.14.61c0,.06-.06.18-.12.2-1.33.42-1.73,1.65-2.35,2.69-.08.14-.28.15-.44.15C220.82,767.33,220.92,767,221.05,766.56Z" transform="translate(-128.24 -741)"/><path class="cls-12" d="M140.77,752c-.13.79-.62.62-1,.31a10.05,10.05,0,0,1-1.15-1.2c-.67-.75-1.41-.84-2,0a2.2,2.2,0,0,1-2.55.72c-.23,0-.46-.13-.69-.16-2.34-.28-2.42-.25-3.44,1.85-.29.62-.63.86-1.3.64-.21-.08-.36-.14-.37-.37s-.08-.46.23-.59c1-.44.93-1.35.81-2.18-.16-1,1-3.81,2-4.16a1.09,1.09,0,0,1,1.6.74c.13.44,1.65.72,2,.42s0-.41-.07-.61a4.5,4.5,0,0,1,3.81-6.32c1,0,2.08-.3,2.89.62.07.36-.2.38-.44.43-.41,0-.81-.14-1.22-.12a4.49,4.49,0,0,0-4.38,2.32,3,3,0,0,0,0,2.55c.24.69.75.59,1.27.39.86,0,1,.42.54,1s-.81,1.34-1.22,2c-.69.42-.73-.2-.93-.57a2.46,2.46,0,0,0-.17-.27c-.54-.69-1-.2-1.4.13a.85.85,0,0,1-.19.14c-.47.24-.81,1-1.4.62s0-.92.14-1.38.26-1.06-.55-1.12a6.2,6.2,0,0,0-1.44,1.82c-.45.65-.1,1.41.53,1.41a1.17,1.17,0,0,1,.46-.23c1.12,0,2.22.16,3.34.14a2.12,2.12,0,0,0,1.61-.61,1.21,1.21,0,0,1,.58-.44,2.46,2.46,0,0,1,2.89,1,2,2,0,0,0,1.05.72C140.75,751.68,140.89,751.79,140.77,752Z" transform="translate(-128.24 -741)"/><path class="cls-11" d="M218.94,782.71l-.07-.53-.42.25a.53.53,0,0,1-.17-.49c.13-.46.5-.8.64-1.26s.38-.91-.2-1.35-.07-1.13-.16-1.69c-.15-.92.23-1.8.12-2.71a.65.65,0,0,1,.66-.81c.8,0,1.48.24,1.63,1.21.08.47.54.52.93.62a1.66,1.66,0,0,1,1.38,1.31c0,.08,0,.18.07.23.89.86,1.85,1.65,2.78,2.46.59.52,1.4-.08,1.51-.92.08-.67,1.31-1,2-.6a1.23,1.23,0,0,1,0,.33c-.15.67.24.78.74.65a.84.84,0,0,0,.58-1.22,2.17,2.17,0,0,0-1.2-1.1.57.57,0,0,1-.2-.3c.34-1,.84-.31,1.29-.11a2.34,2.34,0,0,1,1.24,2.39c-.64,1.29-1.16,1.6-2.55,1.42a.77.77,0,0,0-.8.32c-.82.15-1.65.31-2.47.43a.92.92,0,0,1-.69-.1c-1-1-2.41-1.73-3.14-3.06a7.4,7.4,0,0,0-2.43-1.76c-.43,0-.55,1-.19,1.54,1,1.4,1,1.85,0,3.14A2.93,2.93,0,0,1,218.94,782.71Z" transform="translate(-128.24 -741)"/><path class="cls-13" d="M250.6,775.5c-.12-.54-.93-.16-1-.76,0-.06.08-.18.13-.18a1.47,1.47,0,0,0,1.49-1.68c0-.54.56-.82,1.08-1a1.11,1.11,0,0,0,.7-.9c.11-.51-.43-.24-.64-.39a1.47,1.47,0,0,1-.7-1.06,1.28,1.28,0,0,0-1.36-1.31,2.4,2.4,0,0,1-2.11-2.48c0-.43.11-.91-.46-1.1-.68-.62-.61-1.58-.93-2.34-.47-1.12-1.33-2.14-1.38-3.44.13-.72-.26-1.56.45-2.16.51,1.3,1.12,2.57,1.69,3.84a21.09,21.09,0,0,1,1.27,3.6,4.24,4.24,0,0,0,2.9,3.42,1.7,1.7,0,0,1,.84,1.25c.12.56.43.6.85.3,1.11.13,1.36,1.2,2,1.86.27.29-.15.64-.46.62-1.25-.06-1.43,1.43-2.46,1.66-.11,0-.12.18-.13.3C252.25,775,252.13,775.08,250.6,775.5Z" transform="translate(-128.24 -741)"/><path class="cls-14" d="M140.77,752l-.26-.26c-.18-.69.1-1.48-.5-2.07-.24-.45-.2-.87.28-1.1a.82.82,0,0,1,1.09.46c.42.76,1,1.41,1.45,2.14a7.53,7.53,0,0,1,.44,2.88c.26-.12.29-.33.41-.48s.06.06.06-.1c0-1.23-.41-2.46,0-3.71.06-.2-.25-.45-.5-.4-1.44.27-1.87-1.33-3-1.62-.35-.08-.16-.53,0-.69,1-.79,1.55-2,2.54-2.8.3.12.31.32.17.56a3.35,3.35,0,0,1-.93,1.77c-.19.24-.48.41-.5.76.69-.15.61.75,1.13.83,1.79.27,2.29,1.12,1.7,2.9-.06.17-.21.27,0,.5.79,1,.52,1.92-.2,2.9s-.1,1.79.38,2.63c.31.54,1.28,1.13.58,1.67s-.91-.6-1.3-1c-1.26-1.41-1.12-3.22-1.39-4.91,0-.31,0-.62-.13-.93C141.77,751,141.38,751.05,140.77,752Z" transform="translate(-128.24 -741)"/><path class="cls-15" d="M169.08,774.5c-.38-.15-.19-.54-.34-.78-.32-.51-.36-.1-.44.14-1.13-.38-1.11-1.33-.86-2.16.43-1.46,0-2.92.08-4.36.14,2.16-1,4.31.19,6.52a2.67,2.67,0,0,1-.39,3l-.09,0h-.09c-.46-.18-.75-.09-.68.38.18,1.1-.42,1.39-1.29,1.52.31-.94.82-1.79,1.16-2.72a2,2,0,0,0,0-2c-.83-1.21-.58-2.51-.42-3.79a3.78,3.78,0,0,0,0-1.64,1.06,1.06,0,0,1,0-.82,3,3,0,0,0,.08-2.43.59.59,0,0,1,.13-.56c.76-.21,1.55.15,2.32-.13.22-.08.54.17.47.4-.27,1,.62,1.91.07,2.9a1,1,0,0,0,0,.81,2.73,2.73,0,0,1-.16,2.5A1.62,1.62,0,0,0,169,773C169.28,773.45,169.51,774,169.08,774.5Z" transform="translate(-128.24 -741)"/><path class="cls-16" d="M246,756.78c-.61.62.19,1.6-.55,2.2l-.1.06-.07-.09h0a4.8,4.8,0,0,1,.74-3.84.28.28,0,0,1,.22,0,2.42,2.42,0,0,1,2.41-.23c.83.93,2.12.94,3.14,1.55a3,3,0,0,1,1.61,3.36c-.2.84-.19,1.43.78,1.78a1.6,1.6,0,0,1,.91,2,1.82,1.82,0,0,0,.34,1.59c.94-.35.3-1.41.86-1.89.79-.9.79-.9,1.17-.28a8.94,8.94,0,0,0-.73,3.71.47.47,0,0,1-.22.24c-.93-.47-2.16-.54-2.45-1.86a1.92,1.92,0,0,1-.09-.32c.17-1.84-.07-2.28-1.88-3.24-.7-.37-.19-.71,0-1,.73-1.45.43-2.51-.9-3.1a2.88,2.88,0,0,1-2.15-1C247.67,755.32,247.2,755.39,246,756.78Z" transform="translate(-128.24 -741)"/><path class="cls-17" d="M257.29,763c-.51-.73-.63.34-1,.22a2.31,2.31,0,0,0,.34-1.88,2.65,2.65,0,0,1,.61-2.57,5.27,5.27,0,0,0,.95-2.7,1.67,1.67,0,0,1,2-1.46,15.3,15.3,0,0,0,2.34.21,1.11,1.11,0,0,1,1.12,1c0,1,.69,1.55,1,2.33a2.37,2.37,0,0,1-.32,2.31c-.33.4-.71.58-.81-.19.2-.67.59-1.33.2-2.06a7.49,7.49,0,0,0-.51-.61c-.29-.31-.67-.57-.68-1.07,0-1.06-.76-.75-1.37-.66-1.59-.35-1.92-.14-2,1.47-.06.66-.55,1.05-.83,1.56-.58,1.06-1.21,2.07-.68,3.36C257.76,762.6,257.78,763,257.29,763Z" transform="translate(-128.24 -741)"/><path class="cls-18" d="M221.05,766.56c.06.33,0,.75.51.77a3.65,3.65,0,0,1-1.4,3.08c-.25.2-.5.45-.84.22s-.25-.48-.17-.76a2,2,0,0,0-.05-1.4,2.5,2.5,0,0,1,.35-3.08.88.88,0,0,0,.2-1,1.91,1.91,0,0,1,0-1.62c.16-.36,0-.66-.17-1-.45-1-1-2,0-3,.23-.26.08-.52,0-.78-.36-.9,0-1.36.9-1.5-.17.6-.54,1.16,0,1.81a.77.77,0,0,1-.22,1,.92.92,0,0,0-.07,1.45,2.19,2.19,0,0,1,.18,2.82.44.44,0,0,0,0,.23,1.75,1.75,0,0,0,.14.24c.35,0,.18-.5.47-.54.62,1.6-.54,2.92-.6,4.46Z" transform="translate(-128.24 -741)"/><path class="cls-19" d="M270,769.82c.44-.84.1-1.74.2-2.6a12.69,12.69,0,0,1,0,5.75c-.39,1.43-.57,3-2,4-.28.19-.28.81-.36,1.24a5,5,0,0,1-1.47,2.41,1.09,1.09,0,0,1-1.54.29c-.27.46.11,1-.33,1.38l-.19-.49a4.75,4.75,0,0,1,0-2.51c.17-.29.37-.52.75-.32.73,1,1.19,1,1.77-.22a4.42,4.42,0,0,0,.32-1.13,4.26,4.26,0,0,1,1.15-2.18,6.4,6.4,0,0,0,1.47-4.45l-.24-.68C269.69,770.18,269.75,769.89,270,769.82Z" transform="translate(-128.24 -741)"/><path class="cls-20" d="M202.1,781.49c.05-.19.05-.47.17-.54,1.72-1,2-2.09.86-3.75-.39-.55-.38-.69.3-.56a3.79,3.79,0,0,1,0,4.75c-.32.42-.2.92-.48,1.31-.49.14-.52-.35-.75-.56S201.94,781.72,202.1,781.49Z" transform="translate(-128.24 -741)"/><path class="cls-21" d="M262.82,764.71l-.27,0c-.53-.51.31-1.06,0-1.58a1.93,1.93,0,0,1,.53-1.82.53.53,0,0,1,.33,0l.14.09a3.67,3.67,0,0,0,.07,1.06A1.75,1.75,0,0,1,262.82,764.71Z" transform="translate(-128.24 -741)"/><path class="cls-22" d="M197.37,771.42a3.34,3.34,0,0,0,.26,3.07c-1-.41-.63-1.41-.88-2.22-.36.85.24,1.76-.42,2.46-.13-1.6.45-3.15.3-4.75.38.29.24.72.24,1.09S197,771.52,197.37,771.42Z" transform="translate(-128.24 -741)"/><path class="cls-5" d="M202.27,782c.43,0,.29.59.64.7a3.25,3.25,0,0,0,.13,1.38,1.83,1.83,0,0,1-.66,2.18c-.09-.24.28-.48,0-.72-.37-.57.17-1.27-.25-1.83A1.42,1.42,0,0,1,202.27,782Z" transform="translate(-128.24 -741)"/><path class="cls-23" d="M142.94,744.81c-.06-.18,0-.41-.25-.5-.34-.95-1.33-1.45-1.69-2.39.18,0,.38,0,.48-.24C143.3,742.88,143.47,743.25,142.94,744.81Z" transform="translate(-128.24 -741)"/><path class="cls-22" d="M195.63,779.53a3.48,3.48,0,0,0-.22-2.62c-.53-1,.37-1.56.93-2.19a3.37,3.37,0,0,0-.24,3.36A1.16,1.16,0,0,1,195.63,779.53Z" transform="translate(-128.24 -741)"/><path class="cls-3" d="M230.88,776.68c-.39.09-.95-.71-1.17.22a2.53,2.53,0,0,1-1.25.1c-.52,0-.8-.24-.68-.8.29,0,.74.31.76-.33C229.27,776.3,230.33,775.73,230.88,776.68Z" transform="translate(-128.24 -741)"/><path class="cls-3" d="M228.77,780.81c.08-.3.29-.59.57-.49,1.34.46,2.07-.35,2.78-1.25-.13,1.26-1,1.62-2.08,1.65A2.61,2.61,0,0,0,228.77,780.81Z" transform="translate(-128.24 -741)"/><path class="cls-24" d="M263.75,760.16c0,.38,0,.84.51.28a3,3,0,0,0,.44-2.22c.6,1.35.27,2.22-1.19,3.11h0C263.27,760.88,262.93,760.41,263.75,760.16Z" transform="translate(-128.24 -741)"/><path class="cls-13" d="M248.64,754.86a7,7,0,0,0-2.41.23A1.65,1.65,0,0,1,248.64,754.86Z" transform="translate(-128.24 -741)"/><path class="cls-25" d="M262.3,767.79l-.2,0c0-.79-.15-1.63.66-2.18C262.6,766.36,262.45,767.07,262.3,767.79Z" transform="translate(-128.24 -741)"/><path class="cls-26" d="M218.94,782.71l.93-1.71a2.68,2.68,0,0,1-1,2.13Z" transform="translate(-128.24 -741)"/><path class="cls-27" d="M166.23,764.91c.29,1.1.6,2.2-.15,3.25.83,1.6-.33,3.19-.05,4.78a1.26,1.26,0,0,0,.35.72,2,2,0,0,1,.08,2.8c-.05.06-.15.12-.15.18a2.52,2.52,0,0,1-1.14,2.17l-.29.31a1.45,1.45,0,0,1-1.77-2c.51-1.46-.16-3.12.87-4.48.2-.27,0-.7-.1-1s-.34-1-.12-1.41c1-1.79-.18-3.68.33-5.49.09-.31-.13-.69-.24-1a5.38,5.38,0,0,1-.1-3.52,6,6,0,0,0-.1-3.06,4.91,4.91,0,0,1,0-2.58c.2-.56.51-1,1.19-1a2.3,2.3,0,0,1,.57,1.29c0,.52,0,.68.73.56,1-.16.79,1,.52,1.24-1.53,1.64.47,2,.86,3.05.5-.36.27-.81.36-1.17s.22-1.07.77-1.26.65.54,1.06.8c.17-.44.31-.85.48-1.25s.37-.66.8-.59.56.44.64.79a1.45,1.45,0,0,1-.11,1.28c-1,1.11,0,1.65.69,1.78,1.08.21.58.7.42,1.16a3.1,3.1,0,0,1-.54.93c-.65.78-.43,1,.5,1.29s1.2.29,1-.73c-.08-.4-.08-1,.25-1.11,1.15-.42.78-1.29.79-2.07a3.46,3.46,0,0,1,.8-2.1c.23-.28.5-.56.91-.42s.38.48.44.79a6.07,6.07,0,0,1-.4,2.34c.28.23.43-.07.6-.16a1.42,1.42,0,0,1,2.17.88,3.17,3.17,0,0,1-.33,2.76c-.31.52-.44,1.29.08,1.49,1.59.62,1.13,1.8.65,2.64-.67,1.17-.3,2.22,0,3.28a3.49,3.49,0,0,1,.23,1.86c-.61,1.88-.33,3.8-.42,5.7,0,.4-.19.75.48,1.08s.33,1.29,0,1.95a3.39,3.39,0,0,1-1.7,2c-1,.23-1.53,0-1.64-1-.18-1.62-.9-3.24-.12-4.9a1.12,1.12,0,0,0,0-1c-.79-1.25-.49-2.53-.37-3.9a11,11,0,0,0-.63-4.14,9,9,0,0,0-.47-1.83c-.11-.21-.18-.48-.48-.45a.52.52,0,0,0-.49.58,4.19,4.19,0,0,1-.59,2.15c-.67,1-.17,2.15-.46,3.23-.21.81-.65,1.82.27,2.62a.59.59,0,0,1,0,.56c-.63.85-.25,1.54.26,2.24a3.32,3.32,0,0,1-.09,1.77c-.26.7-.6,1.39-1.56.88-.2-.11-.4-.15-.54,0-.74,1-1,.11-1.21-.37a9.53,9.53,0,0,1-.54-4.79,5.19,5.19,0,0,0-.06-1.31,30.61,30.61,0,0,1,0-6.42c.09-1.23-.49-2.38-.58-3.82-.7.73-1.3,1.14-2.14.9C166.49,764.5,166.36,764.76,166.23,764.91Z" transform="translate(-128.24 -741)"/><path class="cls-28" d="M164.88,753.57a1.83,1.83,0,0,0-1.06,2.08c.15,1.19-.12,2.43.41,3.57a1.06,1.06,0,0,1-.07.93,4.2,4.2,0,0,0-.15,2.92,14.4,14.4,0,0,1,.29,3.14c.08,1.39.49,2.73-.23,4.08a1.28,1.28,0,0,0,0,.94,3.33,3.33,0,0,1-.21,2.56,21.72,21.72,0,0,0-.51,4.17c-.11.7.62,1.23,1.49,1.16a1.39,1.39,0,0,1-1.95.56,1.85,1.85,0,0,1-.67-2.44c.34-1,.9-1.81.29-2.85a.76.76,0,0,1,.11-.68c1.43-1.61.23-3.68,1-5.43.18-.44-.73-1.16-.48-1.76a3.36,3.36,0,0,0-.59-3.82,2,2,0,0,1,.31-2.45,2.4,2.4,0,0,0,.18-3.37,2.93,2.93,0,0,1,.59-3.11C164,753.43,164.4,753.19,164.88,753.57Z" transform="translate(-128.24 -741)"/><path class="cls-29" d="M166.23,764.91c0-.55-.37-1.68.87-.68.39.31.62.13.89-.18s.44-.77,1.14-.93c-.33,1.89.89,3.45.49,5.45a9.69,9.69,0,0,0,.07,4.69,7.51,7.51,0,0,1,0,2.12,12.71,12.71,0,0,0,.65,4.81c.11.28.41.74.62,0a.5.5,0,0,1,.87-.19c.78.86,1,0,1.25-.41a5.06,5.06,0,0,0,.33-1.86,2.64,2.64,0,0,1,0,2.28c-.17.41-.5.9-.94.78a1.3,1.3,0,0,0-1.76.83.85.85,0,0,1-1.58-.58,19.42,19.42,0,0,0-.44-4.75,1,1,0,0,1,.32-.86c.24-.27.52-.54.09-.89a2.81,2.81,0,0,0-.48-1.52,2,2,0,0,1,.08-2.24c.28-.45.43-.79.06-1.27a1.53,1.53,0,0,1-.11-1.38c.19-.62.63-1.14-.14-1.75-.41-.32.33-.82.16-1.45A2,2,0,0,1,166.23,764.91Z" transform="translate(-128.24 -741)"/><path class="cls-30" d="M173.39,769a11.05,11.05,0,0,0,.44-2.22c0-.49.32-.69.75-.78.65-.13.4.43.53.7.92,1.74.77,3.75,1.34,5.59a2,2,0,0,1-.2,1,3.76,3.76,0,0,0,.18,2.68,2.83,2.83,0,0,1-.06,2.84,1.23,1.23,0,0,0-.11,1,7.77,7.77,0,0,1,.5,2.63c0,.76.51,1.23,1.38,1.05a1.59,1.59,0,0,1-1.88.66c-.79-.35-.51-1.16-.48-1.81a4.34,4.34,0,0,0-.4-2.4,1.4,1.4,0,0,1,.25-1.65,1.71,1.71,0,0,0,.12-2.44,2.46,2.46,0,0,1-.2-2.29,4,4,0,0,0-.14-2.86c-.34-.79.17-1.82-.28-2.69-.07-.14,0-.35-.07-.47-.24-.37-.12-1.15-.68-1.1s-.24.74-.34,1.14S173.9,768.73,173.39,769Z" transform="translate(-128.24 -741)"/><path class="cls-22" d="M160.43,770.41c-.35-.46-1.1-.71-.7-1.54.08-.18-.1-.37-.28-.48-.41-.26-.29-.49-.09-.86a2.37,2.37,0,0,0-.27-2.88c-.84-.94-1.62-.31-2.55.25.75-1.07-1-1.07-.63-2,.16-.44-.21-.82-.72-.91s-.72.22-.89.61-.27.49-.4.73c-.67.07-.73.54-.64,1a1.09,1.09,0,0,0,1,1c1.09,0,1.11.46.56,1.21-.36.46,0,.89.05,1.34,0,.22.08.74-.32.55-1-.47-1.6.13-2.23.65-.38-.57.43-1.35,0-1.48-1.18-.36-.65-1.18-.73-1.84a1.62,1.62,0,0,0-1.09-1.31,1,1,0,0,0-1.34.43c-.4.33.15,1-.4,1.26-1.3.73-1.32.77-.85,2.14a1,1,0,0,1-.1,1.1,1.67,1.67,0,0,0,0,2.21c.65.24,1.33.37,1,1.43a1.53,1.53,0,0,0,.71,1.66c1,.66,1.92,1.57,3.3,1.74,1,.11,1.44,0,1.66-1,.28-.35.56-.68.91-.07a1.62,1.62,0,0,0,.16,1c.38.6.86,1.16,1.62.74s1.11-.94.45-1.72c-.25-.28-.18-.49.12-.67.59-.24.68-.87,1-1.31a2,2,0,0,1,.5-.32C160.66,772.58,160.92,772,160.43,770.41Z" transform="translate(-128.24 -741)"/><path class="cls-27" d="M160.7,753a1,1,0,0,0-1.2-.85c-.95.08-1.36-.47-1.59-1.29-.18-.64-.31-1.39-1.08-1.58s-.86.68-1.28,1c-.06,0-.11,0-.12-.06-.26-.48-.51-1-.76-1.46-.45-.5-1-.88-1.63-.44-.48.32-.31.82,0,1.25.55.49-.1.52-.28.73-1.22-.91-1.22-.91-2.11,0,0,.12,0,.24,0,.36-.4.68-.13,1.58-.82,2.2-.85.76-.73,1.71-.46,2.76a8.78,8.78,0,0,1,.52,3.68,2,2,0,0,0,1.15,2.38,1.9,1.9,0,0,1,1.14.94.84.84,0,0,0,1.1.46c.47-.15.34-.57.35-.91a3.3,3.3,0,0,0,0-.83,6.83,6.83,0,0,0-1.77-2.23c1.33.22,1.84-.11,1.58-1.27-.1-.42.27-.51.6-.19a1.14,1.14,0,0,0,1.33.06c.38-.21.52-1,1.05-.71.36.22.09.89.13,1.35a1.92,1.92,0,0,1,0,.24c0,.69.32,1.16,1,1.19a1.23,1.23,0,0,0,1.3-1,1.52,1.52,0,0,0,0-1c-.24-.46-.64-1,.21-1.22a1.15,1.15,0,0,0,1.27-.32,3.06,3.06,0,0,0,.88-2C161,753.89,160.8,753.46,160.7,753Z" transform="translate(-128.24 -741)"/><path class="cls-31" d="M154.47,765.18a1.06,1.06,0,0,1-1-.74c-.2-.49.06-.82.41-1.12-.47-.57.1-1.33-.35-1.9,0,.19,0,.39-.05.59s.2.87-.42,1-.77-.28-.81-.79-.36-.58-.76-.59a1.34,1.34,0,0,1-1.36-1.5,11.28,11.28,0,0,0-.23-3.12,6,6,0,0,0-.44-1.81,1.23,1.23,0,0,1,.2-1.65c1.06-.72.95-1.73.92-2.76l-.27.26c-.24.31.12.81-.31,1.06a1.16,1.16,0,0,0-1.11-.32,2.82,2.82,0,0,0-.5,3.58c.39.58,1.43,1,.4,1.89a.51.51,0,0,0,.15.4c.94.47.49,1,.19,1.65a2,2,0,0,0,1.74,3,4.28,4.28,0,0,1,1.8,1.59,2.53,2.53,0,0,0,.57,1.65c.54.64,1.18,0,1.75.15l-.16.89a1,1,0,0,0,.54-1.09C155.28,765,154.8,765.21,154.47,765.18Z" transform="translate(-128.24 -741)"/><path class="cls-32" d="M148.72,766c-.54-.18-1-.86-1.61-.47s-.65,1.11-.58,1.79a1.93,1.93,0,0,1,0,.24l.24.47c.42.81-.55.88-.72,1.38-.38,1.05-.52,2,.64,2.73.46-.12,1.3.69,1.29-.54-.17-.64-.62-1.51,0-1.87,1-.55.55-1,.21-1.58s-.57-1.49.09-1.65c1.1-.26.79-1,.89-1.59C148.69,765.12,149.11,765.74,148.72,766Z" transform="translate(-128.24 -741)"/><path class="cls-33" d="M158.77,757.83c0,.12,0,.24,0,.36,0,.86-.44,1.42-1.28,1.39s-.94-.81-.91-1.52c0-.2.07-.4.08-.59s0-.5-.23-.63a.5.5,0,0,0-.63.2,1.85,1.85,0,0,1-1.8.69.78.78,0,0,0,.74.65c.89.09.94-.94,1.66-1.31a10.44,10.44,0,0,0,0,2.57,1.34,1.34,0,0,0,1.32,1.16c.78,0,1.11-.59,1.22-1.24A2.23,2.23,0,0,0,158.77,757.83Z" transform="translate(-128.24 -741)"/><path class="cls-34" d="M158.72,773.5c0-.3-.11-.81.3-.75,1.56.23,1.22-.94,1.38-1.75a3.82,3.82,0,0,0,0-.59,1.92,1.92,0,0,1,.64,1.93C160.89,773.84,160,774.26,158.72,773.5Z" transform="translate(-128.24 -741)"/><path class="cls-34" d="M155.61,775.3a1.47,1.47,0,0,0,.87,1.76c.5.22.82-.16,1.11-.49a.57.57,0,0,0-.12-.92c-.5-.41-.82-.84.24-.84-.09.56.47.94.36,1.55-.26,1.35-1.42,1.78-2.9,1a1.29,1.29,0,0,0,0-.19C154.86,776.43,154.4,775.65,155.61,775.3Z" transform="translate(-128.24 -741)"/><path class="cls-33" d="M159,756.61c1.32-.19,1.7-1.28,2.15-2.28a2.66,2.66,0,0,1-.65,2.5C159.92,757.43,159.36,757.55,159,756.61Z" transform="translate(-128.24 -741)"/><path class="cls-35" d="M154.67,748.79c-.46-.16-.81-.72-1.4-.37s-.29.76-.26,1.18a1.11,1.11,0,0,1-.87-1c0-.47.5-.58.89-.64C153.75,747.87,154.39,748,154.67,748.79Z" transform="translate(-128.24 -741)"/><path class="cls-35" d="M152.73,750.33c-.07.22-.37.51-.42.33-.38-1.45-1.08-.54-1.69-.28,0-.68.43-1,1-1C152.38,749.22,152.42,749.93,152.73,750.33Z" transform="translate(-128.24 -741)"/><path class="cls-35" d="M150.33,751c0,.24,0,.48,0,.71s.08.51-.19.63-.42-.13-.53-.33-.46-.25-.73-.27c.11-.24.43-.43.53-.33C150.11,752,150.15,751.37,150.33,751Z" transform="translate(-128.24 -741)"/><path class="cls-22" d="M245.58,762.64c0-.06-.05-.24-.12-.33a16.49,16.49,0,0,1-2.22-3.84,3,3,0,0,0-1.65-1.65c-.46-.2-.65-.35-.41-1,.33-.83-.54-1.93-1.15-1.58s-.94,1-1.72.43c-.84.94-1.25.2-1.71-.43-.15-.2-.43-.17-.68-.14a2.36,2.36,0,0,0-1.31,2.67,1.82,1.82,0,0,1-.09.83c-.41,1.38-.48,2.87-1.42,4.1a2.87,2.87,0,0,0-.34,1.62,5.18,5.18,0,0,1-.42,1.84,3.68,3.68,0,0,0-.16,2.87,2,2,0,0,1,.09,1.9c-.29.64-.46,1.44.18,1.87.79.52.66,1.11.59,1.85a3.36,3.36,0,0,0,.76,2.79c.58.62,1.29.4,2,.17,0,.39-.1.67,0,.94.42.42,1,.71,1.4,1.09.68.57,3.09.07,3.09-.67,0-1.25,1.07-1.08,1.52-1.6.49.23,0,1.28.59.88a7.19,7.19,0,0,0,1.59-1.08c.34-.38.51-.88,0-1.25s-.45-.65-.19-1.1a1.43,1.43,0,0,0,0-1.26c0-.38.24-.52.51-.71,1.12-.82,1-1.83-.18-2.52a.66.66,0,0,1-.31-.48c-.07-.36-.15-.77-.62-.72a.79.79,0,0,0-.7,1c.15,1-1.38.75-1.28,1.7-.09,0-.22-.06-.28-.13-.55-.76-.59,0-.63.25a13.71,13.71,0,0,0,0,1.43c0,.62-1.07,1.78-1.25,1.48-.62-1-1.38-.6-2.23-.23,0-.85.26-2-1.4-1a2.44,2.44,0,0,0,.06-2.74c-.12-.61.09-.83.71-.6s1,.28,1.31-.37c.71-.39.69.12.71.58a.5.5,0,0,0,.35.74.72.72,0,0,0,.9-.4,2.61,2.61,0,0,1,1.46-1.16,2.25,2.25,0,0,0,.85-.65c1-1.25,1-1.23,2.48-.4.71.4.64,0,.47-.51a.76.76,0,0,1,.09-1C246,765.16,244.85,763.72,245.58,762.64Zm-4.62.74a1.48,1.48,0,0,1-.28.7,1.1,1.1,0,0,1-.29.28c-.09.06-.24.13-.29.17a2.17,2.17,0,0,0-.24.29,1.36,1.36,0,0,1-.34.25,7.43,7.43,0,0,0-.75.49.4.4,0,0,1-.36.07,1,1,0,0,1-.64.42,1.5,1.5,0,0,1-.89-.07c-.45-.23-.37-.76-.19-1.14a2.9,2.9,0,0,1,.63-.88c.24-.25.55-.43.76-.69a5.79,5.79,0,0,0,.41-.71c.07-.12.16-.23.23-.36l.05-.1,0,0s0,0,0,0v0h0a.5.5,0,0,1,.3-.94,3.17,3.17,0,0,1,1.44.87A1.68,1.68,0,0,1,241,763.38Z" transform="translate(-128.24 -741)"/><path class="cls-36" d="M235.92,754.14c-1.65,1.41-1.1,3.43-1.4,5.21-.08.48-.05.93-.45,1.3a3.51,3.51,0,0,0-1,2.38,7.54,7.54,0,0,1-.56,2.59c-.28.59-.8,1.91.24,2.73.51.4.2.86,0,1.29-.47,1-1,2,.59,2.43.41.12.37.4.19.75a3.19,3.19,0,0,0-.14,2.11c.27,1.55.73,1.8,2.22,1.35a3.13,3.13,0,0,1,.87,0c0,.57-.81.75-.53,1.35.12.18.39.1.51.26,1.48,1.89,3,.62,4.55.1.39,1,.37,1.62-1,1.38a1.05,1.05,0,0,0-1.19.47c-.67,1-1.6.94-2.25-.14-.3-.5-.47-.77-1.06-.42-.23.14-.75,0-.67-.23.35-1.07-.57-.87-1-1.13a3.18,3.18,0,0,1-1.53-3c0-.39.3-1-.57-1-.06,0-.18-.09-.18-.14.1-1.41-1.4-2.56-.42-4.22.45-.77,0-2.1-.13-3.16s-.46-2.16.8-2.82c.35-.19.29-.53.36-.83.28-1.09,1.09-2.15,1.14-3.08.07-1.33,1.43-2.09,1.09-3.46a1.8,1.8,0,0,1,.47-1.45C235.11,754.39,235.39,754,235.92,754.14Z" transform="translate(-128.24 -741)"/><path class="cls-37" d="M241,778c-.08.38.11.86-.7.71a2.23,2.23,0,0,0-1.76.32,1.19,1.19,0,0,1-1.5-.35c-.36-.36-.74-.69-1.1-1l.47,0,3.28.63c.23,0,.49-.18.43-.32-.7-1.66,1.43-1,1.64-2,.08-.36.5,0,.58.35s-.31.57,0,1c.3-.49.37-1.15,1.23-1,.35.06.78-.75.43-1-.84-.62-.49-1.16-.19-1.82a2.2,2.2,0,0,0,.05-.82c0,.06.13.11.16.17.28.89-.2,1.83.47,2.77.35.5-.14,1.51-1.14,1.52-.39,0-.51.11-.5.44,0,.49-.11,1-.72.79s-.54-.62-.37-1.09a.77.77,0,0,0,0-.48C241.71,777.26,239.94,776.72,241,778Z" transform="translate(-128.24 -741)"/><path class="cls-38" d="M238.31,769.54c.18.59.58.91.95.25a4,4,0,0,1,1.69-1.38,2.31,2.31,0,0,0,.91-.72c.73-1.13,1.38-1.22,2.37-.32.43.39.55.32.59-.21.3.18.25.48.26.75s0,.42-.22.49-.34-.13-.47-.27c-1.09-1.16-1.49-1.13-2.31.15-.09.13-.15.35-.26.39a3.27,3.27,0,0,0-2.44,2.47c-.17.54-.83.4-1.1-.14A1.33,1.33,0,0,1,238.31,769.54Z" transform="translate(-128.24 -741)"/><path class="cls-38" d="M235.58,769.93c-.45-.34-.28-.66,0-1a.45.45,0,0,1,.72,0c.43.44.85.29,1.26,0a1.05,1.05,0,0,1-.47,1.33c-.57.33-.7-.31-1-.56S235.68,769.63,235.58,769.93Z" transform="translate(-128.24 -741)"/><path class="cls-22" d="M195.75,767.1l-.09-.08c0-.75-.41-1.49-.17-2.24a2,2,0,0,0-.32-2,3.26,3.26,0,0,1-1.77-2.68,1.2,1.2,0,0,0-1.6-1,1.27,1.27,0,0,1-1.22-.1c-.58-.42-1.22-.69-1.69.2-.17.34-.54.07-.74.18-.82.49-2-.28-2.64.78a1.66,1.66,0,0,0-1.59,1.36,5.88,5.88,0,0,0-.26,2.6,2,2,0,0,1,0,1.18c-.7,1.33-.23,2.91-.93,4.26a1.66,1.66,0,0,0,0,.94c.33,2,0,4,.54,5.89a10.38,10.38,0,0,0,1.89,4.34c.69.8,1.39.89,1.87.24.24-.32.43-.67.82-.38.56.41-.11.56-.26.8a1,1,0,0,0,.26,1.47c1.32,1.18,1.94,1.37,2.64.81.63-.72,1.6-.66,2.38-.86,1.41-.38,1.92-.87,1.34-2.19-.3-.67-.21-1,.43-1.31s.86-1.25.44-1.53c-1-.62-.37-1.17-.16-1.72s-.22-1.4.34-1.79.5-.94.39-1.46a1,1,0,0,1,.18-1.08c1-1.16-1.07-2.6.3-3.8C196.25,767.77,196,767.34,195.75,767.1Zm-4.63,4.39a2.44,2.44,0,0,1,0,.27,1,1,0,0,1-.39.82h0s0,0,0,0a1.15,1.15,0,0,0-.14.17l0,0,0,.08-.06.11a.49.49,0,0,0,0,.07v0s0,.06,0,.09a1.82,1.82,0,0,1-.46.93,1.78,1.78,0,0,1-.81.51,1.25,1.25,0,0,1-.47,0,.49.49,0,0,1-.21.29,1.1,1.1,0,0,1-.61.19.44.44,0,0,1-.2,0,.89.89,0,0,1-.31-.15,1.26,1.26,0,0,1-.22-.24A1.15,1.15,0,0,1,187,774a1.58,1.58,0,0,1,.12-.52s0,0,0-.07a.62.62,0,0,0,0-.13v0s0,0,0-.06l0,0,0,0s-.06,0-.08,0a.32.32,0,0,1-.14-.14,1.14,1.14,0,0,1-.1-.19,1.16,1.16,0,0,1,0-.18.74.74,0,0,1,0-.26,1,1,0,0,1,.05-.16s0,0,0-.06,0,0,0-.06c0-.75-.32-1.58.1-2.27a1.36,1.36,0,0,1,.81-.62,1.63,1.63,0,0,1,1.13-.31,3,3,0,0,1,.6,0,1,1,0,0,1,.39.17c.05,0,.09,0,0,0l.16.05.22.13a.62.62,0,0,1,.24.47h0a1,1,0,0,1,.26.46s0,.05,0,.07a1.79,1.79,0,0,1,.43.87,2,2,0,0,1,0,.25s0,.08,0,.13Z" transform="translate(-128.24 -741)"/><path class="cls-39" d="M185.51,760.16a3.62,3.62,0,0,0-1.49,4.12,1.33,1.33,0,0,1-.25,1.42.31.31,0,0,0-.11.21c.34,1.92-1.34,3.65-.42,5.7.33.74-.28,1.83-.05,2.81.45,1.91.52,3.94,1.75,5.61a3.21,3.21,0,0,0,1,1c.45.23.9.35.83-.41s.18-.94.82-.46a.94.94,0,0,0,.34.08c.3,0,.73-.11.78.35s-.29.61-.61.81c-.83.51-.84.94.05,1.33a3.36,3.36,0,0,1,1,.8.83.83,0,0,0,1.26.13c0,.67-.45,1-1.09.62s-.87-.65-1.49-.08c-.36.34-.88,0-1.3-.29-.64-.4-.19-.89-.07-1.39-.5,0-.93,0-1.35-.12-1.11-.2-2.13-.79-2.13-1.93,0-1.94-.68-3.79-.56-5.72,0-.4.12-.78-.42-1a.52.52,0,0,1-.2-.81c.58-.81.23-1.39-.23-2.1a1.66,1.66,0,0,1,.24-2.1c.16-.18.5-.41.46-.51-.48-1.36.53-2.7.07-4a5.22,5.22,0,0,1-.39-2.08C182.1,759.87,183.55,759,185.51,760.16Z" transform="translate(-128.24 -741)"/><path class="cls-40" d="M195.66,767c-.24-.93-.94-1.8-.29-2.86.26-.42-.13-.91-.2-1.37a1.36,1.36,0,0,1,.69,1.5C195.62,765.21,195.89,766.13,195.66,767Z" transform="translate(-128.24 -741)"/><path class="cls-41" d="M202.27,782a1.79,1.79,0,0,0,.13,1.68,1.23,1.23,0,0,1,.08.82c-.12,1-.53,1.23-1.52,1-1.81-.48-1.86-.8-1.87-2.66,0-2,.36-4.1-.05-6.14-.22-1.12.25-2.3-.26-3.4,1.05-1.46,0-2.89-.08-4.34a8.57,8.57,0,0,1,.24-2.36c.26-1.1-.16-2.23-.16-3.35a3.26,3.26,0,0,1,.17-1.64c.29-.54.62-1.05,1.38-.8.75.88.39,1.87.2,2.86,1.69-.56,1.76-.51,2.06,1.14.08.39,0,1,.67.38a13.34,13.34,0,0,0,1.17-1.52c.1-.46.27-.88.79-.93.68-.06.68.52.82,1,.78-.48,1.47-1.44,2.44-.84s0,1.61.17,2.42c.59,0,.63-1.37,1.48-.55s1.5,1.28.91,2.44a.45.45,0,0,0,.15.63c.37.76,0,1.85,1,2.34.22.68.57,1.41-.48,1.75-.91.08-.4.59-.28,1s.19,1.19,1,1.14h0a1,1,0,0,1-.66,1.4c-.6.23-.54.55-.3,1v0a5.07,5.07,0,0,1,0,4.26c-.22.44-.18.46.26.8-.35,1.38.87,2.47.69,3.81-.13.11-.12.29-.2.42-.2.35-.41.72-.9.64s-.57-.5-.67-.89a1,1,0,0,1,0-.59c.06-.4.28-.83-.2-1.14-.11.58-.81.7-1,1.25l.36.6c0,.6-.32.67-.77.55a2.23,2.23,0,0,1-1.46-3.34,2.87,2.87,0,0,0,.21-2.64c-.49-1,.23-1.93.13-2.92-.18-1.83.31-3.72-.09-5.48-.24-1-.41-2.37-1.59-3a.43.43,0,0,1-.14-.63c0-.19.4-.71-.12-.47s-.78-1.13-1.08,0-.92.47-1.45.2c-.55-.06-.54.35-.55.7a3.46,3.46,0,0,1-1,2.48c-.18.18-.32.37-.2.63s.29.18.5.15c.94-.15.68.5.39.78-.78.73-.56,1.47-.24,2.26,0,0,0,.08,0,.12.36,1.06-.4,2.38.76,3.28.14.12.07.54.06.81,0,.56,0,1.28-.7,1.33s-.39-.73-.58-1.12c-1.21.8-.07,1.51.06,2.25A.48.48,0,0,0,202.27,782Z" transform="translate(-128.24 -741)"/><path class="cls-42" d="M206.19,768.1s0,.1.05.1c1.42.43,1,2,1.84,2.84a.78.78,0,0,1,.16.88,1.58,1.58,0,0,0,.17,1.49.93.93,0,0,1-.06,1.11,1.56,1.56,0,0,0-.14,1.49,4.44,4.44,0,0,1-.06,2.77c-.07.34-.32.7-.11,1,.86,1.32.39,2.44-.38,3.6a1.19,1.19,0,0,0,.58,1.8c.48.2.84,1.57,1.66.4a.8.8,0,0,1-.31,1.21c-.45.27-.63-.12-.81-.43s-.3-.4-.57-.23c-.75.46-1.58.72-2.07-.2a2.16,2.16,0,0,1,.4-2.66c1.06-.93,1.28-1.76.39-2.87a.87.87,0,0,1-.1-1c.94-1.16.47-2.43.39-3.68a1.4,1.4,0,0,1,.18-1c.38-.46.54-.88,0-1.31-.08-.06-.15-.27-.11-.32,1.17-1.43-1.22-2.28-.6-3.67C206.84,769,205.33,768.94,206.19,768.1Z" transform="translate(-128.24 -741)"/><path class="cls-43" d="M211.77,781.5c-.69.06-.85,0-.6-.52a6.71,6.71,0,0,0,.33-4.54,4.21,4.21,0,0,1,.28,4.24C211.66,780.94,211.38,781.22,211.77,781.5Z" transform="translate(-128.24 -741)"/><path class="cls-43" d="M211.49,776.42c-.46-.5-.77-.95.22-1.2.61-.15.65-.69.74-1.19.46.43.28,1,.22,1.45s-.2.78-.79.47S211.64,776.27,211.49,776.42Z" transform="translate(-128.24 -741)"/><path class="cls-42" d="M210.71,784.89c.13.49.15,1.12.72,1.26s.67-.57,1-.84c0,.81-.34,1.56-1.23,1.34S210.37,785.64,210.71,784.89Z" transform="translate(-128.24 -741)"/><path class="cls-42" d="M203.54,767.82c.5.06,1.05.48,1.45-.2.25.38.46.83-.09,1.07C204.09,769.06,203.87,768.31,203.54,767.82Z" transform="translate(-128.24 -741)"/><path class="cls-43" d="M211.71,771.92c.59-.47.39-1.15.48-1.75a1.5,1.5,0,0,1,.3,1.85C212.13,772.84,211.92,772.35,211.71,771.92Z" transform="translate(-128.24 -741)"/><path class="cls-42" d="M209.54,785c-.24-.86.79-.73,1-1.25C210.65,784.52,210,784.67,209.54,785Z" transform="translate(-128.24 -741)"/><path class="cls-43" d="M212.45,774c-1.13.32-1-.5-1-1.14C211.5,773.52,212.33,773.47,212.45,774Z" transform="translate(-128.24 -741)"/><path class="cls-44" d="M200.33,760.78a1.9,1.9,0,0,0-1.25,2.42,11.08,11.08,0,0,1,0,3.68,6.48,6.48,0,0,0,.15,3.3,2.74,2.74,0,0,1,0,2.42,1,1,0,0,0-.14.68c.56,2,.16,4.07.53,6.08a1.44,1.44,0,0,1-.09,1,.81.81,0,0,0-.1.21c-.34,1.15.22,2.32-.09,3.5-.1.39,2,1.56,2.38,1.36.72-.37.63-1.12.67-1.79.56.63.06,1.24,0,1.86-.73.83-1.66.22-2.48.29-.41,0-.82-.43-1.37-.51-.72-.12-.88-1.63-.27-2.39.42-.52.67-.84-.09-1.29-.53-.31-.55-1.18-.11-1.3,1.12-.31.52-1,.5-1.51s.54-1.13-.26-1.7c-.6-.43-.37-1.29,0-1.86s.52-1-.13-1.49a1.2,1.2,0,0,1-.4-1.08c0-.93.37-1.2,1.28-1-.92-2.82-1.15-2.34-.18-5.93-.47-.29-.7.91-1.16.23a1.1,1.1,0,0,1,.37-1.48.78.78,0,0,0,.16-1.15,2.43,2.43,0,0,1-.16-1.87C198.35,760.38,199.28,760.09,200.33,760.78Z" transform="translate(-128.24 -741)"/><path class="cls-26" d="M227.78,776.2c.34,1.06,1.39.19,1.93.7l.24.09a1.87,1.87,0,0,1,.74.56c.39.37.6.8.16,1.23s-.87.77-1.37.07l.06-.33c0-.11.07-.3,0-.33-.39-.19-1.84.32-1.84.68,0,.59-.18.92-.79,1a1.48,1.48,0,0,1-1.35-.55,15.18,15.18,0,0,0-3.45-3.43,3,3,0,0,1-1.22-1.12c-.35-.73-1-.08-1.48-.41-.26-.07-.61,0-.49.26.44.95-.28,1.84,0,2.78a3.68,3.68,0,0,1-.14,1.16c0,.19-.06.44,0,.56.85,1,.77,1.86-.32,2.92-.53.81-1.08.65-1.65,0a2,2,0,0,1-.57-1.28c-.11-1.59-.08-3.18-.19-4.75a30.22,30.22,0,0,0-.19-4.47,1.1,1.1,0,0,1-.05-.59c.54-1.56-.17-3-.49-4.44a3.54,3.54,0,0,1,.07-2.34,2.38,2.38,0,0,0-.12-1.74,3.54,3.54,0,0,1,.56-3.7c.1-.05.21-.08.31-.14.27-.18.76-.16.73-.6s-.55-.29-.82-.47a.88.88,0,0,1-.49-.53,3.65,3.65,0,0,1-1-3.3,2.27,2.27,0,0,1,2.36-1.75,2,2,0,0,1,1.76,2.06,2.4,2.4,0,0,0,1.24,1.78c.27.21.48.38.46.74-.59.51-1.35,1-.3,1.8.21.17.06.53-.19.72s-.89,0-.64.43c.41.67-.25,1.54.52,2.06.12.08.34.25.33.28-.7,1.22.75,2.74-.5,3.86-.88.78-.55,1.71-.22,2.48a2,2,0,0,1,0,1.9.33.33,0,0,0,.1.51c.17.1.29,0,.4-.16.43-.46.62-1.12,1.28-1.37.2-.08.18-.38,0-.53-.58-.64.14-.83.39-1.17.28-.68.84-1.24.81-2.06,0-.28.36-.63.53-.56,1,.41,1.07-.4,1.39-.93a.87.87,0,0,1,.45-.37,3.8,3.8,0,0,1,3.27.26.41.41,0,0,1,.26.48c-.12.42-.45.82-.82.78-.89-.1-1,.42-1.21,1.07a1.38,1.38,0,0,1-1.6,1c-.5-.07-.76,0-.72.58.06,1,.14,1.8-1.14,2.23-.58.19-.78,1.26-1.83,1-.39-.11-.27.39,0,.57.61.51.54,1-.06,1.45.37.42.79.16,1.16.23a2.5,2.5,0,0,1,1.81.82c.51.78,1,1.31,2.05,1a.66.66,0,0,1,.51.21C226.42,776,227.24,775.91,227.78,776.2Z" transform="translate(-128.24 -741)"/><path class="cls-45" d="M216,758.69a4,4,0,0,0-.36,4,1.51,1.51,0,0,1,0,1.56,2.17,2.17,0,0,0-.13,1.85c.31,1,.54,2.06.83,3.09a1.34,1.34,0,0,1-.11,1,1.69,1.69,0,0,0,0,1.71c.08.14.23.36.19.43-1,1.29.16,2.61-.08,4a15.45,15.45,0,0,0,.23,5c.14.86,1,1.1,1.8.65,0,.15,0,.3,0,.44a2.12,2.12,0,0,1-1.82.73,1.36,1.36,0,0,1-1.35-1.61c.05-.87.46-1.78-.34-2.54-.14-.14-.06-.54.07-.52,1.31.14.48-.68.47-1a8.52,8.52,0,0,0-.82-3.86c-.35-.69.43-.63.86-.83a2.38,2.38,0,0,1-.51-3c.35-.62-.5-1-.44-1.73a6.44,6.44,0,0,0-.26-2.37c-.26-.77-.61-1.71.45-2.32.41-.24,0-.57-.06-.84a3.31,3.31,0,0,1,.08-2.88C215.16,759.27,215.15,758.42,216,758.69Z" transform="translate(-128.24 -741)"/><path class="cls-46" d="M216.87,751.94a2.42,2.42,0,0,0-2,3.23c.22.6.14,1.31.62,1.82-.38.19-.61,1.19-.85.73s-1.82-.72-.7-1.78a.76.76,0,0,0,0-1,1.6,1.6,0,0,1,.11-2.17A2.51,2.51,0,0,1,216.87,751.94Z" transform="translate(-128.24 -741)"/><path class="cls-46" d="M216,758.69c-.66,0-.77.71-1.24.95a1.37,1.37,0,0,1,1.17-1.26c.25,0,.64,0,.62-.34,0-.18-.35-.35-.54-.52.41,0,1-.24,1.12.25C217.25,758.46,216.58,758.6,216,758.69Z" transform="translate(-128.24 -741)"/><path class="cls-34" d="M146.68,772.15c.44-.15,1.13.28,1.29-.54a1.36,1.36,0,0,1,1.3.21c.3.2.39.3.18.63a1.45,1.45,0,0,0,.71,2.34c.18.07.48.1.52.22.43,1.41,1.85.74,2.72,1.26.55.33.67-.55.8-1,.74.18.6.79.5,1.24a9.32,9.32,0,0,1-.25,1.4c-.18.35-.33.79-.83.7-1-.17-.79-1.16-1.14-1.77-.4,0-.5.35-.77.48-.48.24-1.1.27-1.2-.27-.17-1-.56-1.06-1.46-.91s-1.79-1.25-1.49-2.47a9.38,9.38,0,0,1,.48-1.2C147.61,772.22,147.06,772.55,146.68,772.15Z" transform="translate(-128.24 -741)"/><path class="cls-47" d="M139.49,765.38c.93.54.73,1.73,1.39,2.43.24.24.29.64.62.85.42-.16.35-.59.5-.88a4.71,4.71,0,0,1,2.41-.93c1.08,0,.78,1,1,1.58a1.59,1.59,0,0,1-.52,1.59c-.37.33-.71-.37-1.09-.59-3,.55-3.89-.82-4.58-3.72C139.19,765.54,139.32,765.43,139.49,765.38Z" transform="translate(-128.24 -741)"/><path class="cls-48" d="M139.49,765.38a3.53,3.53,0,0,0,3.55,3.9c.26,0,.55-.09.77.15-.62,1,.78.9.8,1.54.32.63.65,1.26.2,2-.37-.46-.74-.93-1.12-1.39-.16-.19-.26-.41-.58-.52a6.52,6.52,0,0,1-4.19-6.16C139.24,764.9,139.38,765.13,139.49,765.38Z" transform="translate(-128.24 -741)"/><path class="cls-49" d="M144.41,766.85c-.86.14-1.45,1-2.41.93,0-.34,1.18-.74-.06-1-.35-.08-.21-.46-.24-.72a2,2,0,0,1,.36-1.35c.36-.53.56-1.5,1.49-1.16A1.72,1.72,0,0,1,144,766C143.48,766.68,143.67,766.85,144.41,766.85Z" transform="translate(-128.24 -741)"/><path class="cls-50" d="M144.81,772.94a6,6,0,0,1-.2-2c.89.45,1.1,1.36,1.47,2.18.15.34.2.62-.11.83s-.51-.18-.72-.37A.94.94,0,0,1,144.81,772.94Z" transform="translate(-128.24 -741)"/><path class="cls-51" d="M154.45,777.89c-.1-.88.28-1.8-.25-2.64.37-.53,1.05-.38,1.55-.62.15-.08-.12.42-.14.66-.84.46-.36,1.24-.48,1.88C154.34,776.87,154.89,777.85,154.45,777.89Z" transform="translate(-128.24 -741)"/><path class="cls-2" d="M146.76,768c.36.16.67.34.2.71-.3.24-.62.45-.92.67C146.05,768.84,146.81,768.65,146.76,768Z" transform="translate(-128.24 -741)"/><path class="cls-52" d="M265,779.19c-.22-.23-.38-.05-.55.07a28.74,28.74,0,0,0-1.28,2.68c-.12.52-.67.59-1.16.68-.93.18-1.9-.16-2.82.16h0c-.43,0-.43-.23-.24-.52a3.91,3.91,0,0,1,1.56-.72,2.86,2.86,0,0,0,2.24-2.33,1.26,1.26,0,0,1-.23-1.7c.28-.45.62-.84,1.23-.46.3.23,0,.94.59.87.38,0,.24-.53.31-.82a1,1,0,0,1,.73-.83c.45-.17.2-.4-.09-.54-1.29-.09-1.58-.37-1.64-1.65a10.85,10.85,0,0,1,.58-3.62c.15-.51.39-1,1.05-1a9.39,9.39,0,0,1,1.26,4.16c0,.35,0,.75.53.69.73-.24.88-.82.89-1.49a13.08,13.08,0,0,1,0-1.88c.06-.33,0-.86.67-.54.47.56-.16,1.21.13,1.84.61-.24.6-.89.91-1.28.17,0,.4-.19.37.18a18.55,18.55,0,0,1-1.26,4.25c-.06.18-.22.47-.32.47-1.49-.08-.79,1.2-1.15,1.81-.2.38-.36.78-.57,1.14C266.26,779.82,265.89,779.88,265,779.19Z" transform="translate(-128.24 -741)"/><path class="cls-53" d="M265.3,769.51c-1.35,1.2-1.09,2.88-1.34,4.4a1.41,1.41,0,0,0,1.35,1.82c-1.64.46-2.26,0-2.3-1.79,0-1.39-.11-2.79.91-3.93C264.29,769.61,264.64,769.11,265.3,769.51Z" transform="translate(-128.24 -741)"/><path class="cls-54" d="M259.2,782.78a12.16,12.16,0,0,1,2.87-.44c.46,0,.94-.06.94-.64a3.3,3.3,0,0,1,1.45-2.44,18.35,18.35,0,0,1-.17,2.56c-.74,1.33-1.41,1.64-3.11,1.16A7.49,7.49,0,0,0,259.2,782.78Z" transform="translate(-128.24 -741)"/><path class="cls-55" d="M268.7,770.45c-.69.06-.35.6-.38.91a19.59,19.59,0,0,0,0,2c0,.82-.35,1.19-1.19,1,.47-.78.19-1.63.23-2.44a3,3,0,0,1,.47-1.68C268.13,769.76,268.3,769.82,268.7,770.45Z" transform="translate(-128.24 -741)"/><path class="cls-56" d="M263.77,777.05c-1.13.18-1.31.57-1,2.16-.39,0-.91.1-.94-.45a2.35,2.35,0,0,1,.88-1.88C263.13,776.49,263.48,776.6,263.77,777.05Z" transform="translate(-128.24 -741)"/><path class="cls-57" d="M270,769.82c0,.38-.08.61-.52.51-.27-1.12.42-2.13.22-3.24l.3,0Z" transform="translate(-128.24 -741)"/><path class="cls-26" d="M263.23,761.29c-.1.6-.82,1-.46,1.75s-.24,1.39-.41,1.56c-.85.79-.49,1.83-.8,2.7a3.68,3.68,0,0,1-1.07,1.5c-.71.51-.33,1.29-.25,1.93.24,1.79-.39,2.49-2.14,2.25-.33-.05-1.29,1.11-1.21,1.58a1.42,1.42,0,0,1-1.16,1.86,1.26,1.26,0,0,0-1,1.21c0,1.19-1,1.57-2,1.89-1.4.36-2.27,1.58-3.55,2.13-.67.29-1.05.13-1-.6.08-.51.11-.83-.47-1a.26.26,0,0,1-.16-.29c.28-.77.61-1.52.87-2.3.12-.38.65-.48,1-.46a1,1,0,0,0,1.19-.84,1.29,1.29,0,0,1,.6-.72c.68-.44,1.65-.61,1.49-1.79,0-.19.32-.32.55-.38a.93.93,0,0,0,.77-.81,1,1,0,0,1,1.1-1c.56,0,.77-.44.19-.85a3,3,0,0,1-1-1.31c0-.11-.09-.28-.17-.3-1.43-.21-1.68-2-3-2.29-.57-.73-1.65-1.32-.54-2.47.17-.17-.09-.68-.61-.5s-.81-.19-.92-.64a11.51,11.51,0,0,0-1.68-4.13c-.6-.84-.2-1.75.25-2.58A1,1,0,0,1,249,756a3.11,3.11,0,0,0,2.32,1.11c1.23,1,1.34,1.58.77,3-.22.53-1.12,1.36.48,1.43.56,0,.57,1,1.27,1.26s.36,1.1.17,1.71a.45.45,0,0,0,.11.45h0c.07,1.54,1.5,1.39,2.39,1.9v0a17.29,17.29,0,0,1,1.22-3.77.7.7,0,0,0,.07-.58,3.57,3.57,0,0,1,.75-3.25,2.88,2.88,0,0,0,.62-1.4c.17-1.6.49-1.91,2.05-2,.35-.15.62-.74,1.09-.29.26.25.86.44.41,1-.45.83.42.71.72,1l.47.49a1.54,1.54,0,0,1-.29,1.9C263.18,760.31,263.6,760.9,263.23,761.29Z" transform="translate(-128.24 -741)"/><path class="cls-58" d="M251.29,766.57c.92.43,2,.71,2,2.15.73-.7,1.13-.48,1.36.38a1.66,1.66,0,0,0,.93,1.31c.3.11.71.11.66.54s-.4.82-.8.78c-.9-.1-1.15.33-1.09,1.1.08,1.17-1.52.41-1.44,1.11s.28,1.17-.73,1.36a1.72,1.72,0,0,0-1.45,1.69c0,.33,0,.68-.63.47s-1.78-.52-1.49,1c.06.32-.21.49-.4.69s-.88.63.06.93c.46.15.21.59.13.93a.71.71,0,0,0,.13.55c.18.18.35,0,.5-.14.8-.65,1.91-.83,2.52-1.76.33-.5.82.26,1.18-.12.05.25,0,.65-.19.61-1.49-.34-1.62,1.48-2.76,1.73a1.7,1.7,0,0,0-.8.53.74.74,0,0,1-1.16,0,.82.82,0,0,1-.14-1.18l.45-.67c-.2-.36-.44-.07-.63-.05-.44,0-.81,0-1-.47a1,1,0,0,1,.19-1.11c.14-.14.43-.24.44-.38.1-1.25.41-2.26,2-2a1.13,1.13,0,0,0,.09-.41c-.05-1,.34-.78.8-.3.12.12.18.28.34.1a2.06,2.06,0,0,0,.21-.42,4.68,4.68,0,0,1,1.86-1.09c-.57-.71-1.33-1.46.35-1.52a.58.58,0,0,0,.37-.25c.84-1.21.84-1.22,2.2-1.32l-1.89-2.05s-.08.05-.11,0A9.57,9.57,0,0,1,251.29,766.57Z" transform="translate(-128.24 -741)"/><path class="cls-25" d="M261.56,767.3c-.18-1.59.62-2.89,1.21-4.26.52.15.29.47.11.7s-.46.55-.33,1C261.66,765.35,262.13,766.52,261.56,767.3Z" transform="translate(-128.24 -741)"/><path class="cls-52" d="M141,741.92c.62.76,1.88,1.06,1.69,2.39a6.66,6.66,0,0,1-2.91,3.3c1.21.17,2,.5,2.47,1.44.08.17.3.34.48.14.37-.42.73-.43,1.08,0a1.23,1.23,0,0,1,.09,1.54,1.06,1.06,0,0,0,.09,1.57.88.88,0,0,1-.1,1.43c-.58-.06-.6-.56-.69-1a3.31,3.31,0,0,0-.57-1.52,7.88,7.88,0,0,1-1.51-2.15c-.15-.33-.49-.59-.87-.33s-.3.59,0,.89c0,.62-.46.66-.79.44-.9-.61-1.79-.29-2.7-.12l-.5.37a.22.22,0,0,1-.34-.09,3.52,3.52,0,0,1,1.11-2.12c.18-.15.42-.3.29-.55s-.46-.17-.72-.1c-.78,0-.68-.57-.56-1a13.22,13.22,0,0,1,1.64-3.82,2.4,2.4,0,0,1,2.08-.93A1.68,1.68,0,0,1,141,741.92Z" transform="translate(-128.24 -741)"/><path class="cls-59" d="M139.76,741.75a6.46,6.46,0,0,0-3.51,5.17.62.62,0,0,0,.35.57c-.52.52-1,.43-1.31-.19a3.37,3.37,0,0,1,1.26-4.68C137.57,742.14,138.54,741.48,139.76,741.75Z" transform="translate(-128.24 -741)"/><path class="cls-60" d="M131,751l-.35.35a.52.52,0,0,1-.3-.85c.76-.86.62-2,1.07-3,1,0,1.39.49,1,1.44a3.45,3.45,0,0,0-.47,1.29c.75,0,.92-.85,1.56-.93a4.3,4.3,0,0,1,1.75,0h0c.2,1.34.1,1.49-1.17,1.54C133.06,750.93,132,750.89,131,751Z" transform="translate(-128.24 -741)"/><path class="cls-61" d="M136.76,750c1-.62,1.93-1,2.94,0,.2.18.41-.1.55-.29.74.61.49,1.35.26,2.08-.53.29-.86-.07-1.06-.45A2.44,2.44,0,0,0,136.76,750Z" transform="translate(-128.24 -741)"/><path class="cls-62" d="M131.41,747.5c-.15,1,.34,2.22-.88,3-.23.14-.13.58.11.85l-.48.61C128.91,749.93,130.38,748.78,131.41,747.5Z" transform="translate(-128.24 -741)"/><path class="cls-63" d="M131,751a7.39,7.39,0,0,1,3.13-.36c.94.08,1.33-.32,1.14-1.25.46.13-.1,1,.66.91l.34.09a1.3,1.3,0,0,1-1.53.9A18.75,18.75,0,0,1,131,751Z" transform="translate(-128.24 -741)"/><path class="cls-64" d="M135.25,749.34a1.54,1.54,0,0,1-1.75,0C134.1,748.68,134.69,748.26,135.25,749.34Z" transform="translate(-128.24 -741)"/><path class="cls-65" d="M219.4,774.31c1.6-.77,2,1,3.11,1.44a2.45,2.45,0,0,1,1.72,1.8.78.78,0,0,0,.75.51c.5,0,.67.28.73.74.07.64.5.83,1.11.79s.78-.22.78-.8c0-.35,1.71-1.2,2-1a.46.46,0,0,1,0,.72c-.63-.5-1,.6-1.64.25-.21.51.35.64.52,1.08-.57.19-1.14.42-1.73.57-.44.11-1.18-.07-1.19-.3-.11-1.62-2.31-1.13-2.48-2.48-.13-1.07-.6-1.45-1.6-1.4-.4,0-.85-.19-.8-.55C220.76,774.68,220,774.58,219.4,774.31Z" transform="translate(-128.24 -741)"/><path class="cls-65" d="M229.48,778.85a.88.88,0,0,0,1.26-.3c.31-.48-.1-.8-.4-1.12L230,777a1.64,1.64,0,0,1,1.44,2c-.11.79-.82.91-1.49.84S229,779.44,229.48,778.85Z" transform="translate(-128.24 -741)"/><path class="cls-66" d="M251.29,766.57a13.9,13.9,0,0,1,2.2,2.7c-.09.4-.3.68-.75.53a.74.74,0,0,1-.53-.72,1.77,1.77,0,0,0-1.79-1.74,1.63,1.63,0,0,1-1.5-1.73c0-.67.12-1.37-.71-1.71a.46.46,0,0,1-.22-.4c.31-1.13-1.2-1.9-.61-3.09a.48.48,0,0,0-.17-.41c-1.42-.7-1.26-2-1.21-3.22.45-1.5,1.56-1.79,3-.8a2,2,0,0,0-1.11,3.23c.95,1,1.06,2.29,1.39,3.5.09.34,0,.81.41.91s.23-.59.56-.72c.35.09.18.43.32.59.43.46,1.59.94-.11,1.24-.25,0-.05.51.08.75S251.05,766.21,251.29,766.57Z" transform="translate(-128.24 -741)"/><path class="cls-67" d="M142.63,751.25c.93.56.63,1.76,1.26,2.48l-.61,1.1C142.58,753.62,143.15,752.33,142.63,751.25Z" transform="translate(-128.24 -741)"/><path class="cls-68" d="M261.26,755.81c-1.11.43-2.05.88-1.75,2.45.09.51-.64,1.2-1,1.78-.2.3-.54.63-.45.94.4,1.4-.24,2.65-.54,3.92a10.27,10.27,0,0,1-.94,2,4.78,4.78,0,0,1,.74-3.83c.36-.19.24-.46.1-.7-.64-1.12-.11-2.08.39-3s1.12-1.48,1.1-2.6S260,755.15,261.26,755.81Z" transform="translate(-128.24 -741)"/><path class="cls-68" d="M254.16,764.92c-.32-.19-.26-.48-.19-.74a1.13,1.13,0,0,0-.63-1.55c-.56-.31-.7-1.2-1.65-1.22-.36,0-.33-.83-.06-1.15,1-1.18.59-2.18-.28-3.17,1.67.86,1.88,2.31.47,4.16,1.36-.59,1.23.91,2.06,1.24C255.08,763,254.09,764.08,254.16,764.92Z" transform="translate(-128.24 -741)"/><path class="cls-68" d="M256.56,766.83c-.19.5-.4.15-.61,0s-.41-.35-.61-.34c-1.17,0-1.39-.61-1.17-1.59C254.53,766.11,255.83,766.11,256.56,766.83Z" transform="translate(-128.24 -741)"/><path class="cls-25" d="M263.23,761.29a2.72,2.72,0,0,1,.62-1.93c.34-.33.1-.89.1-1.35a1.57,1.57,0,0,1-.2,2.15c-.35.34-.22.78-.24,1.18Z" transform="translate(-128.24 -741)"/><path class="cls-25" d="M263.48,757.52c-.38-.07-.86.08-1.07-.36-.15-.29,0-.53.35-.63C262.65,757.11,263.37,757.1,263.48,757.52Z" transform="translate(-128.24 -741)"/><path class="cls-69" d="M265,779.19a1,1,0,0,0,1.59-.44,8.45,8.45,0,0,1,.78-1,3.41,3.41,0,0,1-.66,1.74c-.32.38-.59.93-1.18.82S265.23,779.54,265,779.19Z" transform="translate(-128.24 -741)"/><path class="cls-70" d="M241.61,764.76a8.49,8.49,0,0,1-.15-3.75c0-.31,0-.58-.43-.42s-.39,1.33-1.12.87c-1.14-.72-.24-1.62.21-2.64-.92.48-1.66,1.13-2.25-.09a1.15,1.15,0,0,0,.23,1.43,2.11,2.11,0,0,1-1,3.1.79.79,0,0,0-.58.87c0,.34.14.7-.12,1l-.87,1.16c1.06-.18,1.92-.25,2.67.56.14-.6.2-1.19.95-.9.06,0,.3-.16.32-.27.24-1.38.85-.76,1.44-.28C241.6,765.67,241.74,765.19,241.61,764.76Zm-1.15-.76a4,4,0,0,1-1.06.86c-.53.32-1,.7-1.51,1.06a.48.48,0,0,1-.49,0,.55.55,0,0,1-.83-.39.49.49,0,0,1,.1-.32s0,0,0-.07a2.73,2.73,0,0,1,.54-.89c.21-.25.44-.49.67-.73s.46-.41.66-.64l.11-.13,0,0a.41.41,0,0,1,.05-.09v0s0-.06,0-.09h0s0-.1,0,0a.6.6,0,0,1,0-.4h0a.5.5,0,0,1,.84-.54c-.05-.07.08.07.09.08l.12.09c.09.07.19.13.28.21a1.52,1.52,0,0,1,.49.55A1.38,1.38,0,0,1,240.46,764Z" transform="translate(-128.24 -741)"/><path class="cls-71" d="M240.92,765.42c.33-.06.67-.15.47-.59a5.44,5.44,0,0,1-.1-3.91c.06-.19-.13-.25-.26-.33.35-.52.82-.57.77.11-.11,1.58-.45,3.15.54,4.59.13.18,0,.4-.2.49A.86.86,0,0,1,240.92,765.42Z" transform="translate(-128.24 -741)"/><path class="cls-72" d="M238.1,760.16a2.14,2.14,0,0,1-.1,3c-1.25,1.1-1.25,1.1-1.59,2,0-.95-.14-1.8,1-2.37C238.4,762.28,238.14,761.12,238.1,760.16Z" transform="translate(-128.24 -741)"/><path class="cls-73" d="M192.27,767.12l.8-.3a.45.45,0,0,0-.25-.67,2.85,2.85,0,0,1-1-1h0c-.17-.13-.07-.51-.39-.47s-.2.29-.2.46a2.14,2.14,0,0,0,.07.91l0,.72c-.38.62-.83,1.41-1.64.86s-2.1-.18-2.57-1.46c-.31.79-.09,1.44-.27,2L186,770c-.15.74.71,1.44.08,2.2a.77.77,0,0,0,.09.77,2,2,0,0,1,.15,2.1c-.16.3-.67.53-.46.88s.61-.07.93-.12a2.45,2.45,0,0,1,1.62.15c.25.13.7.43.78-.22h0c-.36-1.43,1.66-.35,1.57-1.49.11,0,.16.17.25.21s-.06,0,.08.09.19.43.48.43c.09-.08.2-.18.19-.29-.18-1.57-.24-3.09.82-4.44.22-.27,0-.68-.43-.57-1.14.28-.87-.36-.66-1A2.92,2.92,0,0,1,192.27,767.12Zm-1.71,5.51c-.08.09-.17.16-.25.24l-.13.13a.17.17,0,0,0,0,.07,2.45,2.45,0,0,1,0,.27,1.13,1.13,0,0,1-.6,1,3.06,3.06,0,0,1-1,.24l-.3.08v0a.51.51,0,0,1-.72.34,1,1,0,0,1-.64-.87,1.74,1.74,0,0,1,.06-.45c0-.1.07-.29.07-.34s-.27-.39-.35-.6a1,1,0,0,1,.16-1,.7.7,0,0,0,.14-.27h0v-.19c0-.19,0-.38-.06-.57a1.93,1.93,0,0,1,.15-1.23,1.22,1.22,0,0,1,1-.56l.06,0a3.25,3.25,0,0,1,.43-.08l.27,0a.42.42,0,0,1,.33,0h0l.08,0h0a1.1,1.1,0,0,1,.82.46,3.76,3.76,0,0,1,.66,1.55A1.84,1.84,0,0,1,190.56,772.63Z" transform="translate(-128.24 -741)"/><path class="cls-74" d="M191.58,775l-.21-1.62a3.84,3.84,0,0,1,1.38-3.47l-.63,0c-.41,0-.65.81-1.08.32s-.13-.95.1-1.35c.33-.58.35-1.4,1.13-1.68-.1.3-.21.6-.3.9s-.28,1,0,1.26.62-.48,1.11-.41c.29.31.15.82.48,1.15s.06.47-.19.56c-1.64.61-1.31,2-1.19,3.2C192.24,774.34,192.53,774.94,191.58,775Z" transform="translate(-128.24 -741)"/><path class="cls-75" d="M191.33,766.8c0,.75-.61,1.06-1.17,1.34-.34.17-.72.21-.84-.29,0-.2-.14-.52-.3-.42-1.12.78-1.43-.1-1.77-1-.37.65.06,1.32-.4,1.8,0-.28,0-.56,0-.83,0-1.38,0-1.39,1.24-.77a.78.78,0,0,0,1,0c.3-.26.65-.27.78.1C190.28,768,190.81,767.17,191.33,766.8Z" transform="translate(-128.24 -741)"/><path class="cls-76" d="M186.33,775l-.44,1.17c1.18-1.23,2.26-.53,3.31-.48.41.35.31.68-.08,1s-.58-.07-.77-.3a1.61,1.61,0,0,0-1.63-.4c-.37.06-.77.76-1.07.13S185.88,775.26,186.33,775Z" transform="translate(-128.24 -741)"/><path class="cls-76" d="M189.2,775.71c-.45-.41-.18-.9.18-.87,1.11.09,1.07-.67,1.12-1.53.48.41.68.74.6,1.21-.36.31-.53,1-1.28.59C189.37,774.89,189.29,775.38,189.2,775.71Z" transform="translate(-128.24 -741)"/><path class="cls-77" d="M186,770c.21.73,1.09,1.43.08,2.2-.09-.44.17-.89-.47-1.28S185.71,770.21,186,770Z" transform="translate(-128.24 -741)"/><path class="cls-75" d="M193.07,766.82c-.14-.77-1.35-.71-1.25-1.65.48.24.75,1,1.5.6a.25.25,0,0,1,.32.25C193.58,766.36,193.49,766.72,193.07,766.82Z" transform="translate(-128.24 -741)"/><path class="cls-75" d="M191.83,765.18c-.21-.07-.54-.75-.54.11,0,.26,0,.53,0,.79a1,1,0,0,1-.25-.87c0-.33-.15-.86.28-.9S191.86,764.77,191.83,765.18Z" transform="translate(-128.24 -741)"/><path class="cls-76" d="M189,768.71a3.64,3.64,0,0,0-1.7.21C187.72,768.06,188.3,768.09,189,768.71Z" transform="translate(-128.24 -741)"/></svg>