<svg id="Capa_1" data-name="Capa 1" xmlns="http://www.w3.org/2000/svg" viewBox="0 0 700.01 700"><path d="M455.33,1074.1c-8.51-4.38-50.94-25.16-58.83-28-7.89-3-13.67-4.37-19.37,4.38s-22.19,28-27.34,33.82-10.08,6.49-18.6,2.19c-50.62-25.31-83.83-45.16-117.19-102.42-8.82-15.24,8.83-14.14,25.32-47,2.81-5.78,1.4-10.71-.78-15.08S219.16,875.27,212,858c-6.95-16.8-14.14-14.46-19.37-14.77-5-.31-10.71-.31-16.49-.31s-15.07,2.18-23,10.7S123,883.16,123,925.51s30.86,83.35,35.08,89.14c4.37,5.78,60.7,92.65,147.18,130.07,54.69,23.6,76.1,25.63,103.44,21.57,16.64-2.5,50.94-20.78,58.05-41s7.11-37.42,5-41c-2.11-3.83-7.89-6-16.41-10.16Z" transform="translate(52.09 -655.43)"/><path d="M620.72,869.8A349.48,349.48,0,0,0,297.91,655.43h-1.56A350.15,350.15,0,0,0-14.59,1163.24V1282a36,36,0,0,0,35.94,35.94H140.18a351.23,351.23,0,0,0,156.17,37.5H298a348.79,348.79,0,0,0,246.48-101.17A351.27,351.27,0,0,0,620.72,869.8ZM502.68,1212a289.11,289.11,0,0,1-204.77,84.06h-1.33a291.6,291.6,0,0,1-135.23-34l-6.56-3.52h-110v-110L41.27,1142a291.63,291.63,0,0,1-34-135.23c-.32-77.9,29.45-151,84.06-206.1s127.42-85.55,205.31-85.86H298a290.31,290.31,0,0,1,290.7,292c-.47,77.81-31,150.7-86,205.23Z" transform="translate(52.09 -655.43)"/></svg>